M48
; DRILL file {KiCad (6.0.6)} date Tue Aug 23 10:26:55 2022
; FORMAT={-:-/ absolute / metric / decimal}
; #@! TF.CreationDate,2022-08-23T10:26:55-07:00
; #@! TF.GenerationSoftware,Kicad,Pcbnew,(6.0.6)
; #@! TF.FileFunction,NonPlated,1,4,NPTH
FMAT,2
METRIC
; #@! TA.AperFunction,NonPlated,NPTH,ComponentDrill
T1C0.500
%
G90
G05
T1
X20.532Y-20.3
X20.532Y-43.5
X21.365Y-20.3
X21.365Y-43.5
X22.198Y-20.3
X22.198Y-43.5
X23.032Y-20.3
X23.032Y-43.5
X23.865Y-20.3
X23.865Y-43.5
X24.698Y-20.3
X24.698Y-43.5
X25.532Y-20.3
X25.532Y-43.5
X38.934Y-20.3
X38.934Y-43.5
X39.767Y-20.3
X39.767Y-43.5
X40.6Y-20.3
X40.6Y-43.5
X41.434Y-20.3
X41.434Y-43.5
X42.267Y-20.3
X42.267Y-43.5
X43.1Y-20.3
X43.1Y-43.5
X43.934Y-20.3
X43.934Y-43.5
X57.336Y-20.3
X57.336Y-43.5
X58.169Y-20.3
X58.169Y-43.5
X59.002Y-20.3
X59.002Y-43.5
X59.836Y-20.3
X59.836Y-43.5
X60.669Y-20.3
X60.669Y-43.5
X61.502Y-20.3
X61.502Y-43.5
X62.336Y-20.3
X62.336Y-43.5
X75.738Y-20.3
X75.738Y-43.5
X76.571Y-20.3
X76.571Y-43.5
X77.404Y-20.3
X77.404Y-43.5
X78.238Y-20.3
X78.238Y-43.5
X79.071Y-20.3
X79.071Y-43.5
X79.904Y-20.3
X79.904Y-43.5
X80.738Y-20.3
X80.738Y-43.5
T0
M30
