G04 #@! TF.GenerationSoftware,KiCad,Pcbnew,(6.0.6)*
G04 #@! TF.CreationDate,2022-08-31T11:07:13-07:00*
G04 #@! TF.ProjectId,kikit_panel,6b696b69-745f-4706-916e-656c2e6b6963,rev?*
G04 #@! TF.SameCoordinates,Original*
G04 #@! TF.FileFunction,Legend,Bot*
G04 #@! TF.FilePolarity,Positive*
%FSLAX46Y46*%
G04 Gerber Fmt 4.6, Leading zero omitted, Abs format (unit mm)*
G04 Created by KiCad (PCBNEW (6.0.6)) date 2022-08-31 11:07:13*
%MOMM*%
%LPD*%
G01*
G04 APERTURE LIST*
%ADD10C,0.152400*%
%ADD11C,0.500000*%
%ADD12C,1.200000*%
%ADD13R,1.200000X1.200000*%
%ADD14C,2.000000*%
G04 APERTURE END LIST*
D10*
X37250583Y-32236261D02*
X37462250Y-31933880D01*
X37613440Y-32236261D02*
X37613440Y-31601261D01*
X37371536Y-31601261D01*
X37311060Y-31631500D01*
X37280821Y-31661738D01*
X37250583Y-31722214D01*
X37250583Y-31812928D01*
X37280821Y-31873404D01*
X37311060Y-31903642D01*
X37371536Y-31933880D01*
X37613440Y-31933880D01*
X37008679Y-32206023D02*
X36917964Y-32236261D01*
X36766774Y-32236261D01*
X36706298Y-32206023D01*
X36676060Y-32175785D01*
X36645821Y-32115309D01*
X36645821Y-32054833D01*
X36676060Y-31994357D01*
X36706298Y-31964119D01*
X36766774Y-31933880D01*
X36887726Y-31903642D01*
X36948202Y-31873404D01*
X36978440Y-31843166D01*
X37008679Y-31782690D01*
X37008679Y-31722214D01*
X36978440Y-31661738D01*
X36948202Y-31631500D01*
X36887726Y-31601261D01*
X36736536Y-31601261D01*
X36645821Y-31631500D01*
X36464393Y-31601261D02*
X36101536Y-31601261D01*
X36282964Y-32236261D02*
X36282964Y-31601261D01*
X55652583Y-32236261D02*
X55864250Y-31933880D01*
X56015440Y-32236261D02*
X56015440Y-31601261D01*
X55773536Y-31601261D01*
X55713060Y-31631500D01*
X55682821Y-31661738D01*
X55652583Y-31722214D01*
X55652583Y-31812928D01*
X55682821Y-31873404D01*
X55713060Y-31903642D01*
X55773536Y-31933880D01*
X56015440Y-31933880D01*
X55410679Y-32206023D02*
X55319964Y-32236261D01*
X55168774Y-32236261D01*
X55108298Y-32206023D01*
X55078060Y-32175785D01*
X55047821Y-32115309D01*
X55047821Y-32054833D01*
X55078060Y-31994357D01*
X55108298Y-31964119D01*
X55168774Y-31933880D01*
X55289726Y-31903642D01*
X55350202Y-31873404D01*
X55380440Y-31843166D01*
X55410679Y-31782690D01*
X55410679Y-31722214D01*
X55380440Y-31661738D01*
X55350202Y-31631500D01*
X55289726Y-31601261D01*
X55138536Y-31601261D01*
X55047821Y-31631500D01*
X54866393Y-31601261D02*
X54503536Y-31601261D01*
X54684964Y-32236261D02*
X54684964Y-31601261D01*
X18848583Y-32236261D02*
X19060250Y-31933880D01*
X19211440Y-32236261D02*
X19211440Y-31601261D01*
X18969536Y-31601261D01*
X18909060Y-31631500D01*
X18878821Y-31661738D01*
X18848583Y-31722214D01*
X18848583Y-31812928D01*
X18878821Y-31873404D01*
X18909060Y-31903642D01*
X18969536Y-31933880D01*
X19211440Y-31933880D01*
X18606679Y-32206023D02*
X18515964Y-32236261D01*
X18364774Y-32236261D01*
X18304298Y-32206023D01*
X18274060Y-32175785D01*
X18243821Y-32115309D01*
X18243821Y-32054833D01*
X18274060Y-31994357D01*
X18304298Y-31964119D01*
X18364774Y-31933880D01*
X18485726Y-31903642D01*
X18546202Y-31873404D01*
X18576440Y-31843166D01*
X18606679Y-31782690D01*
X18606679Y-31722214D01*
X18576440Y-31661738D01*
X18546202Y-31631500D01*
X18485726Y-31601261D01*
X18334536Y-31601261D01*
X18243821Y-31631500D01*
X18062393Y-31601261D02*
X17699536Y-31601261D01*
X17880964Y-32236261D02*
X17880964Y-31601261D01*
X74054583Y-32236261D02*
X74266250Y-31933880D01*
X74417440Y-32236261D02*
X74417440Y-31601261D01*
X74175536Y-31601261D01*
X74115060Y-31631500D01*
X74084821Y-31661738D01*
X74054583Y-31722214D01*
X74054583Y-31812928D01*
X74084821Y-31873404D01*
X74115060Y-31903642D01*
X74175536Y-31933880D01*
X74417440Y-31933880D01*
X73812679Y-32206023D02*
X73721964Y-32236261D01*
X73570774Y-32236261D01*
X73510298Y-32206023D01*
X73480060Y-32175785D01*
X73449821Y-32115309D01*
X73449821Y-32054833D01*
X73480060Y-31994357D01*
X73510298Y-31964119D01*
X73570774Y-31933880D01*
X73691726Y-31903642D01*
X73752202Y-31873404D01*
X73782440Y-31843166D01*
X73812679Y-31782690D01*
X73812679Y-31722214D01*
X73782440Y-31661738D01*
X73752202Y-31631500D01*
X73691726Y-31601261D01*
X73540536Y-31601261D01*
X73449821Y-31631500D01*
X73268393Y-31601261D02*
X72905536Y-31601261D01*
X73086964Y-32236261D02*
X73086964Y-31601261D01*
X55041774Y-30143785D02*
X55072012Y-30174023D01*
X55162726Y-30204261D01*
X55223202Y-30204261D01*
X55313917Y-30174023D01*
X55374393Y-30113547D01*
X55404631Y-30053071D01*
X55434869Y-29932119D01*
X55434869Y-29841404D01*
X55404631Y-29720452D01*
X55374393Y-29659976D01*
X55313917Y-29599500D01*
X55223202Y-29569261D01*
X55162726Y-29569261D01*
X55072012Y-29599500D01*
X55041774Y-29629738D01*
X54799869Y-30174023D02*
X54709155Y-30204261D01*
X54557964Y-30204261D01*
X54497488Y-30174023D01*
X54467250Y-30143785D01*
X54437012Y-30083309D01*
X54437012Y-30022833D01*
X54467250Y-29962357D01*
X54497488Y-29932119D01*
X54557964Y-29901880D01*
X54678917Y-29871642D01*
X54739393Y-29841404D01*
X54769631Y-29811166D01*
X54799869Y-29750690D01*
X54799869Y-29690214D01*
X54769631Y-29629738D01*
X54739393Y-29599500D01*
X54678917Y-29569261D01*
X54527726Y-29569261D01*
X54437012Y-29599500D01*
X73443774Y-30143785D02*
X73474012Y-30174023D01*
X73564726Y-30204261D01*
X73625202Y-30204261D01*
X73715917Y-30174023D01*
X73776393Y-30113547D01*
X73806631Y-30053071D01*
X73836869Y-29932119D01*
X73836869Y-29841404D01*
X73806631Y-29720452D01*
X73776393Y-29659976D01*
X73715917Y-29599500D01*
X73625202Y-29569261D01*
X73564726Y-29569261D01*
X73474012Y-29599500D01*
X73443774Y-29629738D01*
X73201869Y-30174023D02*
X73111155Y-30204261D01*
X72959964Y-30204261D01*
X72899488Y-30174023D01*
X72869250Y-30143785D01*
X72839012Y-30083309D01*
X72839012Y-30022833D01*
X72869250Y-29962357D01*
X72899488Y-29932119D01*
X72959964Y-29901880D01*
X73080917Y-29871642D01*
X73141393Y-29841404D01*
X73171631Y-29811166D01*
X73201869Y-29750690D01*
X73201869Y-29690214D01*
X73171631Y-29629738D01*
X73141393Y-29599500D01*
X73080917Y-29569261D01*
X72929726Y-29569261D01*
X72839012Y-29599500D01*
X18237774Y-30143785D02*
X18268012Y-30174023D01*
X18358726Y-30204261D01*
X18419202Y-30204261D01*
X18509917Y-30174023D01*
X18570393Y-30113547D01*
X18600631Y-30053071D01*
X18630869Y-29932119D01*
X18630869Y-29841404D01*
X18600631Y-29720452D01*
X18570393Y-29659976D01*
X18509917Y-29599500D01*
X18419202Y-29569261D01*
X18358726Y-29569261D01*
X18268012Y-29599500D01*
X18237774Y-29629738D01*
X17995869Y-30174023D02*
X17905155Y-30204261D01*
X17753964Y-30204261D01*
X17693488Y-30174023D01*
X17663250Y-30143785D01*
X17633012Y-30083309D01*
X17633012Y-30022833D01*
X17663250Y-29962357D01*
X17693488Y-29932119D01*
X17753964Y-29901880D01*
X17874917Y-29871642D01*
X17935393Y-29841404D01*
X17965631Y-29811166D01*
X17995869Y-29750690D01*
X17995869Y-29690214D01*
X17965631Y-29629738D01*
X17935393Y-29599500D01*
X17874917Y-29569261D01*
X17723726Y-29569261D01*
X17633012Y-29599500D01*
X36639774Y-30143785D02*
X36670012Y-30174023D01*
X36760726Y-30204261D01*
X36821202Y-30204261D01*
X36911917Y-30174023D01*
X36972393Y-30113547D01*
X37002631Y-30053071D01*
X37032869Y-29932119D01*
X37032869Y-29841404D01*
X37002631Y-29720452D01*
X36972393Y-29659976D01*
X36911917Y-29599500D01*
X36821202Y-29569261D01*
X36760726Y-29569261D01*
X36670012Y-29599500D01*
X36639774Y-29629738D01*
X36397869Y-30174023D02*
X36307155Y-30204261D01*
X36155964Y-30204261D01*
X36095488Y-30174023D01*
X36065250Y-30143785D01*
X36035012Y-30083309D01*
X36035012Y-30022833D01*
X36065250Y-29962357D01*
X36095488Y-29932119D01*
X36155964Y-29901880D01*
X36276917Y-29871642D01*
X36337393Y-29841404D01*
X36367631Y-29811166D01*
X36397869Y-29750690D01*
X36397869Y-29690214D01*
X36367631Y-29629738D01*
X36337393Y-29599500D01*
X36276917Y-29569261D01*
X36125726Y-29569261D01*
X36035012Y-29599500D01*
X37667869Y-28142023D02*
X37577155Y-28172261D01*
X37425964Y-28172261D01*
X37365488Y-28142023D01*
X37335250Y-28111785D01*
X37305012Y-28051309D01*
X37305012Y-27990833D01*
X37335250Y-27930357D01*
X37365488Y-27900119D01*
X37425964Y-27869880D01*
X37546917Y-27839642D01*
X37607393Y-27809404D01*
X37637631Y-27779166D01*
X37667869Y-27718690D01*
X37667869Y-27658214D01*
X37637631Y-27597738D01*
X37607393Y-27567500D01*
X37546917Y-27537261D01*
X37395726Y-27537261D01*
X37305012Y-27567500D01*
X36670012Y-28111785D02*
X36700250Y-28142023D01*
X36790964Y-28172261D01*
X36851440Y-28172261D01*
X36942155Y-28142023D01*
X37002631Y-28081547D01*
X37032869Y-28021071D01*
X37063107Y-27900119D01*
X37063107Y-27809404D01*
X37032869Y-27688452D01*
X37002631Y-27627976D01*
X36942155Y-27567500D01*
X36851440Y-27537261D01*
X36790964Y-27537261D01*
X36700250Y-27567500D01*
X36670012Y-27597738D01*
X36397869Y-28172261D02*
X36397869Y-27537261D01*
X36035012Y-28172261D02*
X36307155Y-27809404D01*
X36035012Y-27537261D02*
X36397869Y-27900119D01*
X19265869Y-28142023D02*
X19175155Y-28172261D01*
X19023964Y-28172261D01*
X18963488Y-28142023D01*
X18933250Y-28111785D01*
X18903012Y-28051309D01*
X18903012Y-27990833D01*
X18933250Y-27930357D01*
X18963488Y-27900119D01*
X19023964Y-27869880D01*
X19144917Y-27839642D01*
X19205393Y-27809404D01*
X19235631Y-27779166D01*
X19265869Y-27718690D01*
X19265869Y-27658214D01*
X19235631Y-27597738D01*
X19205393Y-27567500D01*
X19144917Y-27537261D01*
X18993726Y-27537261D01*
X18903012Y-27567500D01*
X18268012Y-28111785D02*
X18298250Y-28142023D01*
X18388964Y-28172261D01*
X18449440Y-28172261D01*
X18540155Y-28142023D01*
X18600631Y-28081547D01*
X18630869Y-28021071D01*
X18661107Y-27900119D01*
X18661107Y-27809404D01*
X18630869Y-27688452D01*
X18600631Y-27627976D01*
X18540155Y-27567500D01*
X18449440Y-27537261D01*
X18388964Y-27537261D01*
X18298250Y-27567500D01*
X18268012Y-27597738D01*
X17995869Y-28172261D02*
X17995869Y-27537261D01*
X17633012Y-28172261D02*
X17905155Y-27809404D01*
X17633012Y-27537261D02*
X17995869Y-27900119D01*
X56069869Y-28142023D02*
X55979155Y-28172261D01*
X55827964Y-28172261D01*
X55767488Y-28142023D01*
X55737250Y-28111785D01*
X55707012Y-28051309D01*
X55707012Y-27990833D01*
X55737250Y-27930357D01*
X55767488Y-27900119D01*
X55827964Y-27869880D01*
X55948917Y-27839642D01*
X56009393Y-27809404D01*
X56039631Y-27779166D01*
X56069869Y-27718690D01*
X56069869Y-27658214D01*
X56039631Y-27597738D01*
X56009393Y-27567500D01*
X55948917Y-27537261D01*
X55797726Y-27537261D01*
X55707012Y-27567500D01*
X55072012Y-28111785D02*
X55102250Y-28142023D01*
X55192964Y-28172261D01*
X55253440Y-28172261D01*
X55344155Y-28142023D01*
X55404631Y-28081547D01*
X55434869Y-28021071D01*
X55465107Y-27900119D01*
X55465107Y-27809404D01*
X55434869Y-27688452D01*
X55404631Y-27627976D01*
X55344155Y-27567500D01*
X55253440Y-27537261D01*
X55192964Y-27537261D01*
X55102250Y-27567500D01*
X55072012Y-27597738D01*
X54799869Y-28172261D02*
X54799869Y-27537261D01*
X54437012Y-28172261D02*
X54709155Y-27809404D01*
X54437012Y-27537261D02*
X54799869Y-27900119D01*
X74471869Y-28142023D02*
X74381155Y-28172261D01*
X74229964Y-28172261D01*
X74169488Y-28142023D01*
X74139250Y-28111785D01*
X74109012Y-28051309D01*
X74109012Y-27990833D01*
X74139250Y-27930357D01*
X74169488Y-27900119D01*
X74229964Y-27869880D01*
X74350917Y-27839642D01*
X74411393Y-27809404D01*
X74441631Y-27779166D01*
X74471869Y-27718690D01*
X74471869Y-27658214D01*
X74441631Y-27597738D01*
X74411393Y-27567500D01*
X74350917Y-27537261D01*
X74199726Y-27537261D01*
X74109012Y-27567500D01*
X73474012Y-28111785D02*
X73504250Y-28142023D01*
X73594964Y-28172261D01*
X73655440Y-28172261D01*
X73746155Y-28142023D01*
X73806631Y-28081547D01*
X73836869Y-28021071D01*
X73867107Y-27900119D01*
X73867107Y-27809404D01*
X73836869Y-27688452D01*
X73806631Y-27627976D01*
X73746155Y-27567500D01*
X73655440Y-27537261D01*
X73594964Y-27537261D01*
X73504250Y-27567500D01*
X73474012Y-27597738D01*
X73201869Y-28172261D02*
X73201869Y-27537261D01*
X72839012Y-28172261D02*
X73111155Y-27809404D01*
X72839012Y-27537261D02*
X73201869Y-27900119D01*
X38060964Y-26267261D02*
X38060964Y-25632261D01*
X37849298Y-26085833D01*
X37637631Y-25632261D01*
X37637631Y-26267261D01*
X37214298Y-25632261D02*
X37093345Y-25632261D01*
X37032869Y-25662500D01*
X36972393Y-25722976D01*
X36942155Y-25843928D01*
X36942155Y-26055595D01*
X36972393Y-26176547D01*
X37032869Y-26237023D01*
X37093345Y-26267261D01*
X37214298Y-26267261D01*
X37274774Y-26237023D01*
X37335250Y-26176547D01*
X37365488Y-26055595D01*
X37365488Y-25843928D01*
X37335250Y-25722976D01*
X37274774Y-25662500D01*
X37214298Y-25632261D01*
X36700250Y-26237023D02*
X36609536Y-26267261D01*
X36458345Y-26267261D01*
X36397869Y-26237023D01*
X36367631Y-26206785D01*
X36337393Y-26146309D01*
X36337393Y-26085833D01*
X36367631Y-26025357D01*
X36397869Y-25995119D01*
X36458345Y-25964880D01*
X36579298Y-25934642D01*
X36639774Y-25904404D01*
X36670012Y-25874166D01*
X36700250Y-25813690D01*
X36700250Y-25753214D01*
X36670012Y-25692738D01*
X36639774Y-25662500D01*
X36579298Y-25632261D01*
X36428107Y-25632261D01*
X36337393Y-25662500D01*
X36065250Y-26267261D02*
X36065250Y-25632261D01*
X56462964Y-26267261D02*
X56462964Y-25632261D01*
X56251298Y-26085833D01*
X56039631Y-25632261D01*
X56039631Y-26267261D01*
X55616298Y-25632261D02*
X55495345Y-25632261D01*
X55434869Y-25662500D01*
X55374393Y-25722976D01*
X55344155Y-25843928D01*
X55344155Y-26055595D01*
X55374393Y-26176547D01*
X55434869Y-26237023D01*
X55495345Y-26267261D01*
X55616298Y-26267261D01*
X55676774Y-26237023D01*
X55737250Y-26176547D01*
X55767488Y-26055595D01*
X55767488Y-25843928D01*
X55737250Y-25722976D01*
X55676774Y-25662500D01*
X55616298Y-25632261D01*
X55102250Y-26237023D02*
X55011536Y-26267261D01*
X54860345Y-26267261D01*
X54799869Y-26237023D01*
X54769631Y-26206785D01*
X54739393Y-26146309D01*
X54739393Y-26085833D01*
X54769631Y-26025357D01*
X54799869Y-25995119D01*
X54860345Y-25964880D01*
X54981298Y-25934642D01*
X55041774Y-25904404D01*
X55072012Y-25874166D01*
X55102250Y-25813690D01*
X55102250Y-25753214D01*
X55072012Y-25692738D01*
X55041774Y-25662500D01*
X54981298Y-25632261D01*
X54830107Y-25632261D01*
X54739393Y-25662500D01*
X54467250Y-26267261D02*
X54467250Y-25632261D01*
X74864964Y-26267261D02*
X74864964Y-25632261D01*
X74653298Y-26085833D01*
X74441631Y-25632261D01*
X74441631Y-26267261D01*
X74018298Y-25632261D02*
X73897345Y-25632261D01*
X73836869Y-25662500D01*
X73776393Y-25722976D01*
X73746155Y-25843928D01*
X73746155Y-26055595D01*
X73776393Y-26176547D01*
X73836869Y-26237023D01*
X73897345Y-26267261D01*
X74018298Y-26267261D01*
X74078774Y-26237023D01*
X74139250Y-26176547D01*
X74169488Y-26055595D01*
X74169488Y-25843928D01*
X74139250Y-25722976D01*
X74078774Y-25662500D01*
X74018298Y-25632261D01*
X73504250Y-26237023D02*
X73413536Y-26267261D01*
X73262345Y-26267261D01*
X73201869Y-26237023D01*
X73171631Y-26206785D01*
X73141393Y-26146309D01*
X73141393Y-26085833D01*
X73171631Y-26025357D01*
X73201869Y-25995119D01*
X73262345Y-25964880D01*
X73383298Y-25934642D01*
X73443774Y-25904404D01*
X73474012Y-25874166D01*
X73504250Y-25813690D01*
X73504250Y-25753214D01*
X73474012Y-25692738D01*
X73443774Y-25662500D01*
X73383298Y-25632261D01*
X73232107Y-25632261D01*
X73141393Y-25662500D01*
X72869250Y-26267261D02*
X72869250Y-25632261D01*
X19658964Y-26267261D02*
X19658964Y-25632261D01*
X19447298Y-26085833D01*
X19235631Y-25632261D01*
X19235631Y-26267261D01*
X18812298Y-25632261D02*
X18691345Y-25632261D01*
X18630869Y-25662500D01*
X18570393Y-25722976D01*
X18540155Y-25843928D01*
X18540155Y-26055595D01*
X18570393Y-26176547D01*
X18630869Y-26237023D01*
X18691345Y-26267261D01*
X18812298Y-26267261D01*
X18872774Y-26237023D01*
X18933250Y-26176547D01*
X18963488Y-26055595D01*
X18963488Y-25843928D01*
X18933250Y-25722976D01*
X18872774Y-25662500D01*
X18812298Y-25632261D01*
X18298250Y-26237023D02*
X18207536Y-26267261D01*
X18056345Y-26267261D01*
X17995869Y-26237023D01*
X17965631Y-26206785D01*
X17935393Y-26146309D01*
X17935393Y-26085833D01*
X17965631Y-26025357D01*
X17995869Y-25995119D01*
X18056345Y-25964880D01*
X18177298Y-25934642D01*
X18237774Y-25904404D01*
X18268012Y-25874166D01*
X18298250Y-25813690D01*
X18298250Y-25753214D01*
X18268012Y-25692738D01*
X18237774Y-25662500D01*
X18177298Y-25632261D01*
X18026107Y-25632261D01*
X17935393Y-25662500D01*
X17663250Y-26267261D02*
X17663250Y-25632261D01*
X19658964Y-24235261D02*
X19658964Y-23600261D01*
X19447298Y-24053833D01*
X19235631Y-23600261D01*
X19235631Y-24235261D01*
X18933250Y-24235261D02*
X18933250Y-23600261D01*
X18661107Y-24205023D02*
X18570393Y-24235261D01*
X18419202Y-24235261D01*
X18358726Y-24205023D01*
X18328488Y-24174785D01*
X18298250Y-24114309D01*
X18298250Y-24053833D01*
X18328488Y-23993357D01*
X18358726Y-23963119D01*
X18419202Y-23932880D01*
X18540155Y-23902642D01*
X18600631Y-23872404D01*
X18630869Y-23842166D01*
X18661107Y-23781690D01*
X18661107Y-23721214D01*
X18630869Y-23660738D01*
X18600631Y-23630500D01*
X18540155Y-23600261D01*
X18388964Y-23600261D01*
X18298250Y-23630500D01*
X17905155Y-23600261D02*
X17784202Y-23600261D01*
X17723726Y-23630500D01*
X17663250Y-23690976D01*
X17633012Y-23811928D01*
X17633012Y-24023595D01*
X17663250Y-24144547D01*
X17723726Y-24205023D01*
X17784202Y-24235261D01*
X17905155Y-24235261D01*
X17965631Y-24205023D01*
X18026107Y-24144547D01*
X18056345Y-24023595D01*
X18056345Y-23811928D01*
X18026107Y-23690976D01*
X17965631Y-23630500D01*
X17905155Y-23600261D01*
X56462964Y-24235261D02*
X56462964Y-23600261D01*
X56251298Y-24053833D01*
X56039631Y-23600261D01*
X56039631Y-24235261D01*
X55737250Y-24235261D02*
X55737250Y-23600261D01*
X55465107Y-24205023D02*
X55374393Y-24235261D01*
X55223202Y-24235261D01*
X55162726Y-24205023D01*
X55132488Y-24174785D01*
X55102250Y-24114309D01*
X55102250Y-24053833D01*
X55132488Y-23993357D01*
X55162726Y-23963119D01*
X55223202Y-23932880D01*
X55344155Y-23902642D01*
X55404631Y-23872404D01*
X55434869Y-23842166D01*
X55465107Y-23781690D01*
X55465107Y-23721214D01*
X55434869Y-23660738D01*
X55404631Y-23630500D01*
X55344155Y-23600261D01*
X55192964Y-23600261D01*
X55102250Y-23630500D01*
X54709155Y-23600261D02*
X54588202Y-23600261D01*
X54527726Y-23630500D01*
X54467250Y-23690976D01*
X54437012Y-23811928D01*
X54437012Y-24023595D01*
X54467250Y-24144547D01*
X54527726Y-24205023D01*
X54588202Y-24235261D01*
X54709155Y-24235261D01*
X54769631Y-24205023D01*
X54830107Y-24144547D01*
X54860345Y-24023595D01*
X54860345Y-23811928D01*
X54830107Y-23690976D01*
X54769631Y-23630500D01*
X54709155Y-23600261D01*
X74864964Y-24235261D02*
X74864964Y-23600261D01*
X74653298Y-24053833D01*
X74441631Y-23600261D01*
X74441631Y-24235261D01*
X74139250Y-24235261D02*
X74139250Y-23600261D01*
X73867107Y-24205023D02*
X73776393Y-24235261D01*
X73625202Y-24235261D01*
X73564726Y-24205023D01*
X73534488Y-24174785D01*
X73504250Y-24114309D01*
X73504250Y-24053833D01*
X73534488Y-23993357D01*
X73564726Y-23963119D01*
X73625202Y-23932880D01*
X73746155Y-23902642D01*
X73806631Y-23872404D01*
X73836869Y-23842166D01*
X73867107Y-23781690D01*
X73867107Y-23721214D01*
X73836869Y-23660738D01*
X73806631Y-23630500D01*
X73746155Y-23600261D01*
X73594964Y-23600261D01*
X73504250Y-23630500D01*
X73111155Y-23600261D02*
X72990202Y-23600261D01*
X72929726Y-23630500D01*
X72869250Y-23690976D01*
X72839012Y-23811928D01*
X72839012Y-24023595D01*
X72869250Y-24144547D01*
X72929726Y-24205023D01*
X72990202Y-24235261D01*
X73111155Y-24235261D01*
X73171631Y-24205023D01*
X73232107Y-24144547D01*
X73262345Y-24023595D01*
X73262345Y-23811928D01*
X73232107Y-23690976D01*
X73171631Y-23630500D01*
X73111155Y-23600261D01*
X38060964Y-24235261D02*
X38060964Y-23600261D01*
X37849298Y-24053833D01*
X37637631Y-23600261D01*
X37637631Y-24235261D01*
X37335250Y-24235261D02*
X37335250Y-23600261D01*
X37063107Y-24205023D02*
X36972393Y-24235261D01*
X36821202Y-24235261D01*
X36760726Y-24205023D01*
X36730488Y-24174785D01*
X36700250Y-24114309D01*
X36700250Y-24053833D01*
X36730488Y-23993357D01*
X36760726Y-23963119D01*
X36821202Y-23932880D01*
X36942155Y-23902642D01*
X37002631Y-23872404D01*
X37032869Y-23842166D01*
X37063107Y-23781690D01*
X37063107Y-23721214D01*
X37032869Y-23660738D01*
X37002631Y-23630500D01*
X36942155Y-23600261D01*
X36790964Y-23600261D01*
X36700250Y-23630500D01*
X36307155Y-23600261D02*
X36186202Y-23600261D01*
X36125726Y-23630500D01*
X36065250Y-23690976D01*
X36035012Y-23811928D01*
X36035012Y-24023595D01*
X36065250Y-24144547D01*
X36125726Y-24205023D01*
X36186202Y-24235261D01*
X36307155Y-24235261D01*
X36367631Y-24205023D01*
X36428107Y-24144547D01*
X36458345Y-24023595D01*
X36458345Y-23811928D01*
X36428107Y-23690976D01*
X36367631Y-23630500D01*
X36307155Y-23600261D01*
X74169488Y-21598500D02*
X74229964Y-21568261D01*
X74320679Y-21568261D01*
X74411393Y-21598500D01*
X74471869Y-21658976D01*
X74502107Y-21719452D01*
X74532345Y-21840404D01*
X74532345Y-21931119D01*
X74502107Y-22052071D01*
X74471869Y-22112547D01*
X74411393Y-22173023D01*
X74320679Y-22203261D01*
X74260202Y-22203261D01*
X74169488Y-22173023D01*
X74139250Y-22142785D01*
X74139250Y-21931119D01*
X74260202Y-21931119D01*
X73867107Y-22203261D02*
X73867107Y-21568261D01*
X73504250Y-22203261D01*
X73504250Y-21568261D01*
X73201869Y-22203261D02*
X73201869Y-21568261D01*
X73050679Y-21568261D01*
X72959964Y-21598500D01*
X72899488Y-21658976D01*
X72869250Y-21719452D01*
X72839012Y-21840404D01*
X72839012Y-21931119D01*
X72869250Y-22052071D01*
X72899488Y-22112547D01*
X72959964Y-22173023D01*
X73050679Y-22203261D01*
X73201869Y-22203261D01*
X37365488Y-21598500D02*
X37425964Y-21568261D01*
X37516679Y-21568261D01*
X37607393Y-21598500D01*
X37667869Y-21658976D01*
X37698107Y-21719452D01*
X37728345Y-21840404D01*
X37728345Y-21931119D01*
X37698107Y-22052071D01*
X37667869Y-22112547D01*
X37607393Y-22173023D01*
X37516679Y-22203261D01*
X37456202Y-22203261D01*
X37365488Y-22173023D01*
X37335250Y-22142785D01*
X37335250Y-21931119D01*
X37456202Y-21931119D01*
X37063107Y-22203261D02*
X37063107Y-21568261D01*
X36700250Y-22203261D01*
X36700250Y-21568261D01*
X36397869Y-22203261D02*
X36397869Y-21568261D01*
X36246679Y-21568261D01*
X36155964Y-21598500D01*
X36095488Y-21658976D01*
X36065250Y-21719452D01*
X36035012Y-21840404D01*
X36035012Y-21931119D01*
X36065250Y-22052071D01*
X36095488Y-22112547D01*
X36155964Y-22173023D01*
X36246679Y-22203261D01*
X36397869Y-22203261D01*
X18963488Y-21598500D02*
X19023964Y-21568261D01*
X19114679Y-21568261D01*
X19205393Y-21598500D01*
X19265869Y-21658976D01*
X19296107Y-21719452D01*
X19326345Y-21840404D01*
X19326345Y-21931119D01*
X19296107Y-22052071D01*
X19265869Y-22112547D01*
X19205393Y-22173023D01*
X19114679Y-22203261D01*
X19054202Y-22203261D01*
X18963488Y-22173023D01*
X18933250Y-22142785D01*
X18933250Y-21931119D01*
X19054202Y-21931119D01*
X18661107Y-22203261D02*
X18661107Y-21568261D01*
X18298250Y-22203261D01*
X18298250Y-21568261D01*
X17995869Y-22203261D02*
X17995869Y-21568261D01*
X17844679Y-21568261D01*
X17753964Y-21598500D01*
X17693488Y-21658976D01*
X17663250Y-21719452D01*
X17633012Y-21840404D01*
X17633012Y-21931119D01*
X17663250Y-22052071D01*
X17693488Y-22112547D01*
X17753964Y-22173023D01*
X17844679Y-22203261D01*
X17995869Y-22203261D01*
X55767488Y-21598500D02*
X55827964Y-21568261D01*
X55918679Y-21568261D01*
X56009393Y-21598500D01*
X56069869Y-21658976D01*
X56100107Y-21719452D01*
X56130345Y-21840404D01*
X56130345Y-21931119D01*
X56100107Y-22052071D01*
X56069869Y-22112547D01*
X56009393Y-22173023D01*
X55918679Y-22203261D01*
X55858202Y-22203261D01*
X55767488Y-22173023D01*
X55737250Y-22142785D01*
X55737250Y-21931119D01*
X55858202Y-21931119D01*
X55465107Y-22203261D02*
X55465107Y-21568261D01*
X55102250Y-22203261D01*
X55102250Y-21568261D01*
X54799869Y-22203261D02*
X54799869Y-21568261D01*
X54648679Y-21568261D01*
X54557964Y-21598500D01*
X54497488Y-21658976D01*
X54467250Y-21719452D01*
X54437012Y-21840404D01*
X54437012Y-21931119D01*
X54467250Y-22052071D01*
X54497488Y-22112547D01*
X54557964Y-22173023D01*
X54648679Y-22203261D01*
X54799869Y-22203261D01*
X37365488Y-35568500D02*
X37425964Y-35538261D01*
X37516679Y-35538261D01*
X37607393Y-35568500D01*
X37667869Y-35628976D01*
X37698107Y-35689452D01*
X37728345Y-35810404D01*
X37728345Y-35901119D01*
X37698107Y-36022071D01*
X37667869Y-36082547D01*
X37607393Y-36143023D01*
X37516679Y-36173261D01*
X37456202Y-36173261D01*
X37365488Y-36143023D01*
X37335250Y-36112785D01*
X37335250Y-35901119D01*
X37456202Y-35901119D01*
X37063107Y-36173261D02*
X37063107Y-35538261D01*
X36700250Y-36173261D01*
X36700250Y-35538261D01*
X36397869Y-36173261D02*
X36397869Y-35538261D01*
X36246679Y-35538261D01*
X36155964Y-35568500D01*
X36095488Y-35628976D01*
X36065250Y-35689452D01*
X36035012Y-35810404D01*
X36035012Y-35901119D01*
X36065250Y-36022071D01*
X36095488Y-36082547D01*
X36155964Y-36143023D01*
X36246679Y-36173261D01*
X36397869Y-36173261D01*
X55767488Y-35568500D02*
X55827964Y-35538261D01*
X55918679Y-35538261D01*
X56009393Y-35568500D01*
X56069869Y-35628976D01*
X56100107Y-35689452D01*
X56130345Y-35810404D01*
X56130345Y-35901119D01*
X56100107Y-36022071D01*
X56069869Y-36082547D01*
X56009393Y-36143023D01*
X55918679Y-36173261D01*
X55858202Y-36173261D01*
X55767488Y-36143023D01*
X55737250Y-36112785D01*
X55737250Y-35901119D01*
X55858202Y-35901119D01*
X55465107Y-36173261D02*
X55465107Y-35538261D01*
X55102250Y-36173261D01*
X55102250Y-35538261D01*
X54799869Y-36173261D02*
X54799869Y-35538261D01*
X54648679Y-35538261D01*
X54557964Y-35568500D01*
X54497488Y-35628976D01*
X54467250Y-35689452D01*
X54437012Y-35810404D01*
X54437012Y-35901119D01*
X54467250Y-36022071D01*
X54497488Y-36082547D01*
X54557964Y-36143023D01*
X54648679Y-36173261D01*
X54799869Y-36173261D01*
X18963488Y-35568500D02*
X19023964Y-35538261D01*
X19114679Y-35538261D01*
X19205393Y-35568500D01*
X19265869Y-35628976D01*
X19296107Y-35689452D01*
X19326345Y-35810404D01*
X19326345Y-35901119D01*
X19296107Y-36022071D01*
X19265869Y-36082547D01*
X19205393Y-36143023D01*
X19114679Y-36173261D01*
X19054202Y-36173261D01*
X18963488Y-36143023D01*
X18933250Y-36112785D01*
X18933250Y-35901119D01*
X19054202Y-35901119D01*
X18661107Y-36173261D02*
X18661107Y-35538261D01*
X18298250Y-36173261D01*
X18298250Y-35538261D01*
X17995869Y-36173261D02*
X17995869Y-35538261D01*
X17844679Y-35538261D01*
X17753964Y-35568500D01*
X17693488Y-35628976D01*
X17663250Y-35689452D01*
X17633012Y-35810404D01*
X17633012Y-35901119D01*
X17663250Y-36022071D01*
X17693488Y-36082547D01*
X17753964Y-36143023D01*
X17844679Y-36173261D01*
X17995869Y-36173261D01*
X74169488Y-35568500D02*
X74229964Y-35538261D01*
X74320679Y-35538261D01*
X74411393Y-35568500D01*
X74471869Y-35628976D01*
X74502107Y-35689452D01*
X74532345Y-35810404D01*
X74532345Y-35901119D01*
X74502107Y-36022071D01*
X74471869Y-36082547D01*
X74411393Y-36143023D01*
X74320679Y-36173261D01*
X74260202Y-36173261D01*
X74169488Y-36143023D01*
X74139250Y-36112785D01*
X74139250Y-35901119D01*
X74260202Y-35901119D01*
X73867107Y-36173261D02*
X73867107Y-35538261D01*
X73504250Y-36173261D01*
X73504250Y-35538261D01*
X73201869Y-36173261D02*
X73201869Y-35538261D01*
X73050679Y-35538261D01*
X72959964Y-35568500D01*
X72899488Y-35628976D01*
X72869250Y-35689452D01*
X72839012Y-35810404D01*
X72839012Y-35901119D01*
X72869250Y-36022071D01*
X72899488Y-36082547D01*
X72959964Y-36143023D01*
X73050679Y-36173261D01*
X73201869Y-36173261D01*
X46740749Y-22203261D02*
X46740749Y-21568261D01*
X46589559Y-21568261D01*
X46498844Y-21598500D01*
X46438368Y-21658976D01*
X46408130Y-21719452D01*
X46377892Y-21840404D01*
X46377892Y-21931119D01*
X46408130Y-22052071D01*
X46438368Y-22112547D01*
X46498844Y-22173023D01*
X46589559Y-22203261D01*
X46740749Y-22203261D01*
X46105749Y-22203261D02*
X46105749Y-21568261D01*
X45682416Y-21568261D02*
X45561463Y-21568261D01*
X45500987Y-21598500D01*
X45440511Y-21658976D01*
X45410273Y-21779928D01*
X45410273Y-21991595D01*
X45440511Y-22112547D01*
X45500987Y-22173023D01*
X45561463Y-22203261D01*
X45682416Y-22203261D01*
X45742892Y-22173023D01*
X45803368Y-22112547D01*
X45833606Y-21991595D01*
X45833606Y-21779928D01*
X45803368Y-21658976D01*
X45742892Y-21598500D01*
X45682416Y-21568261D01*
X45168368Y-21628738D02*
X45138130Y-21598500D01*
X45077654Y-21568261D01*
X44926463Y-21568261D01*
X44865987Y-21598500D01*
X44835749Y-21628738D01*
X44805511Y-21689214D01*
X44805511Y-21749690D01*
X44835749Y-21840404D01*
X45198606Y-22203261D01*
X44805511Y-22203261D01*
X65142749Y-22203261D02*
X65142749Y-21568261D01*
X64991559Y-21568261D01*
X64900844Y-21598500D01*
X64840368Y-21658976D01*
X64810130Y-21719452D01*
X64779892Y-21840404D01*
X64779892Y-21931119D01*
X64810130Y-22052071D01*
X64840368Y-22112547D01*
X64900844Y-22173023D01*
X64991559Y-22203261D01*
X65142749Y-22203261D01*
X64507749Y-22203261D02*
X64507749Y-21568261D01*
X64084416Y-21568261D02*
X63963463Y-21568261D01*
X63902987Y-21598500D01*
X63842511Y-21658976D01*
X63812273Y-21779928D01*
X63812273Y-21991595D01*
X63842511Y-22112547D01*
X63902987Y-22173023D01*
X63963463Y-22203261D01*
X64084416Y-22203261D01*
X64144892Y-22173023D01*
X64205368Y-22112547D01*
X64235606Y-21991595D01*
X64235606Y-21779928D01*
X64205368Y-21658976D01*
X64144892Y-21598500D01*
X64084416Y-21568261D01*
X63570368Y-21628738D02*
X63540130Y-21598500D01*
X63479654Y-21568261D01*
X63328463Y-21568261D01*
X63267987Y-21598500D01*
X63237749Y-21628738D01*
X63207511Y-21689214D01*
X63207511Y-21749690D01*
X63237749Y-21840404D01*
X63600606Y-22203261D01*
X63207511Y-22203261D01*
X83544749Y-22203261D02*
X83544749Y-21568261D01*
X83393559Y-21568261D01*
X83302844Y-21598500D01*
X83242368Y-21658976D01*
X83212130Y-21719452D01*
X83181892Y-21840404D01*
X83181892Y-21931119D01*
X83212130Y-22052071D01*
X83242368Y-22112547D01*
X83302844Y-22173023D01*
X83393559Y-22203261D01*
X83544749Y-22203261D01*
X82909749Y-22203261D02*
X82909749Y-21568261D01*
X82486416Y-21568261D02*
X82365463Y-21568261D01*
X82304987Y-21598500D01*
X82244511Y-21658976D01*
X82214273Y-21779928D01*
X82214273Y-21991595D01*
X82244511Y-22112547D01*
X82304987Y-22173023D01*
X82365463Y-22203261D01*
X82486416Y-22203261D01*
X82546892Y-22173023D01*
X82607368Y-22112547D01*
X82637606Y-21991595D01*
X82637606Y-21779928D01*
X82607368Y-21658976D01*
X82546892Y-21598500D01*
X82486416Y-21568261D01*
X81972368Y-21628738D02*
X81942130Y-21598500D01*
X81881654Y-21568261D01*
X81730463Y-21568261D01*
X81669987Y-21598500D01*
X81639749Y-21628738D01*
X81609511Y-21689214D01*
X81609511Y-21749690D01*
X81639749Y-21840404D01*
X82002606Y-22203261D01*
X81609511Y-22203261D01*
X28338749Y-22203261D02*
X28338749Y-21568261D01*
X28187559Y-21568261D01*
X28096844Y-21598500D01*
X28036368Y-21658976D01*
X28006130Y-21719452D01*
X27975892Y-21840404D01*
X27975892Y-21931119D01*
X28006130Y-22052071D01*
X28036368Y-22112547D01*
X28096844Y-22173023D01*
X28187559Y-22203261D01*
X28338749Y-22203261D01*
X27703749Y-22203261D02*
X27703749Y-21568261D01*
X27280416Y-21568261D02*
X27159463Y-21568261D01*
X27098987Y-21598500D01*
X27038511Y-21658976D01*
X27008273Y-21779928D01*
X27008273Y-21991595D01*
X27038511Y-22112547D01*
X27098987Y-22173023D01*
X27159463Y-22203261D01*
X27280416Y-22203261D01*
X27340892Y-22173023D01*
X27401368Y-22112547D01*
X27431606Y-21991595D01*
X27431606Y-21779928D01*
X27401368Y-21658976D01*
X27340892Y-21598500D01*
X27280416Y-21568261D01*
X26766368Y-21628738D02*
X26736130Y-21598500D01*
X26675654Y-21568261D01*
X26524463Y-21568261D01*
X26463987Y-21598500D01*
X26433749Y-21628738D01*
X26403511Y-21689214D01*
X26403511Y-21749690D01*
X26433749Y-21840404D01*
X26796606Y-22203261D01*
X26403511Y-22203261D01*
X46740749Y-24235261D02*
X46740749Y-23600261D01*
X46589559Y-23600261D01*
X46498844Y-23630500D01*
X46438368Y-23690976D01*
X46408130Y-23751452D01*
X46377892Y-23872404D01*
X46377892Y-23963119D01*
X46408130Y-24084071D01*
X46438368Y-24144547D01*
X46498844Y-24205023D01*
X46589559Y-24235261D01*
X46740749Y-24235261D01*
X46105749Y-24235261D02*
X46105749Y-23600261D01*
X45682416Y-23600261D02*
X45561463Y-23600261D01*
X45500987Y-23630500D01*
X45440511Y-23690976D01*
X45410273Y-23811928D01*
X45410273Y-24023595D01*
X45440511Y-24144547D01*
X45500987Y-24205023D01*
X45561463Y-24235261D01*
X45682416Y-24235261D01*
X45742892Y-24205023D01*
X45803368Y-24144547D01*
X45833606Y-24023595D01*
X45833606Y-23811928D01*
X45803368Y-23690976D01*
X45742892Y-23630500D01*
X45682416Y-23600261D01*
X44805511Y-24235261D02*
X45168368Y-24235261D01*
X44986940Y-24235261D02*
X44986940Y-23600261D01*
X45047416Y-23690976D01*
X45107892Y-23751452D01*
X45168368Y-23781690D01*
X65142749Y-24235261D02*
X65142749Y-23600261D01*
X64991559Y-23600261D01*
X64900844Y-23630500D01*
X64840368Y-23690976D01*
X64810130Y-23751452D01*
X64779892Y-23872404D01*
X64779892Y-23963119D01*
X64810130Y-24084071D01*
X64840368Y-24144547D01*
X64900844Y-24205023D01*
X64991559Y-24235261D01*
X65142749Y-24235261D01*
X64507749Y-24235261D02*
X64507749Y-23600261D01*
X64084416Y-23600261D02*
X63963463Y-23600261D01*
X63902987Y-23630500D01*
X63842511Y-23690976D01*
X63812273Y-23811928D01*
X63812273Y-24023595D01*
X63842511Y-24144547D01*
X63902987Y-24205023D01*
X63963463Y-24235261D01*
X64084416Y-24235261D01*
X64144892Y-24205023D01*
X64205368Y-24144547D01*
X64235606Y-24023595D01*
X64235606Y-23811928D01*
X64205368Y-23690976D01*
X64144892Y-23630500D01*
X64084416Y-23600261D01*
X63207511Y-24235261D02*
X63570368Y-24235261D01*
X63388940Y-24235261D02*
X63388940Y-23600261D01*
X63449416Y-23690976D01*
X63509892Y-23751452D01*
X63570368Y-23781690D01*
X83544749Y-24235261D02*
X83544749Y-23600261D01*
X83393559Y-23600261D01*
X83302844Y-23630500D01*
X83242368Y-23690976D01*
X83212130Y-23751452D01*
X83181892Y-23872404D01*
X83181892Y-23963119D01*
X83212130Y-24084071D01*
X83242368Y-24144547D01*
X83302844Y-24205023D01*
X83393559Y-24235261D01*
X83544749Y-24235261D01*
X82909749Y-24235261D02*
X82909749Y-23600261D01*
X82486416Y-23600261D02*
X82365463Y-23600261D01*
X82304987Y-23630500D01*
X82244511Y-23690976D01*
X82214273Y-23811928D01*
X82214273Y-24023595D01*
X82244511Y-24144547D01*
X82304987Y-24205023D01*
X82365463Y-24235261D01*
X82486416Y-24235261D01*
X82546892Y-24205023D01*
X82607368Y-24144547D01*
X82637606Y-24023595D01*
X82637606Y-23811928D01*
X82607368Y-23690976D01*
X82546892Y-23630500D01*
X82486416Y-23600261D01*
X81609511Y-24235261D02*
X81972368Y-24235261D01*
X81790940Y-24235261D02*
X81790940Y-23600261D01*
X81851416Y-23690976D01*
X81911892Y-23751452D01*
X81972368Y-23781690D01*
X28338749Y-24235261D02*
X28338749Y-23600261D01*
X28187559Y-23600261D01*
X28096844Y-23630500D01*
X28036368Y-23690976D01*
X28006130Y-23751452D01*
X27975892Y-23872404D01*
X27975892Y-23963119D01*
X28006130Y-24084071D01*
X28036368Y-24144547D01*
X28096844Y-24205023D01*
X28187559Y-24235261D01*
X28338749Y-24235261D01*
X27703749Y-24235261D02*
X27703749Y-23600261D01*
X27280416Y-23600261D02*
X27159463Y-23600261D01*
X27098987Y-23630500D01*
X27038511Y-23690976D01*
X27008273Y-23811928D01*
X27008273Y-24023595D01*
X27038511Y-24144547D01*
X27098987Y-24205023D01*
X27159463Y-24235261D01*
X27280416Y-24235261D01*
X27340892Y-24205023D01*
X27401368Y-24144547D01*
X27431606Y-24023595D01*
X27431606Y-23811928D01*
X27401368Y-23690976D01*
X27340892Y-23630500D01*
X27280416Y-23600261D01*
X26403511Y-24235261D02*
X26766368Y-24235261D01*
X26584940Y-24235261D02*
X26584940Y-23600261D01*
X26645416Y-23690976D01*
X26705892Y-23751452D01*
X26766368Y-23781690D01*
X28006130Y-33663500D02*
X28066606Y-33633261D01*
X28157320Y-33633261D01*
X28248035Y-33663500D01*
X28308511Y-33723976D01*
X28338749Y-33784452D01*
X28368987Y-33905404D01*
X28368987Y-33996119D01*
X28338749Y-34117071D01*
X28308511Y-34177547D01*
X28248035Y-34238023D01*
X28157320Y-34268261D01*
X28096844Y-34268261D01*
X28006130Y-34238023D01*
X27975892Y-34207785D01*
X27975892Y-33996119D01*
X28096844Y-33996119D01*
X27703749Y-34268261D02*
X27703749Y-33633261D01*
X27340892Y-34268261D01*
X27340892Y-33633261D01*
X27038511Y-34268261D02*
X27038511Y-33633261D01*
X26887320Y-33633261D01*
X26796606Y-33663500D01*
X26736130Y-33723976D01*
X26705892Y-33784452D01*
X26675654Y-33905404D01*
X26675654Y-33996119D01*
X26705892Y-34117071D01*
X26736130Y-34177547D01*
X26796606Y-34238023D01*
X26887320Y-34268261D01*
X27038511Y-34268261D01*
X83212130Y-33663500D02*
X83272606Y-33633261D01*
X83363320Y-33633261D01*
X83454035Y-33663500D01*
X83514511Y-33723976D01*
X83544749Y-33784452D01*
X83574987Y-33905404D01*
X83574987Y-33996119D01*
X83544749Y-34117071D01*
X83514511Y-34177547D01*
X83454035Y-34238023D01*
X83363320Y-34268261D01*
X83302844Y-34268261D01*
X83212130Y-34238023D01*
X83181892Y-34207785D01*
X83181892Y-33996119D01*
X83302844Y-33996119D01*
X82909749Y-34268261D02*
X82909749Y-33633261D01*
X82546892Y-34268261D01*
X82546892Y-33633261D01*
X82244511Y-34268261D02*
X82244511Y-33633261D01*
X82093320Y-33633261D01*
X82002606Y-33663500D01*
X81942130Y-33723976D01*
X81911892Y-33784452D01*
X81881654Y-33905404D01*
X81881654Y-33996119D01*
X81911892Y-34117071D01*
X81942130Y-34177547D01*
X82002606Y-34238023D01*
X82093320Y-34268261D01*
X82244511Y-34268261D01*
X46408130Y-33663500D02*
X46468606Y-33633261D01*
X46559320Y-33633261D01*
X46650035Y-33663500D01*
X46710511Y-33723976D01*
X46740749Y-33784452D01*
X46770987Y-33905404D01*
X46770987Y-33996119D01*
X46740749Y-34117071D01*
X46710511Y-34177547D01*
X46650035Y-34238023D01*
X46559320Y-34268261D01*
X46498844Y-34268261D01*
X46408130Y-34238023D01*
X46377892Y-34207785D01*
X46377892Y-33996119D01*
X46498844Y-33996119D01*
X46105749Y-34268261D02*
X46105749Y-33633261D01*
X45742892Y-34268261D01*
X45742892Y-33633261D01*
X45440511Y-34268261D02*
X45440511Y-33633261D01*
X45289320Y-33633261D01*
X45198606Y-33663500D01*
X45138130Y-33723976D01*
X45107892Y-33784452D01*
X45077654Y-33905404D01*
X45077654Y-33996119D01*
X45107892Y-34117071D01*
X45138130Y-34177547D01*
X45198606Y-34238023D01*
X45289320Y-34268261D01*
X45440511Y-34268261D01*
X64810130Y-33663500D02*
X64870606Y-33633261D01*
X64961320Y-33633261D01*
X65052035Y-33663500D01*
X65112511Y-33723976D01*
X65142749Y-33784452D01*
X65172987Y-33905404D01*
X65172987Y-33996119D01*
X65142749Y-34117071D01*
X65112511Y-34177547D01*
X65052035Y-34238023D01*
X64961320Y-34268261D01*
X64900844Y-34268261D01*
X64810130Y-34238023D01*
X64779892Y-34207785D01*
X64779892Y-33996119D01*
X64900844Y-33996119D01*
X64507749Y-34268261D02*
X64507749Y-33633261D01*
X64144892Y-34268261D01*
X64144892Y-33633261D01*
X63842511Y-34268261D02*
X63842511Y-33633261D01*
X63691320Y-33633261D01*
X63600606Y-33663500D01*
X63540130Y-33723976D01*
X63509892Y-33784452D01*
X63479654Y-33905404D01*
X63479654Y-33996119D01*
X63509892Y-34117071D01*
X63540130Y-34177547D01*
X63600606Y-34238023D01*
X63691320Y-34268261D01*
X63842511Y-34268261D01*
X46770987Y-35991833D02*
X46468606Y-35991833D01*
X46831463Y-36173261D02*
X46619797Y-35538261D01*
X46408130Y-36173261D01*
X46196463Y-36173261D02*
X46196463Y-35538261D01*
X45833606Y-36173261D01*
X45833606Y-35538261D01*
X45621940Y-35538261D02*
X45259082Y-35538261D01*
X45440511Y-36173261D02*
X45440511Y-35538261D01*
X65172987Y-35991833D02*
X64870606Y-35991833D01*
X65233463Y-36173261D02*
X65021797Y-35538261D01*
X64810130Y-36173261D01*
X64598463Y-36173261D02*
X64598463Y-35538261D01*
X64235606Y-36173261D01*
X64235606Y-35538261D01*
X64023940Y-35538261D02*
X63661082Y-35538261D01*
X63842511Y-36173261D02*
X63842511Y-35538261D01*
X83574987Y-35991833D02*
X83272606Y-35991833D01*
X83635463Y-36173261D02*
X83423797Y-35538261D01*
X83212130Y-36173261D01*
X83000463Y-36173261D02*
X83000463Y-35538261D01*
X82637606Y-36173261D01*
X82637606Y-35538261D01*
X82425940Y-35538261D02*
X82063082Y-35538261D01*
X82244511Y-36173261D02*
X82244511Y-35538261D01*
X28368987Y-35991833D02*
X28066606Y-35991833D01*
X28429463Y-36173261D02*
X28217797Y-35538261D01*
X28006130Y-36173261D01*
X27794463Y-36173261D02*
X27794463Y-35538261D01*
X27431606Y-36173261D01*
X27431606Y-35538261D01*
X27219940Y-35538261D02*
X26857082Y-35538261D01*
X27038511Y-36173261D02*
X27038511Y-35538261D01*
X28127082Y-29871642D02*
X28036368Y-29901880D01*
X28006130Y-29932119D01*
X27975892Y-29992595D01*
X27975892Y-30083309D01*
X28006130Y-30143785D01*
X28036368Y-30174023D01*
X28096844Y-30204261D01*
X28338749Y-30204261D01*
X28338749Y-29569261D01*
X28127082Y-29569261D01*
X28066606Y-29599500D01*
X28036368Y-29629738D01*
X28006130Y-29690214D01*
X28006130Y-29750690D01*
X28036368Y-29811166D01*
X28066606Y-29841404D01*
X28127082Y-29871642D01*
X28338749Y-29871642D01*
X27733987Y-30174023D02*
X27643273Y-30204261D01*
X27492082Y-30204261D01*
X27431606Y-30174023D01*
X27401368Y-30143785D01*
X27371130Y-30083309D01*
X27371130Y-30022833D01*
X27401368Y-29962357D01*
X27431606Y-29932119D01*
X27492082Y-29901880D01*
X27613035Y-29871642D01*
X27673511Y-29841404D01*
X27703749Y-29811166D01*
X27733987Y-29750690D01*
X27733987Y-29690214D01*
X27703749Y-29629738D01*
X27673511Y-29599500D01*
X27613035Y-29569261D01*
X27461844Y-29569261D01*
X27371130Y-29599500D01*
X26978035Y-29901880D02*
X26978035Y-30204261D01*
X27189701Y-29569261D02*
X26978035Y-29901880D01*
X26766368Y-29569261D01*
X83333082Y-29871642D02*
X83242368Y-29901880D01*
X83212130Y-29932119D01*
X83181892Y-29992595D01*
X83181892Y-30083309D01*
X83212130Y-30143785D01*
X83242368Y-30174023D01*
X83302844Y-30204261D01*
X83544749Y-30204261D01*
X83544749Y-29569261D01*
X83333082Y-29569261D01*
X83272606Y-29599500D01*
X83242368Y-29629738D01*
X83212130Y-29690214D01*
X83212130Y-29750690D01*
X83242368Y-29811166D01*
X83272606Y-29841404D01*
X83333082Y-29871642D01*
X83544749Y-29871642D01*
X82939987Y-30174023D02*
X82849273Y-30204261D01*
X82698082Y-30204261D01*
X82637606Y-30174023D01*
X82607368Y-30143785D01*
X82577130Y-30083309D01*
X82577130Y-30022833D01*
X82607368Y-29962357D01*
X82637606Y-29932119D01*
X82698082Y-29901880D01*
X82819035Y-29871642D01*
X82879511Y-29841404D01*
X82909749Y-29811166D01*
X82939987Y-29750690D01*
X82939987Y-29690214D01*
X82909749Y-29629738D01*
X82879511Y-29599500D01*
X82819035Y-29569261D01*
X82667844Y-29569261D01*
X82577130Y-29599500D01*
X82184035Y-29901880D02*
X82184035Y-30204261D01*
X82395701Y-29569261D02*
X82184035Y-29901880D01*
X81972368Y-29569261D01*
X64931082Y-29871642D02*
X64840368Y-29901880D01*
X64810130Y-29932119D01*
X64779892Y-29992595D01*
X64779892Y-30083309D01*
X64810130Y-30143785D01*
X64840368Y-30174023D01*
X64900844Y-30204261D01*
X65142749Y-30204261D01*
X65142749Y-29569261D01*
X64931082Y-29569261D01*
X64870606Y-29599500D01*
X64840368Y-29629738D01*
X64810130Y-29690214D01*
X64810130Y-29750690D01*
X64840368Y-29811166D01*
X64870606Y-29841404D01*
X64931082Y-29871642D01*
X65142749Y-29871642D01*
X64537987Y-30174023D02*
X64447273Y-30204261D01*
X64296082Y-30204261D01*
X64235606Y-30174023D01*
X64205368Y-30143785D01*
X64175130Y-30083309D01*
X64175130Y-30022833D01*
X64205368Y-29962357D01*
X64235606Y-29932119D01*
X64296082Y-29901880D01*
X64417035Y-29871642D01*
X64477511Y-29841404D01*
X64507749Y-29811166D01*
X64537987Y-29750690D01*
X64537987Y-29690214D01*
X64507749Y-29629738D01*
X64477511Y-29599500D01*
X64417035Y-29569261D01*
X64265844Y-29569261D01*
X64175130Y-29599500D01*
X63782035Y-29901880D02*
X63782035Y-30204261D01*
X63993701Y-29569261D02*
X63782035Y-29901880D01*
X63570368Y-29569261D01*
X46529082Y-29871642D02*
X46438368Y-29901880D01*
X46408130Y-29932119D01*
X46377892Y-29992595D01*
X46377892Y-30083309D01*
X46408130Y-30143785D01*
X46438368Y-30174023D01*
X46498844Y-30204261D01*
X46740749Y-30204261D01*
X46740749Y-29569261D01*
X46529082Y-29569261D01*
X46468606Y-29599500D01*
X46438368Y-29629738D01*
X46408130Y-29690214D01*
X46408130Y-29750690D01*
X46438368Y-29811166D01*
X46468606Y-29841404D01*
X46529082Y-29871642D01*
X46740749Y-29871642D01*
X46135987Y-30174023D02*
X46045273Y-30204261D01*
X45894082Y-30204261D01*
X45833606Y-30174023D01*
X45803368Y-30143785D01*
X45773130Y-30083309D01*
X45773130Y-30022833D01*
X45803368Y-29962357D01*
X45833606Y-29932119D01*
X45894082Y-29901880D01*
X46015035Y-29871642D01*
X46075511Y-29841404D01*
X46105749Y-29811166D01*
X46135987Y-29750690D01*
X46135987Y-29690214D01*
X46105749Y-29629738D01*
X46075511Y-29599500D01*
X46015035Y-29569261D01*
X45863844Y-29569261D01*
X45773130Y-29599500D01*
X45380035Y-29901880D02*
X45380035Y-30204261D01*
X45591701Y-29569261D02*
X45380035Y-29901880D01*
X45168368Y-29569261D01*
X65203225Y-27537261D02*
X64810130Y-27537261D01*
X65021797Y-27779166D01*
X64931082Y-27779166D01*
X64870606Y-27809404D01*
X64840368Y-27839642D01*
X64810130Y-27900119D01*
X64810130Y-28051309D01*
X64840368Y-28111785D01*
X64870606Y-28142023D01*
X64931082Y-28172261D01*
X65112511Y-28172261D01*
X65172987Y-28142023D01*
X65203225Y-28111785D01*
X64628701Y-27537261D02*
X64417035Y-28172261D01*
X64205368Y-27537261D01*
X64054178Y-27537261D02*
X63661082Y-27537261D01*
X63872749Y-27779166D01*
X63782035Y-27779166D01*
X63721559Y-27809404D01*
X63691320Y-27839642D01*
X63661082Y-27900119D01*
X63661082Y-28051309D01*
X63691320Y-28111785D01*
X63721559Y-28142023D01*
X63782035Y-28172261D01*
X63963463Y-28172261D01*
X64023940Y-28142023D01*
X64054178Y-28111785D01*
X28399225Y-27537261D02*
X28006130Y-27537261D01*
X28217797Y-27779166D01*
X28127082Y-27779166D01*
X28066606Y-27809404D01*
X28036368Y-27839642D01*
X28006130Y-27900119D01*
X28006130Y-28051309D01*
X28036368Y-28111785D01*
X28066606Y-28142023D01*
X28127082Y-28172261D01*
X28308511Y-28172261D01*
X28368987Y-28142023D01*
X28399225Y-28111785D01*
X27824701Y-27537261D02*
X27613035Y-28172261D01*
X27401368Y-27537261D01*
X27250178Y-27537261D02*
X26857082Y-27537261D01*
X27068749Y-27779166D01*
X26978035Y-27779166D01*
X26917559Y-27809404D01*
X26887320Y-27839642D01*
X26857082Y-27900119D01*
X26857082Y-28051309D01*
X26887320Y-28111785D01*
X26917559Y-28142023D01*
X26978035Y-28172261D01*
X27159463Y-28172261D01*
X27219940Y-28142023D01*
X27250178Y-28111785D01*
X46801225Y-27537261D02*
X46408130Y-27537261D01*
X46619797Y-27779166D01*
X46529082Y-27779166D01*
X46468606Y-27809404D01*
X46438368Y-27839642D01*
X46408130Y-27900119D01*
X46408130Y-28051309D01*
X46438368Y-28111785D01*
X46468606Y-28142023D01*
X46529082Y-28172261D01*
X46710511Y-28172261D01*
X46770987Y-28142023D01*
X46801225Y-28111785D01*
X46226701Y-27537261D02*
X46015035Y-28172261D01*
X45803368Y-27537261D01*
X45652178Y-27537261D02*
X45259082Y-27537261D01*
X45470749Y-27779166D01*
X45380035Y-27779166D01*
X45319559Y-27809404D01*
X45289320Y-27839642D01*
X45259082Y-27900119D01*
X45259082Y-28051309D01*
X45289320Y-28111785D01*
X45319559Y-28142023D01*
X45380035Y-28172261D01*
X45561463Y-28172261D01*
X45621940Y-28142023D01*
X45652178Y-28111785D01*
X83605225Y-27537261D02*
X83212130Y-27537261D01*
X83423797Y-27779166D01*
X83333082Y-27779166D01*
X83272606Y-27809404D01*
X83242368Y-27839642D01*
X83212130Y-27900119D01*
X83212130Y-28051309D01*
X83242368Y-28111785D01*
X83272606Y-28142023D01*
X83333082Y-28172261D01*
X83514511Y-28172261D01*
X83574987Y-28142023D01*
X83605225Y-28111785D01*
X83030701Y-27537261D02*
X82819035Y-28172261D01*
X82607368Y-27537261D01*
X82456178Y-27537261D02*
X82063082Y-27537261D01*
X82274749Y-27779166D01*
X82184035Y-27779166D01*
X82123559Y-27809404D01*
X82093320Y-27839642D01*
X82063082Y-27900119D01*
X82063082Y-28051309D01*
X82093320Y-28111785D01*
X82123559Y-28142023D01*
X82184035Y-28172261D01*
X82365463Y-28172261D01*
X82425940Y-28142023D01*
X82456178Y-28111785D01*
X46740749Y-26267261D02*
X46740749Y-25632261D01*
X46589559Y-25632261D01*
X46498844Y-25662500D01*
X46438368Y-25722976D01*
X46408130Y-25783452D01*
X46377892Y-25904404D01*
X46377892Y-25995119D01*
X46408130Y-26116071D01*
X46438368Y-26176547D01*
X46498844Y-26237023D01*
X46589559Y-26267261D01*
X46740749Y-26267261D01*
X46105749Y-26267261D02*
X46105749Y-25632261D01*
X45682416Y-25632261D02*
X45561463Y-25632261D01*
X45500987Y-25662500D01*
X45440511Y-25722976D01*
X45410273Y-25843928D01*
X45410273Y-26055595D01*
X45440511Y-26176547D01*
X45500987Y-26237023D01*
X45561463Y-26267261D01*
X45682416Y-26267261D01*
X45742892Y-26237023D01*
X45803368Y-26176547D01*
X45833606Y-26055595D01*
X45833606Y-25843928D01*
X45803368Y-25722976D01*
X45742892Y-25662500D01*
X45682416Y-25632261D01*
X45017178Y-25632261D02*
X44956701Y-25632261D01*
X44896225Y-25662500D01*
X44865987Y-25692738D01*
X44835749Y-25753214D01*
X44805511Y-25874166D01*
X44805511Y-26025357D01*
X44835749Y-26146309D01*
X44865987Y-26206785D01*
X44896225Y-26237023D01*
X44956701Y-26267261D01*
X45017178Y-26267261D01*
X45077654Y-26237023D01*
X45107892Y-26206785D01*
X45138130Y-26146309D01*
X45168368Y-26025357D01*
X45168368Y-25874166D01*
X45138130Y-25753214D01*
X45107892Y-25692738D01*
X45077654Y-25662500D01*
X45017178Y-25632261D01*
X83544749Y-26267261D02*
X83544749Y-25632261D01*
X83393559Y-25632261D01*
X83302844Y-25662500D01*
X83242368Y-25722976D01*
X83212130Y-25783452D01*
X83181892Y-25904404D01*
X83181892Y-25995119D01*
X83212130Y-26116071D01*
X83242368Y-26176547D01*
X83302844Y-26237023D01*
X83393559Y-26267261D01*
X83544749Y-26267261D01*
X82909749Y-26267261D02*
X82909749Y-25632261D01*
X82486416Y-25632261D02*
X82365463Y-25632261D01*
X82304987Y-25662500D01*
X82244511Y-25722976D01*
X82214273Y-25843928D01*
X82214273Y-26055595D01*
X82244511Y-26176547D01*
X82304987Y-26237023D01*
X82365463Y-26267261D01*
X82486416Y-26267261D01*
X82546892Y-26237023D01*
X82607368Y-26176547D01*
X82637606Y-26055595D01*
X82637606Y-25843928D01*
X82607368Y-25722976D01*
X82546892Y-25662500D01*
X82486416Y-25632261D01*
X81821178Y-25632261D02*
X81760701Y-25632261D01*
X81700225Y-25662500D01*
X81669987Y-25692738D01*
X81639749Y-25753214D01*
X81609511Y-25874166D01*
X81609511Y-26025357D01*
X81639749Y-26146309D01*
X81669987Y-26206785D01*
X81700225Y-26237023D01*
X81760701Y-26267261D01*
X81821178Y-26267261D01*
X81881654Y-26237023D01*
X81911892Y-26206785D01*
X81942130Y-26146309D01*
X81972368Y-26025357D01*
X81972368Y-25874166D01*
X81942130Y-25753214D01*
X81911892Y-25692738D01*
X81881654Y-25662500D01*
X81821178Y-25632261D01*
X28338749Y-26267261D02*
X28338749Y-25632261D01*
X28187559Y-25632261D01*
X28096844Y-25662500D01*
X28036368Y-25722976D01*
X28006130Y-25783452D01*
X27975892Y-25904404D01*
X27975892Y-25995119D01*
X28006130Y-26116071D01*
X28036368Y-26176547D01*
X28096844Y-26237023D01*
X28187559Y-26267261D01*
X28338749Y-26267261D01*
X27703749Y-26267261D02*
X27703749Y-25632261D01*
X27280416Y-25632261D02*
X27159463Y-25632261D01*
X27098987Y-25662500D01*
X27038511Y-25722976D01*
X27008273Y-25843928D01*
X27008273Y-26055595D01*
X27038511Y-26176547D01*
X27098987Y-26237023D01*
X27159463Y-26267261D01*
X27280416Y-26267261D01*
X27340892Y-26237023D01*
X27401368Y-26176547D01*
X27431606Y-26055595D01*
X27431606Y-25843928D01*
X27401368Y-25722976D01*
X27340892Y-25662500D01*
X27280416Y-25632261D01*
X26615178Y-25632261D02*
X26554701Y-25632261D01*
X26494225Y-25662500D01*
X26463987Y-25692738D01*
X26433749Y-25753214D01*
X26403511Y-25874166D01*
X26403511Y-26025357D01*
X26433749Y-26146309D01*
X26463987Y-26206785D01*
X26494225Y-26237023D01*
X26554701Y-26267261D01*
X26615178Y-26267261D01*
X26675654Y-26237023D01*
X26705892Y-26206785D01*
X26736130Y-26146309D01*
X26766368Y-26025357D01*
X26766368Y-25874166D01*
X26736130Y-25753214D01*
X26705892Y-25692738D01*
X26675654Y-25662500D01*
X26615178Y-25632261D01*
X65142749Y-26267261D02*
X65142749Y-25632261D01*
X64991559Y-25632261D01*
X64900844Y-25662500D01*
X64840368Y-25722976D01*
X64810130Y-25783452D01*
X64779892Y-25904404D01*
X64779892Y-25995119D01*
X64810130Y-26116071D01*
X64840368Y-26176547D01*
X64900844Y-26237023D01*
X64991559Y-26267261D01*
X65142749Y-26267261D01*
X64507749Y-26267261D02*
X64507749Y-25632261D01*
X64084416Y-25632261D02*
X63963463Y-25632261D01*
X63902987Y-25662500D01*
X63842511Y-25722976D01*
X63812273Y-25843928D01*
X63812273Y-26055595D01*
X63842511Y-26176547D01*
X63902987Y-26237023D01*
X63963463Y-26267261D01*
X64084416Y-26267261D01*
X64144892Y-26237023D01*
X64205368Y-26176547D01*
X64235606Y-26055595D01*
X64235606Y-25843928D01*
X64205368Y-25722976D01*
X64144892Y-25662500D01*
X64084416Y-25632261D01*
X63419178Y-25632261D02*
X63358701Y-25632261D01*
X63298225Y-25662500D01*
X63267987Y-25692738D01*
X63237749Y-25753214D01*
X63207511Y-25874166D01*
X63207511Y-26025357D01*
X63237749Y-26146309D01*
X63267987Y-26206785D01*
X63298225Y-26237023D01*
X63358701Y-26267261D01*
X63419178Y-26267261D01*
X63479654Y-26237023D01*
X63509892Y-26206785D01*
X63540130Y-26146309D01*
X63570368Y-26025357D01*
X63570368Y-25874166D01*
X63540130Y-25753214D01*
X63509892Y-25692738D01*
X63479654Y-25662500D01*
X63419178Y-25632261D01*
X46740749Y-32236261D02*
X46740749Y-31601261D01*
X46589559Y-31601261D01*
X46498844Y-31631500D01*
X46438368Y-31691976D01*
X46408130Y-31752452D01*
X46377892Y-31873404D01*
X46377892Y-31964119D01*
X46408130Y-32085071D01*
X46438368Y-32145547D01*
X46498844Y-32206023D01*
X46589559Y-32236261D01*
X46740749Y-32236261D01*
X46105749Y-32236261D02*
X46105749Y-31601261D01*
X45682416Y-31601261D02*
X45561463Y-31601261D01*
X45500987Y-31631500D01*
X45440511Y-31691976D01*
X45410273Y-31812928D01*
X45410273Y-32024595D01*
X45440511Y-32145547D01*
X45500987Y-32206023D01*
X45561463Y-32236261D01*
X45682416Y-32236261D01*
X45742892Y-32206023D01*
X45803368Y-32145547D01*
X45833606Y-32024595D01*
X45833606Y-31812928D01*
X45803368Y-31691976D01*
X45742892Y-31631500D01*
X45682416Y-31601261D01*
X45198606Y-31601261D02*
X44805511Y-31601261D01*
X45017178Y-31843166D01*
X44926463Y-31843166D01*
X44865987Y-31873404D01*
X44835749Y-31903642D01*
X44805511Y-31964119D01*
X44805511Y-32115309D01*
X44835749Y-32175785D01*
X44865987Y-32206023D01*
X44926463Y-32236261D01*
X45107892Y-32236261D01*
X45168368Y-32206023D01*
X45198606Y-32175785D01*
X65142749Y-32236261D02*
X65142749Y-31601261D01*
X64991559Y-31601261D01*
X64900844Y-31631500D01*
X64840368Y-31691976D01*
X64810130Y-31752452D01*
X64779892Y-31873404D01*
X64779892Y-31964119D01*
X64810130Y-32085071D01*
X64840368Y-32145547D01*
X64900844Y-32206023D01*
X64991559Y-32236261D01*
X65142749Y-32236261D01*
X64507749Y-32236261D02*
X64507749Y-31601261D01*
X64084416Y-31601261D02*
X63963463Y-31601261D01*
X63902987Y-31631500D01*
X63842511Y-31691976D01*
X63812273Y-31812928D01*
X63812273Y-32024595D01*
X63842511Y-32145547D01*
X63902987Y-32206023D01*
X63963463Y-32236261D01*
X64084416Y-32236261D01*
X64144892Y-32206023D01*
X64205368Y-32145547D01*
X64235606Y-32024595D01*
X64235606Y-31812928D01*
X64205368Y-31691976D01*
X64144892Y-31631500D01*
X64084416Y-31601261D01*
X63600606Y-31601261D02*
X63207511Y-31601261D01*
X63419178Y-31843166D01*
X63328463Y-31843166D01*
X63267987Y-31873404D01*
X63237749Y-31903642D01*
X63207511Y-31964119D01*
X63207511Y-32115309D01*
X63237749Y-32175785D01*
X63267987Y-32206023D01*
X63328463Y-32236261D01*
X63509892Y-32236261D01*
X63570368Y-32206023D01*
X63600606Y-32175785D01*
X28338749Y-32236261D02*
X28338749Y-31601261D01*
X28187559Y-31601261D01*
X28096844Y-31631500D01*
X28036368Y-31691976D01*
X28006130Y-31752452D01*
X27975892Y-31873404D01*
X27975892Y-31964119D01*
X28006130Y-32085071D01*
X28036368Y-32145547D01*
X28096844Y-32206023D01*
X28187559Y-32236261D01*
X28338749Y-32236261D01*
X27703749Y-32236261D02*
X27703749Y-31601261D01*
X27280416Y-31601261D02*
X27159463Y-31601261D01*
X27098987Y-31631500D01*
X27038511Y-31691976D01*
X27008273Y-31812928D01*
X27008273Y-32024595D01*
X27038511Y-32145547D01*
X27098987Y-32206023D01*
X27159463Y-32236261D01*
X27280416Y-32236261D01*
X27340892Y-32206023D01*
X27401368Y-32145547D01*
X27431606Y-32024595D01*
X27431606Y-31812928D01*
X27401368Y-31691976D01*
X27340892Y-31631500D01*
X27280416Y-31601261D01*
X26796606Y-31601261D02*
X26403511Y-31601261D01*
X26615178Y-31843166D01*
X26524463Y-31843166D01*
X26463987Y-31873404D01*
X26433749Y-31903642D01*
X26403511Y-31964119D01*
X26403511Y-32115309D01*
X26433749Y-32175785D01*
X26463987Y-32206023D01*
X26524463Y-32236261D01*
X26705892Y-32236261D01*
X26766368Y-32206023D01*
X26796606Y-32175785D01*
X83544749Y-32236261D02*
X83544749Y-31601261D01*
X83393559Y-31601261D01*
X83302844Y-31631500D01*
X83242368Y-31691976D01*
X83212130Y-31752452D01*
X83181892Y-31873404D01*
X83181892Y-31964119D01*
X83212130Y-32085071D01*
X83242368Y-32145547D01*
X83302844Y-32206023D01*
X83393559Y-32236261D01*
X83544749Y-32236261D01*
X82909749Y-32236261D02*
X82909749Y-31601261D01*
X82486416Y-31601261D02*
X82365463Y-31601261D01*
X82304987Y-31631500D01*
X82244511Y-31691976D01*
X82214273Y-31812928D01*
X82214273Y-32024595D01*
X82244511Y-32145547D01*
X82304987Y-32206023D01*
X82365463Y-32236261D01*
X82486416Y-32236261D01*
X82546892Y-32206023D01*
X82607368Y-32145547D01*
X82637606Y-32024595D01*
X82637606Y-31812928D01*
X82607368Y-31691976D01*
X82546892Y-31631500D01*
X82486416Y-31601261D01*
X82002606Y-31601261D02*
X81609511Y-31601261D01*
X81821178Y-31843166D01*
X81730463Y-31843166D01*
X81669987Y-31873404D01*
X81639749Y-31903642D01*
X81609511Y-31964119D01*
X81609511Y-32115309D01*
X81639749Y-32175785D01*
X81669987Y-32206023D01*
X81730463Y-32236261D01*
X81911892Y-32236261D01*
X81972368Y-32206023D01*
X82002606Y-32175785D01*
%LPC*%
D11*
X57335750Y-20300000D03*
X43100416Y-20300000D03*
D12*
X14987300Y-21900760D03*
X16187300Y-21900760D03*
D13*
X15587300Y-21900760D03*
D12*
X48216700Y-25900752D03*
X49416700Y-25900752D03*
D13*
X48816700Y-25900752D03*
D12*
X51791300Y-23900760D03*
D13*
X52391300Y-23900760D03*
D12*
X52991300Y-23900760D03*
D13*
X33989300Y-23900760D03*
D12*
X33389300Y-23900760D03*
X34589300Y-23900760D03*
D11*
X80737750Y-43500000D03*
D13*
X70793300Y-23900760D03*
D12*
X71393300Y-23900760D03*
X70193300Y-23900760D03*
X16187300Y-25900760D03*
D13*
X15587300Y-25900760D03*
D12*
X14987300Y-25900760D03*
D11*
X20531750Y-43500000D03*
X79904416Y-20300000D03*
D12*
X67818700Y-27900760D03*
X66618700Y-27900760D03*
D13*
X67218700Y-27900760D03*
D11*
X23031750Y-20300000D03*
X62335750Y-20300000D03*
X24698416Y-43500000D03*
X77404416Y-20300000D03*
D12*
X48216700Y-31900760D03*
D13*
X48816700Y-31900760D03*
D12*
X49416700Y-31900760D03*
D13*
X85620700Y-31900760D03*
D12*
X85020700Y-31900760D03*
X86220700Y-31900760D03*
D13*
X67218700Y-21900760D03*
D12*
X66618700Y-21900760D03*
X67818700Y-21900760D03*
X67818700Y-31900760D03*
D13*
X67218700Y-31900760D03*
D12*
X66618700Y-31900760D03*
X33389300Y-35900760D03*
X34589300Y-35900760D03*
D13*
X33989300Y-35900760D03*
D11*
X38933750Y-20300000D03*
D12*
X70193300Y-27900760D03*
D13*
X70793300Y-27900760D03*
D12*
X71393300Y-27900760D03*
D13*
X30414700Y-35900760D03*
D12*
X29814700Y-35900760D03*
X31014700Y-35900760D03*
D13*
X67218700Y-25900752D03*
D12*
X67818700Y-25900752D03*
X66618700Y-25900752D03*
X33389300Y-27900760D03*
D13*
X33989300Y-27900760D03*
D12*
X34589300Y-27900760D03*
X86220700Y-35900760D03*
D13*
X85620700Y-35900760D03*
D12*
X85020700Y-35900760D03*
X49416700Y-27900760D03*
D13*
X48816700Y-27900760D03*
D12*
X48216700Y-27900760D03*
D11*
X79904416Y-43500000D03*
D12*
X34589300Y-25900760D03*
X33389300Y-25900760D03*
D13*
X33989300Y-25900760D03*
D12*
X70193300Y-29900760D03*
D13*
X70793300Y-29900760D03*
D12*
X71393300Y-29900760D03*
D11*
X78237750Y-20300000D03*
X79071083Y-20300000D03*
D12*
X16187300Y-33900760D03*
D13*
X15587300Y-33900760D03*
D12*
X14987300Y-33900760D03*
D11*
X60669083Y-43500000D03*
D13*
X85620700Y-21900760D03*
D12*
X85020700Y-21900760D03*
X86220700Y-21900760D03*
D11*
X61502416Y-43500000D03*
X76571083Y-20300000D03*
X78237750Y-43500000D03*
X20531750Y-20300000D03*
X61502416Y-20300000D03*
D12*
X31014700Y-27900760D03*
D13*
X30414700Y-27900760D03*
D12*
X29814700Y-27900760D03*
D11*
X41433750Y-43500000D03*
X58169083Y-43500000D03*
D12*
X85020700Y-23900760D03*
X86220700Y-23900760D03*
D13*
X85620700Y-23900760D03*
X52391300Y-31900760D03*
D12*
X52991300Y-31900760D03*
X51791300Y-31900760D03*
D11*
X59002416Y-43500000D03*
D12*
X67818700Y-29900760D03*
X66618700Y-29900760D03*
D13*
X67218700Y-29900760D03*
D12*
X71393300Y-33900760D03*
X70193300Y-33900760D03*
D13*
X70793300Y-33900760D03*
X15587300Y-23900760D03*
D12*
X14987300Y-23900760D03*
X16187300Y-23900760D03*
D11*
X22198416Y-43500000D03*
D12*
X49416700Y-21900760D03*
X48216700Y-21900760D03*
D13*
X48816700Y-21900760D03*
D11*
X42267083Y-43500000D03*
X22198416Y-20300000D03*
D13*
X33989300Y-31900760D03*
D12*
X33389300Y-31900760D03*
X34589300Y-31900760D03*
X70193300Y-21900760D03*
X71393300Y-21900760D03*
D13*
X70793300Y-21900760D03*
X70793300Y-25900760D03*
D12*
X71393300Y-25900760D03*
X70193300Y-25900760D03*
D11*
X79071083Y-43500000D03*
D12*
X85020700Y-27900760D03*
X86220700Y-27900760D03*
D13*
X85620700Y-27900760D03*
D11*
X59835750Y-20300000D03*
D12*
X48216700Y-33900760D03*
X49416700Y-33900760D03*
D13*
X48816700Y-33900760D03*
D11*
X62335750Y-43500000D03*
D12*
X33389300Y-21900760D03*
D13*
X33989300Y-21900760D03*
D12*
X34589300Y-21900760D03*
D11*
X43933750Y-20300000D03*
D13*
X30414700Y-33900760D03*
D12*
X31014700Y-33900760D03*
X29814700Y-33900760D03*
D13*
X52391300Y-25900760D03*
D12*
X52991300Y-25900760D03*
X51791300Y-25900760D03*
D13*
X15587300Y-27900760D03*
D12*
X16187300Y-27900760D03*
X14987300Y-27900760D03*
X71393300Y-35900760D03*
D13*
X70793300Y-35900760D03*
D12*
X70193300Y-35900760D03*
X49416700Y-29900760D03*
X48216700Y-29900760D03*
D13*
X48816700Y-29900760D03*
D12*
X29814700Y-31900760D03*
X31014700Y-31900760D03*
D13*
X30414700Y-31900760D03*
D11*
X23865083Y-43500000D03*
D13*
X85620700Y-25900752D03*
D12*
X86220700Y-25900752D03*
X85020700Y-25900752D03*
D11*
X59835750Y-43500000D03*
D12*
X51791300Y-27900760D03*
X52991300Y-27900760D03*
D13*
X52391300Y-27900760D03*
D11*
X38933750Y-43500000D03*
X40600416Y-43500000D03*
X77404416Y-43500000D03*
X75737750Y-20300000D03*
X58169083Y-20300000D03*
X43100416Y-43500000D03*
D12*
X66618700Y-33900760D03*
D13*
X67218700Y-33900760D03*
D12*
X67818700Y-33900760D03*
D11*
X40600416Y-20300000D03*
X25531750Y-20300000D03*
D12*
X14987300Y-35900760D03*
X16187300Y-35900760D03*
D13*
X15587300Y-35900760D03*
D12*
X16187300Y-31900760D03*
X14987300Y-31900760D03*
D13*
X15587300Y-31900760D03*
D11*
X75737750Y-43500000D03*
X60669083Y-20300000D03*
D12*
X86220700Y-33900760D03*
D13*
X85620700Y-33900760D03*
D12*
X85020700Y-33900760D03*
X33389300Y-29900760D03*
X34589300Y-29900760D03*
D13*
X33989300Y-29900760D03*
D11*
X24698416Y-20300000D03*
X59002416Y-20300000D03*
D12*
X48216700Y-35900760D03*
D13*
X48816700Y-35900760D03*
D12*
X49416700Y-35900760D03*
D11*
X21365083Y-43500000D03*
X57335750Y-43500000D03*
D13*
X30414700Y-21900760D03*
D12*
X29814700Y-21900760D03*
X31014700Y-21900760D03*
X48216700Y-23900760D03*
D13*
X48816700Y-23900760D03*
D12*
X49416700Y-23900760D03*
D11*
X41433750Y-20300000D03*
X80737750Y-20300000D03*
X42267083Y-20300000D03*
X43933750Y-43500000D03*
D12*
X51791300Y-29900760D03*
D13*
X52391300Y-29900760D03*
D12*
X52991300Y-29900760D03*
X29814700Y-29900760D03*
D13*
X30414700Y-29900760D03*
D12*
X31014700Y-29900760D03*
D13*
X67218700Y-23900760D03*
D12*
X67818700Y-23900760D03*
X66618700Y-23900760D03*
X51791300Y-33900760D03*
X52991300Y-33900760D03*
D13*
X52391300Y-33900760D03*
D11*
X76571083Y-43500000D03*
D13*
X85620700Y-29900760D03*
D12*
X85020700Y-29900760D03*
X86220700Y-29900760D03*
X34589300Y-33900760D03*
X33389300Y-33900760D03*
D13*
X33989300Y-33900760D03*
X52391300Y-35900760D03*
D12*
X52991300Y-35900760D03*
X51791300Y-35900760D03*
D11*
X21365083Y-20300000D03*
D12*
X66618700Y-35900760D03*
X67818700Y-35900760D03*
D13*
X67218700Y-35900760D03*
D11*
X23865083Y-20300000D03*
D12*
X16187300Y-29900760D03*
D13*
X15587300Y-29900760D03*
D12*
X14987300Y-29900760D03*
X31014700Y-23900760D03*
D13*
X30414700Y-23900760D03*
D12*
X29814700Y-23900760D03*
D11*
X39767083Y-20300000D03*
D13*
X30414700Y-25900752D03*
D12*
X29814700Y-25900752D03*
X31014700Y-25900752D03*
D13*
X52391300Y-21900760D03*
D12*
X51791300Y-21900760D03*
X52991300Y-21900760D03*
D11*
X39767083Y-43500000D03*
X23031750Y-43500000D03*
X25531750Y-43500000D03*
D13*
X70793300Y-31900760D03*
D12*
X71393300Y-31900760D03*
X70193300Y-31900760D03*
D14*
X16500000Y-47300000D03*
X84711000Y-16500000D03*
X16500000Y-16500000D03*
M02*
