G04 #@! TF.GenerationSoftware,KiCad,Pcbnew,(6.0.6)*
G04 #@! TF.CreationDate,2022-08-31T11:07:13-07:00*
G04 #@! TF.ProjectId,kikit_panel,6b696b69-745f-4706-916e-656c2e6b6963,rev?*
G04 #@! TF.SameCoordinates,Original*
G04 #@! TF.FileFunction,Copper,L4,Bot*
G04 #@! TF.FilePolarity,Positive*
%FSLAX46Y46*%
G04 Gerber Fmt 4.6, Leading zero omitted, Abs format (unit mm)*
G04 Created by KiCad (PCBNEW (6.0.6)) date 2022-08-31 11:07:13*
%MOMM*%
%LPD*%
G01*
G04 APERTURE LIST*
G04 #@! TA.AperFunction,ComponentPad*
%ADD10C,1.200000*%
G04 #@! TD*
G04 #@! TA.AperFunction,ConnectorPad*
%ADD11R,1.200000X1.200000*%
G04 #@! TD*
G04 #@! TA.AperFunction,SMDPad,CuDef*
%ADD12C,1.000000*%
G04 #@! TD*
G04 #@! TA.AperFunction,ViaPad*
%ADD13C,0.580000*%
G04 #@! TD*
G04 #@! TA.AperFunction,Conductor*
%ADD14C,0.508000*%
G04 #@! TD*
G04 #@! TA.AperFunction,Conductor*
%ADD15C,0.293370*%
G04 #@! TD*
G04 #@! TA.AperFunction,Conductor*
%ADD16C,0.203200*%
G04 #@! TD*
G04 APERTURE END LIST*
D10*
X14987300Y-21900760D03*
X16187300Y-21900760D03*
D11*
X15587300Y-21900760D03*
D10*
X48216700Y-25900752D03*
X49416700Y-25900752D03*
D11*
X48816700Y-25900752D03*
D10*
X51791300Y-23900760D03*
D11*
X52391300Y-23900760D03*
D10*
X52991300Y-23900760D03*
D11*
X33989300Y-23900760D03*
D10*
X33389300Y-23900760D03*
X34589300Y-23900760D03*
D11*
X70793300Y-23900760D03*
D10*
X71393300Y-23900760D03*
X70193300Y-23900760D03*
X16187300Y-25900760D03*
D11*
X15587300Y-25900760D03*
D10*
X14987300Y-25900760D03*
X67818700Y-27900760D03*
X66618700Y-27900760D03*
D11*
X67218700Y-27900760D03*
D10*
X48216700Y-31900760D03*
D11*
X48816700Y-31900760D03*
D10*
X49416700Y-31900760D03*
D11*
X85620700Y-31900760D03*
D10*
X85020700Y-31900760D03*
X86220700Y-31900760D03*
D11*
X67218700Y-21900760D03*
D10*
X66618700Y-21900760D03*
X67818700Y-21900760D03*
X67818700Y-31900760D03*
D11*
X67218700Y-31900760D03*
D10*
X66618700Y-31900760D03*
X33389300Y-35900760D03*
X34589300Y-35900760D03*
D11*
X33989300Y-35900760D03*
D10*
X70193300Y-27900760D03*
D11*
X70793300Y-27900760D03*
D10*
X71393300Y-27900760D03*
D11*
X30414700Y-35900760D03*
D10*
X29814700Y-35900760D03*
X31014700Y-35900760D03*
D11*
X67218700Y-25900752D03*
D10*
X67818700Y-25900752D03*
X66618700Y-25900752D03*
X33389300Y-27900760D03*
D11*
X33989300Y-27900760D03*
D10*
X34589300Y-27900760D03*
X86220700Y-35900760D03*
D11*
X85620700Y-35900760D03*
D10*
X85020700Y-35900760D03*
X49416700Y-27900760D03*
D11*
X48816700Y-27900760D03*
D10*
X48216700Y-27900760D03*
X34589300Y-25900760D03*
X33389300Y-25900760D03*
D11*
X33989300Y-25900760D03*
D10*
X70193300Y-29900760D03*
D11*
X70793300Y-29900760D03*
D10*
X71393300Y-29900760D03*
X16187300Y-33900760D03*
D11*
X15587300Y-33900760D03*
D10*
X14987300Y-33900760D03*
D11*
X85620700Y-21900760D03*
D10*
X85020700Y-21900760D03*
X86220700Y-21900760D03*
X31014700Y-27900760D03*
D11*
X30414700Y-27900760D03*
D10*
X29814700Y-27900760D03*
X85020700Y-23900760D03*
X86220700Y-23900760D03*
D11*
X85620700Y-23900760D03*
X52391300Y-31900760D03*
D10*
X52991300Y-31900760D03*
X51791300Y-31900760D03*
X67818700Y-29900760D03*
X66618700Y-29900760D03*
D11*
X67218700Y-29900760D03*
D10*
X71393300Y-33900760D03*
X70193300Y-33900760D03*
D11*
X70793300Y-33900760D03*
X15587300Y-23900760D03*
D10*
X14987300Y-23900760D03*
X16187300Y-23900760D03*
X49416700Y-21900760D03*
X48216700Y-21900760D03*
D11*
X48816700Y-21900760D03*
X33989300Y-31900760D03*
D10*
X33389300Y-31900760D03*
X34589300Y-31900760D03*
X70193300Y-21900760D03*
X71393300Y-21900760D03*
D11*
X70793300Y-21900760D03*
X70793300Y-25900760D03*
D10*
X71393300Y-25900760D03*
X70193300Y-25900760D03*
X85020700Y-27900760D03*
X86220700Y-27900760D03*
D11*
X85620700Y-27900760D03*
D10*
X48216700Y-33900760D03*
X49416700Y-33900760D03*
D11*
X48816700Y-33900760D03*
D10*
X33389300Y-21900760D03*
D11*
X33989300Y-21900760D03*
D10*
X34589300Y-21900760D03*
D11*
X30414700Y-33900760D03*
D10*
X31014700Y-33900760D03*
X29814700Y-33900760D03*
D11*
X52391300Y-25900760D03*
D10*
X52991300Y-25900760D03*
X51791300Y-25900760D03*
D11*
X15587300Y-27900760D03*
D10*
X16187300Y-27900760D03*
X14987300Y-27900760D03*
X71393300Y-35900760D03*
D11*
X70793300Y-35900760D03*
D10*
X70193300Y-35900760D03*
X49416700Y-29900760D03*
X48216700Y-29900760D03*
D11*
X48816700Y-29900760D03*
D10*
X29814700Y-31900760D03*
X31014700Y-31900760D03*
D11*
X30414700Y-31900760D03*
X85620700Y-25900752D03*
D10*
X86220700Y-25900752D03*
X85020700Y-25900752D03*
X51791300Y-27900760D03*
X52991300Y-27900760D03*
D11*
X52391300Y-27900760D03*
D10*
X66618700Y-33900760D03*
D11*
X67218700Y-33900760D03*
D10*
X67818700Y-33900760D03*
X14987300Y-35900760D03*
X16187300Y-35900760D03*
D11*
X15587300Y-35900760D03*
D10*
X16187300Y-31900760D03*
X14987300Y-31900760D03*
D11*
X15587300Y-31900760D03*
D10*
X86220700Y-33900760D03*
D11*
X85620700Y-33900760D03*
D10*
X85020700Y-33900760D03*
X33389300Y-29900760D03*
X34589300Y-29900760D03*
D11*
X33989300Y-29900760D03*
D10*
X48216700Y-35900760D03*
D11*
X48816700Y-35900760D03*
D10*
X49416700Y-35900760D03*
D11*
X30414700Y-21900760D03*
D10*
X29814700Y-21900760D03*
X31014700Y-21900760D03*
X48216700Y-23900760D03*
D11*
X48816700Y-23900760D03*
D10*
X49416700Y-23900760D03*
X51791300Y-29900760D03*
D11*
X52391300Y-29900760D03*
D10*
X52991300Y-29900760D03*
X29814700Y-29900760D03*
D11*
X30414700Y-29900760D03*
D10*
X31014700Y-29900760D03*
D11*
X67218700Y-23900760D03*
D10*
X67818700Y-23900760D03*
X66618700Y-23900760D03*
X51791300Y-33900760D03*
X52991300Y-33900760D03*
D11*
X52391300Y-33900760D03*
X85620700Y-29900760D03*
D10*
X85020700Y-29900760D03*
X86220700Y-29900760D03*
X34589300Y-33900760D03*
X33389300Y-33900760D03*
D11*
X33989300Y-33900760D03*
X52391300Y-35900760D03*
D10*
X52991300Y-35900760D03*
X51791300Y-35900760D03*
X66618700Y-35900760D03*
X67818700Y-35900760D03*
D11*
X67218700Y-35900760D03*
D10*
X16187300Y-29900760D03*
D11*
X15587300Y-29900760D03*
D10*
X14987300Y-29900760D03*
X31014700Y-23900760D03*
D11*
X30414700Y-23900760D03*
D10*
X29814700Y-23900760D03*
D11*
X30414700Y-25900752D03*
D10*
X29814700Y-25900752D03*
X31014700Y-25900752D03*
D11*
X52391300Y-21900760D03*
D10*
X51791300Y-21900760D03*
X52991300Y-21900760D03*
D11*
X70793300Y-31900760D03*
D10*
X71393300Y-31900760D03*
X70193300Y-31900760D03*
D12*
X16500000Y-47300000D03*
X84711000Y-16500000D03*
X16500000Y-16500000D03*
D13*
X20039760Y-31569834D03*
X21930000Y-26170000D03*
X23088579Y-27331280D03*
X20451859Y-34857734D03*
X19480000Y-32080000D03*
X25445699Y-31758500D03*
X21830768Y-32390338D03*
X23267608Y-32390338D03*
X21830768Y-33827179D03*
X22549188Y-33108758D03*
X23267608Y-33827179D03*
X22549188Y-31671917D03*
X22549188Y-34545599D03*
X23986029Y-33108758D03*
X21112347Y-33108758D03*
X29515000Y-38160000D03*
X28540000Y-36800400D03*
X27940000Y-32760000D03*
X26330000Y-35300000D03*
X24239199Y-35505044D03*
X20940000Y-42335000D03*
X18582619Y-36526080D03*
X22466279Y-27958662D03*
X27820000Y-34610000D03*
X18965000Y-38210000D03*
X17850735Y-31351847D03*
X27640000Y-42335000D03*
X26940000Y-31760000D03*
X25300000Y-34380000D03*
X20112596Y-28455635D03*
X20200000Y-30210000D03*
X17040000Y-40960000D03*
X27340000Y-31160000D03*
X22760000Y-29890000D03*
X19630500Y-29428896D03*
X26144199Y-29091490D03*
X22640000Y-35960000D03*
X19097381Y-27474392D03*
X21800000Y-36340000D03*
X19318000Y-25916490D03*
X20819647Y-36528786D03*
X19318000Y-23884500D03*
X19318000Y-21852500D03*
X19669862Y-36581077D03*
X22040000Y-29750000D03*
X21681145Y-28543701D03*
X20810191Y-29091500D03*
X20546532Y-31066471D03*
X38441760Y-31569834D03*
X40332000Y-26170000D03*
X41490579Y-27331280D03*
X38853859Y-34857734D03*
X37882000Y-32080000D03*
X43847699Y-31758500D03*
X40232768Y-32390338D03*
X41669608Y-32390338D03*
X40232768Y-33827179D03*
X40951188Y-33108758D03*
X41669608Y-33827179D03*
X40951188Y-31671917D03*
X40951188Y-34545599D03*
X42388029Y-33108758D03*
X39514347Y-33108758D03*
X47917000Y-38160000D03*
X46942000Y-36800400D03*
X46342000Y-32760000D03*
X44732000Y-35300000D03*
X42641199Y-35505044D03*
X39342000Y-42335000D03*
X36984619Y-36526080D03*
X40868279Y-27958662D03*
X46222000Y-34610000D03*
X37367000Y-38210000D03*
X36252735Y-31351847D03*
X46042000Y-42335000D03*
X45342000Y-31760000D03*
X43702000Y-34380000D03*
X38514596Y-28455635D03*
X38602000Y-30210000D03*
X35442000Y-40960000D03*
X45742000Y-31160000D03*
X41162000Y-29890000D03*
X38032500Y-29428896D03*
X44546199Y-29091490D03*
X41042000Y-35960000D03*
X37499381Y-27474392D03*
X40202000Y-36340000D03*
X37720000Y-25916490D03*
X39221647Y-36528786D03*
X37720000Y-23884500D03*
X37720000Y-21852500D03*
X38071862Y-36581077D03*
X40442000Y-29750000D03*
X40083145Y-28543701D03*
X39212191Y-29091500D03*
X38948532Y-31066471D03*
X56843760Y-31569834D03*
X58734000Y-26170000D03*
X59892579Y-27331280D03*
X57255859Y-34857734D03*
X56284000Y-32080000D03*
X62249699Y-31758500D03*
X58634768Y-32390338D03*
X60071608Y-32390338D03*
X58634768Y-33827179D03*
X59353188Y-33108758D03*
X60071608Y-33827179D03*
X59353188Y-31671917D03*
X59353188Y-34545599D03*
X60790029Y-33108758D03*
X57916347Y-33108758D03*
X66319000Y-38160000D03*
X65344000Y-36800400D03*
X64744000Y-32760000D03*
X63134000Y-35300000D03*
X61043199Y-35505044D03*
X57744000Y-42335000D03*
X55386619Y-36526080D03*
X59270279Y-27958662D03*
X64624000Y-34610000D03*
X55769000Y-38210000D03*
X54654735Y-31351847D03*
X64444000Y-42335000D03*
X63744000Y-31760000D03*
X62104000Y-34380000D03*
X56916596Y-28455635D03*
X57004000Y-30210000D03*
X53844000Y-40960000D03*
X64144000Y-31160000D03*
X59564000Y-29890000D03*
X56434500Y-29428896D03*
X62948199Y-29091490D03*
X59444000Y-35960000D03*
X55901381Y-27474392D03*
X58604000Y-36340000D03*
X56122000Y-25916490D03*
X57623647Y-36528786D03*
X56122000Y-23884500D03*
X56122000Y-21852500D03*
X56473862Y-36581077D03*
X58844000Y-29750000D03*
X58485145Y-28543701D03*
X57614191Y-29091500D03*
X57350532Y-31066471D03*
X75245760Y-31569834D03*
X77136000Y-26170000D03*
X78294579Y-27331280D03*
X75657859Y-34857734D03*
X74686000Y-32080000D03*
X80651699Y-31758500D03*
X77036768Y-32390338D03*
X78473608Y-32390338D03*
X77036768Y-33827179D03*
X77755188Y-33108758D03*
X78473608Y-33827179D03*
X77755188Y-31671917D03*
X77755188Y-34545599D03*
X79192029Y-33108758D03*
X76318347Y-33108758D03*
X84721000Y-38160000D03*
X83746000Y-36800400D03*
X83146000Y-32760000D03*
X81536000Y-35300000D03*
X79445199Y-35505044D03*
X76146000Y-42335000D03*
X73788619Y-36526080D03*
X77672279Y-27958662D03*
X83026000Y-34610000D03*
X74171000Y-38210000D03*
X73056735Y-31351847D03*
X82846000Y-42335000D03*
X82146000Y-31760000D03*
X80506000Y-34380000D03*
X75318596Y-28455635D03*
X75406000Y-30210000D03*
X72246000Y-40960000D03*
X82546000Y-31160000D03*
X77966000Y-29890000D03*
X74836500Y-29428896D03*
X81350199Y-29091490D03*
X77846000Y-35960000D03*
X74303381Y-27474392D03*
X77006000Y-36340000D03*
X74524000Y-25916490D03*
X76025647Y-36528786D03*
X74524000Y-23884500D03*
X74524000Y-21852500D03*
X74875862Y-36581077D03*
X77246000Y-29750000D03*
X76887145Y-28543701D03*
X76016191Y-29091500D03*
X75752532Y-31066471D03*
D14*
X18950000Y-28620000D02*
X21400000Y-26170000D01*
D15*
X20039760Y-31569834D02*
X20029834Y-31569834D01*
D14*
X21400000Y-26170000D02*
X21930000Y-26170000D01*
X20039760Y-31569834D02*
X18950000Y-30480074D01*
X18950000Y-30480074D02*
X18950000Y-28620000D01*
X19790000Y-32390000D02*
X19480000Y-32080000D01*
X21890000Y-30930000D02*
X20430000Y-32390000D01*
X20430000Y-32390000D02*
X19790000Y-32390000D01*
X24617199Y-30930000D02*
X21890000Y-30930000D01*
X25445699Y-31758500D02*
X24617199Y-30930000D01*
D16*
X21296729Y-29690000D02*
X20580000Y-29690000D01*
X20580000Y-29690000D02*
X20318896Y-29428896D01*
X22403229Y-28583500D02*
X21296729Y-29690000D01*
X26144199Y-29091490D02*
X25636209Y-28583500D01*
X20318896Y-29428896D02*
X19630500Y-29428896D01*
X25636209Y-28583500D02*
X22403229Y-28583500D01*
X18787812Y-32752312D02*
X19395500Y-33360000D01*
X22640000Y-35550000D02*
X22640000Y-35960000D01*
X18787812Y-31008824D02*
X18787812Y-32752312D01*
X19395500Y-33360000D02*
X20450000Y-33360000D01*
X18340000Y-30561011D02*
X18787812Y-31008824D01*
X20450000Y-33360000D02*
X22640000Y-35550000D01*
X19097381Y-27474392D02*
X18340000Y-28231773D01*
X18340000Y-28231773D02*
X18340000Y-30561011D01*
X17960000Y-30647293D02*
X18458101Y-31145394D01*
X19318000Y-25916490D02*
X17960000Y-27274490D01*
X18458101Y-31145394D02*
X18458101Y-32930601D01*
X20470000Y-33950000D02*
X21800000Y-35280000D01*
X21800000Y-35280000D02*
X21800000Y-36340000D01*
X19477500Y-33950000D02*
X20470000Y-33950000D01*
X18458101Y-32930601D02*
X19477500Y-33950000D01*
X17960000Y-27274490D02*
X17960000Y-30647293D01*
X17348030Y-31121845D02*
X17348030Y-25854470D01*
X17332634Y-31566453D02*
X17332634Y-31137241D01*
X17332634Y-31137241D02*
X17348030Y-31121845D01*
X20819647Y-36528786D02*
X17348030Y-33057169D01*
X17348030Y-33057169D02*
X17348030Y-31581849D01*
X17348030Y-31581849D02*
X17332634Y-31566453D01*
X17348030Y-25854470D02*
X19318000Y-23884500D01*
X17002923Y-31706873D02*
X17018319Y-31722269D01*
X17018319Y-31722269D02*
X17018319Y-33929534D01*
X17018319Y-33929534D02*
X19669862Y-36581077D01*
X17018319Y-24152181D02*
X17018319Y-30985275D01*
X17002923Y-31000671D02*
X17002923Y-31706873D01*
X17018319Y-30985275D02*
X17002923Y-31000671D01*
X19318000Y-21852500D02*
X17018319Y-24152181D01*
X25175459Y-29900760D02*
X24556699Y-29282000D01*
X29414700Y-29900760D02*
X29398460Y-29917000D01*
X24556699Y-29282000D02*
X22508000Y-29282000D01*
X22080203Y-29663000D02*
X22080203Y-29709797D01*
X22508000Y-29282000D02*
X22040000Y-29750000D01*
X29814700Y-29900760D02*
X25175459Y-29900760D01*
X22080203Y-29709797D02*
X22040000Y-29750000D01*
X29814700Y-23900760D02*
X25599240Y-23900760D01*
X21681145Y-27818855D02*
X21681145Y-28543701D01*
X25599240Y-23900760D02*
X21681145Y-27818855D01*
X20810191Y-28069809D02*
X20810191Y-29091500D01*
X26979240Y-21900760D02*
X20810191Y-28069809D01*
X29814700Y-21900760D02*
X26979240Y-21900760D01*
X21174902Y-30438101D02*
X28352041Y-30438101D01*
X20546532Y-31066471D02*
X21174902Y-30438101D01*
X28352041Y-30438101D02*
X29814700Y-31900760D01*
D14*
X37352000Y-28620000D02*
X39802000Y-26170000D01*
D15*
X38441760Y-31569834D02*
X38431834Y-31569834D01*
D14*
X39802000Y-26170000D02*
X40332000Y-26170000D01*
X38441760Y-31569834D02*
X37352000Y-30480074D01*
X37352000Y-30480074D02*
X37352000Y-28620000D01*
X38192000Y-32390000D02*
X37882000Y-32080000D01*
X40292000Y-30930000D02*
X38832000Y-32390000D01*
X38832000Y-32390000D02*
X38192000Y-32390000D01*
X43019199Y-30930000D02*
X40292000Y-30930000D01*
X43847699Y-31758500D02*
X43019199Y-30930000D01*
D16*
X39698729Y-29690000D02*
X38982000Y-29690000D01*
X38982000Y-29690000D02*
X38720896Y-29428896D01*
X40805229Y-28583500D02*
X39698729Y-29690000D01*
X44546199Y-29091490D02*
X44038209Y-28583500D01*
X38720896Y-29428896D02*
X38032500Y-29428896D01*
X44038209Y-28583500D02*
X40805229Y-28583500D01*
X37189812Y-32752312D02*
X37797500Y-33360000D01*
X41042000Y-35550000D02*
X41042000Y-35960000D01*
X37189812Y-31008824D02*
X37189812Y-32752312D01*
X37797500Y-33360000D02*
X38852000Y-33360000D01*
X36742000Y-30561011D02*
X37189812Y-31008824D01*
X38852000Y-33360000D02*
X41042000Y-35550000D01*
X37499381Y-27474392D02*
X36742000Y-28231773D01*
X36742000Y-28231773D02*
X36742000Y-30561011D01*
X36362000Y-30647293D02*
X36860101Y-31145394D01*
X37720000Y-25916490D02*
X36362000Y-27274490D01*
X36860101Y-31145394D02*
X36860101Y-32930601D01*
X38872000Y-33950000D02*
X40202000Y-35280000D01*
X40202000Y-35280000D02*
X40202000Y-36340000D01*
X37879500Y-33950000D02*
X38872000Y-33950000D01*
X36860101Y-32930601D02*
X37879500Y-33950000D01*
X36362000Y-27274490D02*
X36362000Y-30647293D01*
X35750030Y-31121845D02*
X35750030Y-25854470D01*
X35734634Y-31566453D02*
X35734634Y-31137241D01*
X35734634Y-31137241D02*
X35750030Y-31121845D01*
X39221647Y-36528786D02*
X35750030Y-33057169D01*
X35750030Y-33057169D02*
X35750030Y-31581849D01*
X35750030Y-31581849D02*
X35734634Y-31566453D01*
X35750030Y-25854470D02*
X37720000Y-23884500D01*
X35404923Y-31706873D02*
X35420319Y-31722269D01*
X35420319Y-31722269D02*
X35420319Y-33929534D01*
X35420319Y-33929534D02*
X38071862Y-36581077D01*
X35420319Y-24152181D02*
X35420319Y-30985275D01*
X35404923Y-31000671D02*
X35404923Y-31706873D01*
X35420319Y-30985275D02*
X35404923Y-31000671D01*
X37720000Y-21852500D02*
X35420319Y-24152181D01*
X43577459Y-29900760D02*
X42958699Y-29282000D01*
X47816700Y-29900760D02*
X47800460Y-29917000D01*
X42958699Y-29282000D02*
X40910000Y-29282000D01*
X40482203Y-29663000D02*
X40482203Y-29709797D01*
X40910000Y-29282000D02*
X40442000Y-29750000D01*
X48216700Y-29900760D02*
X43577459Y-29900760D01*
X40482203Y-29709797D02*
X40442000Y-29750000D01*
X48216700Y-23900760D02*
X44001240Y-23900760D01*
X40083145Y-27818855D02*
X40083145Y-28543701D01*
X44001240Y-23900760D02*
X40083145Y-27818855D01*
X39212191Y-28069809D02*
X39212191Y-29091500D01*
X45381240Y-21900760D02*
X39212191Y-28069809D01*
X48216700Y-21900760D02*
X45381240Y-21900760D01*
X39576902Y-30438101D02*
X46754041Y-30438101D01*
X38948532Y-31066471D02*
X39576902Y-30438101D01*
X46754041Y-30438101D02*
X48216700Y-31900760D01*
D14*
X55754000Y-28620000D02*
X58204000Y-26170000D01*
D15*
X56843760Y-31569834D02*
X56833834Y-31569834D01*
D14*
X58204000Y-26170000D02*
X58734000Y-26170000D01*
X56843760Y-31569834D02*
X55754000Y-30480074D01*
X55754000Y-30480074D02*
X55754000Y-28620000D01*
X56594000Y-32390000D02*
X56284000Y-32080000D01*
X58694000Y-30930000D02*
X57234000Y-32390000D01*
X57234000Y-32390000D02*
X56594000Y-32390000D01*
X61421199Y-30930000D02*
X58694000Y-30930000D01*
X62249699Y-31758500D02*
X61421199Y-30930000D01*
D16*
X58100729Y-29690000D02*
X57384000Y-29690000D01*
X57384000Y-29690000D02*
X57122896Y-29428896D01*
X59207229Y-28583500D02*
X58100729Y-29690000D01*
X62948199Y-29091490D02*
X62440209Y-28583500D01*
X57122896Y-29428896D02*
X56434500Y-29428896D01*
X62440209Y-28583500D02*
X59207229Y-28583500D01*
X55591812Y-32752312D02*
X56199500Y-33360000D01*
X59444000Y-35550000D02*
X59444000Y-35960000D01*
X55591812Y-31008824D02*
X55591812Y-32752312D01*
X56199500Y-33360000D02*
X57254000Y-33360000D01*
X55144000Y-30561011D02*
X55591812Y-31008824D01*
X57254000Y-33360000D02*
X59444000Y-35550000D01*
X55901381Y-27474392D02*
X55144000Y-28231773D01*
X55144000Y-28231773D02*
X55144000Y-30561011D01*
X54764000Y-30647293D02*
X55262101Y-31145394D01*
X56122000Y-25916490D02*
X54764000Y-27274490D01*
X55262101Y-31145394D02*
X55262101Y-32930601D01*
X57274000Y-33950000D02*
X58604000Y-35280000D01*
X58604000Y-35280000D02*
X58604000Y-36340000D01*
X56281500Y-33950000D02*
X57274000Y-33950000D01*
X55262101Y-32930601D02*
X56281500Y-33950000D01*
X54764000Y-27274490D02*
X54764000Y-30647293D01*
X54152030Y-31121845D02*
X54152030Y-25854470D01*
X54136634Y-31566453D02*
X54136634Y-31137241D01*
X54136634Y-31137241D02*
X54152030Y-31121845D01*
X57623647Y-36528786D02*
X54152030Y-33057169D01*
X54152030Y-33057169D02*
X54152030Y-31581849D01*
X54152030Y-31581849D02*
X54136634Y-31566453D01*
X54152030Y-25854470D02*
X56122000Y-23884500D01*
X53806923Y-31706873D02*
X53822319Y-31722269D01*
X53822319Y-31722269D02*
X53822319Y-33929534D01*
X53822319Y-33929534D02*
X56473862Y-36581077D01*
X53822319Y-24152181D02*
X53822319Y-30985275D01*
X53806923Y-31000671D02*
X53806923Y-31706873D01*
X53822319Y-30985275D02*
X53806923Y-31000671D01*
X56122000Y-21852500D02*
X53822319Y-24152181D01*
X61979459Y-29900760D02*
X61360699Y-29282000D01*
X66218700Y-29900760D02*
X66202460Y-29917000D01*
X61360699Y-29282000D02*
X59312000Y-29282000D01*
X58884203Y-29663000D02*
X58884203Y-29709797D01*
X59312000Y-29282000D02*
X58844000Y-29750000D01*
X66618700Y-29900760D02*
X61979459Y-29900760D01*
X58884203Y-29709797D02*
X58844000Y-29750000D01*
X66618700Y-23900760D02*
X62403240Y-23900760D01*
X58485145Y-27818855D02*
X58485145Y-28543701D01*
X62403240Y-23900760D02*
X58485145Y-27818855D01*
X57614191Y-28069809D02*
X57614191Y-29091500D01*
X63783240Y-21900760D02*
X57614191Y-28069809D01*
X66618700Y-21900760D02*
X63783240Y-21900760D01*
X57978902Y-30438101D02*
X65156041Y-30438101D01*
X57350532Y-31066471D02*
X57978902Y-30438101D01*
X65156041Y-30438101D02*
X66618700Y-31900760D01*
D14*
X74156000Y-28620000D02*
X76606000Y-26170000D01*
D15*
X75245760Y-31569834D02*
X75235834Y-31569834D01*
D14*
X76606000Y-26170000D02*
X77136000Y-26170000D01*
X75245760Y-31569834D02*
X74156000Y-30480074D01*
X74156000Y-30480074D02*
X74156000Y-28620000D01*
X74996000Y-32390000D02*
X74686000Y-32080000D01*
X77096000Y-30930000D02*
X75636000Y-32390000D01*
X75636000Y-32390000D02*
X74996000Y-32390000D01*
X79823199Y-30930000D02*
X77096000Y-30930000D01*
X80651699Y-31758500D02*
X79823199Y-30930000D01*
D16*
X76502729Y-29690000D02*
X75786000Y-29690000D01*
X75786000Y-29690000D02*
X75524896Y-29428896D01*
X77609229Y-28583500D02*
X76502729Y-29690000D01*
X81350199Y-29091490D02*
X80842209Y-28583500D01*
X75524896Y-29428896D02*
X74836500Y-29428896D01*
X80842209Y-28583500D02*
X77609229Y-28583500D01*
X73993812Y-32752312D02*
X74601500Y-33360000D01*
X77846000Y-35550000D02*
X77846000Y-35960000D01*
X73993812Y-31008824D02*
X73993812Y-32752312D01*
X74601500Y-33360000D02*
X75656000Y-33360000D01*
X73546000Y-30561011D02*
X73993812Y-31008824D01*
X75656000Y-33360000D02*
X77846000Y-35550000D01*
X74303381Y-27474392D02*
X73546000Y-28231773D01*
X73546000Y-28231773D02*
X73546000Y-30561011D01*
X73166000Y-30647293D02*
X73664101Y-31145394D01*
X74524000Y-25916490D02*
X73166000Y-27274490D01*
X73664101Y-31145394D02*
X73664101Y-32930601D01*
X75676000Y-33950000D02*
X77006000Y-35280000D01*
X77006000Y-35280000D02*
X77006000Y-36340000D01*
X74683500Y-33950000D02*
X75676000Y-33950000D01*
X73664101Y-32930601D02*
X74683500Y-33950000D01*
X73166000Y-27274490D02*
X73166000Y-30647293D01*
X72554030Y-31121845D02*
X72554030Y-25854470D01*
X72538634Y-31566453D02*
X72538634Y-31137241D01*
X72538634Y-31137241D02*
X72554030Y-31121845D01*
X76025647Y-36528786D02*
X72554030Y-33057169D01*
X72554030Y-33057169D02*
X72554030Y-31581849D01*
X72554030Y-31581849D02*
X72538634Y-31566453D01*
X72554030Y-25854470D02*
X74524000Y-23884500D01*
X72208923Y-31706873D02*
X72224319Y-31722269D01*
X72224319Y-31722269D02*
X72224319Y-33929534D01*
X72224319Y-33929534D02*
X74875862Y-36581077D01*
X72224319Y-24152181D02*
X72224319Y-30985275D01*
X72208923Y-31000671D02*
X72208923Y-31706873D01*
X72224319Y-30985275D02*
X72208923Y-31000671D01*
X74524000Y-21852500D02*
X72224319Y-24152181D01*
X80381459Y-29900760D02*
X79762699Y-29282000D01*
X84620700Y-29900760D02*
X84604460Y-29917000D01*
X79762699Y-29282000D02*
X77714000Y-29282000D01*
X77286203Y-29663000D02*
X77286203Y-29709797D01*
X77714000Y-29282000D02*
X77246000Y-29750000D01*
X85020700Y-29900760D02*
X80381459Y-29900760D01*
X77286203Y-29709797D02*
X77246000Y-29750000D01*
X85020700Y-23900760D02*
X80805240Y-23900760D01*
X76887145Y-27818855D02*
X76887145Y-28543701D01*
X80805240Y-23900760D02*
X76887145Y-27818855D01*
X76016191Y-28069809D02*
X76016191Y-29091500D01*
X82185240Y-21900760D02*
X76016191Y-28069809D01*
X85020700Y-21900760D02*
X82185240Y-21900760D01*
X76380902Y-30438101D02*
X83558041Y-30438101D01*
X75752532Y-31066471D02*
X76380902Y-30438101D01*
X83558041Y-30438101D02*
X85020700Y-31900760D01*
M02*
