G04 #@! TF.GenerationSoftware,KiCad,Pcbnew,(6.0.6)*
G04 #@! TF.CreationDate,2022-08-31T11:07:13-07:00*
G04 #@! TF.ProjectId,kikit_panel,6b696b69-745f-4706-916e-656c2e6b6963,rev?*
G04 #@! TF.SameCoordinates,Original*
G04 #@! TF.FileFunction,Copper,L3,Inr*
G04 #@! TF.FilePolarity,Positive*
%FSLAX46Y46*%
G04 Gerber Fmt 4.6, Leading zero omitted, Abs format (unit mm)*
G04 Created by KiCad (PCBNEW (6.0.6)) date 2022-08-31 11:07:13*
%MOMM*%
%LPD*%
G01*
G04 APERTURE LIST*
G04 #@! TA.AperFunction,ComponentPad*
%ADD10C,1.200000*%
G04 #@! TD*
G04 #@! TA.AperFunction,ViaPad*
%ADD11C,0.580000*%
G04 #@! TD*
G04 #@! TA.AperFunction,Conductor*
%ADD12C,0.762000*%
G04 #@! TD*
G04 #@! TA.AperFunction,Conductor*
%ADD13C,0.609600*%
G04 #@! TD*
G04 #@! TA.AperFunction,Conductor*
%ADD14C,0.508000*%
G04 #@! TD*
G04 APERTURE END LIST*
D10*
X14987300Y-21900760D03*
X16187300Y-21900760D03*
X48216700Y-25900752D03*
X49416700Y-25900752D03*
X51791300Y-23900760D03*
X52991300Y-23900760D03*
X33389300Y-23900760D03*
X34589300Y-23900760D03*
X71393300Y-23900760D03*
X70193300Y-23900760D03*
X16187300Y-25900760D03*
X14987300Y-25900760D03*
X67818700Y-27900760D03*
X66618700Y-27900760D03*
X48216700Y-31900760D03*
X49416700Y-31900760D03*
X85020700Y-31900760D03*
X86220700Y-31900760D03*
X66618700Y-21900760D03*
X67818700Y-21900760D03*
X67818700Y-31900760D03*
X66618700Y-31900760D03*
X33389300Y-35900760D03*
X34589300Y-35900760D03*
X70193300Y-27900760D03*
X71393300Y-27900760D03*
X29814700Y-35900760D03*
X31014700Y-35900760D03*
X67818700Y-25900752D03*
X66618700Y-25900752D03*
X33389300Y-27900760D03*
X34589300Y-27900760D03*
X86220700Y-35900760D03*
X85020700Y-35900760D03*
X49416700Y-27900760D03*
X48216700Y-27900760D03*
X34589300Y-25900760D03*
X33389300Y-25900760D03*
X70193300Y-29900760D03*
X71393300Y-29900760D03*
X16187300Y-33900760D03*
X14987300Y-33900760D03*
X85020700Y-21900760D03*
X86220700Y-21900760D03*
X31014700Y-27900760D03*
X29814700Y-27900760D03*
X85020700Y-23900760D03*
X86220700Y-23900760D03*
X52991300Y-31900760D03*
X51791300Y-31900760D03*
X67818700Y-29900760D03*
X66618700Y-29900760D03*
X71393300Y-33900760D03*
X70193300Y-33900760D03*
X14987300Y-23900760D03*
X16187300Y-23900760D03*
X49416700Y-21900760D03*
X48216700Y-21900760D03*
X33389300Y-31900760D03*
X34589300Y-31900760D03*
X70193300Y-21900760D03*
X71393300Y-21900760D03*
X71393300Y-25900760D03*
X70193300Y-25900760D03*
X85020700Y-27900760D03*
X86220700Y-27900760D03*
X48216700Y-33900760D03*
X49416700Y-33900760D03*
X33389300Y-21900760D03*
X34589300Y-21900760D03*
X31014700Y-33900760D03*
X29814700Y-33900760D03*
X52991300Y-25900760D03*
X51791300Y-25900760D03*
X16187300Y-27900760D03*
X14987300Y-27900760D03*
X71393300Y-35900760D03*
X70193300Y-35900760D03*
X49416700Y-29900760D03*
X48216700Y-29900760D03*
X29814700Y-31900760D03*
X31014700Y-31900760D03*
X86220700Y-25900752D03*
X85020700Y-25900752D03*
X51791300Y-27900760D03*
X52991300Y-27900760D03*
X66618700Y-33900760D03*
X67818700Y-33900760D03*
X14987300Y-35900760D03*
X16187300Y-35900760D03*
X16187300Y-31900760D03*
X14987300Y-31900760D03*
X86220700Y-33900760D03*
X85020700Y-33900760D03*
X33389300Y-29900760D03*
X34589300Y-29900760D03*
X48216700Y-35900760D03*
X49416700Y-35900760D03*
X29814700Y-21900760D03*
X31014700Y-21900760D03*
X48216700Y-23900760D03*
X49416700Y-23900760D03*
X51791300Y-29900760D03*
X52991300Y-29900760D03*
X29814700Y-29900760D03*
X31014700Y-29900760D03*
X67818700Y-23900760D03*
X66618700Y-23900760D03*
X51791300Y-33900760D03*
X52991300Y-33900760D03*
X85020700Y-29900760D03*
X86220700Y-29900760D03*
X34589300Y-33900760D03*
X33389300Y-33900760D03*
X52991300Y-35900760D03*
X51791300Y-35900760D03*
X66618700Y-35900760D03*
X67818700Y-35900760D03*
X16187300Y-29900760D03*
X14987300Y-29900760D03*
X31014700Y-23900760D03*
X29814700Y-23900760D03*
X29814700Y-25900752D03*
X31014700Y-25900752D03*
X51791300Y-21900760D03*
X52991300Y-21900760D03*
X71393300Y-31900760D03*
X70193300Y-31900760D03*
D11*
X20039760Y-31569834D03*
X21930000Y-26170000D03*
X23088579Y-27331280D03*
X20451859Y-34857734D03*
X19480000Y-32080000D03*
X25445699Y-31758500D03*
X21830768Y-32390338D03*
X23267608Y-32390338D03*
X21830768Y-33827179D03*
X22549188Y-33108758D03*
X23267608Y-33827179D03*
X22549188Y-31671917D03*
X22549188Y-34545599D03*
X23986029Y-33108758D03*
X21112347Y-33108758D03*
X29515000Y-38160000D03*
X28540000Y-36800400D03*
X27940000Y-32760000D03*
X26330000Y-35300000D03*
X24239199Y-35505044D03*
X20940000Y-42335000D03*
X18582619Y-36526080D03*
X22466279Y-27958662D03*
X27820000Y-34610000D03*
X18965000Y-38210000D03*
X17850735Y-31351847D03*
X27640000Y-42335000D03*
X26940000Y-31760000D03*
X25300000Y-34380000D03*
X20112596Y-28455635D03*
X20200000Y-30210000D03*
X17040000Y-40960000D03*
X27340000Y-31160000D03*
X22760000Y-29890000D03*
X19630500Y-29428896D03*
X26144199Y-29091490D03*
X22640000Y-35960000D03*
X19097381Y-27474392D03*
X21800000Y-36340000D03*
X19318000Y-25916490D03*
X20819647Y-36528786D03*
X19318000Y-23884500D03*
X19318000Y-21852500D03*
X19669862Y-36581077D03*
X22040000Y-29750000D03*
X21681145Y-28543701D03*
X20810191Y-29091500D03*
X20546532Y-31066471D03*
X38441760Y-31569834D03*
X40332000Y-26170000D03*
X41490579Y-27331280D03*
X38853859Y-34857734D03*
X37882000Y-32080000D03*
X43847699Y-31758500D03*
X40232768Y-32390338D03*
X41669608Y-32390338D03*
X40232768Y-33827179D03*
X40951188Y-33108758D03*
X41669608Y-33827179D03*
X40951188Y-31671917D03*
X40951188Y-34545599D03*
X42388029Y-33108758D03*
X39514347Y-33108758D03*
X47917000Y-38160000D03*
X46942000Y-36800400D03*
X46342000Y-32760000D03*
X44732000Y-35300000D03*
X42641199Y-35505044D03*
X39342000Y-42335000D03*
X36984619Y-36526080D03*
X40868279Y-27958662D03*
X46222000Y-34610000D03*
X37367000Y-38210000D03*
X36252735Y-31351847D03*
X46042000Y-42335000D03*
X45342000Y-31760000D03*
X43702000Y-34380000D03*
X38514596Y-28455635D03*
X38602000Y-30210000D03*
X35442000Y-40960000D03*
X45742000Y-31160000D03*
X41162000Y-29890000D03*
X38032500Y-29428896D03*
X44546199Y-29091490D03*
X41042000Y-35960000D03*
X37499381Y-27474392D03*
X40202000Y-36340000D03*
X37720000Y-25916490D03*
X39221647Y-36528786D03*
X37720000Y-23884500D03*
X37720000Y-21852500D03*
X38071862Y-36581077D03*
X40442000Y-29750000D03*
X40083145Y-28543701D03*
X39212191Y-29091500D03*
X38948532Y-31066471D03*
X56843760Y-31569834D03*
X58734000Y-26170000D03*
X59892579Y-27331280D03*
X57255859Y-34857734D03*
X56284000Y-32080000D03*
X62249699Y-31758500D03*
X58634768Y-32390338D03*
X60071608Y-32390338D03*
X58634768Y-33827179D03*
X59353188Y-33108758D03*
X60071608Y-33827179D03*
X59353188Y-31671917D03*
X59353188Y-34545599D03*
X60790029Y-33108758D03*
X57916347Y-33108758D03*
X66319000Y-38160000D03*
X65344000Y-36800400D03*
X64744000Y-32760000D03*
X63134000Y-35300000D03*
X61043199Y-35505044D03*
X57744000Y-42335000D03*
X55386619Y-36526080D03*
X59270279Y-27958662D03*
X64624000Y-34610000D03*
X55769000Y-38210000D03*
X54654735Y-31351847D03*
X64444000Y-42335000D03*
X63744000Y-31760000D03*
X62104000Y-34380000D03*
X56916596Y-28455635D03*
X57004000Y-30210000D03*
X53844000Y-40960000D03*
X64144000Y-31160000D03*
X59564000Y-29890000D03*
X56434500Y-29428896D03*
X62948199Y-29091490D03*
X59444000Y-35960000D03*
X55901381Y-27474392D03*
X58604000Y-36340000D03*
X56122000Y-25916490D03*
X57623647Y-36528786D03*
X56122000Y-23884500D03*
X56122000Y-21852500D03*
X56473862Y-36581077D03*
X58844000Y-29750000D03*
X58485145Y-28543701D03*
X57614191Y-29091500D03*
X57350532Y-31066471D03*
X75245760Y-31569834D03*
X77136000Y-26170000D03*
X78294579Y-27331280D03*
X75657859Y-34857734D03*
X74686000Y-32080000D03*
X80651699Y-31758500D03*
X77036768Y-32390338D03*
X78473608Y-32390338D03*
X77036768Y-33827179D03*
X77755188Y-33108758D03*
X78473608Y-33827179D03*
X77755188Y-31671917D03*
X77755188Y-34545599D03*
X79192029Y-33108758D03*
X76318347Y-33108758D03*
X84721000Y-38160000D03*
X83746000Y-36800400D03*
X83146000Y-32760000D03*
X81536000Y-35300000D03*
X79445199Y-35505044D03*
X76146000Y-42335000D03*
X73788619Y-36526080D03*
X77672279Y-27958662D03*
X83026000Y-34610000D03*
X74171000Y-38210000D03*
X73056735Y-31351847D03*
X82846000Y-42335000D03*
X82146000Y-31760000D03*
X80506000Y-34380000D03*
X75318596Y-28455635D03*
X75406000Y-30210000D03*
X72246000Y-40960000D03*
X82546000Y-31160000D03*
X77966000Y-29890000D03*
X74836500Y-29428896D03*
X81350199Y-29091490D03*
X77846000Y-35960000D03*
X74303381Y-27474392D03*
X77006000Y-36340000D03*
X74524000Y-25916490D03*
X76025647Y-36528786D03*
X74524000Y-23884500D03*
X74524000Y-21852500D03*
X74875862Y-36581077D03*
X77246000Y-29750000D03*
X76887145Y-28543701D03*
X76016191Y-29091500D03*
X75752532Y-31066471D03*
D12*
X26610760Y-27900760D02*
X26041280Y-27331280D01*
D13*
X20441313Y-34861313D02*
X20300000Y-34720000D01*
X20300000Y-34720000D02*
X20300000Y-31995801D01*
D12*
X26041280Y-27331280D02*
X23088579Y-27331280D01*
D14*
X20290000Y-31950000D02*
X20290000Y-31834199D01*
D12*
X29814700Y-27900760D02*
X26610760Y-27900760D01*
D14*
X20290000Y-31834199D02*
X20029214Y-31573413D01*
D12*
X45012760Y-27900760D02*
X44443280Y-27331280D01*
D13*
X38843313Y-34861313D02*
X38702000Y-34720000D01*
X38702000Y-34720000D02*
X38702000Y-31995801D01*
D12*
X44443280Y-27331280D02*
X41490579Y-27331280D01*
D14*
X38692000Y-31950000D02*
X38692000Y-31834199D01*
D12*
X48216700Y-27900760D02*
X45012760Y-27900760D01*
D14*
X38692000Y-31834199D02*
X38431214Y-31573413D01*
D12*
X63414760Y-27900760D02*
X62845280Y-27331280D01*
D13*
X57245313Y-34861313D02*
X57104000Y-34720000D01*
X57104000Y-34720000D02*
X57104000Y-31995801D01*
D12*
X62845280Y-27331280D02*
X59892579Y-27331280D01*
D14*
X57094000Y-31950000D02*
X57094000Y-31834199D01*
D12*
X66618700Y-27900760D02*
X63414760Y-27900760D01*
D14*
X57094000Y-31834199D02*
X56833214Y-31573413D01*
D12*
X81816760Y-27900760D02*
X81247280Y-27331280D01*
D13*
X75647313Y-34861313D02*
X75506000Y-34720000D01*
X75506000Y-34720000D02*
X75506000Y-31995801D01*
D12*
X81247280Y-27331280D02*
X78294579Y-27331280D01*
D14*
X75496000Y-31950000D02*
X75496000Y-31834199D01*
D12*
X85020700Y-27900760D02*
X81816760Y-27900760D01*
D14*
X75496000Y-31834199D02*
X75235214Y-31573413D01*
G04 #@! TA.AperFunction,Conductor*
G36*
X85623329Y-20756869D02*
G01*
X85646500Y-20760539D01*
X85651356Y-20759770D01*
X85656275Y-20759770D01*
X85656275Y-20759869D01*
X85670287Y-20759868D01*
X85685243Y-20762237D01*
X85700197Y-20764605D01*
X85718792Y-20770647D01*
X85758414Y-20790836D01*
X85774231Y-20802328D01*
X85805672Y-20833769D01*
X85817164Y-20849586D01*
X85837353Y-20889208D01*
X85843394Y-20907802D01*
X85848131Y-20937709D01*
X85848132Y-20951725D01*
X85848230Y-20951725D01*
X85848230Y-20956644D01*
X85847461Y-20961500D01*
X85848230Y-20966355D01*
X85848230Y-20966357D01*
X85851126Y-20984645D01*
X85851895Y-20994428D01*
X85851865Y-21238552D01*
X85833554Y-21282744D01*
X85822114Y-21291777D01*
X85793001Y-21309687D01*
X85769972Y-21323855D01*
X85767480Y-21326296D01*
X85767478Y-21326297D01*
X85663824Y-21427803D01*
X85619441Y-21445645D01*
X85575747Y-21427188D01*
X85479439Y-21330204D01*
X85453987Y-21314052D01*
X85344579Y-21244619D01*
X85344575Y-21244617D01*
X85341633Y-21242750D01*
X85187876Y-21188000D01*
X85111420Y-21178883D01*
X85029278Y-21169088D01*
X85029274Y-21169088D01*
X85025811Y-21168675D01*
X84932978Y-21178432D01*
X84866962Y-21185370D01*
X84866959Y-21185371D01*
X84863492Y-21185735D01*
X84860191Y-21186859D01*
X84860190Y-21186859D01*
X84853393Y-21189173D01*
X84708986Y-21238333D01*
X84569972Y-21323855D01*
X84567480Y-21326296D01*
X84567478Y-21326297D01*
X84560958Y-21332682D01*
X84453361Y-21438049D01*
X84451471Y-21440982D01*
X84451470Y-21440983D01*
X84404412Y-21514003D01*
X84364947Y-21575241D01*
X84354465Y-21604041D01*
X84313172Y-21717491D01*
X84309124Y-21728612D01*
X84288668Y-21890538D01*
X84304595Y-22052973D01*
X84356113Y-22207842D01*
X84357923Y-22210831D01*
X84357925Y-22210835D01*
X84396443Y-22274434D01*
X84440662Y-22347449D01*
X84554040Y-22464855D01*
X84690611Y-22554225D01*
X84843588Y-22611116D01*
X84847043Y-22611577D01*
X84847047Y-22611578D01*
X84937218Y-22623609D01*
X85005368Y-22632702D01*
X85008841Y-22632386D01*
X85008844Y-22632386D01*
X85086639Y-22625306D01*
X85167910Y-22617910D01*
X85323135Y-22567474D01*
X85419118Y-22510257D01*
X85460327Y-22485692D01*
X85460330Y-22485690D01*
X85463329Y-22483902D01*
X85579407Y-22373362D01*
X85624035Y-22356142D01*
X85667467Y-22375207D01*
X85705376Y-22414462D01*
X85754040Y-22464855D01*
X85823422Y-22510258D01*
X85850378Y-22549774D01*
X85851699Y-22562561D01*
X85851698Y-22567474D01*
X85851614Y-23238706D01*
X85833303Y-23282898D01*
X85821863Y-23291931D01*
X85789193Y-23312030D01*
X85769972Y-23323855D01*
X85767480Y-23326296D01*
X85767478Y-23326297D01*
X85663824Y-23427803D01*
X85619441Y-23445645D01*
X85575747Y-23427188D01*
X85479439Y-23330204D01*
X85418511Y-23291538D01*
X85344579Y-23244619D01*
X85344575Y-23244617D01*
X85341633Y-23242750D01*
X85187876Y-23188000D01*
X85111420Y-23178883D01*
X85029278Y-23169088D01*
X85029274Y-23169088D01*
X85025811Y-23168675D01*
X84932978Y-23178432D01*
X84866962Y-23185370D01*
X84866959Y-23185371D01*
X84863492Y-23185735D01*
X84860191Y-23186859D01*
X84860190Y-23186859D01*
X84853393Y-23189173D01*
X84708986Y-23238333D01*
X84569972Y-23323855D01*
X84567480Y-23326296D01*
X84567478Y-23326297D01*
X84560958Y-23332682D01*
X84453361Y-23438049D01*
X84451471Y-23440982D01*
X84451470Y-23440983D01*
X84366839Y-23572305D01*
X84364947Y-23575241D01*
X84309124Y-23728612D01*
X84288668Y-23890538D01*
X84289009Y-23894015D01*
X84300884Y-24015123D01*
X84304595Y-24052973D01*
X84305697Y-24056285D01*
X84305697Y-24056286D01*
X84315613Y-24086093D01*
X84356113Y-24207842D01*
X84357923Y-24210831D01*
X84357925Y-24210835D01*
X84374566Y-24238312D01*
X84440662Y-24347449D01*
X84554040Y-24464855D01*
X84690611Y-24554225D01*
X84843588Y-24611116D01*
X84847043Y-24611577D01*
X84847047Y-24611578D01*
X84937218Y-24623609D01*
X85005368Y-24632702D01*
X85008841Y-24632386D01*
X85008844Y-24632386D01*
X85086639Y-24625306D01*
X85167910Y-24617910D01*
X85323135Y-24567474D01*
X85419997Y-24509733D01*
X85460327Y-24485692D01*
X85460330Y-24485690D01*
X85463329Y-24483902D01*
X85579407Y-24373362D01*
X85624035Y-24356142D01*
X85667467Y-24375207D01*
X85705376Y-24414462D01*
X85754040Y-24464855D01*
X85822621Y-24509733D01*
X85823171Y-24510093D01*
X85850127Y-24549610D01*
X85851448Y-24562397D01*
X85851447Y-24567474D01*
X85851363Y-25238853D01*
X85833052Y-25283045D01*
X85821612Y-25292078D01*
X85769972Y-25323847D01*
X85767480Y-25326288D01*
X85767478Y-25326289D01*
X85663824Y-25427795D01*
X85619441Y-25445637D01*
X85575747Y-25427180D01*
X85479439Y-25330196D01*
X85453987Y-25314044D01*
X85344579Y-25244611D01*
X85344575Y-25244609D01*
X85341633Y-25242742D01*
X85187876Y-25187992D01*
X85111420Y-25178875D01*
X85029278Y-25169080D01*
X85029274Y-25169080D01*
X85025811Y-25168667D01*
X84932978Y-25178424D01*
X84866962Y-25185362D01*
X84866959Y-25185363D01*
X84863492Y-25185727D01*
X84860191Y-25186851D01*
X84860190Y-25186851D01*
X84856815Y-25188000D01*
X84708986Y-25238325D01*
X84569972Y-25323847D01*
X84567480Y-25326288D01*
X84567478Y-25326289D01*
X84563480Y-25330204D01*
X84453361Y-25438041D01*
X84451471Y-25440974D01*
X84451470Y-25440975D01*
X84448221Y-25446016D01*
X84364947Y-25575233D01*
X84309124Y-25728604D01*
X84288668Y-25890530D01*
X84289009Y-25894007D01*
X84303740Y-26044241D01*
X84304595Y-26052965D01*
X84305697Y-26056277D01*
X84305697Y-26056278D01*
X84345145Y-26174862D01*
X84356113Y-26207834D01*
X84357923Y-26210823D01*
X84357925Y-26210827D01*
X84399320Y-26279177D01*
X84440662Y-26347441D01*
X84554040Y-26464847D01*
X84556959Y-26466757D01*
X84556960Y-26466758D01*
X84583147Y-26483894D01*
X84690611Y-26554217D01*
X84843588Y-26611108D01*
X84847043Y-26611569D01*
X84847047Y-26611570D01*
X84937218Y-26623601D01*
X85005368Y-26632694D01*
X85008841Y-26632378D01*
X85008844Y-26632378D01*
X85086639Y-26625298D01*
X85167910Y-26617902D01*
X85323135Y-26567466D01*
X85412477Y-26514208D01*
X85460327Y-26485684D01*
X85460330Y-26485682D01*
X85463329Y-26483894D01*
X85579407Y-26373354D01*
X85624035Y-26356134D01*
X85667467Y-26375199D01*
X85667475Y-26375207D01*
X85754040Y-26464847D01*
X85756959Y-26466757D01*
X85756960Y-26466758D01*
X85779462Y-26481483D01*
X85822633Y-26509733D01*
X85822920Y-26509921D01*
X85849876Y-26549438D01*
X85851197Y-26562225D01*
X85851193Y-26591934D01*
X85851112Y-27239015D01*
X85832801Y-27283207D01*
X85821361Y-27292240D01*
X85790284Y-27311359D01*
X85769972Y-27323855D01*
X85767480Y-27326296D01*
X85767478Y-27326297D01*
X85663824Y-27427803D01*
X85619441Y-27445645D01*
X85575747Y-27427188D01*
X85553995Y-27405283D01*
X85479439Y-27330204D01*
X85418511Y-27291538D01*
X85344579Y-27244619D01*
X85344575Y-27244617D01*
X85341633Y-27242750D01*
X85187876Y-27188000D01*
X85111420Y-27178883D01*
X85029278Y-27169088D01*
X85029274Y-27169088D01*
X85025811Y-27168675D01*
X84932978Y-27178432D01*
X84866962Y-27185370D01*
X84866959Y-27185371D01*
X84863492Y-27185735D01*
X84860191Y-27186859D01*
X84860190Y-27186859D01*
X84853393Y-27189173D01*
X84708986Y-27238333D01*
X84569972Y-27323855D01*
X84567479Y-27326296D01*
X84567473Y-27326301D01*
X84518342Y-27374414D01*
X84474613Y-27392260D01*
X82053276Y-27392260D01*
X82009082Y-27373954D01*
X81652083Y-27016956D01*
X81643419Y-27006112D01*
X81638504Y-26998322D01*
X81635171Y-26995378D01*
X81635168Y-26995375D01*
X81596683Y-26961387D01*
X81593862Y-26958735D01*
X81581025Y-26945898D01*
X81579247Y-26944565D01*
X81579243Y-26944562D01*
X81570614Y-26938094D01*
X81566727Y-26934929D01*
X81532669Y-26904851D01*
X81532666Y-26904849D01*
X81529329Y-26901902D01*
X81525297Y-26900009D01*
X81516369Y-26895817D01*
X81505449Y-26889256D01*
X81497547Y-26883334D01*
X81493985Y-26880664D01*
X81447241Y-26863140D01*
X81442650Y-26861206D01*
X81397480Y-26839999D01*
X81385679Y-26838162D01*
X81383332Y-26837796D01*
X81371010Y-26834563D01*
X81361767Y-26831098D01*
X81361763Y-26831097D01*
X81357596Y-26829535D01*
X81353157Y-26829205D01*
X81353156Y-26829205D01*
X81344515Y-26828563D01*
X81307836Y-26825838D01*
X81302859Y-26825266D01*
X81289288Y-26823152D01*
X81289278Y-26823151D01*
X81286894Y-26822780D01*
X81269010Y-26822780D01*
X81264378Y-26822608D01*
X81212339Y-26818741D01*
X81207987Y-26819670D01*
X81199868Y-26821403D01*
X81186821Y-26822780D01*
X78258066Y-26822780D01*
X78150392Y-26838200D01*
X78095529Y-26863145D01*
X78021852Y-26896644D01*
X78021850Y-26896645D01*
X78017797Y-26898488D01*
X77907452Y-26993567D01*
X77828227Y-27115795D01*
X77786493Y-27255346D01*
X77786323Y-27283207D01*
X77785980Y-27339383D01*
X77785603Y-27401001D01*
X77825630Y-27541051D01*
X77903355Y-27664238D01*
X77906687Y-27667181D01*
X77906689Y-27667183D01*
X78009193Y-27757711D01*
X78012530Y-27760658D01*
X78016560Y-27762550D01*
X78140348Y-27820669D01*
X78140351Y-27820670D01*
X78144379Y-27822561D01*
X78254965Y-27839780D01*
X81010765Y-27839780D01*
X81054959Y-27858086D01*
X81411957Y-28215084D01*
X81420621Y-28225928D01*
X81425536Y-28233718D01*
X81428869Y-28236662D01*
X81428872Y-28236665D01*
X81467357Y-28270653D01*
X81470178Y-28273305D01*
X81483015Y-28286142D01*
X81484793Y-28287475D01*
X81484797Y-28287478D01*
X81493426Y-28293946D01*
X81497313Y-28297111D01*
X81531371Y-28327189D01*
X81531374Y-28327191D01*
X81534711Y-28330138D01*
X81538743Y-28332031D01*
X81547671Y-28336223D01*
X81558591Y-28342784D01*
X81570055Y-28351376D01*
X81574223Y-28352939D01*
X81574224Y-28352939D01*
X81616779Y-28368892D01*
X81621401Y-28370840D01*
X81662525Y-28390147D01*
X81662527Y-28390148D01*
X81666560Y-28392041D01*
X81670959Y-28392726D01*
X81670962Y-28392727D01*
X81680714Y-28394245D01*
X81693031Y-28397476D01*
X81706444Y-28402504D01*
X81710885Y-28402834D01*
X81756189Y-28406201D01*
X81761172Y-28406773D01*
X81773498Y-28408692D01*
X81777146Y-28409260D01*
X81795034Y-28409260D01*
X81799667Y-28409432D01*
X81851701Y-28413299D01*
X81864172Y-28410637D01*
X81877219Y-28409260D01*
X84473822Y-28409260D01*
X84518781Y-28428343D01*
X84554040Y-28464855D01*
X84690611Y-28554225D01*
X84843588Y-28611116D01*
X84847043Y-28611577D01*
X84847047Y-28611578D01*
X84937218Y-28623609D01*
X85005368Y-28632702D01*
X85008841Y-28632386D01*
X85008844Y-28632386D01*
X85086639Y-28625306D01*
X85167910Y-28617910D01*
X85323135Y-28567474D01*
X85404076Y-28519224D01*
X85460327Y-28485692D01*
X85460330Y-28485690D01*
X85463329Y-28483902D01*
X85579407Y-28373362D01*
X85624035Y-28356142D01*
X85667467Y-28375207D01*
X85692319Y-28400941D01*
X85754040Y-28464855D01*
X85756959Y-28466765D01*
X85756960Y-28466766D01*
X85822669Y-28509765D01*
X85849625Y-28549282D01*
X85850946Y-28562069D01*
X85850932Y-28674324D01*
X85850861Y-29239169D01*
X85832550Y-29283361D01*
X85821111Y-29292394D01*
X85769972Y-29323855D01*
X85767480Y-29326296D01*
X85767478Y-29326297D01*
X85745331Y-29347985D01*
X85684021Y-29408025D01*
X85663824Y-29427803D01*
X85619441Y-29445645D01*
X85575747Y-29427188D01*
X85560171Y-29411503D01*
X85479439Y-29330204D01*
X85429124Y-29298273D01*
X85344579Y-29244619D01*
X85344575Y-29244617D01*
X85341633Y-29242750D01*
X85187876Y-29188000D01*
X85111420Y-29178883D01*
X85029278Y-29169088D01*
X85029274Y-29169088D01*
X85025811Y-29168675D01*
X84932978Y-29178432D01*
X84866962Y-29185370D01*
X84866959Y-29185371D01*
X84863492Y-29185735D01*
X84860191Y-29186859D01*
X84860190Y-29186859D01*
X84853393Y-29189173D01*
X84708986Y-29238333D01*
X84569972Y-29323855D01*
X84567480Y-29326296D01*
X84567478Y-29326297D01*
X84545331Y-29347985D01*
X84453361Y-29438049D01*
X84451471Y-29440982D01*
X84451470Y-29440983D01*
X84366839Y-29572305D01*
X84364947Y-29575241D01*
X84309124Y-29728612D01*
X84296483Y-29828676D01*
X84289921Y-29880623D01*
X84288668Y-29890538D01*
X84304595Y-30052973D01*
X84305697Y-30056285D01*
X84305697Y-30056286D01*
X84315613Y-30086093D01*
X84356113Y-30207842D01*
X84357923Y-30210831D01*
X84357925Y-30210835D01*
X84374566Y-30238312D01*
X84440662Y-30347449D01*
X84554040Y-30464855D01*
X84690611Y-30554225D01*
X84843588Y-30611116D01*
X84847043Y-30611577D01*
X84847047Y-30611578D01*
X84937218Y-30623609D01*
X85005368Y-30632702D01*
X85008841Y-30632386D01*
X85008844Y-30632386D01*
X85086639Y-30625306D01*
X85167910Y-30617910D01*
X85323135Y-30567474D01*
X85420220Y-30509600D01*
X85460327Y-30485692D01*
X85460330Y-30485690D01*
X85463329Y-30483902D01*
X85579407Y-30373362D01*
X85624035Y-30356142D01*
X85667467Y-30375207D01*
X85751614Y-30462343D01*
X85754040Y-30464855D01*
X85822419Y-30509602D01*
X85849374Y-30549117D01*
X85850695Y-30561904D01*
X85850682Y-30663686D01*
X85850610Y-31239324D01*
X85832299Y-31283516D01*
X85820859Y-31292549D01*
X85791671Y-31310506D01*
X85769972Y-31323855D01*
X85767480Y-31326296D01*
X85767478Y-31326297D01*
X85663824Y-31427803D01*
X85619441Y-31445645D01*
X85575747Y-31427188D01*
X85559353Y-31410679D01*
X85479439Y-31330204D01*
X85418511Y-31291538D01*
X85344579Y-31244619D01*
X85344575Y-31244617D01*
X85341633Y-31242750D01*
X85187876Y-31188000D01*
X85111420Y-31178883D01*
X85029278Y-31169088D01*
X85029274Y-31169088D01*
X85025811Y-31168675D01*
X84932978Y-31178432D01*
X84866962Y-31185370D01*
X84866959Y-31185371D01*
X84863492Y-31185735D01*
X84860191Y-31186859D01*
X84860190Y-31186859D01*
X84853393Y-31189173D01*
X84708986Y-31238333D01*
X84569972Y-31323855D01*
X84567480Y-31326296D01*
X84567478Y-31326297D01*
X84560958Y-31332682D01*
X84453361Y-31438049D01*
X84451471Y-31440982D01*
X84451470Y-31440983D01*
X84366839Y-31572305D01*
X84364947Y-31575241D01*
X84351640Y-31611801D01*
X84331056Y-31668356D01*
X84309124Y-31728612D01*
X84288668Y-31890538D01*
X84304595Y-32052973D01*
X84305697Y-32056285D01*
X84305697Y-32056286D01*
X84346996Y-32180434D01*
X84356113Y-32207842D01*
X84357923Y-32210831D01*
X84357925Y-32210835D01*
X84374566Y-32238312D01*
X84440662Y-32347449D01*
X84554040Y-32464855D01*
X84690611Y-32554225D01*
X84843588Y-32611116D01*
X84847043Y-32611577D01*
X84847047Y-32611578D01*
X84937218Y-32623609D01*
X85005368Y-32632702D01*
X85008841Y-32632386D01*
X85008844Y-32632386D01*
X85086639Y-32625306D01*
X85167910Y-32617910D01*
X85323135Y-32567474D01*
X85420495Y-32509436D01*
X85460327Y-32485692D01*
X85460330Y-32485690D01*
X85463329Y-32483902D01*
X85579407Y-32373362D01*
X85624035Y-32356142D01*
X85667467Y-32375207D01*
X85705376Y-32414462D01*
X85754040Y-32464855D01*
X85756961Y-32466766D01*
X85756964Y-32466769D01*
X85822167Y-32509436D01*
X85849124Y-32548953D01*
X85850445Y-32561740D01*
X85850348Y-33330204D01*
X85850108Y-35239633D01*
X85831797Y-35283825D01*
X85820357Y-35292858D01*
X85815484Y-35295856D01*
X85769972Y-35323855D01*
X85767480Y-35326296D01*
X85767478Y-35326297D01*
X85663824Y-35427803D01*
X85619441Y-35445645D01*
X85575747Y-35427188D01*
X85479439Y-35330204D01*
X85391755Y-35274558D01*
X85344579Y-35244619D01*
X85344575Y-35244617D01*
X85341633Y-35242750D01*
X85187876Y-35188000D01*
X85111420Y-35178883D01*
X85029278Y-35169088D01*
X85029274Y-35169088D01*
X85025811Y-35168675D01*
X84932978Y-35178432D01*
X84866962Y-35185370D01*
X84866959Y-35185371D01*
X84863492Y-35185735D01*
X84860191Y-35186859D01*
X84860190Y-35186859D01*
X84855916Y-35188314D01*
X84708986Y-35238333D01*
X84569972Y-35323855D01*
X84567480Y-35326296D01*
X84567478Y-35326297D01*
X84560958Y-35332682D01*
X84453361Y-35438049D01*
X84451471Y-35440982D01*
X84451470Y-35440983D01*
X84376564Y-35557215D01*
X84364947Y-35575241D01*
X84309124Y-35728612D01*
X84288668Y-35890538D01*
X84289009Y-35894015D01*
X84300951Y-36015806D01*
X84304595Y-36052973D01*
X84305697Y-36056285D01*
X84305697Y-36056286D01*
X84347283Y-36181297D01*
X84356113Y-36207842D01*
X84357923Y-36210831D01*
X84357925Y-36210835D01*
X84377151Y-36242580D01*
X84440662Y-36347449D01*
X84554040Y-36464855D01*
X84690611Y-36554225D01*
X84843588Y-36611116D01*
X84847043Y-36611577D01*
X84847047Y-36611578D01*
X84937218Y-36623609D01*
X85005368Y-36632702D01*
X85008841Y-36632386D01*
X85008844Y-36632386D01*
X85086639Y-36625306D01*
X85167910Y-36617910D01*
X85323135Y-36567474D01*
X85396191Y-36523924D01*
X85460327Y-36485692D01*
X85460330Y-36485690D01*
X85463329Y-36483902D01*
X85579407Y-36373362D01*
X85624035Y-36356142D01*
X85667467Y-36375207D01*
X85689636Y-36398163D01*
X85754040Y-36464855D01*
X85821666Y-36509109D01*
X85848622Y-36548625D01*
X85849943Y-36561411D01*
X85849917Y-36762704D01*
X85849907Y-36844998D01*
X85849905Y-36845093D01*
X85849900Y-36845148D01*
X85849900Y-36899660D01*
X85849898Y-36919574D01*
X85849896Y-36931539D01*
X85849899Y-36931558D01*
X85849900Y-36931579D01*
X85849900Y-42869051D01*
X85849131Y-42878828D01*
X85847014Y-42892197D01*
X85845461Y-42902000D01*
X85846231Y-42906859D01*
X85846231Y-42911775D01*
X85845517Y-42911775D01*
X85845252Y-42925371D01*
X85841524Y-42944111D01*
X85832192Y-42966640D01*
X85815244Y-42992003D01*
X85798003Y-43009244D01*
X85772640Y-43026192D01*
X85750111Y-43035524D01*
X85731369Y-43039252D01*
X85717775Y-43039517D01*
X85717775Y-43040231D01*
X85712859Y-43040231D01*
X85708000Y-43039461D01*
X85703145Y-43040230D01*
X85703143Y-43040230D01*
X85684828Y-43043131D01*
X85675051Y-43043900D01*
X70800449Y-43043900D01*
X70790672Y-43043131D01*
X70779926Y-43041429D01*
X70767500Y-43039461D01*
X70762644Y-43040230D01*
X70757725Y-43040230D01*
X70757725Y-43040131D01*
X70743713Y-43040132D01*
X70714617Y-43035524D01*
X70713803Y-43035395D01*
X70695208Y-43029353D01*
X70655586Y-43009164D01*
X70639769Y-42997672D01*
X70608328Y-42966231D01*
X70596834Y-42950412D01*
X70576647Y-42910792D01*
X70570605Y-42892197D01*
X70565868Y-42862288D01*
X70565869Y-42848275D01*
X70565770Y-42848275D01*
X70565770Y-42843356D01*
X70566539Y-42838500D01*
X70562869Y-42815328D01*
X70562100Y-42805551D01*
X70562100Y-36581077D01*
X74453158Y-36581077D01*
X74473847Y-36711700D01*
X74533887Y-36829536D01*
X74627403Y-36923052D01*
X74745239Y-36983092D01*
X74875862Y-37003781D01*
X75006485Y-36983092D01*
X75124321Y-36923052D01*
X75217837Y-36829536D01*
X75277877Y-36711700D01*
X75298566Y-36581077D01*
X75296412Y-36567474D01*
X75290284Y-36528786D01*
X75602943Y-36528786D01*
X75623632Y-36659409D01*
X75683672Y-36777245D01*
X75777188Y-36870761D01*
X75895024Y-36930801D01*
X76025647Y-36951490D01*
X76156270Y-36930801D01*
X76274106Y-36870761D01*
X76367622Y-36777245D01*
X76427662Y-36659409D01*
X76448351Y-36528786D01*
X76427662Y-36398163D01*
X76398027Y-36340000D01*
X76583296Y-36340000D01*
X76603985Y-36470623D01*
X76664025Y-36588459D01*
X76757541Y-36681975D01*
X76875377Y-36742015D01*
X77006000Y-36762704D01*
X77136623Y-36742015D01*
X77254459Y-36681975D01*
X77347975Y-36588459D01*
X77408015Y-36470623D01*
X77428704Y-36340000D01*
X77419865Y-36284194D01*
X77431031Y-36237681D01*
X77471818Y-36212687D01*
X77518331Y-36223853D01*
X77525789Y-36230223D01*
X77597541Y-36301975D01*
X77715377Y-36362015D01*
X77846000Y-36382704D01*
X77976623Y-36362015D01*
X78094459Y-36301975D01*
X78187975Y-36208459D01*
X78248015Y-36090623D01*
X78268704Y-35960000D01*
X78248015Y-35829377D01*
X78187975Y-35711541D01*
X78094459Y-35618025D01*
X77976623Y-35557985D01*
X77846000Y-35537296D01*
X77715377Y-35557985D01*
X77597541Y-35618025D01*
X77504025Y-35711541D01*
X77443985Y-35829377D01*
X77423296Y-35960000D01*
X77424066Y-35964861D01*
X77432135Y-36015806D01*
X77420969Y-36062319D01*
X77380182Y-36087313D01*
X77333669Y-36076147D01*
X77326211Y-36069777D01*
X77254459Y-35998025D01*
X77136623Y-35937985D01*
X77006000Y-35917296D01*
X76875377Y-35937985D01*
X76757541Y-35998025D01*
X76664025Y-36091541D01*
X76603985Y-36209377D01*
X76583296Y-36340000D01*
X76398027Y-36340000D01*
X76367622Y-36280327D01*
X76274106Y-36186811D01*
X76156270Y-36126771D01*
X76025647Y-36106082D01*
X75895024Y-36126771D01*
X75777188Y-36186811D01*
X75683672Y-36280327D01*
X75623632Y-36398163D01*
X75602943Y-36528786D01*
X75290284Y-36528786D01*
X75283458Y-36485692D01*
X75277877Y-36450454D01*
X75217837Y-36332618D01*
X75124321Y-36239102D01*
X75006485Y-36179062D01*
X74875862Y-36158373D01*
X74745239Y-36179062D01*
X74627403Y-36239102D01*
X74533887Y-36332618D01*
X74473847Y-36450454D01*
X74468266Y-36485692D01*
X74455313Y-36567474D01*
X74453158Y-36581077D01*
X70562100Y-36581077D01*
X70562100Y-34563418D01*
X70580406Y-34519224D01*
X70592597Y-34509733D01*
X70632927Y-34485692D01*
X70632930Y-34485690D01*
X70635929Y-34483902D01*
X70752007Y-34373362D01*
X70796635Y-34356142D01*
X70840067Y-34375207D01*
X70877976Y-34414462D01*
X70926640Y-34464855D01*
X71063211Y-34554225D01*
X71216188Y-34611116D01*
X71219643Y-34611577D01*
X71219647Y-34611578D01*
X71309818Y-34623609D01*
X71377968Y-34632702D01*
X71381441Y-34632386D01*
X71381444Y-34632386D01*
X71459239Y-34625306D01*
X71540510Y-34617910D01*
X71695735Y-34567474D01*
X71792597Y-34509733D01*
X71832927Y-34485692D01*
X71832930Y-34485690D01*
X71835929Y-34483902D01*
X71950070Y-34375207D01*
X71951594Y-34373756D01*
X71951597Y-34373753D01*
X71954123Y-34371347D01*
X72044444Y-34235403D01*
X72102403Y-34082827D01*
X72125118Y-33921202D01*
X72125403Y-33900760D01*
X72125184Y-33898807D01*
X72107600Y-33742037D01*
X72107599Y-33742033D01*
X72107210Y-33738564D01*
X72053534Y-33584429D01*
X71967044Y-33446016D01*
X71852039Y-33330204D01*
X71762100Y-33273127D01*
X71717179Y-33244619D01*
X71717175Y-33244617D01*
X71714233Y-33242750D01*
X71560476Y-33188000D01*
X71484020Y-33178883D01*
X71401878Y-33169088D01*
X71401874Y-33169088D01*
X71398411Y-33168675D01*
X71305578Y-33178432D01*
X71239562Y-33185370D01*
X71239559Y-33185371D01*
X71236092Y-33185735D01*
X71232791Y-33186859D01*
X71232790Y-33186859D01*
X71225993Y-33189173D01*
X71081586Y-33238333D01*
X70942572Y-33323855D01*
X70940080Y-33326296D01*
X70940078Y-33326297D01*
X70836424Y-33427803D01*
X70792041Y-33445645D01*
X70748347Y-33427188D01*
X70652039Y-33330204D01*
X70591111Y-33291538D01*
X70563605Y-33252401D01*
X70562100Y-33238767D01*
X70562100Y-32563418D01*
X70580406Y-32519224D01*
X70592597Y-32509733D01*
X70632927Y-32485692D01*
X70632930Y-32485690D01*
X70635929Y-32483902D01*
X70752007Y-32373362D01*
X70796635Y-32356142D01*
X70840067Y-32375207D01*
X70877976Y-32414462D01*
X70926640Y-32464855D01*
X71063211Y-32554225D01*
X71216188Y-32611116D01*
X71219643Y-32611577D01*
X71219647Y-32611578D01*
X71309818Y-32623609D01*
X71377968Y-32632702D01*
X71381441Y-32632386D01*
X71381444Y-32632386D01*
X71459239Y-32625306D01*
X71540510Y-32617910D01*
X71695735Y-32567474D01*
X71793095Y-32509436D01*
X71832927Y-32485692D01*
X71832930Y-32485690D01*
X71835929Y-32483902D01*
X71904611Y-32418497D01*
X71951594Y-32373756D01*
X71951597Y-32373753D01*
X71954123Y-32371347D01*
X72044444Y-32235403D01*
X72102403Y-32082827D01*
X72102800Y-32080000D01*
X74263296Y-32080000D01*
X74283985Y-32210623D01*
X74344025Y-32328459D01*
X74437541Y-32421975D01*
X74555377Y-32482015D01*
X74686000Y-32502704D01*
X74816623Y-32482015D01*
X74934459Y-32421975D01*
X74967006Y-32389428D01*
X75011200Y-32371122D01*
X75055394Y-32389428D01*
X75073700Y-32433622D01*
X75073700Y-34690613D01*
X75073267Y-34697959D01*
X75069033Y-34733733D01*
X75069872Y-34738327D01*
X75069872Y-34738328D01*
X75079315Y-34790033D01*
X75079637Y-34791969D01*
X75087449Y-34843930D01*
X75087450Y-34843933D01*
X75088144Y-34848549D01*
X75090166Y-34852760D01*
X75090572Y-34854080D01*
X75090664Y-34854455D01*
X75090953Y-34855346D01*
X75091100Y-34855705D01*
X75091549Y-34857015D01*
X75092388Y-34861611D01*
X75094541Y-34865755D01*
X75094542Y-34865759D01*
X75118774Y-34912409D01*
X75119651Y-34914164D01*
X75144414Y-34965733D01*
X75147586Y-34969164D01*
X75148361Y-34970304D01*
X75148760Y-34970974D01*
X75150671Y-34973811D01*
X75152312Y-34976970D01*
X75156442Y-34981807D01*
X75193014Y-35018379D01*
X75194715Y-35020148D01*
X75232655Y-35061191D01*
X75236697Y-35063539D01*
X75240342Y-35066459D01*
X75240070Y-35066799D01*
X75245980Y-35071345D01*
X75364596Y-35189961D01*
X75366465Y-35191342D01*
X75366468Y-35191344D01*
X75427532Y-35236446D01*
X75442742Y-35247680D01*
X75447150Y-35249228D01*
X75560981Y-35289204D01*
X75560984Y-35289205D01*
X75565393Y-35290753D01*
X75570061Y-35290936D01*
X75570064Y-35290937D01*
X75690622Y-35295673D01*
X75690624Y-35295673D01*
X75695288Y-35295856D01*
X75699801Y-35294659D01*
X75699804Y-35294659D01*
X75777854Y-35273964D01*
X75820939Y-35262540D01*
X75824903Y-35260068D01*
X75824905Y-35260067D01*
X75927274Y-35196224D01*
X75931241Y-35193750D01*
X76016439Y-35095567D01*
X76018329Y-35091292D01*
X76067111Y-34980950D01*
X76067112Y-34980948D01*
X76069001Y-34976674D01*
X76084280Y-34847580D01*
X76083441Y-34842985D01*
X76061765Y-34724300D01*
X76061764Y-34724298D01*
X76060925Y-34719702D01*
X76008214Y-34618226D01*
X76002643Y-34607502D01*
X76001002Y-34604343D01*
X75996871Y-34599506D01*
X75956606Y-34559241D01*
X75938300Y-34515047D01*
X75938300Y-31963323D01*
X75923856Y-31867252D01*
X75875598Y-31766754D01*
X75873200Y-31758500D01*
X80228995Y-31758500D01*
X80249684Y-31889123D01*
X80309724Y-32006959D01*
X80403240Y-32100475D01*
X80521076Y-32160515D01*
X80651699Y-32181204D01*
X80782322Y-32160515D01*
X80900158Y-32100475D01*
X80993674Y-32006959D01*
X81053714Y-31889123D01*
X81074403Y-31758500D01*
X81071796Y-31742037D01*
X81067957Y-31717803D01*
X81053714Y-31627877D01*
X80993674Y-31510041D01*
X80900158Y-31416525D01*
X80782322Y-31356485D01*
X80651699Y-31335796D01*
X80521076Y-31356485D01*
X80403240Y-31416525D01*
X80309724Y-31510041D01*
X80249684Y-31627877D01*
X80235441Y-31717803D01*
X80231603Y-31742037D01*
X80228995Y-31758500D01*
X75873200Y-31758500D01*
X75869874Y-31747049D01*
X75868807Y-31738025D01*
X75867418Y-31726292D01*
X75865183Y-31721637D01*
X75864069Y-31717803D01*
X75862770Y-31714008D01*
X75861922Y-31708916D01*
X75836737Y-31662241D01*
X75835400Y-31659616D01*
X75814143Y-31615348D01*
X75812440Y-31611801D01*
X75808830Y-31607507D01*
X75808645Y-31607322D01*
X75806056Y-31604255D01*
X75804065Y-31601689D01*
X75801612Y-31597142D01*
X75789340Y-31585798D01*
X75769314Y-31542358D01*
X75785870Y-31497479D01*
X75821989Y-31478174D01*
X75832793Y-31476463D01*
X75883155Y-31468486D01*
X76000991Y-31408446D01*
X76094507Y-31314930D01*
X76154547Y-31197094D01*
X76175236Y-31066471D01*
X76154547Y-30935848D01*
X76094507Y-30818012D01*
X76000991Y-30724496D01*
X75883155Y-30664456D01*
X75752532Y-30643767D01*
X75621909Y-30664456D01*
X75504073Y-30724496D01*
X75410557Y-30818012D01*
X75350517Y-30935848D01*
X75329828Y-31066471D01*
X75330597Y-31071326D01*
X75330597Y-31071333D01*
X75331637Y-31077897D01*
X75320471Y-31124411D01*
X75279685Y-31149405D01*
X75260130Y-31149406D01*
X75250617Y-31147899D01*
X75250615Y-31147899D01*
X75245760Y-31147130D01*
X75115137Y-31167819D01*
X74997301Y-31227859D01*
X74903785Y-31321375D01*
X74843745Y-31439211D01*
X74823056Y-31569834D01*
X74823825Y-31574689D01*
X74823825Y-31574696D01*
X74827334Y-31596848D01*
X74816168Y-31643362D01*
X74775382Y-31668356D01*
X74755829Y-31668356D01*
X74686000Y-31657296D01*
X74555377Y-31677985D01*
X74437541Y-31738025D01*
X74344025Y-31831541D01*
X74283985Y-31949377D01*
X74263296Y-32080000D01*
X72102800Y-32080000D01*
X72125118Y-31921202D01*
X72125403Y-31900760D01*
X72125184Y-31898807D01*
X72107600Y-31742037D01*
X72107599Y-31742033D01*
X72107210Y-31738564D01*
X72053534Y-31584429D01*
X71967044Y-31446016D01*
X71852039Y-31330204D01*
X71791111Y-31291538D01*
X71717179Y-31244619D01*
X71717175Y-31244617D01*
X71714233Y-31242750D01*
X71560476Y-31188000D01*
X71484020Y-31178883D01*
X71401878Y-31169088D01*
X71401874Y-31169088D01*
X71398411Y-31168675D01*
X71305578Y-31178432D01*
X71239562Y-31185370D01*
X71239559Y-31185371D01*
X71236092Y-31185735D01*
X71232791Y-31186859D01*
X71232790Y-31186859D01*
X71225993Y-31189173D01*
X71081586Y-31238333D01*
X70942572Y-31323855D01*
X70940080Y-31326296D01*
X70940078Y-31326297D01*
X70836424Y-31427803D01*
X70792041Y-31445645D01*
X70748347Y-31427188D01*
X70731953Y-31410679D01*
X70652039Y-31330204D01*
X70591111Y-31291538D01*
X70563605Y-31252401D01*
X70562100Y-31238767D01*
X70562100Y-30563418D01*
X70580406Y-30519224D01*
X70592597Y-30509733D01*
X70632927Y-30485692D01*
X70632930Y-30485690D01*
X70635929Y-30483902D01*
X70752007Y-30373362D01*
X70796635Y-30356142D01*
X70840067Y-30375207D01*
X70877976Y-30414462D01*
X70926640Y-30464855D01*
X71063211Y-30554225D01*
X71216188Y-30611116D01*
X71219643Y-30611577D01*
X71219647Y-30611578D01*
X71309818Y-30623609D01*
X71377968Y-30632702D01*
X71381441Y-30632386D01*
X71381444Y-30632386D01*
X71459239Y-30625306D01*
X71540510Y-30617910D01*
X71695735Y-30567474D01*
X71792820Y-30509600D01*
X71832927Y-30485692D01*
X71832930Y-30485690D01*
X71835929Y-30483902D01*
X71950070Y-30375207D01*
X71951594Y-30373756D01*
X71951597Y-30373753D01*
X71954123Y-30371347D01*
X72044444Y-30235403D01*
X72102403Y-30082827D01*
X72125118Y-29921202D01*
X72125403Y-29900760D01*
X72125184Y-29898807D01*
X72107600Y-29742037D01*
X72107599Y-29742033D01*
X72107210Y-29738564D01*
X72053534Y-29584429D01*
X71967044Y-29446016D01*
X71950043Y-29428896D01*
X74413796Y-29428896D01*
X74434485Y-29559519D01*
X74494525Y-29677355D01*
X74588041Y-29770871D01*
X74705877Y-29830911D01*
X74836500Y-29851600D01*
X74967123Y-29830911D01*
X75084959Y-29770871D01*
X75105830Y-29750000D01*
X76823296Y-29750000D01*
X76843985Y-29880623D01*
X76904025Y-29998459D01*
X76997541Y-30091975D01*
X77115377Y-30152015D01*
X77246000Y-30172704D01*
X77376623Y-30152015D01*
X77494459Y-30091975D01*
X77587975Y-29998459D01*
X77648015Y-29880623D01*
X77668704Y-29750000D01*
X77648015Y-29619377D01*
X77587975Y-29501541D01*
X77494459Y-29408025D01*
X77376623Y-29347985D01*
X77246000Y-29327296D01*
X77115377Y-29347985D01*
X76997541Y-29408025D01*
X76904025Y-29501541D01*
X76843985Y-29619377D01*
X76823296Y-29750000D01*
X75105830Y-29750000D01*
X75178475Y-29677355D01*
X75238515Y-29559519D01*
X75259204Y-29428896D01*
X75238515Y-29298273D01*
X75178475Y-29180437D01*
X75089538Y-29091500D01*
X75593487Y-29091500D01*
X75614176Y-29222123D01*
X75674216Y-29339959D01*
X75767732Y-29433475D01*
X75885568Y-29493515D01*
X76016191Y-29514204D01*
X76146814Y-29493515D01*
X76264650Y-29433475D01*
X76358166Y-29339959D01*
X76418206Y-29222123D01*
X76438895Y-29091500D01*
X76438893Y-29091490D01*
X80927495Y-29091490D01*
X80948184Y-29222113D01*
X81008224Y-29339949D01*
X81101740Y-29433465D01*
X81219576Y-29493505D01*
X81350199Y-29514194D01*
X81480822Y-29493505D01*
X81598658Y-29433465D01*
X81692174Y-29339949D01*
X81752214Y-29222113D01*
X81772903Y-29091490D01*
X81752214Y-28960867D01*
X81692174Y-28843031D01*
X81598658Y-28749515D01*
X81480822Y-28689475D01*
X81350199Y-28668786D01*
X81219576Y-28689475D01*
X81101740Y-28749515D01*
X81008224Y-28843031D01*
X80948184Y-28960867D01*
X80927495Y-29091490D01*
X76438893Y-29091490D01*
X76418206Y-28960877D01*
X76358166Y-28843041D01*
X76264650Y-28749525D01*
X76146814Y-28689485D01*
X76016191Y-28668796D01*
X75885568Y-28689485D01*
X75767732Y-28749525D01*
X75674216Y-28843041D01*
X75614176Y-28960877D01*
X75593487Y-29091500D01*
X75089538Y-29091500D01*
X75084959Y-29086921D01*
X74967123Y-29026881D01*
X74836500Y-29006192D01*
X74705877Y-29026881D01*
X74588041Y-29086921D01*
X74494525Y-29180437D01*
X74434485Y-29298273D01*
X74413796Y-29428896D01*
X71950043Y-29428896D01*
X71852039Y-29330204D01*
X71801724Y-29298273D01*
X71717179Y-29244619D01*
X71717175Y-29244617D01*
X71714233Y-29242750D01*
X71560476Y-29188000D01*
X71484020Y-29178883D01*
X71401878Y-29169088D01*
X71401874Y-29169088D01*
X71398411Y-29168675D01*
X71305578Y-29178432D01*
X71239562Y-29185370D01*
X71239559Y-29185371D01*
X71236092Y-29185735D01*
X71232791Y-29186859D01*
X71232790Y-29186859D01*
X71225993Y-29189173D01*
X71081586Y-29238333D01*
X70942572Y-29323855D01*
X70940080Y-29326296D01*
X70940078Y-29326297D01*
X70917931Y-29347985D01*
X70856621Y-29408025D01*
X70836424Y-29427803D01*
X70792041Y-29445645D01*
X70748347Y-29427188D01*
X70732771Y-29411503D01*
X70652039Y-29330204D01*
X70591111Y-29291538D01*
X70563605Y-29252401D01*
X70562100Y-29238767D01*
X70562100Y-28563418D01*
X70580406Y-28519224D01*
X70592597Y-28509733D01*
X70632927Y-28485692D01*
X70632930Y-28485690D01*
X70635929Y-28483902D01*
X70752007Y-28373362D01*
X70796635Y-28356142D01*
X70840067Y-28375207D01*
X70864919Y-28400941D01*
X70926640Y-28464855D01*
X71063211Y-28554225D01*
X71216188Y-28611116D01*
X71219643Y-28611577D01*
X71219647Y-28611578D01*
X71309818Y-28623609D01*
X71377968Y-28632702D01*
X71381441Y-28632386D01*
X71381444Y-28632386D01*
X71459239Y-28625306D01*
X71540510Y-28617910D01*
X71695735Y-28567474D01*
X71735615Y-28543701D01*
X76464441Y-28543701D01*
X76485130Y-28674324D01*
X76545170Y-28792160D01*
X76638686Y-28885676D01*
X76756522Y-28945716D01*
X76887145Y-28966405D01*
X77017768Y-28945716D01*
X77135604Y-28885676D01*
X77229120Y-28792160D01*
X77289160Y-28674324D01*
X77309849Y-28543701D01*
X77289160Y-28413078D01*
X77229120Y-28295242D01*
X77135604Y-28201726D01*
X77017768Y-28141686D01*
X76887145Y-28120997D01*
X76756522Y-28141686D01*
X76638686Y-28201726D01*
X76545170Y-28295242D01*
X76485130Y-28413078D01*
X76464441Y-28543701D01*
X71735615Y-28543701D01*
X71776676Y-28519224D01*
X71832927Y-28485692D01*
X71832930Y-28485690D01*
X71835929Y-28483902D01*
X71916922Y-28406773D01*
X71951594Y-28373756D01*
X71951597Y-28373753D01*
X71954123Y-28371347D01*
X72044444Y-28235403D01*
X72102403Y-28082827D01*
X72125118Y-27921202D01*
X72125403Y-27900760D01*
X72124906Y-27896326D01*
X72107600Y-27742037D01*
X72107599Y-27742033D01*
X72107210Y-27738564D01*
X72053534Y-27584429D01*
X71984775Y-27474392D01*
X73880677Y-27474392D01*
X73901366Y-27605015D01*
X73961406Y-27722851D01*
X74054922Y-27816367D01*
X74172758Y-27876407D01*
X74303381Y-27897096D01*
X74434004Y-27876407D01*
X74551840Y-27816367D01*
X74645356Y-27722851D01*
X74705396Y-27605015D01*
X74726085Y-27474392D01*
X74705396Y-27343769D01*
X74645356Y-27225933D01*
X74551840Y-27132417D01*
X74434004Y-27072377D01*
X74303381Y-27051688D01*
X74172758Y-27072377D01*
X74054922Y-27132417D01*
X73961406Y-27225933D01*
X73901366Y-27343769D01*
X73880677Y-27474392D01*
X71984775Y-27474392D01*
X71967044Y-27446016D01*
X71852039Y-27330204D01*
X71791111Y-27291538D01*
X71717179Y-27244619D01*
X71717175Y-27244617D01*
X71714233Y-27242750D01*
X71560476Y-27188000D01*
X71484020Y-27178883D01*
X71401878Y-27169088D01*
X71401874Y-27169088D01*
X71398411Y-27168675D01*
X71305578Y-27178432D01*
X71239562Y-27185370D01*
X71239559Y-27185371D01*
X71236092Y-27185735D01*
X71232791Y-27186859D01*
X71232790Y-27186859D01*
X71225993Y-27189173D01*
X71081586Y-27238333D01*
X70942572Y-27323855D01*
X70940080Y-27326296D01*
X70940078Y-27326297D01*
X70836424Y-27427803D01*
X70792041Y-27445645D01*
X70748347Y-27427188D01*
X70726595Y-27405283D01*
X70652039Y-27330204D01*
X70591111Y-27291538D01*
X70563605Y-27252401D01*
X70562100Y-27238767D01*
X70562100Y-26563418D01*
X70580406Y-26519224D01*
X70592597Y-26509733D01*
X70594671Y-26508497D01*
X70600291Y-26505147D01*
X70632927Y-26485692D01*
X70632930Y-26485690D01*
X70635929Y-26483902D01*
X70752007Y-26373362D01*
X70796635Y-26356142D01*
X70840067Y-26375207D01*
X70877603Y-26414076D01*
X70926640Y-26464855D01*
X71063211Y-26554225D01*
X71216188Y-26611116D01*
X71219643Y-26611577D01*
X71219647Y-26611578D01*
X71309818Y-26623609D01*
X71377968Y-26632702D01*
X71381441Y-26632386D01*
X71381444Y-26632386D01*
X71459239Y-26625306D01*
X71540510Y-26617910D01*
X71695735Y-26567474D01*
X71792597Y-26509733D01*
X71832927Y-26485692D01*
X71832930Y-26485690D01*
X71835929Y-26483902D01*
X71950070Y-26375207D01*
X71951594Y-26373756D01*
X71951597Y-26373753D01*
X71954123Y-26371347D01*
X72044444Y-26235403D01*
X72102403Y-26082827D01*
X72125118Y-25921202D01*
X72125184Y-25916490D01*
X74101296Y-25916490D01*
X74121985Y-26047113D01*
X74182025Y-26164949D01*
X74275541Y-26258465D01*
X74393377Y-26318505D01*
X74524000Y-26339194D01*
X74654623Y-26318505D01*
X74772459Y-26258465D01*
X74860924Y-26170000D01*
X76713296Y-26170000D01*
X76733985Y-26300623D01*
X76794025Y-26418459D01*
X76887541Y-26511975D01*
X77005377Y-26572015D01*
X77136000Y-26592704D01*
X77266623Y-26572015D01*
X77384459Y-26511975D01*
X77477975Y-26418459D01*
X77538015Y-26300623D01*
X77558704Y-26170000D01*
X77538015Y-26039377D01*
X77477975Y-25921541D01*
X77384459Y-25828025D01*
X77266623Y-25767985D01*
X77136000Y-25747296D01*
X77005377Y-25767985D01*
X76887541Y-25828025D01*
X76794025Y-25921541D01*
X76733985Y-26039377D01*
X76713296Y-26170000D01*
X74860924Y-26170000D01*
X74865975Y-26164949D01*
X74926015Y-26047113D01*
X74946704Y-25916490D01*
X74926015Y-25785867D01*
X74865975Y-25668031D01*
X74772459Y-25574515D01*
X74654623Y-25514475D01*
X74524000Y-25493786D01*
X74393377Y-25514475D01*
X74275541Y-25574515D01*
X74182025Y-25668031D01*
X74121985Y-25785867D01*
X74101296Y-25916490D01*
X72125184Y-25916490D01*
X72125403Y-25900760D01*
X72124646Y-25894007D01*
X72107600Y-25742037D01*
X72107599Y-25742033D01*
X72107210Y-25738564D01*
X72053534Y-25584429D01*
X71967044Y-25446016D01*
X71852039Y-25330204D01*
X71777728Y-25283045D01*
X71717179Y-25244619D01*
X71717175Y-25244617D01*
X71714233Y-25242750D01*
X71560476Y-25188000D01*
X71484020Y-25178883D01*
X71401878Y-25169088D01*
X71401874Y-25169088D01*
X71398411Y-25168675D01*
X71305578Y-25178432D01*
X71239562Y-25185370D01*
X71239559Y-25185371D01*
X71236092Y-25185735D01*
X71232791Y-25186859D01*
X71232790Y-25186859D01*
X71226016Y-25189165D01*
X71081586Y-25238333D01*
X70942572Y-25323855D01*
X70940080Y-25326296D01*
X70940078Y-25326297D01*
X70836424Y-25427803D01*
X70792041Y-25445645D01*
X70748347Y-25427188D01*
X70748339Y-25427180D01*
X70652039Y-25330204D01*
X70591111Y-25291538D01*
X70563605Y-25252401D01*
X70562100Y-25238767D01*
X70562100Y-24563418D01*
X70580406Y-24519224D01*
X70592597Y-24509733D01*
X70632927Y-24485692D01*
X70632930Y-24485690D01*
X70635929Y-24483902D01*
X70752007Y-24373362D01*
X70796635Y-24356142D01*
X70840067Y-24375207D01*
X70877976Y-24414462D01*
X70926640Y-24464855D01*
X71063211Y-24554225D01*
X71216188Y-24611116D01*
X71219643Y-24611577D01*
X71219647Y-24611578D01*
X71309818Y-24623609D01*
X71377968Y-24632702D01*
X71381441Y-24632386D01*
X71381444Y-24632386D01*
X71459239Y-24625306D01*
X71540510Y-24617910D01*
X71695735Y-24567474D01*
X71792597Y-24509733D01*
X71832927Y-24485692D01*
X71832930Y-24485690D01*
X71835929Y-24483902D01*
X71950070Y-24375207D01*
X71951594Y-24373756D01*
X71951597Y-24373753D01*
X71954123Y-24371347D01*
X72044444Y-24235403D01*
X72102403Y-24082827D01*
X72125118Y-23921202D01*
X72125403Y-23900760D01*
X72125184Y-23898807D01*
X72123579Y-23884500D01*
X74101296Y-23884500D01*
X74121985Y-24015123D01*
X74182025Y-24132959D01*
X74275541Y-24226475D01*
X74393377Y-24286515D01*
X74524000Y-24307204D01*
X74654623Y-24286515D01*
X74772459Y-24226475D01*
X74865975Y-24132959D01*
X74926015Y-24015123D01*
X74946704Y-23884500D01*
X74926015Y-23753877D01*
X74865975Y-23636041D01*
X74772459Y-23542525D01*
X74654623Y-23482485D01*
X74524000Y-23461796D01*
X74393377Y-23482485D01*
X74275541Y-23542525D01*
X74182025Y-23636041D01*
X74121985Y-23753877D01*
X74101296Y-23884500D01*
X72123579Y-23884500D01*
X72107600Y-23742037D01*
X72107599Y-23742033D01*
X72107210Y-23738564D01*
X72053534Y-23584429D01*
X71967044Y-23446016D01*
X71852039Y-23330204D01*
X71791111Y-23291538D01*
X71717179Y-23244619D01*
X71717175Y-23244617D01*
X71714233Y-23242750D01*
X71560476Y-23188000D01*
X71484020Y-23178883D01*
X71401878Y-23169088D01*
X71401874Y-23169088D01*
X71398411Y-23168675D01*
X71305578Y-23178432D01*
X71239562Y-23185370D01*
X71239559Y-23185371D01*
X71236092Y-23185735D01*
X71232791Y-23186859D01*
X71232790Y-23186859D01*
X71225993Y-23189173D01*
X71081586Y-23238333D01*
X70942572Y-23323855D01*
X70940080Y-23326296D01*
X70940078Y-23326297D01*
X70836424Y-23427803D01*
X70792041Y-23445645D01*
X70748347Y-23427188D01*
X70652039Y-23330204D01*
X70591111Y-23291538D01*
X70563605Y-23252401D01*
X70562100Y-23238767D01*
X70562100Y-21852500D01*
X74101296Y-21852500D01*
X74121985Y-21983123D01*
X74182025Y-22100959D01*
X74275541Y-22194475D01*
X74393377Y-22254515D01*
X74524000Y-22275204D01*
X74654623Y-22254515D01*
X74772459Y-22194475D01*
X74865975Y-22100959D01*
X74926015Y-21983123D01*
X74946704Y-21852500D01*
X74926015Y-21721877D01*
X74865975Y-21604041D01*
X74772459Y-21510525D01*
X74654623Y-21450485D01*
X74524000Y-21429796D01*
X74393377Y-21450485D01*
X74275541Y-21510525D01*
X74182025Y-21604041D01*
X74121985Y-21721877D01*
X74101296Y-21852500D01*
X70562100Y-21852500D01*
X70562100Y-20994449D01*
X70562869Y-20984672D01*
X70565770Y-20966355D01*
X70566539Y-20961500D01*
X70565770Y-20956644D01*
X70565770Y-20951725D01*
X70565868Y-20951725D01*
X70565869Y-20937709D01*
X70570606Y-20907802D01*
X70576647Y-20889208D01*
X70596836Y-20849586D01*
X70608328Y-20833769D01*
X70639769Y-20802328D01*
X70655586Y-20790836D01*
X70695208Y-20770647D01*
X70713803Y-20764605D01*
X70728757Y-20762237D01*
X70743713Y-20759868D01*
X70757725Y-20759869D01*
X70757725Y-20759770D01*
X70762644Y-20759770D01*
X70767500Y-20760539D01*
X70772355Y-20759770D01*
X70790672Y-20756869D01*
X70800449Y-20756100D01*
X85613551Y-20756100D01*
X85623329Y-20756869D01*
G37*
G04 #@! TD.AperFunction*
G04 #@! TA.AperFunction,Conductor*
G36*
X30417329Y-20756869D02*
G01*
X30440500Y-20760539D01*
X30445356Y-20759770D01*
X30450275Y-20759770D01*
X30450275Y-20759869D01*
X30464287Y-20759868D01*
X30479243Y-20762237D01*
X30494197Y-20764605D01*
X30512792Y-20770647D01*
X30552414Y-20790836D01*
X30568231Y-20802328D01*
X30599672Y-20833769D01*
X30611164Y-20849586D01*
X30631353Y-20889208D01*
X30637394Y-20907802D01*
X30642131Y-20937709D01*
X30642132Y-20951725D01*
X30642230Y-20951725D01*
X30642230Y-20956644D01*
X30641461Y-20961500D01*
X30642230Y-20966355D01*
X30642230Y-20966357D01*
X30645126Y-20984645D01*
X30645895Y-20994428D01*
X30645865Y-21238552D01*
X30627554Y-21282744D01*
X30616114Y-21291777D01*
X30587001Y-21309687D01*
X30563972Y-21323855D01*
X30561480Y-21326296D01*
X30561478Y-21326297D01*
X30457824Y-21427803D01*
X30413441Y-21445645D01*
X30369747Y-21427188D01*
X30273439Y-21330204D01*
X30247987Y-21314052D01*
X30138579Y-21244619D01*
X30138575Y-21244617D01*
X30135633Y-21242750D01*
X29981876Y-21188000D01*
X29905420Y-21178883D01*
X29823278Y-21169088D01*
X29823274Y-21169088D01*
X29819811Y-21168675D01*
X29726978Y-21178432D01*
X29660962Y-21185370D01*
X29660959Y-21185371D01*
X29657492Y-21185735D01*
X29654191Y-21186859D01*
X29654190Y-21186859D01*
X29647393Y-21189173D01*
X29502986Y-21238333D01*
X29363972Y-21323855D01*
X29361480Y-21326296D01*
X29361478Y-21326297D01*
X29354958Y-21332682D01*
X29247361Y-21438049D01*
X29245471Y-21440982D01*
X29245470Y-21440983D01*
X29198412Y-21514003D01*
X29158947Y-21575241D01*
X29148465Y-21604041D01*
X29107172Y-21717491D01*
X29103124Y-21728612D01*
X29082668Y-21890538D01*
X29098595Y-22052973D01*
X29150113Y-22207842D01*
X29151923Y-22210831D01*
X29151925Y-22210835D01*
X29190443Y-22274434D01*
X29234662Y-22347449D01*
X29348040Y-22464855D01*
X29484611Y-22554225D01*
X29637588Y-22611116D01*
X29641043Y-22611577D01*
X29641047Y-22611578D01*
X29731218Y-22623609D01*
X29799368Y-22632702D01*
X29802841Y-22632386D01*
X29802844Y-22632386D01*
X29880639Y-22625306D01*
X29961910Y-22617910D01*
X30117135Y-22567474D01*
X30213118Y-22510257D01*
X30254327Y-22485692D01*
X30254330Y-22485690D01*
X30257329Y-22483902D01*
X30373407Y-22373362D01*
X30418035Y-22356142D01*
X30461467Y-22375207D01*
X30499376Y-22414462D01*
X30548040Y-22464855D01*
X30617422Y-22510258D01*
X30644378Y-22549774D01*
X30645699Y-22562561D01*
X30645698Y-22567474D01*
X30645614Y-23238706D01*
X30627303Y-23282898D01*
X30615863Y-23291931D01*
X30583193Y-23312030D01*
X30563972Y-23323855D01*
X30561480Y-23326296D01*
X30561478Y-23326297D01*
X30457824Y-23427803D01*
X30413441Y-23445645D01*
X30369747Y-23427188D01*
X30273439Y-23330204D01*
X30212511Y-23291538D01*
X30138579Y-23244619D01*
X30138575Y-23244617D01*
X30135633Y-23242750D01*
X29981876Y-23188000D01*
X29905420Y-23178883D01*
X29823278Y-23169088D01*
X29823274Y-23169088D01*
X29819811Y-23168675D01*
X29726978Y-23178432D01*
X29660962Y-23185370D01*
X29660959Y-23185371D01*
X29657492Y-23185735D01*
X29654191Y-23186859D01*
X29654190Y-23186859D01*
X29647393Y-23189173D01*
X29502986Y-23238333D01*
X29363972Y-23323855D01*
X29361480Y-23326296D01*
X29361478Y-23326297D01*
X29354958Y-23332682D01*
X29247361Y-23438049D01*
X29245471Y-23440982D01*
X29245470Y-23440983D01*
X29160839Y-23572305D01*
X29158947Y-23575241D01*
X29103124Y-23728612D01*
X29082668Y-23890538D01*
X29083009Y-23894015D01*
X29094884Y-24015123D01*
X29098595Y-24052973D01*
X29099697Y-24056285D01*
X29099697Y-24056286D01*
X29109613Y-24086093D01*
X29150113Y-24207842D01*
X29151923Y-24210831D01*
X29151925Y-24210835D01*
X29168566Y-24238312D01*
X29234662Y-24347449D01*
X29348040Y-24464855D01*
X29484611Y-24554225D01*
X29637588Y-24611116D01*
X29641043Y-24611577D01*
X29641047Y-24611578D01*
X29731218Y-24623609D01*
X29799368Y-24632702D01*
X29802841Y-24632386D01*
X29802844Y-24632386D01*
X29880639Y-24625306D01*
X29961910Y-24617910D01*
X30117135Y-24567474D01*
X30213997Y-24509733D01*
X30254327Y-24485692D01*
X30254330Y-24485690D01*
X30257329Y-24483902D01*
X30373407Y-24373362D01*
X30418035Y-24356142D01*
X30461467Y-24375207D01*
X30499376Y-24414462D01*
X30548040Y-24464855D01*
X30616621Y-24509733D01*
X30617171Y-24510093D01*
X30644127Y-24549610D01*
X30645448Y-24562397D01*
X30645447Y-24567474D01*
X30645363Y-25238853D01*
X30627052Y-25283045D01*
X30615612Y-25292078D01*
X30563972Y-25323847D01*
X30561480Y-25326288D01*
X30561478Y-25326289D01*
X30457824Y-25427795D01*
X30413441Y-25445637D01*
X30369747Y-25427180D01*
X30273439Y-25330196D01*
X30247987Y-25314044D01*
X30138579Y-25244611D01*
X30138575Y-25244609D01*
X30135633Y-25242742D01*
X29981876Y-25187992D01*
X29905420Y-25178875D01*
X29823278Y-25169080D01*
X29823274Y-25169080D01*
X29819811Y-25168667D01*
X29726978Y-25178424D01*
X29660962Y-25185362D01*
X29660959Y-25185363D01*
X29657492Y-25185727D01*
X29654191Y-25186851D01*
X29654190Y-25186851D01*
X29650815Y-25188000D01*
X29502986Y-25238325D01*
X29363972Y-25323847D01*
X29361480Y-25326288D01*
X29361478Y-25326289D01*
X29357480Y-25330204D01*
X29247361Y-25438041D01*
X29245471Y-25440974D01*
X29245470Y-25440975D01*
X29242221Y-25446016D01*
X29158947Y-25575233D01*
X29103124Y-25728604D01*
X29082668Y-25890530D01*
X29083009Y-25894007D01*
X29097740Y-26044241D01*
X29098595Y-26052965D01*
X29099697Y-26056277D01*
X29099697Y-26056278D01*
X29139145Y-26174862D01*
X29150113Y-26207834D01*
X29151923Y-26210823D01*
X29151925Y-26210827D01*
X29193320Y-26279177D01*
X29234662Y-26347441D01*
X29348040Y-26464847D01*
X29350959Y-26466757D01*
X29350960Y-26466758D01*
X29377147Y-26483894D01*
X29484611Y-26554217D01*
X29637588Y-26611108D01*
X29641043Y-26611569D01*
X29641047Y-26611570D01*
X29731218Y-26623601D01*
X29799368Y-26632694D01*
X29802841Y-26632378D01*
X29802844Y-26632378D01*
X29880639Y-26625298D01*
X29961910Y-26617902D01*
X30117135Y-26567466D01*
X30206477Y-26514208D01*
X30254327Y-26485684D01*
X30254330Y-26485682D01*
X30257329Y-26483894D01*
X30373407Y-26373354D01*
X30418035Y-26356134D01*
X30461467Y-26375199D01*
X30461475Y-26375207D01*
X30548040Y-26464847D01*
X30550959Y-26466757D01*
X30550960Y-26466758D01*
X30573462Y-26481483D01*
X30616633Y-26509733D01*
X30616920Y-26509921D01*
X30643876Y-26549438D01*
X30645197Y-26562225D01*
X30645193Y-26591934D01*
X30645112Y-27239015D01*
X30626801Y-27283207D01*
X30615361Y-27292240D01*
X30584284Y-27311359D01*
X30563972Y-27323855D01*
X30561480Y-27326296D01*
X30561478Y-27326297D01*
X30457824Y-27427803D01*
X30413441Y-27445645D01*
X30369747Y-27427188D01*
X30347995Y-27405283D01*
X30273439Y-27330204D01*
X30212511Y-27291538D01*
X30138579Y-27244619D01*
X30138575Y-27244617D01*
X30135633Y-27242750D01*
X29981876Y-27188000D01*
X29905420Y-27178883D01*
X29823278Y-27169088D01*
X29823274Y-27169088D01*
X29819811Y-27168675D01*
X29726978Y-27178432D01*
X29660962Y-27185370D01*
X29660959Y-27185371D01*
X29657492Y-27185735D01*
X29654191Y-27186859D01*
X29654190Y-27186859D01*
X29647393Y-27189173D01*
X29502986Y-27238333D01*
X29363972Y-27323855D01*
X29361479Y-27326296D01*
X29361473Y-27326301D01*
X29312342Y-27374414D01*
X29268613Y-27392260D01*
X26847276Y-27392260D01*
X26803082Y-27373954D01*
X26446083Y-27016956D01*
X26437419Y-27006112D01*
X26432504Y-26998322D01*
X26429171Y-26995378D01*
X26429168Y-26995375D01*
X26390683Y-26961387D01*
X26387862Y-26958735D01*
X26375025Y-26945898D01*
X26373247Y-26944565D01*
X26373243Y-26944562D01*
X26364614Y-26938094D01*
X26360727Y-26934929D01*
X26326669Y-26904851D01*
X26326666Y-26904849D01*
X26323329Y-26901902D01*
X26319297Y-26900009D01*
X26310369Y-26895817D01*
X26299449Y-26889256D01*
X26291547Y-26883334D01*
X26287985Y-26880664D01*
X26241241Y-26863140D01*
X26236650Y-26861206D01*
X26191480Y-26839999D01*
X26179679Y-26838162D01*
X26177332Y-26837796D01*
X26165010Y-26834563D01*
X26155767Y-26831098D01*
X26155763Y-26831097D01*
X26151596Y-26829535D01*
X26147157Y-26829205D01*
X26147156Y-26829205D01*
X26138515Y-26828563D01*
X26101836Y-26825838D01*
X26096859Y-26825266D01*
X26083288Y-26823152D01*
X26083278Y-26823151D01*
X26080894Y-26822780D01*
X26063010Y-26822780D01*
X26058378Y-26822608D01*
X26006339Y-26818741D01*
X26001987Y-26819670D01*
X25993868Y-26821403D01*
X25980821Y-26822780D01*
X23052066Y-26822780D01*
X22944392Y-26838200D01*
X22889529Y-26863145D01*
X22815852Y-26896644D01*
X22815850Y-26896645D01*
X22811797Y-26898488D01*
X22701452Y-26993567D01*
X22622227Y-27115795D01*
X22580493Y-27255346D01*
X22580323Y-27283207D01*
X22579980Y-27339383D01*
X22579603Y-27401001D01*
X22619630Y-27541051D01*
X22697355Y-27664238D01*
X22700687Y-27667181D01*
X22700689Y-27667183D01*
X22803193Y-27757711D01*
X22806530Y-27760658D01*
X22810560Y-27762550D01*
X22934348Y-27820669D01*
X22934351Y-27820670D01*
X22938379Y-27822561D01*
X23048965Y-27839780D01*
X25804765Y-27839780D01*
X25848959Y-27858086D01*
X26205957Y-28215084D01*
X26214621Y-28225928D01*
X26219536Y-28233718D01*
X26222869Y-28236662D01*
X26222872Y-28236665D01*
X26261357Y-28270653D01*
X26264178Y-28273305D01*
X26277015Y-28286142D01*
X26278793Y-28287475D01*
X26278797Y-28287478D01*
X26287426Y-28293946D01*
X26291313Y-28297111D01*
X26325371Y-28327189D01*
X26325374Y-28327191D01*
X26328711Y-28330138D01*
X26332743Y-28332031D01*
X26341671Y-28336223D01*
X26352591Y-28342784D01*
X26364055Y-28351376D01*
X26368223Y-28352939D01*
X26368224Y-28352939D01*
X26410779Y-28368892D01*
X26415401Y-28370840D01*
X26456525Y-28390147D01*
X26456527Y-28390148D01*
X26460560Y-28392041D01*
X26464959Y-28392726D01*
X26464962Y-28392727D01*
X26474714Y-28394245D01*
X26487031Y-28397476D01*
X26500444Y-28402504D01*
X26504885Y-28402834D01*
X26550189Y-28406201D01*
X26555172Y-28406773D01*
X26567498Y-28408692D01*
X26571146Y-28409260D01*
X26589034Y-28409260D01*
X26593667Y-28409432D01*
X26645701Y-28413299D01*
X26658172Y-28410637D01*
X26671219Y-28409260D01*
X29267822Y-28409260D01*
X29312781Y-28428343D01*
X29348040Y-28464855D01*
X29484611Y-28554225D01*
X29637588Y-28611116D01*
X29641043Y-28611577D01*
X29641047Y-28611578D01*
X29731218Y-28623609D01*
X29799368Y-28632702D01*
X29802841Y-28632386D01*
X29802844Y-28632386D01*
X29880639Y-28625306D01*
X29961910Y-28617910D01*
X30117135Y-28567474D01*
X30198076Y-28519224D01*
X30254327Y-28485692D01*
X30254330Y-28485690D01*
X30257329Y-28483902D01*
X30373407Y-28373362D01*
X30418035Y-28356142D01*
X30461467Y-28375207D01*
X30486319Y-28400941D01*
X30548040Y-28464855D01*
X30550959Y-28466765D01*
X30550960Y-28466766D01*
X30616669Y-28509765D01*
X30643625Y-28549282D01*
X30644946Y-28562069D01*
X30644932Y-28674324D01*
X30644861Y-29239169D01*
X30626550Y-29283361D01*
X30615111Y-29292394D01*
X30563972Y-29323855D01*
X30561480Y-29326296D01*
X30561478Y-29326297D01*
X30539331Y-29347985D01*
X30478021Y-29408025D01*
X30457824Y-29427803D01*
X30413441Y-29445645D01*
X30369747Y-29427188D01*
X30354171Y-29411503D01*
X30273439Y-29330204D01*
X30223124Y-29298273D01*
X30138579Y-29244619D01*
X30138575Y-29244617D01*
X30135633Y-29242750D01*
X29981876Y-29188000D01*
X29905420Y-29178883D01*
X29823278Y-29169088D01*
X29823274Y-29169088D01*
X29819811Y-29168675D01*
X29726978Y-29178432D01*
X29660962Y-29185370D01*
X29660959Y-29185371D01*
X29657492Y-29185735D01*
X29654191Y-29186859D01*
X29654190Y-29186859D01*
X29647393Y-29189173D01*
X29502986Y-29238333D01*
X29363972Y-29323855D01*
X29361480Y-29326296D01*
X29361478Y-29326297D01*
X29339331Y-29347985D01*
X29247361Y-29438049D01*
X29245471Y-29440982D01*
X29245470Y-29440983D01*
X29160839Y-29572305D01*
X29158947Y-29575241D01*
X29103124Y-29728612D01*
X29090483Y-29828676D01*
X29083921Y-29880623D01*
X29082668Y-29890538D01*
X29098595Y-30052973D01*
X29099697Y-30056285D01*
X29099697Y-30056286D01*
X29109613Y-30086093D01*
X29150113Y-30207842D01*
X29151923Y-30210831D01*
X29151925Y-30210835D01*
X29168566Y-30238312D01*
X29234662Y-30347449D01*
X29348040Y-30464855D01*
X29484611Y-30554225D01*
X29637588Y-30611116D01*
X29641043Y-30611577D01*
X29641047Y-30611578D01*
X29731218Y-30623609D01*
X29799368Y-30632702D01*
X29802841Y-30632386D01*
X29802844Y-30632386D01*
X29880639Y-30625306D01*
X29961910Y-30617910D01*
X30117135Y-30567474D01*
X30214220Y-30509600D01*
X30254327Y-30485692D01*
X30254330Y-30485690D01*
X30257329Y-30483902D01*
X30373407Y-30373362D01*
X30418035Y-30356142D01*
X30461467Y-30375207D01*
X30545614Y-30462343D01*
X30548040Y-30464855D01*
X30616419Y-30509602D01*
X30643374Y-30549117D01*
X30644695Y-30561904D01*
X30644682Y-30663686D01*
X30644610Y-31239324D01*
X30626299Y-31283516D01*
X30614859Y-31292549D01*
X30585671Y-31310506D01*
X30563972Y-31323855D01*
X30561480Y-31326296D01*
X30561478Y-31326297D01*
X30457824Y-31427803D01*
X30413441Y-31445645D01*
X30369747Y-31427188D01*
X30353353Y-31410679D01*
X30273439Y-31330204D01*
X30212511Y-31291538D01*
X30138579Y-31244619D01*
X30138575Y-31244617D01*
X30135633Y-31242750D01*
X29981876Y-31188000D01*
X29905420Y-31178883D01*
X29823278Y-31169088D01*
X29823274Y-31169088D01*
X29819811Y-31168675D01*
X29726978Y-31178432D01*
X29660962Y-31185370D01*
X29660959Y-31185371D01*
X29657492Y-31185735D01*
X29654191Y-31186859D01*
X29654190Y-31186859D01*
X29647393Y-31189173D01*
X29502986Y-31238333D01*
X29363972Y-31323855D01*
X29361480Y-31326296D01*
X29361478Y-31326297D01*
X29354958Y-31332682D01*
X29247361Y-31438049D01*
X29245471Y-31440982D01*
X29245470Y-31440983D01*
X29160839Y-31572305D01*
X29158947Y-31575241D01*
X29145640Y-31611801D01*
X29125056Y-31668356D01*
X29103124Y-31728612D01*
X29082668Y-31890538D01*
X29098595Y-32052973D01*
X29099697Y-32056285D01*
X29099697Y-32056286D01*
X29140996Y-32180434D01*
X29150113Y-32207842D01*
X29151923Y-32210831D01*
X29151925Y-32210835D01*
X29168566Y-32238312D01*
X29234662Y-32347449D01*
X29348040Y-32464855D01*
X29484611Y-32554225D01*
X29637588Y-32611116D01*
X29641043Y-32611577D01*
X29641047Y-32611578D01*
X29731218Y-32623609D01*
X29799368Y-32632702D01*
X29802841Y-32632386D01*
X29802844Y-32632386D01*
X29880639Y-32625306D01*
X29961910Y-32617910D01*
X30117135Y-32567474D01*
X30214495Y-32509436D01*
X30254327Y-32485692D01*
X30254330Y-32485690D01*
X30257329Y-32483902D01*
X30373407Y-32373362D01*
X30418035Y-32356142D01*
X30461467Y-32375207D01*
X30499376Y-32414462D01*
X30548040Y-32464855D01*
X30550961Y-32466766D01*
X30550964Y-32466769D01*
X30616167Y-32509436D01*
X30643124Y-32548953D01*
X30644445Y-32561740D01*
X30644348Y-33330204D01*
X30644108Y-35239633D01*
X30625797Y-35283825D01*
X30614357Y-35292858D01*
X30609484Y-35295856D01*
X30563972Y-35323855D01*
X30561480Y-35326296D01*
X30561478Y-35326297D01*
X30457824Y-35427803D01*
X30413441Y-35445645D01*
X30369747Y-35427188D01*
X30273439Y-35330204D01*
X30185755Y-35274558D01*
X30138579Y-35244619D01*
X30138575Y-35244617D01*
X30135633Y-35242750D01*
X29981876Y-35188000D01*
X29905420Y-35178883D01*
X29823278Y-35169088D01*
X29823274Y-35169088D01*
X29819811Y-35168675D01*
X29726978Y-35178432D01*
X29660962Y-35185370D01*
X29660959Y-35185371D01*
X29657492Y-35185735D01*
X29654191Y-35186859D01*
X29654190Y-35186859D01*
X29649916Y-35188314D01*
X29502986Y-35238333D01*
X29363972Y-35323855D01*
X29361480Y-35326296D01*
X29361478Y-35326297D01*
X29354958Y-35332682D01*
X29247361Y-35438049D01*
X29245471Y-35440982D01*
X29245470Y-35440983D01*
X29170564Y-35557215D01*
X29158947Y-35575241D01*
X29103124Y-35728612D01*
X29082668Y-35890538D01*
X29083009Y-35894015D01*
X29094951Y-36015806D01*
X29098595Y-36052973D01*
X29099697Y-36056285D01*
X29099697Y-36056286D01*
X29141283Y-36181297D01*
X29150113Y-36207842D01*
X29151923Y-36210831D01*
X29151925Y-36210835D01*
X29171151Y-36242580D01*
X29234662Y-36347449D01*
X29348040Y-36464855D01*
X29484611Y-36554225D01*
X29637588Y-36611116D01*
X29641043Y-36611577D01*
X29641047Y-36611578D01*
X29731218Y-36623609D01*
X29799368Y-36632702D01*
X29802841Y-36632386D01*
X29802844Y-36632386D01*
X29880639Y-36625306D01*
X29961910Y-36617910D01*
X30117135Y-36567474D01*
X30190191Y-36523924D01*
X30254327Y-36485692D01*
X30254330Y-36485690D01*
X30257329Y-36483902D01*
X30373407Y-36373362D01*
X30418035Y-36356142D01*
X30461467Y-36375207D01*
X30483636Y-36398163D01*
X30548040Y-36464855D01*
X30615666Y-36509109D01*
X30642622Y-36548625D01*
X30643943Y-36561411D01*
X30643917Y-36762704D01*
X30643907Y-36844998D01*
X30643905Y-36845093D01*
X30643900Y-36845148D01*
X30643900Y-36899660D01*
X30643898Y-36919574D01*
X30643896Y-36931539D01*
X30643899Y-36931558D01*
X30643900Y-36931579D01*
X30643900Y-42869051D01*
X30643131Y-42878828D01*
X30641014Y-42892197D01*
X30639461Y-42902000D01*
X30640231Y-42906859D01*
X30640231Y-42911775D01*
X30639517Y-42911775D01*
X30639252Y-42925371D01*
X30635524Y-42944111D01*
X30626192Y-42966640D01*
X30609244Y-42992003D01*
X30592003Y-43009244D01*
X30566640Y-43026192D01*
X30544111Y-43035524D01*
X30525369Y-43039252D01*
X30511775Y-43039517D01*
X30511775Y-43040231D01*
X30506859Y-43040231D01*
X30502000Y-43039461D01*
X30497145Y-43040230D01*
X30497143Y-43040230D01*
X30478828Y-43043131D01*
X30469051Y-43043900D01*
X15594449Y-43043900D01*
X15584672Y-43043131D01*
X15573926Y-43041429D01*
X15561500Y-43039461D01*
X15556644Y-43040230D01*
X15551725Y-43040230D01*
X15551725Y-43040131D01*
X15537713Y-43040132D01*
X15508617Y-43035524D01*
X15507803Y-43035395D01*
X15489208Y-43029353D01*
X15449586Y-43009164D01*
X15433769Y-42997672D01*
X15402328Y-42966231D01*
X15390834Y-42950412D01*
X15370647Y-42910792D01*
X15364605Y-42892197D01*
X15359868Y-42862288D01*
X15359869Y-42848275D01*
X15359770Y-42848275D01*
X15359770Y-42843356D01*
X15360539Y-42838500D01*
X15356869Y-42815328D01*
X15356100Y-42805551D01*
X15356100Y-36581077D01*
X19247158Y-36581077D01*
X19267847Y-36711700D01*
X19327887Y-36829536D01*
X19421403Y-36923052D01*
X19539239Y-36983092D01*
X19669862Y-37003781D01*
X19800485Y-36983092D01*
X19918321Y-36923052D01*
X20011837Y-36829536D01*
X20071877Y-36711700D01*
X20092566Y-36581077D01*
X20090412Y-36567474D01*
X20084284Y-36528786D01*
X20396943Y-36528786D01*
X20417632Y-36659409D01*
X20477672Y-36777245D01*
X20571188Y-36870761D01*
X20689024Y-36930801D01*
X20819647Y-36951490D01*
X20950270Y-36930801D01*
X21068106Y-36870761D01*
X21161622Y-36777245D01*
X21221662Y-36659409D01*
X21242351Y-36528786D01*
X21221662Y-36398163D01*
X21192027Y-36340000D01*
X21377296Y-36340000D01*
X21397985Y-36470623D01*
X21458025Y-36588459D01*
X21551541Y-36681975D01*
X21669377Y-36742015D01*
X21800000Y-36762704D01*
X21930623Y-36742015D01*
X22048459Y-36681975D01*
X22141975Y-36588459D01*
X22202015Y-36470623D01*
X22222704Y-36340000D01*
X22213865Y-36284194D01*
X22225031Y-36237681D01*
X22265818Y-36212687D01*
X22312331Y-36223853D01*
X22319789Y-36230223D01*
X22391541Y-36301975D01*
X22509377Y-36362015D01*
X22640000Y-36382704D01*
X22770623Y-36362015D01*
X22888459Y-36301975D01*
X22981975Y-36208459D01*
X23042015Y-36090623D01*
X23062704Y-35960000D01*
X23042015Y-35829377D01*
X22981975Y-35711541D01*
X22888459Y-35618025D01*
X22770623Y-35557985D01*
X22640000Y-35537296D01*
X22509377Y-35557985D01*
X22391541Y-35618025D01*
X22298025Y-35711541D01*
X22237985Y-35829377D01*
X22217296Y-35960000D01*
X22218066Y-35964861D01*
X22226135Y-36015806D01*
X22214969Y-36062319D01*
X22174182Y-36087313D01*
X22127669Y-36076147D01*
X22120211Y-36069777D01*
X22048459Y-35998025D01*
X21930623Y-35937985D01*
X21800000Y-35917296D01*
X21669377Y-35937985D01*
X21551541Y-35998025D01*
X21458025Y-36091541D01*
X21397985Y-36209377D01*
X21377296Y-36340000D01*
X21192027Y-36340000D01*
X21161622Y-36280327D01*
X21068106Y-36186811D01*
X20950270Y-36126771D01*
X20819647Y-36106082D01*
X20689024Y-36126771D01*
X20571188Y-36186811D01*
X20477672Y-36280327D01*
X20417632Y-36398163D01*
X20396943Y-36528786D01*
X20084284Y-36528786D01*
X20077458Y-36485692D01*
X20071877Y-36450454D01*
X20011837Y-36332618D01*
X19918321Y-36239102D01*
X19800485Y-36179062D01*
X19669862Y-36158373D01*
X19539239Y-36179062D01*
X19421403Y-36239102D01*
X19327887Y-36332618D01*
X19267847Y-36450454D01*
X19262266Y-36485692D01*
X19249313Y-36567474D01*
X19247158Y-36581077D01*
X15356100Y-36581077D01*
X15356100Y-34563418D01*
X15374406Y-34519224D01*
X15386597Y-34509733D01*
X15426927Y-34485692D01*
X15426930Y-34485690D01*
X15429929Y-34483902D01*
X15546007Y-34373362D01*
X15590635Y-34356142D01*
X15634067Y-34375207D01*
X15671976Y-34414462D01*
X15720640Y-34464855D01*
X15857211Y-34554225D01*
X16010188Y-34611116D01*
X16013643Y-34611577D01*
X16013647Y-34611578D01*
X16103818Y-34623609D01*
X16171968Y-34632702D01*
X16175441Y-34632386D01*
X16175444Y-34632386D01*
X16253239Y-34625306D01*
X16334510Y-34617910D01*
X16489735Y-34567474D01*
X16586597Y-34509733D01*
X16626927Y-34485692D01*
X16626930Y-34485690D01*
X16629929Y-34483902D01*
X16744070Y-34375207D01*
X16745594Y-34373756D01*
X16745597Y-34373753D01*
X16748123Y-34371347D01*
X16838444Y-34235403D01*
X16896403Y-34082827D01*
X16919118Y-33921202D01*
X16919403Y-33900760D01*
X16919184Y-33898807D01*
X16901600Y-33742037D01*
X16901599Y-33742033D01*
X16901210Y-33738564D01*
X16847534Y-33584429D01*
X16761044Y-33446016D01*
X16646039Y-33330204D01*
X16556100Y-33273127D01*
X16511179Y-33244619D01*
X16511175Y-33244617D01*
X16508233Y-33242750D01*
X16354476Y-33188000D01*
X16278020Y-33178883D01*
X16195878Y-33169088D01*
X16195874Y-33169088D01*
X16192411Y-33168675D01*
X16099578Y-33178432D01*
X16033562Y-33185370D01*
X16033559Y-33185371D01*
X16030092Y-33185735D01*
X16026791Y-33186859D01*
X16026790Y-33186859D01*
X16019993Y-33189173D01*
X15875586Y-33238333D01*
X15736572Y-33323855D01*
X15734080Y-33326296D01*
X15734078Y-33326297D01*
X15630424Y-33427803D01*
X15586041Y-33445645D01*
X15542347Y-33427188D01*
X15446039Y-33330204D01*
X15385111Y-33291538D01*
X15357605Y-33252401D01*
X15356100Y-33238767D01*
X15356100Y-32563418D01*
X15374406Y-32519224D01*
X15386597Y-32509733D01*
X15426927Y-32485692D01*
X15426930Y-32485690D01*
X15429929Y-32483902D01*
X15546007Y-32373362D01*
X15590635Y-32356142D01*
X15634067Y-32375207D01*
X15671976Y-32414462D01*
X15720640Y-32464855D01*
X15857211Y-32554225D01*
X16010188Y-32611116D01*
X16013643Y-32611577D01*
X16013647Y-32611578D01*
X16103818Y-32623609D01*
X16171968Y-32632702D01*
X16175441Y-32632386D01*
X16175444Y-32632386D01*
X16253239Y-32625306D01*
X16334510Y-32617910D01*
X16489735Y-32567474D01*
X16587095Y-32509436D01*
X16626927Y-32485692D01*
X16626930Y-32485690D01*
X16629929Y-32483902D01*
X16698611Y-32418497D01*
X16745594Y-32373756D01*
X16745597Y-32373753D01*
X16748123Y-32371347D01*
X16838444Y-32235403D01*
X16896403Y-32082827D01*
X16896800Y-32080000D01*
X19057296Y-32080000D01*
X19077985Y-32210623D01*
X19138025Y-32328459D01*
X19231541Y-32421975D01*
X19349377Y-32482015D01*
X19480000Y-32502704D01*
X19610623Y-32482015D01*
X19728459Y-32421975D01*
X19761006Y-32389428D01*
X19805200Y-32371122D01*
X19849394Y-32389428D01*
X19867700Y-32433622D01*
X19867700Y-34690613D01*
X19867267Y-34697959D01*
X19863033Y-34733733D01*
X19863872Y-34738327D01*
X19863872Y-34738328D01*
X19873315Y-34790033D01*
X19873637Y-34791969D01*
X19881449Y-34843930D01*
X19881450Y-34843933D01*
X19882144Y-34848549D01*
X19884166Y-34852760D01*
X19884572Y-34854080D01*
X19884664Y-34854455D01*
X19884953Y-34855346D01*
X19885100Y-34855705D01*
X19885549Y-34857015D01*
X19886388Y-34861611D01*
X19888541Y-34865755D01*
X19888542Y-34865759D01*
X19912774Y-34912409D01*
X19913651Y-34914164D01*
X19938414Y-34965733D01*
X19941586Y-34969164D01*
X19942361Y-34970304D01*
X19942760Y-34970974D01*
X19944671Y-34973811D01*
X19946312Y-34976970D01*
X19950442Y-34981807D01*
X19987014Y-35018379D01*
X19988715Y-35020148D01*
X20026655Y-35061191D01*
X20030697Y-35063539D01*
X20034342Y-35066459D01*
X20034070Y-35066799D01*
X20039980Y-35071345D01*
X20158596Y-35189961D01*
X20160465Y-35191342D01*
X20160468Y-35191344D01*
X20221532Y-35236446D01*
X20236742Y-35247680D01*
X20241150Y-35249228D01*
X20354981Y-35289204D01*
X20354984Y-35289205D01*
X20359393Y-35290753D01*
X20364061Y-35290936D01*
X20364064Y-35290937D01*
X20484622Y-35295673D01*
X20484624Y-35295673D01*
X20489288Y-35295856D01*
X20493801Y-35294659D01*
X20493804Y-35294659D01*
X20571854Y-35273964D01*
X20614939Y-35262540D01*
X20618903Y-35260068D01*
X20618905Y-35260067D01*
X20721274Y-35196224D01*
X20725241Y-35193750D01*
X20810439Y-35095567D01*
X20812329Y-35091292D01*
X20861111Y-34980950D01*
X20861112Y-34980948D01*
X20863001Y-34976674D01*
X20878280Y-34847580D01*
X20877441Y-34842985D01*
X20855765Y-34724300D01*
X20855764Y-34724298D01*
X20854925Y-34719702D01*
X20802214Y-34618226D01*
X20796643Y-34607502D01*
X20795002Y-34604343D01*
X20790871Y-34599506D01*
X20750606Y-34559241D01*
X20732300Y-34515047D01*
X20732300Y-31963323D01*
X20717856Y-31867252D01*
X20669598Y-31766754D01*
X20667200Y-31758500D01*
X25022995Y-31758500D01*
X25043684Y-31889123D01*
X25103724Y-32006959D01*
X25197240Y-32100475D01*
X25315076Y-32160515D01*
X25445699Y-32181204D01*
X25576322Y-32160515D01*
X25694158Y-32100475D01*
X25787674Y-32006959D01*
X25847714Y-31889123D01*
X25868403Y-31758500D01*
X25865796Y-31742037D01*
X25861957Y-31717803D01*
X25847714Y-31627877D01*
X25787674Y-31510041D01*
X25694158Y-31416525D01*
X25576322Y-31356485D01*
X25445699Y-31335796D01*
X25315076Y-31356485D01*
X25197240Y-31416525D01*
X25103724Y-31510041D01*
X25043684Y-31627877D01*
X25029441Y-31717803D01*
X25025603Y-31742037D01*
X25022995Y-31758500D01*
X20667200Y-31758500D01*
X20663874Y-31747049D01*
X20662807Y-31738025D01*
X20661418Y-31726292D01*
X20659183Y-31721637D01*
X20658069Y-31717803D01*
X20656770Y-31714008D01*
X20655922Y-31708916D01*
X20630737Y-31662241D01*
X20629400Y-31659616D01*
X20608143Y-31615348D01*
X20606440Y-31611801D01*
X20602830Y-31607507D01*
X20602645Y-31607322D01*
X20600056Y-31604255D01*
X20598065Y-31601689D01*
X20595612Y-31597142D01*
X20583340Y-31585798D01*
X20563314Y-31542358D01*
X20579870Y-31497479D01*
X20615989Y-31478174D01*
X20626793Y-31476463D01*
X20677155Y-31468486D01*
X20794991Y-31408446D01*
X20888507Y-31314930D01*
X20948547Y-31197094D01*
X20969236Y-31066471D01*
X20948547Y-30935848D01*
X20888507Y-30818012D01*
X20794991Y-30724496D01*
X20677155Y-30664456D01*
X20546532Y-30643767D01*
X20415909Y-30664456D01*
X20298073Y-30724496D01*
X20204557Y-30818012D01*
X20144517Y-30935848D01*
X20123828Y-31066471D01*
X20124597Y-31071326D01*
X20124597Y-31071333D01*
X20125637Y-31077897D01*
X20114471Y-31124411D01*
X20073685Y-31149405D01*
X20054130Y-31149406D01*
X20044617Y-31147899D01*
X20044615Y-31147899D01*
X20039760Y-31147130D01*
X19909137Y-31167819D01*
X19791301Y-31227859D01*
X19697785Y-31321375D01*
X19637745Y-31439211D01*
X19617056Y-31569834D01*
X19617825Y-31574689D01*
X19617825Y-31574696D01*
X19621334Y-31596848D01*
X19610168Y-31643362D01*
X19569382Y-31668356D01*
X19549829Y-31668356D01*
X19480000Y-31657296D01*
X19349377Y-31677985D01*
X19231541Y-31738025D01*
X19138025Y-31831541D01*
X19077985Y-31949377D01*
X19057296Y-32080000D01*
X16896800Y-32080000D01*
X16919118Y-31921202D01*
X16919403Y-31900760D01*
X16919184Y-31898807D01*
X16901600Y-31742037D01*
X16901599Y-31742033D01*
X16901210Y-31738564D01*
X16847534Y-31584429D01*
X16761044Y-31446016D01*
X16646039Y-31330204D01*
X16585111Y-31291538D01*
X16511179Y-31244619D01*
X16511175Y-31244617D01*
X16508233Y-31242750D01*
X16354476Y-31188000D01*
X16278020Y-31178883D01*
X16195878Y-31169088D01*
X16195874Y-31169088D01*
X16192411Y-31168675D01*
X16099578Y-31178432D01*
X16033562Y-31185370D01*
X16033559Y-31185371D01*
X16030092Y-31185735D01*
X16026791Y-31186859D01*
X16026790Y-31186859D01*
X16019993Y-31189173D01*
X15875586Y-31238333D01*
X15736572Y-31323855D01*
X15734080Y-31326296D01*
X15734078Y-31326297D01*
X15630424Y-31427803D01*
X15586041Y-31445645D01*
X15542347Y-31427188D01*
X15525953Y-31410679D01*
X15446039Y-31330204D01*
X15385111Y-31291538D01*
X15357605Y-31252401D01*
X15356100Y-31238767D01*
X15356100Y-30563418D01*
X15374406Y-30519224D01*
X15386597Y-30509733D01*
X15426927Y-30485692D01*
X15426930Y-30485690D01*
X15429929Y-30483902D01*
X15546007Y-30373362D01*
X15590635Y-30356142D01*
X15634067Y-30375207D01*
X15671976Y-30414462D01*
X15720640Y-30464855D01*
X15857211Y-30554225D01*
X16010188Y-30611116D01*
X16013643Y-30611577D01*
X16013647Y-30611578D01*
X16103818Y-30623609D01*
X16171968Y-30632702D01*
X16175441Y-30632386D01*
X16175444Y-30632386D01*
X16253239Y-30625306D01*
X16334510Y-30617910D01*
X16489735Y-30567474D01*
X16586820Y-30509600D01*
X16626927Y-30485692D01*
X16626930Y-30485690D01*
X16629929Y-30483902D01*
X16744070Y-30375207D01*
X16745594Y-30373756D01*
X16745597Y-30373753D01*
X16748123Y-30371347D01*
X16838444Y-30235403D01*
X16896403Y-30082827D01*
X16919118Y-29921202D01*
X16919403Y-29900760D01*
X16919184Y-29898807D01*
X16901600Y-29742037D01*
X16901599Y-29742033D01*
X16901210Y-29738564D01*
X16847534Y-29584429D01*
X16761044Y-29446016D01*
X16744043Y-29428896D01*
X19207796Y-29428896D01*
X19228485Y-29559519D01*
X19288525Y-29677355D01*
X19382041Y-29770871D01*
X19499877Y-29830911D01*
X19630500Y-29851600D01*
X19761123Y-29830911D01*
X19878959Y-29770871D01*
X19899830Y-29750000D01*
X21617296Y-29750000D01*
X21637985Y-29880623D01*
X21698025Y-29998459D01*
X21791541Y-30091975D01*
X21909377Y-30152015D01*
X22040000Y-30172704D01*
X22170623Y-30152015D01*
X22288459Y-30091975D01*
X22381975Y-29998459D01*
X22442015Y-29880623D01*
X22462704Y-29750000D01*
X22442015Y-29619377D01*
X22381975Y-29501541D01*
X22288459Y-29408025D01*
X22170623Y-29347985D01*
X22040000Y-29327296D01*
X21909377Y-29347985D01*
X21791541Y-29408025D01*
X21698025Y-29501541D01*
X21637985Y-29619377D01*
X21617296Y-29750000D01*
X19899830Y-29750000D01*
X19972475Y-29677355D01*
X20032515Y-29559519D01*
X20053204Y-29428896D01*
X20032515Y-29298273D01*
X19972475Y-29180437D01*
X19883538Y-29091500D01*
X20387487Y-29091500D01*
X20408176Y-29222123D01*
X20468216Y-29339959D01*
X20561732Y-29433475D01*
X20679568Y-29493515D01*
X20810191Y-29514204D01*
X20940814Y-29493515D01*
X21058650Y-29433475D01*
X21152166Y-29339959D01*
X21212206Y-29222123D01*
X21232895Y-29091500D01*
X21232893Y-29091490D01*
X25721495Y-29091490D01*
X25742184Y-29222113D01*
X25802224Y-29339949D01*
X25895740Y-29433465D01*
X26013576Y-29493505D01*
X26144199Y-29514194D01*
X26274822Y-29493505D01*
X26392658Y-29433465D01*
X26486174Y-29339949D01*
X26546214Y-29222113D01*
X26566903Y-29091490D01*
X26546214Y-28960867D01*
X26486174Y-28843031D01*
X26392658Y-28749515D01*
X26274822Y-28689475D01*
X26144199Y-28668786D01*
X26013576Y-28689475D01*
X25895740Y-28749515D01*
X25802224Y-28843031D01*
X25742184Y-28960867D01*
X25721495Y-29091490D01*
X21232893Y-29091490D01*
X21212206Y-28960877D01*
X21152166Y-28843041D01*
X21058650Y-28749525D01*
X20940814Y-28689485D01*
X20810191Y-28668796D01*
X20679568Y-28689485D01*
X20561732Y-28749525D01*
X20468216Y-28843041D01*
X20408176Y-28960877D01*
X20387487Y-29091500D01*
X19883538Y-29091500D01*
X19878959Y-29086921D01*
X19761123Y-29026881D01*
X19630500Y-29006192D01*
X19499877Y-29026881D01*
X19382041Y-29086921D01*
X19288525Y-29180437D01*
X19228485Y-29298273D01*
X19207796Y-29428896D01*
X16744043Y-29428896D01*
X16646039Y-29330204D01*
X16595724Y-29298273D01*
X16511179Y-29244619D01*
X16511175Y-29244617D01*
X16508233Y-29242750D01*
X16354476Y-29188000D01*
X16278020Y-29178883D01*
X16195878Y-29169088D01*
X16195874Y-29169088D01*
X16192411Y-29168675D01*
X16099578Y-29178432D01*
X16033562Y-29185370D01*
X16033559Y-29185371D01*
X16030092Y-29185735D01*
X16026791Y-29186859D01*
X16026790Y-29186859D01*
X16019993Y-29189173D01*
X15875586Y-29238333D01*
X15736572Y-29323855D01*
X15734080Y-29326296D01*
X15734078Y-29326297D01*
X15711931Y-29347985D01*
X15650621Y-29408025D01*
X15630424Y-29427803D01*
X15586041Y-29445645D01*
X15542347Y-29427188D01*
X15526771Y-29411503D01*
X15446039Y-29330204D01*
X15385111Y-29291538D01*
X15357605Y-29252401D01*
X15356100Y-29238767D01*
X15356100Y-28563418D01*
X15374406Y-28519224D01*
X15386597Y-28509733D01*
X15426927Y-28485692D01*
X15426930Y-28485690D01*
X15429929Y-28483902D01*
X15546007Y-28373362D01*
X15590635Y-28356142D01*
X15634067Y-28375207D01*
X15658919Y-28400941D01*
X15720640Y-28464855D01*
X15857211Y-28554225D01*
X16010188Y-28611116D01*
X16013643Y-28611577D01*
X16013647Y-28611578D01*
X16103818Y-28623609D01*
X16171968Y-28632702D01*
X16175441Y-28632386D01*
X16175444Y-28632386D01*
X16253239Y-28625306D01*
X16334510Y-28617910D01*
X16489735Y-28567474D01*
X16529615Y-28543701D01*
X21258441Y-28543701D01*
X21279130Y-28674324D01*
X21339170Y-28792160D01*
X21432686Y-28885676D01*
X21550522Y-28945716D01*
X21681145Y-28966405D01*
X21811768Y-28945716D01*
X21929604Y-28885676D01*
X22023120Y-28792160D01*
X22083160Y-28674324D01*
X22103849Y-28543701D01*
X22083160Y-28413078D01*
X22023120Y-28295242D01*
X21929604Y-28201726D01*
X21811768Y-28141686D01*
X21681145Y-28120997D01*
X21550522Y-28141686D01*
X21432686Y-28201726D01*
X21339170Y-28295242D01*
X21279130Y-28413078D01*
X21258441Y-28543701D01*
X16529615Y-28543701D01*
X16570676Y-28519224D01*
X16626927Y-28485692D01*
X16626930Y-28485690D01*
X16629929Y-28483902D01*
X16710922Y-28406773D01*
X16745594Y-28373756D01*
X16745597Y-28373753D01*
X16748123Y-28371347D01*
X16838444Y-28235403D01*
X16896403Y-28082827D01*
X16919118Y-27921202D01*
X16919403Y-27900760D01*
X16918906Y-27896326D01*
X16901600Y-27742037D01*
X16901599Y-27742033D01*
X16901210Y-27738564D01*
X16847534Y-27584429D01*
X16778775Y-27474392D01*
X18674677Y-27474392D01*
X18695366Y-27605015D01*
X18755406Y-27722851D01*
X18848922Y-27816367D01*
X18966758Y-27876407D01*
X19097381Y-27897096D01*
X19228004Y-27876407D01*
X19345840Y-27816367D01*
X19439356Y-27722851D01*
X19499396Y-27605015D01*
X19520085Y-27474392D01*
X19499396Y-27343769D01*
X19439356Y-27225933D01*
X19345840Y-27132417D01*
X19228004Y-27072377D01*
X19097381Y-27051688D01*
X18966758Y-27072377D01*
X18848922Y-27132417D01*
X18755406Y-27225933D01*
X18695366Y-27343769D01*
X18674677Y-27474392D01*
X16778775Y-27474392D01*
X16761044Y-27446016D01*
X16646039Y-27330204D01*
X16585111Y-27291538D01*
X16511179Y-27244619D01*
X16511175Y-27244617D01*
X16508233Y-27242750D01*
X16354476Y-27188000D01*
X16278020Y-27178883D01*
X16195878Y-27169088D01*
X16195874Y-27169088D01*
X16192411Y-27168675D01*
X16099578Y-27178432D01*
X16033562Y-27185370D01*
X16033559Y-27185371D01*
X16030092Y-27185735D01*
X16026791Y-27186859D01*
X16026790Y-27186859D01*
X16019993Y-27189173D01*
X15875586Y-27238333D01*
X15736572Y-27323855D01*
X15734080Y-27326296D01*
X15734078Y-27326297D01*
X15630424Y-27427803D01*
X15586041Y-27445645D01*
X15542347Y-27427188D01*
X15520595Y-27405283D01*
X15446039Y-27330204D01*
X15385111Y-27291538D01*
X15357605Y-27252401D01*
X15356100Y-27238767D01*
X15356100Y-26563418D01*
X15374406Y-26519224D01*
X15386597Y-26509733D01*
X15388671Y-26508497D01*
X15394291Y-26505147D01*
X15426927Y-26485692D01*
X15426930Y-26485690D01*
X15429929Y-26483902D01*
X15546007Y-26373362D01*
X15590635Y-26356142D01*
X15634067Y-26375207D01*
X15671603Y-26414076D01*
X15720640Y-26464855D01*
X15857211Y-26554225D01*
X16010188Y-26611116D01*
X16013643Y-26611577D01*
X16013647Y-26611578D01*
X16103818Y-26623609D01*
X16171968Y-26632702D01*
X16175441Y-26632386D01*
X16175444Y-26632386D01*
X16253239Y-26625306D01*
X16334510Y-26617910D01*
X16489735Y-26567474D01*
X16586597Y-26509733D01*
X16626927Y-26485692D01*
X16626930Y-26485690D01*
X16629929Y-26483902D01*
X16744070Y-26375207D01*
X16745594Y-26373756D01*
X16745597Y-26373753D01*
X16748123Y-26371347D01*
X16838444Y-26235403D01*
X16896403Y-26082827D01*
X16919118Y-25921202D01*
X16919184Y-25916490D01*
X18895296Y-25916490D01*
X18915985Y-26047113D01*
X18976025Y-26164949D01*
X19069541Y-26258465D01*
X19187377Y-26318505D01*
X19318000Y-26339194D01*
X19448623Y-26318505D01*
X19566459Y-26258465D01*
X19654924Y-26170000D01*
X21507296Y-26170000D01*
X21527985Y-26300623D01*
X21588025Y-26418459D01*
X21681541Y-26511975D01*
X21799377Y-26572015D01*
X21930000Y-26592704D01*
X22060623Y-26572015D01*
X22178459Y-26511975D01*
X22271975Y-26418459D01*
X22332015Y-26300623D01*
X22352704Y-26170000D01*
X22332015Y-26039377D01*
X22271975Y-25921541D01*
X22178459Y-25828025D01*
X22060623Y-25767985D01*
X21930000Y-25747296D01*
X21799377Y-25767985D01*
X21681541Y-25828025D01*
X21588025Y-25921541D01*
X21527985Y-26039377D01*
X21507296Y-26170000D01*
X19654924Y-26170000D01*
X19659975Y-26164949D01*
X19720015Y-26047113D01*
X19740704Y-25916490D01*
X19720015Y-25785867D01*
X19659975Y-25668031D01*
X19566459Y-25574515D01*
X19448623Y-25514475D01*
X19318000Y-25493786D01*
X19187377Y-25514475D01*
X19069541Y-25574515D01*
X18976025Y-25668031D01*
X18915985Y-25785867D01*
X18895296Y-25916490D01*
X16919184Y-25916490D01*
X16919403Y-25900760D01*
X16918646Y-25894007D01*
X16901600Y-25742037D01*
X16901599Y-25742033D01*
X16901210Y-25738564D01*
X16847534Y-25584429D01*
X16761044Y-25446016D01*
X16646039Y-25330204D01*
X16571728Y-25283045D01*
X16511179Y-25244619D01*
X16511175Y-25244617D01*
X16508233Y-25242750D01*
X16354476Y-25188000D01*
X16278020Y-25178883D01*
X16195878Y-25169088D01*
X16195874Y-25169088D01*
X16192411Y-25168675D01*
X16099578Y-25178432D01*
X16033562Y-25185370D01*
X16033559Y-25185371D01*
X16030092Y-25185735D01*
X16026791Y-25186859D01*
X16026790Y-25186859D01*
X16020016Y-25189165D01*
X15875586Y-25238333D01*
X15736572Y-25323855D01*
X15734080Y-25326296D01*
X15734078Y-25326297D01*
X15630424Y-25427803D01*
X15586041Y-25445645D01*
X15542347Y-25427188D01*
X15542339Y-25427180D01*
X15446039Y-25330204D01*
X15385111Y-25291538D01*
X15357605Y-25252401D01*
X15356100Y-25238767D01*
X15356100Y-24563418D01*
X15374406Y-24519224D01*
X15386597Y-24509733D01*
X15426927Y-24485692D01*
X15426930Y-24485690D01*
X15429929Y-24483902D01*
X15546007Y-24373362D01*
X15590635Y-24356142D01*
X15634067Y-24375207D01*
X15671976Y-24414462D01*
X15720640Y-24464855D01*
X15857211Y-24554225D01*
X16010188Y-24611116D01*
X16013643Y-24611577D01*
X16013647Y-24611578D01*
X16103818Y-24623609D01*
X16171968Y-24632702D01*
X16175441Y-24632386D01*
X16175444Y-24632386D01*
X16253239Y-24625306D01*
X16334510Y-24617910D01*
X16489735Y-24567474D01*
X16586597Y-24509733D01*
X16626927Y-24485692D01*
X16626930Y-24485690D01*
X16629929Y-24483902D01*
X16744070Y-24375207D01*
X16745594Y-24373756D01*
X16745597Y-24373753D01*
X16748123Y-24371347D01*
X16838444Y-24235403D01*
X16896403Y-24082827D01*
X16919118Y-23921202D01*
X16919403Y-23900760D01*
X16919184Y-23898807D01*
X16917579Y-23884500D01*
X18895296Y-23884500D01*
X18915985Y-24015123D01*
X18976025Y-24132959D01*
X19069541Y-24226475D01*
X19187377Y-24286515D01*
X19318000Y-24307204D01*
X19448623Y-24286515D01*
X19566459Y-24226475D01*
X19659975Y-24132959D01*
X19720015Y-24015123D01*
X19740704Y-23884500D01*
X19720015Y-23753877D01*
X19659975Y-23636041D01*
X19566459Y-23542525D01*
X19448623Y-23482485D01*
X19318000Y-23461796D01*
X19187377Y-23482485D01*
X19069541Y-23542525D01*
X18976025Y-23636041D01*
X18915985Y-23753877D01*
X18895296Y-23884500D01*
X16917579Y-23884500D01*
X16901600Y-23742037D01*
X16901599Y-23742033D01*
X16901210Y-23738564D01*
X16847534Y-23584429D01*
X16761044Y-23446016D01*
X16646039Y-23330204D01*
X16585111Y-23291538D01*
X16511179Y-23244619D01*
X16511175Y-23244617D01*
X16508233Y-23242750D01*
X16354476Y-23188000D01*
X16278020Y-23178883D01*
X16195878Y-23169088D01*
X16195874Y-23169088D01*
X16192411Y-23168675D01*
X16099578Y-23178432D01*
X16033562Y-23185370D01*
X16033559Y-23185371D01*
X16030092Y-23185735D01*
X16026791Y-23186859D01*
X16026790Y-23186859D01*
X16019993Y-23189173D01*
X15875586Y-23238333D01*
X15736572Y-23323855D01*
X15734080Y-23326296D01*
X15734078Y-23326297D01*
X15630424Y-23427803D01*
X15586041Y-23445645D01*
X15542347Y-23427188D01*
X15446039Y-23330204D01*
X15385111Y-23291538D01*
X15357605Y-23252401D01*
X15356100Y-23238767D01*
X15356100Y-21852500D01*
X18895296Y-21852500D01*
X18915985Y-21983123D01*
X18976025Y-22100959D01*
X19069541Y-22194475D01*
X19187377Y-22254515D01*
X19318000Y-22275204D01*
X19448623Y-22254515D01*
X19566459Y-22194475D01*
X19659975Y-22100959D01*
X19720015Y-21983123D01*
X19740704Y-21852500D01*
X19720015Y-21721877D01*
X19659975Y-21604041D01*
X19566459Y-21510525D01*
X19448623Y-21450485D01*
X19318000Y-21429796D01*
X19187377Y-21450485D01*
X19069541Y-21510525D01*
X18976025Y-21604041D01*
X18915985Y-21721877D01*
X18895296Y-21852500D01*
X15356100Y-21852500D01*
X15356100Y-20994449D01*
X15356869Y-20984672D01*
X15359770Y-20966355D01*
X15360539Y-20961500D01*
X15359770Y-20956644D01*
X15359770Y-20951725D01*
X15359868Y-20951725D01*
X15359869Y-20937709D01*
X15364606Y-20907802D01*
X15370647Y-20889208D01*
X15390836Y-20849586D01*
X15402328Y-20833769D01*
X15433769Y-20802328D01*
X15449586Y-20790836D01*
X15489208Y-20770647D01*
X15507803Y-20764605D01*
X15522757Y-20762237D01*
X15537713Y-20759868D01*
X15551725Y-20759869D01*
X15551725Y-20759770D01*
X15556644Y-20759770D01*
X15561500Y-20760539D01*
X15566355Y-20759770D01*
X15584672Y-20756869D01*
X15594449Y-20756100D01*
X30407551Y-20756100D01*
X30417329Y-20756869D01*
G37*
G04 #@! TD.AperFunction*
G04 #@! TA.AperFunction,Conductor*
G36*
X67221329Y-20756869D02*
G01*
X67244500Y-20760539D01*
X67249356Y-20759770D01*
X67254275Y-20759770D01*
X67254275Y-20759869D01*
X67268287Y-20759868D01*
X67283243Y-20762237D01*
X67298197Y-20764605D01*
X67316792Y-20770647D01*
X67356414Y-20790836D01*
X67372231Y-20802328D01*
X67403672Y-20833769D01*
X67415164Y-20849586D01*
X67435353Y-20889208D01*
X67441394Y-20907802D01*
X67446131Y-20937709D01*
X67446132Y-20951725D01*
X67446230Y-20951725D01*
X67446230Y-20956644D01*
X67445461Y-20961500D01*
X67446230Y-20966355D01*
X67446230Y-20966357D01*
X67449126Y-20984645D01*
X67449895Y-20994428D01*
X67449865Y-21238552D01*
X67431554Y-21282744D01*
X67420114Y-21291777D01*
X67391001Y-21309687D01*
X67367972Y-21323855D01*
X67365480Y-21326296D01*
X67365478Y-21326297D01*
X67261824Y-21427803D01*
X67217441Y-21445645D01*
X67173747Y-21427188D01*
X67077439Y-21330204D01*
X67051987Y-21314052D01*
X66942579Y-21244619D01*
X66942575Y-21244617D01*
X66939633Y-21242750D01*
X66785876Y-21188000D01*
X66709420Y-21178883D01*
X66627278Y-21169088D01*
X66627274Y-21169088D01*
X66623811Y-21168675D01*
X66530978Y-21178432D01*
X66464962Y-21185370D01*
X66464959Y-21185371D01*
X66461492Y-21185735D01*
X66458191Y-21186859D01*
X66458190Y-21186859D01*
X66451393Y-21189173D01*
X66306986Y-21238333D01*
X66167972Y-21323855D01*
X66165480Y-21326296D01*
X66165478Y-21326297D01*
X66158958Y-21332682D01*
X66051361Y-21438049D01*
X66049471Y-21440982D01*
X66049470Y-21440983D01*
X66002412Y-21514003D01*
X65962947Y-21575241D01*
X65952465Y-21604041D01*
X65911172Y-21717491D01*
X65907124Y-21728612D01*
X65886668Y-21890538D01*
X65902595Y-22052973D01*
X65954113Y-22207842D01*
X65955923Y-22210831D01*
X65955925Y-22210835D01*
X65994443Y-22274434D01*
X66038662Y-22347449D01*
X66152040Y-22464855D01*
X66288611Y-22554225D01*
X66441588Y-22611116D01*
X66445043Y-22611577D01*
X66445047Y-22611578D01*
X66535218Y-22623609D01*
X66603368Y-22632702D01*
X66606841Y-22632386D01*
X66606844Y-22632386D01*
X66684639Y-22625306D01*
X66765910Y-22617910D01*
X66921135Y-22567474D01*
X67017118Y-22510257D01*
X67058327Y-22485692D01*
X67058330Y-22485690D01*
X67061329Y-22483902D01*
X67177407Y-22373362D01*
X67222035Y-22356142D01*
X67265467Y-22375207D01*
X67303376Y-22414462D01*
X67352040Y-22464855D01*
X67421422Y-22510258D01*
X67448378Y-22549774D01*
X67449699Y-22562561D01*
X67449698Y-22567474D01*
X67449614Y-23238706D01*
X67431303Y-23282898D01*
X67419863Y-23291931D01*
X67387193Y-23312030D01*
X67367972Y-23323855D01*
X67365480Y-23326296D01*
X67365478Y-23326297D01*
X67261824Y-23427803D01*
X67217441Y-23445645D01*
X67173747Y-23427188D01*
X67077439Y-23330204D01*
X67016511Y-23291538D01*
X66942579Y-23244619D01*
X66942575Y-23244617D01*
X66939633Y-23242750D01*
X66785876Y-23188000D01*
X66709420Y-23178883D01*
X66627278Y-23169088D01*
X66627274Y-23169088D01*
X66623811Y-23168675D01*
X66530978Y-23178432D01*
X66464962Y-23185370D01*
X66464959Y-23185371D01*
X66461492Y-23185735D01*
X66458191Y-23186859D01*
X66458190Y-23186859D01*
X66451393Y-23189173D01*
X66306986Y-23238333D01*
X66167972Y-23323855D01*
X66165480Y-23326296D01*
X66165478Y-23326297D01*
X66158958Y-23332682D01*
X66051361Y-23438049D01*
X66049471Y-23440982D01*
X66049470Y-23440983D01*
X65964839Y-23572305D01*
X65962947Y-23575241D01*
X65907124Y-23728612D01*
X65886668Y-23890538D01*
X65887009Y-23894015D01*
X65898884Y-24015123D01*
X65902595Y-24052973D01*
X65903697Y-24056285D01*
X65903697Y-24056286D01*
X65913613Y-24086093D01*
X65954113Y-24207842D01*
X65955923Y-24210831D01*
X65955925Y-24210835D01*
X65972566Y-24238312D01*
X66038662Y-24347449D01*
X66152040Y-24464855D01*
X66288611Y-24554225D01*
X66441588Y-24611116D01*
X66445043Y-24611577D01*
X66445047Y-24611578D01*
X66535218Y-24623609D01*
X66603368Y-24632702D01*
X66606841Y-24632386D01*
X66606844Y-24632386D01*
X66684639Y-24625306D01*
X66765910Y-24617910D01*
X66921135Y-24567474D01*
X67017997Y-24509733D01*
X67058327Y-24485692D01*
X67058330Y-24485690D01*
X67061329Y-24483902D01*
X67177407Y-24373362D01*
X67222035Y-24356142D01*
X67265467Y-24375207D01*
X67303376Y-24414462D01*
X67352040Y-24464855D01*
X67420621Y-24509733D01*
X67421171Y-24510093D01*
X67448127Y-24549610D01*
X67449448Y-24562397D01*
X67449447Y-24567474D01*
X67449363Y-25238853D01*
X67431052Y-25283045D01*
X67419612Y-25292078D01*
X67367972Y-25323847D01*
X67365480Y-25326288D01*
X67365478Y-25326289D01*
X67261824Y-25427795D01*
X67217441Y-25445637D01*
X67173747Y-25427180D01*
X67077439Y-25330196D01*
X67051987Y-25314044D01*
X66942579Y-25244611D01*
X66942575Y-25244609D01*
X66939633Y-25242742D01*
X66785876Y-25187992D01*
X66709420Y-25178875D01*
X66627278Y-25169080D01*
X66627274Y-25169080D01*
X66623811Y-25168667D01*
X66530978Y-25178424D01*
X66464962Y-25185362D01*
X66464959Y-25185363D01*
X66461492Y-25185727D01*
X66458191Y-25186851D01*
X66458190Y-25186851D01*
X66454815Y-25188000D01*
X66306986Y-25238325D01*
X66167972Y-25323847D01*
X66165480Y-25326288D01*
X66165478Y-25326289D01*
X66161480Y-25330204D01*
X66051361Y-25438041D01*
X66049471Y-25440974D01*
X66049470Y-25440975D01*
X66046221Y-25446016D01*
X65962947Y-25575233D01*
X65907124Y-25728604D01*
X65886668Y-25890530D01*
X65887009Y-25894007D01*
X65901740Y-26044241D01*
X65902595Y-26052965D01*
X65903697Y-26056277D01*
X65903697Y-26056278D01*
X65943145Y-26174862D01*
X65954113Y-26207834D01*
X65955923Y-26210823D01*
X65955925Y-26210827D01*
X65997320Y-26279177D01*
X66038662Y-26347441D01*
X66152040Y-26464847D01*
X66154959Y-26466757D01*
X66154960Y-26466758D01*
X66181147Y-26483894D01*
X66288611Y-26554217D01*
X66441588Y-26611108D01*
X66445043Y-26611569D01*
X66445047Y-26611570D01*
X66535218Y-26623601D01*
X66603368Y-26632694D01*
X66606841Y-26632378D01*
X66606844Y-26632378D01*
X66684639Y-26625298D01*
X66765910Y-26617902D01*
X66921135Y-26567466D01*
X67010477Y-26514208D01*
X67058327Y-26485684D01*
X67058330Y-26485682D01*
X67061329Y-26483894D01*
X67177407Y-26373354D01*
X67222035Y-26356134D01*
X67265467Y-26375199D01*
X67265475Y-26375207D01*
X67352040Y-26464847D01*
X67354959Y-26466757D01*
X67354960Y-26466758D01*
X67377462Y-26481483D01*
X67420633Y-26509733D01*
X67420920Y-26509921D01*
X67447876Y-26549438D01*
X67449197Y-26562225D01*
X67449193Y-26591934D01*
X67449112Y-27239015D01*
X67430801Y-27283207D01*
X67419361Y-27292240D01*
X67388284Y-27311359D01*
X67367972Y-27323855D01*
X67365480Y-27326296D01*
X67365478Y-27326297D01*
X67261824Y-27427803D01*
X67217441Y-27445645D01*
X67173747Y-27427188D01*
X67151995Y-27405283D01*
X67077439Y-27330204D01*
X67016511Y-27291538D01*
X66942579Y-27244619D01*
X66942575Y-27244617D01*
X66939633Y-27242750D01*
X66785876Y-27188000D01*
X66709420Y-27178883D01*
X66627278Y-27169088D01*
X66627274Y-27169088D01*
X66623811Y-27168675D01*
X66530978Y-27178432D01*
X66464962Y-27185370D01*
X66464959Y-27185371D01*
X66461492Y-27185735D01*
X66458191Y-27186859D01*
X66458190Y-27186859D01*
X66451393Y-27189173D01*
X66306986Y-27238333D01*
X66167972Y-27323855D01*
X66165479Y-27326296D01*
X66165473Y-27326301D01*
X66116342Y-27374414D01*
X66072613Y-27392260D01*
X63651276Y-27392260D01*
X63607082Y-27373954D01*
X63250083Y-27016956D01*
X63241419Y-27006112D01*
X63236504Y-26998322D01*
X63233171Y-26995378D01*
X63233168Y-26995375D01*
X63194683Y-26961387D01*
X63191862Y-26958735D01*
X63179025Y-26945898D01*
X63177247Y-26944565D01*
X63177243Y-26944562D01*
X63168614Y-26938094D01*
X63164727Y-26934929D01*
X63130669Y-26904851D01*
X63130666Y-26904849D01*
X63127329Y-26901902D01*
X63123297Y-26900009D01*
X63114369Y-26895817D01*
X63103449Y-26889256D01*
X63095547Y-26883334D01*
X63091985Y-26880664D01*
X63045241Y-26863140D01*
X63040650Y-26861206D01*
X62995480Y-26839999D01*
X62983679Y-26838162D01*
X62981332Y-26837796D01*
X62969010Y-26834563D01*
X62959767Y-26831098D01*
X62959763Y-26831097D01*
X62955596Y-26829535D01*
X62951157Y-26829205D01*
X62951156Y-26829205D01*
X62942515Y-26828563D01*
X62905836Y-26825838D01*
X62900859Y-26825266D01*
X62887288Y-26823152D01*
X62887278Y-26823151D01*
X62884894Y-26822780D01*
X62867010Y-26822780D01*
X62862378Y-26822608D01*
X62810339Y-26818741D01*
X62805987Y-26819670D01*
X62797868Y-26821403D01*
X62784821Y-26822780D01*
X59856066Y-26822780D01*
X59748392Y-26838200D01*
X59693529Y-26863145D01*
X59619852Y-26896644D01*
X59619850Y-26896645D01*
X59615797Y-26898488D01*
X59505452Y-26993567D01*
X59426227Y-27115795D01*
X59384493Y-27255346D01*
X59384323Y-27283207D01*
X59383980Y-27339383D01*
X59383603Y-27401001D01*
X59423630Y-27541051D01*
X59501355Y-27664238D01*
X59504687Y-27667181D01*
X59504689Y-27667183D01*
X59607193Y-27757711D01*
X59610530Y-27760658D01*
X59614560Y-27762550D01*
X59738348Y-27820669D01*
X59738351Y-27820670D01*
X59742379Y-27822561D01*
X59852965Y-27839780D01*
X62608765Y-27839780D01*
X62652959Y-27858086D01*
X63009957Y-28215084D01*
X63018621Y-28225928D01*
X63023536Y-28233718D01*
X63026869Y-28236662D01*
X63026872Y-28236665D01*
X63065357Y-28270653D01*
X63068178Y-28273305D01*
X63081015Y-28286142D01*
X63082793Y-28287475D01*
X63082797Y-28287478D01*
X63091426Y-28293946D01*
X63095313Y-28297111D01*
X63129371Y-28327189D01*
X63129374Y-28327191D01*
X63132711Y-28330138D01*
X63136743Y-28332031D01*
X63145671Y-28336223D01*
X63156591Y-28342784D01*
X63168055Y-28351376D01*
X63172223Y-28352939D01*
X63172224Y-28352939D01*
X63214779Y-28368892D01*
X63219401Y-28370840D01*
X63260525Y-28390147D01*
X63260527Y-28390148D01*
X63264560Y-28392041D01*
X63268959Y-28392726D01*
X63268962Y-28392727D01*
X63278714Y-28394245D01*
X63291031Y-28397476D01*
X63304444Y-28402504D01*
X63308885Y-28402834D01*
X63354189Y-28406201D01*
X63359172Y-28406773D01*
X63371498Y-28408692D01*
X63375146Y-28409260D01*
X63393034Y-28409260D01*
X63397667Y-28409432D01*
X63449701Y-28413299D01*
X63462172Y-28410637D01*
X63475219Y-28409260D01*
X66071822Y-28409260D01*
X66116781Y-28428343D01*
X66152040Y-28464855D01*
X66288611Y-28554225D01*
X66441588Y-28611116D01*
X66445043Y-28611577D01*
X66445047Y-28611578D01*
X66535218Y-28623609D01*
X66603368Y-28632702D01*
X66606841Y-28632386D01*
X66606844Y-28632386D01*
X66684639Y-28625306D01*
X66765910Y-28617910D01*
X66921135Y-28567474D01*
X67002076Y-28519224D01*
X67058327Y-28485692D01*
X67058330Y-28485690D01*
X67061329Y-28483902D01*
X67177407Y-28373362D01*
X67222035Y-28356142D01*
X67265467Y-28375207D01*
X67290319Y-28400941D01*
X67352040Y-28464855D01*
X67354959Y-28466765D01*
X67354960Y-28466766D01*
X67420669Y-28509765D01*
X67447625Y-28549282D01*
X67448946Y-28562069D01*
X67448932Y-28674324D01*
X67448861Y-29239169D01*
X67430550Y-29283361D01*
X67419111Y-29292394D01*
X67367972Y-29323855D01*
X67365480Y-29326296D01*
X67365478Y-29326297D01*
X67343331Y-29347985D01*
X67282021Y-29408025D01*
X67261824Y-29427803D01*
X67217441Y-29445645D01*
X67173747Y-29427188D01*
X67158171Y-29411503D01*
X67077439Y-29330204D01*
X67027124Y-29298273D01*
X66942579Y-29244619D01*
X66942575Y-29244617D01*
X66939633Y-29242750D01*
X66785876Y-29188000D01*
X66709420Y-29178883D01*
X66627278Y-29169088D01*
X66627274Y-29169088D01*
X66623811Y-29168675D01*
X66530978Y-29178432D01*
X66464962Y-29185370D01*
X66464959Y-29185371D01*
X66461492Y-29185735D01*
X66458191Y-29186859D01*
X66458190Y-29186859D01*
X66451393Y-29189173D01*
X66306986Y-29238333D01*
X66167972Y-29323855D01*
X66165480Y-29326296D01*
X66165478Y-29326297D01*
X66143331Y-29347985D01*
X66051361Y-29438049D01*
X66049471Y-29440982D01*
X66049470Y-29440983D01*
X65964839Y-29572305D01*
X65962947Y-29575241D01*
X65907124Y-29728612D01*
X65894483Y-29828676D01*
X65887921Y-29880623D01*
X65886668Y-29890538D01*
X65902595Y-30052973D01*
X65903697Y-30056285D01*
X65903697Y-30056286D01*
X65913613Y-30086093D01*
X65954113Y-30207842D01*
X65955923Y-30210831D01*
X65955925Y-30210835D01*
X65972566Y-30238312D01*
X66038662Y-30347449D01*
X66152040Y-30464855D01*
X66288611Y-30554225D01*
X66441588Y-30611116D01*
X66445043Y-30611577D01*
X66445047Y-30611578D01*
X66535218Y-30623609D01*
X66603368Y-30632702D01*
X66606841Y-30632386D01*
X66606844Y-30632386D01*
X66684639Y-30625306D01*
X66765910Y-30617910D01*
X66921135Y-30567474D01*
X67018220Y-30509600D01*
X67058327Y-30485692D01*
X67058330Y-30485690D01*
X67061329Y-30483902D01*
X67177407Y-30373362D01*
X67222035Y-30356142D01*
X67265467Y-30375207D01*
X67349614Y-30462343D01*
X67352040Y-30464855D01*
X67420419Y-30509602D01*
X67447374Y-30549117D01*
X67448695Y-30561904D01*
X67448682Y-30663686D01*
X67448610Y-31239324D01*
X67430299Y-31283516D01*
X67418859Y-31292549D01*
X67389671Y-31310506D01*
X67367972Y-31323855D01*
X67365480Y-31326296D01*
X67365478Y-31326297D01*
X67261824Y-31427803D01*
X67217441Y-31445645D01*
X67173747Y-31427188D01*
X67157353Y-31410679D01*
X67077439Y-31330204D01*
X67016511Y-31291538D01*
X66942579Y-31244619D01*
X66942575Y-31244617D01*
X66939633Y-31242750D01*
X66785876Y-31188000D01*
X66709420Y-31178883D01*
X66627278Y-31169088D01*
X66627274Y-31169088D01*
X66623811Y-31168675D01*
X66530978Y-31178432D01*
X66464962Y-31185370D01*
X66464959Y-31185371D01*
X66461492Y-31185735D01*
X66458191Y-31186859D01*
X66458190Y-31186859D01*
X66451393Y-31189173D01*
X66306986Y-31238333D01*
X66167972Y-31323855D01*
X66165480Y-31326296D01*
X66165478Y-31326297D01*
X66158958Y-31332682D01*
X66051361Y-31438049D01*
X66049471Y-31440982D01*
X66049470Y-31440983D01*
X65964839Y-31572305D01*
X65962947Y-31575241D01*
X65949640Y-31611801D01*
X65929056Y-31668356D01*
X65907124Y-31728612D01*
X65886668Y-31890538D01*
X65902595Y-32052973D01*
X65903697Y-32056285D01*
X65903697Y-32056286D01*
X65944996Y-32180434D01*
X65954113Y-32207842D01*
X65955923Y-32210831D01*
X65955925Y-32210835D01*
X65972566Y-32238312D01*
X66038662Y-32347449D01*
X66152040Y-32464855D01*
X66288611Y-32554225D01*
X66441588Y-32611116D01*
X66445043Y-32611577D01*
X66445047Y-32611578D01*
X66535218Y-32623609D01*
X66603368Y-32632702D01*
X66606841Y-32632386D01*
X66606844Y-32632386D01*
X66684639Y-32625306D01*
X66765910Y-32617910D01*
X66921135Y-32567474D01*
X67018495Y-32509436D01*
X67058327Y-32485692D01*
X67058330Y-32485690D01*
X67061329Y-32483902D01*
X67177407Y-32373362D01*
X67222035Y-32356142D01*
X67265467Y-32375207D01*
X67303376Y-32414462D01*
X67352040Y-32464855D01*
X67354961Y-32466766D01*
X67354964Y-32466769D01*
X67420167Y-32509436D01*
X67447124Y-32548953D01*
X67448445Y-32561740D01*
X67448348Y-33330204D01*
X67448108Y-35239633D01*
X67429797Y-35283825D01*
X67418357Y-35292858D01*
X67413484Y-35295856D01*
X67367972Y-35323855D01*
X67365480Y-35326296D01*
X67365478Y-35326297D01*
X67261824Y-35427803D01*
X67217441Y-35445645D01*
X67173747Y-35427188D01*
X67077439Y-35330204D01*
X66989755Y-35274558D01*
X66942579Y-35244619D01*
X66942575Y-35244617D01*
X66939633Y-35242750D01*
X66785876Y-35188000D01*
X66709420Y-35178883D01*
X66627278Y-35169088D01*
X66627274Y-35169088D01*
X66623811Y-35168675D01*
X66530978Y-35178432D01*
X66464962Y-35185370D01*
X66464959Y-35185371D01*
X66461492Y-35185735D01*
X66458191Y-35186859D01*
X66458190Y-35186859D01*
X66453916Y-35188314D01*
X66306986Y-35238333D01*
X66167972Y-35323855D01*
X66165480Y-35326296D01*
X66165478Y-35326297D01*
X66158958Y-35332682D01*
X66051361Y-35438049D01*
X66049471Y-35440982D01*
X66049470Y-35440983D01*
X65974564Y-35557215D01*
X65962947Y-35575241D01*
X65907124Y-35728612D01*
X65886668Y-35890538D01*
X65887009Y-35894015D01*
X65898951Y-36015806D01*
X65902595Y-36052973D01*
X65903697Y-36056285D01*
X65903697Y-36056286D01*
X65945283Y-36181297D01*
X65954113Y-36207842D01*
X65955923Y-36210831D01*
X65955925Y-36210835D01*
X65975151Y-36242580D01*
X66038662Y-36347449D01*
X66152040Y-36464855D01*
X66288611Y-36554225D01*
X66441588Y-36611116D01*
X66445043Y-36611577D01*
X66445047Y-36611578D01*
X66535218Y-36623609D01*
X66603368Y-36632702D01*
X66606841Y-36632386D01*
X66606844Y-36632386D01*
X66684639Y-36625306D01*
X66765910Y-36617910D01*
X66921135Y-36567474D01*
X66994191Y-36523924D01*
X67058327Y-36485692D01*
X67058330Y-36485690D01*
X67061329Y-36483902D01*
X67177407Y-36373362D01*
X67222035Y-36356142D01*
X67265467Y-36375207D01*
X67287636Y-36398163D01*
X67352040Y-36464855D01*
X67419666Y-36509109D01*
X67446622Y-36548625D01*
X67447943Y-36561411D01*
X67447917Y-36762704D01*
X67447907Y-36844998D01*
X67447905Y-36845093D01*
X67447900Y-36845148D01*
X67447900Y-36899660D01*
X67447898Y-36919574D01*
X67447896Y-36931539D01*
X67447899Y-36931558D01*
X67447900Y-36931579D01*
X67447900Y-42869051D01*
X67447131Y-42878828D01*
X67445014Y-42892197D01*
X67443461Y-42902000D01*
X67444231Y-42906859D01*
X67444231Y-42911775D01*
X67443517Y-42911775D01*
X67443252Y-42925371D01*
X67439524Y-42944111D01*
X67430192Y-42966640D01*
X67413244Y-42992003D01*
X67396003Y-43009244D01*
X67370640Y-43026192D01*
X67348111Y-43035524D01*
X67329369Y-43039252D01*
X67315775Y-43039517D01*
X67315775Y-43040231D01*
X67310859Y-43040231D01*
X67306000Y-43039461D01*
X67301145Y-43040230D01*
X67301143Y-43040230D01*
X67282828Y-43043131D01*
X67273051Y-43043900D01*
X52398449Y-43043900D01*
X52388672Y-43043131D01*
X52377926Y-43041429D01*
X52365500Y-43039461D01*
X52360644Y-43040230D01*
X52355725Y-43040230D01*
X52355725Y-43040131D01*
X52341713Y-43040132D01*
X52312617Y-43035524D01*
X52311803Y-43035395D01*
X52293208Y-43029353D01*
X52253586Y-43009164D01*
X52237769Y-42997672D01*
X52206328Y-42966231D01*
X52194834Y-42950412D01*
X52174647Y-42910792D01*
X52168605Y-42892197D01*
X52163868Y-42862288D01*
X52163869Y-42848275D01*
X52163770Y-42848275D01*
X52163770Y-42843356D01*
X52164539Y-42838500D01*
X52160869Y-42815328D01*
X52160100Y-42805551D01*
X52160100Y-36581077D01*
X56051158Y-36581077D01*
X56071847Y-36711700D01*
X56131887Y-36829536D01*
X56225403Y-36923052D01*
X56343239Y-36983092D01*
X56473862Y-37003781D01*
X56604485Y-36983092D01*
X56722321Y-36923052D01*
X56815837Y-36829536D01*
X56875877Y-36711700D01*
X56896566Y-36581077D01*
X56894412Y-36567474D01*
X56888284Y-36528786D01*
X57200943Y-36528786D01*
X57221632Y-36659409D01*
X57281672Y-36777245D01*
X57375188Y-36870761D01*
X57493024Y-36930801D01*
X57623647Y-36951490D01*
X57754270Y-36930801D01*
X57872106Y-36870761D01*
X57965622Y-36777245D01*
X58025662Y-36659409D01*
X58046351Y-36528786D01*
X58025662Y-36398163D01*
X57996027Y-36340000D01*
X58181296Y-36340000D01*
X58201985Y-36470623D01*
X58262025Y-36588459D01*
X58355541Y-36681975D01*
X58473377Y-36742015D01*
X58604000Y-36762704D01*
X58734623Y-36742015D01*
X58852459Y-36681975D01*
X58945975Y-36588459D01*
X59006015Y-36470623D01*
X59026704Y-36340000D01*
X59017865Y-36284194D01*
X59029031Y-36237681D01*
X59069818Y-36212687D01*
X59116331Y-36223853D01*
X59123789Y-36230223D01*
X59195541Y-36301975D01*
X59313377Y-36362015D01*
X59444000Y-36382704D01*
X59574623Y-36362015D01*
X59692459Y-36301975D01*
X59785975Y-36208459D01*
X59846015Y-36090623D01*
X59866704Y-35960000D01*
X59846015Y-35829377D01*
X59785975Y-35711541D01*
X59692459Y-35618025D01*
X59574623Y-35557985D01*
X59444000Y-35537296D01*
X59313377Y-35557985D01*
X59195541Y-35618025D01*
X59102025Y-35711541D01*
X59041985Y-35829377D01*
X59021296Y-35960000D01*
X59022066Y-35964861D01*
X59030135Y-36015806D01*
X59018969Y-36062319D01*
X58978182Y-36087313D01*
X58931669Y-36076147D01*
X58924211Y-36069777D01*
X58852459Y-35998025D01*
X58734623Y-35937985D01*
X58604000Y-35917296D01*
X58473377Y-35937985D01*
X58355541Y-35998025D01*
X58262025Y-36091541D01*
X58201985Y-36209377D01*
X58181296Y-36340000D01*
X57996027Y-36340000D01*
X57965622Y-36280327D01*
X57872106Y-36186811D01*
X57754270Y-36126771D01*
X57623647Y-36106082D01*
X57493024Y-36126771D01*
X57375188Y-36186811D01*
X57281672Y-36280327D01*
X57221632Y-36398163D01*
X57200943Y-36528786D01*
X56888284Y-36528786D01*
X56881458Y-36485692D01*
X56875877Y-36450454D01*
X56815837Y-36332618D01*
X56722321Y-36239102D01*
X56604485Y-36179062D01*
X56473862Y-36158373D01*
X56343239Y-36179062D01*
X56225403Y-36239102D01*
X56131887Y-36332618D01*
X56071847Y-36450454D01*
X56066266Y-36485692D01*
X56053313Y-36567474D01*
X56051158Y-36581077D01*
X52160100Y-36581077D01*
X52160100Y-34563418D01*
X52178406Y-34519224D01*
X52190597Y-34509733D01*
X52230927Y-34485692D01*
X52230930Y-34485690D01*
X52233929Y-34483902D01*
X52350007Y-34373362D01*
X52394635Y-34356142D01*
X52438067Y-34375207D01*
X52475976Y-34414462D01*
X52524640Y-34464855D01*
X52661211Y-34554225D01*
X52814188Y-34611116D01*
X52817643Y-34611577D01*
X52817647Y-34611578D01*
X52907818Y-34623609D01*
X52975968Y-34632702D01*
X52979441Y-34632386D01*
X52979444Y-34632386D01*
X53057239Y-34625306D01*
X53138510Y-34617910D01*
X53293735Y-34567474D01*
X53390597Y-34509733D01*
X53430927Y-34485692D01*
X53430930Y-34485690D01*
X53433929Y-34483902D01*
X53548070Y-34375207D01*
X53549594Y-34373756D01*
X53549597Y-34373753D01*
X53552123Y-34371347D01*
X53642444Y-34235403D01*
X53700403Y-34082827D01*
X53723118Y-33921202D01*
X53723403Y-33900760D01*
X53723184Y-33898807D01*
X53705600Y-33742037D01*
X53705599Y-33742033D01*
X53705210Y-33738564D01*
X53651534Y-33584429D01*
X53565044Y-33446016D01*
X53450039Y-33330204D01*
X53360100Y-33273127D01*
X53315179Y-33244619D01*
X53315175Y-33244617D01*
X53312233Y-33242750D01*
X53158476Y-33188000D01*
X53082020Y-33178883D01*
X52999878Y-33169088D01*
X52999874Y-33169088D01*
X52996411Y-33168675D01*
X52903578Y-33178432D01*
X52837562Y-33185370D01*
X52837559Y-33185371D01*
X52834092Y-33185735D01*
X52830791Y-33186859D01*
X52830790Y-33186859D01*
X52823993Y-33189173D01*
X52679586Y-33238333D01*
X52540572Y-33323855D01*
X52538080Y-33326296D01*
X52538078Y-33326297D01*
X52434424Y-33427803D01*
X52390041Y-33445645D01*
X52346347Y-33427188D01*
X52250039Y-33330204D01*
X52189111Y-33291538D01*
X52161605Y-33252401D01*
X52160100Y-33238767D01*
X52160100Y-32563418D01*
X52178406Y-32519224D01*
X52190597Y-32509733D01*
X52230927Y-32485692D01*
X52230930Y-32485690D01*
X52233929Y-32483902D01*
X52350007Y-32373362D01*
X52394635Y-32356142D01*
X52438067Y-32375207D01*
X52475976Y-32414462D01*
X52524640Y-32464855D01*
X52661211Y-32554225D01*
X52814188Y-32611116D01*
X52817643Y-32611577D01*
X52817647Y-32611578D01*
X52907818Y-32623609D01*
X52975968Y-32632702D01*
X52979441Y-32632386D01*
X52979444Y-32632386D01*
X53057239Y-32625306D01*
X53138510Y-32617910D01*
X53293735Y-32567474D01*
X53391095Y-32509436D01*
X53430927Y-32485692D01*
X53430930Y-32485690D01*
X53433929Y-32483902D01*
X53502611Y-32418497D01*
X53549594Y-32373756D01*
X53549597Y-32373753D01*
X53552123Y-32371347D01*
X53642444Y-32235403D01*
X53700403Y-32082827D01*
X53700800Y-32080000D01*
X55861296Y-32080000D01*
X55881985Y-32210623D01*
X55942025Y-32328459D01*
X56035541Y-32421975D01*
X56153377Y-32482015D01*
X56284000Y-32502704D01*
X56414623Y-32482015D01*
X56532459Y-32421975D01*
X56565006Y-32389428D01*
X56609200Y-32371122D01*
X56653394Y-32389428D01*
X56671700Y-32433622D01*
X56671700Y-34690613D01*
X56671267Y-34697959D01*
X56667033Y-34733733D01*
X56667872Y-34738327D01*
X56667872Y-34738328D01*
X56677315Y-34790033D01*
X56677637Y-34791969D01*
X56685449Y-34843930D01*
X56685450Y-34843933D01*
X56686144Y-34848549D01*
X56688166Y-34852760D01*
X56688572Y-34854080D01*
X56688664Y-34854455D01*
X56688953Y-34855346D01*
X56689100Y-34855705D01*
X56689549Y-34857015D01*
X56690388Y-34861611D01*
X56692541Y-34865755D01*
X56692542Y-34865759D01*
X56716774Y-34912409D01*
X56717651Y-34914164D01*
X56742414Y-34965733D01*
X56745586Y-34969164D01*
X56746361Y-34970304D01*
X56746760Y-34970974D01*
X56748671Y-34973811D01*
X56750312Y-34976970D01*
X56754442Y-34981807D01*
X56791014Y-35018379D01*
X56792715Y-35020148D01*
X56830655Y-35061191D01*
X56834697Y-35063539D01*
X56838342Y-35066459D01*
X56838070Y-35066799D01*
X56843980Y-35071345D01*
X56962596Y-35189961D01*
X56964465Y-35191342D01*
X56964468Y-35191344D01*
X57025532Y-35236446D01*
X57040742Y-35247680D01*
X57045150Y-35249228D01*
X57158981Y-35289204D01*
X57158984Y-35289205D01*
X57163393Y-35290753D01*
X57168061Y-35290936D01*
X57168064Y-35290937D01*
X57288622Y-35295673D01*
X57288624Y-35295673D01*
X57293288Y-35295856D01*
X57297801Y-35294659D01*
X57297804Y-35294659D01*
X57375854Y-35273964D01*
X57418939Y-35262540D01*
X57422903Y-35260068D01*
X57422905Y-35260067D01*
X57525274Y-35196224D01*
X57529241Y-35193750D01*
X57614439Y-35095567D01*
X57616329Y-35091292D01*
X57665111Y-34980950D01*
X57665112Y-34980948D01*
X57667001Y-34976674D01*
X57682280Y-34847580D01*
X57681441Y-34842985D01*
X57659765Y-34724300D01*
X57659764Y-34724298D01*
X57658925Y-34719702D01*
X57606214Y-34618226D01*
X57600643Y-34607502D01*
X57599002Y-34604343D01*
X57594871Y-34599506D01*
X57554606Y-34559241D01*
X57536300Y-34515047D01*
X57536300Y-31963323D01*
X57521856Y-31867252D01*
X57473598Y-31766754D01*
X57471200Y-31758500D01*
X61826995Y-31758500D01*
X61847684Y-31889123D01*
X61907724Y-32006959D01*
X62001240Y-32100475D01*
X62119076Y-32160515D01*
X62249699Y-32181204D01*
X62380322Y-32160515D01*
X62498158Y-32100475D01*
X62591674Y-32006959D01*
X62651714Y-31889123D01*
X62672403Y-31758500D01*
X62669796Y-31742037D01*
X62665957Y-31717803D01*
X62651714Y-31627877D01*
X62591674Y-31510041D01*
X62498158Y-31416525D01*
X62380322Y-31356485D01*
X62249699Y-31335796D01*
X62119076Y-31356485D01*
X62001240Y-31416525D01*
X61907724Y-31510041D01*
X61847684Y-31627877D01*
X61833441Y-31717803D01*
X61829603Y-31742037D01*
X61826995Y-31758500D01*
X57471200Y-31758500D01*
X57467874Y-31747049D01*
X57466807Y-31738025D01*
X57465418Y-31726292D01*
X57463183Y-31721637D01*
X57462069Y-31717803D01*
X57460770Y-31714008D01*
X57459922Y-31708916D01*
X57434737Y-31662241D01*
X57433400Y-31659616D01*
X57412143Y-31615348D01*
X57410440Y-31611801D01*
X57406830Y-31607507D01*
X57406645Y-31607322D01*
X57404056Y-31604255D01*
X57402065Y-31601689D01*
X57399612Y-31597142D01*
X57387340Y-31585798D01*
X57367314Y-31542358D01*
X57383870Y-31497479D01*
X57419989Y-31478174D01*
X57430793Y-31476463D01*
X57481155Y-31468486D01*
X57598991Y-31408446D01*
X57692507Y-31314930D01*
X57752547Y-31197094D01*
X57773236Y-31066471D01*
X57752547Y-30935848D01*
X57692507Y-30818012D01*
X57598991Y-30724496D01*
X57481155Y-30664456D01*
X57350532Y-30643767D01*
X57219909Y-30664456D01*
X57102073Y-30724496D01*
X57008557Y-30818012D01*
X56948517Y-30935848D01*
X56927828Y-31066471D01*
X56928597Y-31071326D01*
X56928597Y-31071333D01*
X56929637Y-31077897D01*
X56918471Y-31124411D01*
X56877685Y-31149405D01*
X56858130Y-31149406D01*
X56848617Y-31147899D01*
X56848615Y-31147899D01*
X56843760Y-31147130D01*
X56713137Y-31167819D01*
X56595301Y-31227859D01*
X56501785Y-31321375D01*
X56441745Y-31439211D01*
X56421056Y-31569834D01*
X56421825Y-31574689D01*
X56421825Y-31574696D01*
X56425334Y-31596848D01*
X56414168Y-31643362D01*
X56373382Y-31668356D01*
X56353829Y-31668356D01*
X56284000Y-31657296D01*
X56153377Y-31677985D01*
X56035541Y-31738025D01*
X55942025Y-31831541D01*
X55881985Y-31949377D01*
X55861296Y-32080000D01*
X53700800Y-32080000D01*
X53723118Y-31921202D01*
X53723403Y-31900760D01*
X53723184Y-31898807D01*
X53705600Y-31742037D01*
X53705599Y-31742033D01*
X53705210Y-31738564D01*
X53651534Y-31584429D01*
X53565044Y-31446016D01*
X53450039Y-31330204D01*
X53389111Y-31291538D01*
X53315179Y-31244619D01*
X53315175Y-31244617D01*
X53312233Y-31242750D01*
X53158476Y-31188000D01*
X53082020Y-31178883D01*
X52999878Y-31169088D01*
X52999874Y-31169088D01*
X52996411Y-31168675D01*
X52903578Y-31178432D01*
X52837562Y-31185370D01*
X52837559Y-31185371D01*
X52834092Y-31185735D01*
X52830791Y-31186859D01*
X52830790Y-31186859D01*
X52823993Y-31189173D01*
X52679586Y-31238333D01*
X52540572Y-31323855D01*
X52538080Y-31326296D01*
X52538078Y-31326297D01*
X52434424Y-31427803D01*
X52390041Y-31445645D01*
X52346347Y-31427188D01*
X52329953Y-31410679D01*
X52250039Y-31330204D01*
X52189111Y-31291538D01*
X52161605Y-31252401D01*
X52160100Y-31238767D01*
X52160100Y-30563418D01*
X52178406Y-30519224D01*
X52190597Y-30509733D01*
X52230927Y-30485692D01*
X52230930Y-30485690D01*
X52233929Y-30483902D01*
X52350007Y-30373362D01*
X52394635Y-30356142D01*
X52438067Y-30375207D01*
X52475976Y-30414462D01*
X52524640Y-30464855D01*
X52661211Y-30554225D01*
X52814188Y-30611116D01*
X52817643Y-30611577D01*
X52817647Y-30611578D01*
X52907818Y-30623609D01*
X52975968Y-30632702D01*
X52979441Y-30632386D01*
X52979444Y-30632386D01*
X53057239Y-30625306D01*
X53138510Y-30617910D01*
X53293735Y-30567474D01*
X53390820Y-30509600D01*
X53430927Y-30485692D01*
X53430930Y-30485690D01*
X53433929Y-30483902D01*
X53548070Y-30375207D01*
X53549594Y-30373756D01*
X53549597Y-30373753D01*
X53552123Y-30371347D01*
X53642444Y-30235403D01*
X53700403Y-30082827D01*
X53723118Y-29921202D01*
X53723403Y-29900760D01*
X53723184Y-29898807D01*
X53705600Y-29742037D01*
X53705599Y-29742033D01*
X53705210Y-29738564D01*
X53651534Y-29584429D01*
X53565044Y-29446016D01*
X53548043Y-29428896D01*
X56011796Y-29428896D01*
X56032485Y-29559519D01*
X56092525Y-29677355D01*
X56186041Y-29770871D01*
X56303877Y-29830911D01*
X56434500Y-29851600D01*
X56565123Y-29830911D01*
X56682959Y-29770871D01*
X56703830Y-29750000D01*
X58421296Y-29750000D01*
X58441985Y-29880623D01*
X58502025Y-29998459D01*
X58595541Y-30091975D01*
X58713377Y-30152015D01*
X58844000Y-30172704D01*
X58974623Y-30152015D01*
X59092459Y-30091975D01*
X59185975Y-29998459D01*
X59246015Y-29880623D01*
X59266704Y-29750000D01*
X59246015Y-29619377D01*
X59185975Y-29501541D01*
X59092459Y-29408025D01*
X58974623Y-29347985D01*
X58844000Y-29327296D01*
X58713377Y-29347985D01*
X58595541Y-29408025D01*
X58502025Y-29501541D01*
X58441985Y-29619377D01*
X58421296Y-29750000D01*
X56703830Y-29750000D01*
X56776475Y-29677355D01*
X56836515Y-29559519D01*
X56857204Y-29428896D01*
X56836515Y-29298273D01*
X56776475Y-29180437D01*
X56687538Y-29091500D01*
X57191487Y-29091500D01*
X57212176Y-29222123D01*
X57272216Y-29339959D01*
X57365732Y-29433475D01*
X57483568Y-29493515D01*
X57614191Y-29514204D01*
X57744814Y-29493515D01*
X57862650Y-29433475D01*
X57956166Y-29339959D01*
X58016206Y-29222123D01*
X58036895Y-29091500D01*
X58036893Y-29091490D01*
X62525495Y-29091490D01*
X62546184Y-29222113D01*
X62606224Y-29339949D01*
X62699740Y-29433465D01*
X62817576Y-29493505D01*
X62948199Y-29514194D01*
X63078822Y-29493505D01*
X63196658Y-29433465D01*
X63290174Y-29339949D01*
X63350214Y-29222113D01*
X63370903Y-29091490D01*
X63350214Y-28960867D01*
X63290174Y-28843031D01*
X63196658Y-28749515D01*
X63078822Y-28689475D01*
X62948199Y-28668786D01*
X62817576Y-28689475D01*
X62699740Y-28749515D01*
X62606224Y-28843031D01*
X62546184Y-28960867D01*
X62525495Y-29091490D01*
X58036893Y-29091490D01*
X58016206Y-28960877D01*
X57956166Y-28843041D01*
X57862650Y-28749525D01*
X57744814Y-28689485D01*
X57614191Y-28668796D01*
X57483568Y-28689485D01*
X57365732Y-28749525D01*
X57272216Y-28843041D01*
X57212176Y-28960877D01*
X57191487Y-29091500D01*
X56687538Y-29091500D01*
X56682959Y-29086921D01*
X56565123Y-29026881D01*
X56434500Y-29006192D01*
X56303877Y-29026881D01*
X56186041Y-29086921D01*
X56092525Y-29180437D01*
X56032485Y-29298273D01*
X56011796Y-29428896D01*
X53548043Y-29428896D01*
X53450039Y-29330204D01*
X53399724Y-29298273D01*
X53315179Y-29244619D01*
X53315175Y-29244617D01*
X53312233Y-29242750D01*
X53158476Y-29188000D01*
X53082020Y-29178883D01*
X52999878Y-29169088D01*
X52999874Y-29169088D01*
X52996411Y-29168675D01*
X52903578Y-29178432D01*
X52837562Y-29185370D01*
X52837559Y-29185371D01*
X52834092Y-29185735D01*
X52830791Y-29186859D01*
X52830790Y-29186859D01*
X52823993Y-29189173D01*
X52679586Y-29238333D01*
X52540572Y-29323855D01*
X52538080Y-29326296D01*
X52538078Y-29326297D01*
X52515931Y-29347985D01*
X52454621Y-29408025D01*
X52434424Y-29427803D01*
X52390041Y-29445645D01*
X52346347Y-29427188D01*
X52330771Y-29411503D01*
X52250039Y-29330204D01*
X52189111Y-29291538D01*
X52161605Y-29252401D01*
X52160100Y-29238767D01*
X52160100Y-28563418D01*
X52178406Y-28519224D01*
X52190597Y-28509733D01*
X52230927Y-28485692D01*
X52230930Y-28485690D01*
X52233929Y-28483902D01*
X52350007Y-28373362D01*
X52394635Y-28356142D01*
X52438067Y-28375207D01*
X52462919Y-28400941D01*
X52524640Y-28464855D01*
X52661211Y-28554225D01*
X52814188Y-28611116D01*
X52817643Y-28611577D01*
X52817647Y-28611578D01*
X52907818Y-28623609D01*
X52975968Y-28632702D01*
X52979441Y-28632386D01*
X52979444Y-28632386D01*
X53057239Y-28625306D01*
X53138510Y-28617910D01*
X53293735Y-28567474D01*
X53333615Y-28543701D01*
X58062441Y-28543701D01*
X58083130Y-28674324D01*
X58143170Y-28792160D01*
X58236686Y-28885676D01*
X58354522Y-28945716D01*
X58485145Y-28966405D01*
X58615768Y-28945716D01*
X58733604Y-28885676D01*
X58827120Y-28792160D01*
X58887160Y-28674324D01*
X58907849Y-28543701D01*
X58887160Y-28413078D01*
X58827120Y-28295242D01*
X58733604Y-28201726D01*
X58615768Y-28141686D01*
X58485145Y-28120997D01*
X58354522Y-28141686D01*
X58236686Y-28201726D01*
X58143170Y-28295242D01*
X58083130Y-28413078D01*
X58062441Y-28543701D01*
X53333615Y-28543701D01*
X53374676Y-28519224D01*
X53430927Y-28485692D01*
X53430930Y-28485690D01*
X53433929Y-28483902D01*
X53514922Y-28406773D01*
X53549594Y-28373756D01*
X53549597Y-28373753D01*
X53552123Y-28371347D01*
X53642444Y-28235403D01*
X53700403Y-28082827D01*
X53723118Y-27921202D01*
X53723403Y-27900760D01*
X53722906Y-27896326D01*
X53705600Y-27742037D01*
X53705599Y-27742033D01*
X53705210Y-27738564D01*
X53651534Y-27584429D01*
X53582775Y-27474392D01*
X55478677Y-27474392D01*
X55499366Y-27605015D01*
X55559406Y-27722851D01*
X55652922Y-27816367D01*
X55770758Y-27876407D01*
X55901381Y-27897096D01*
X56032004Y-27876407D01*
X56149840Y-27816367D01*
X56243356Y-27722851D01*
X56303396Y-27605015D01*
X56324085Y-27474392D01*
X56303396Y-27343769D01*
X56243356Y-27225933D01*
X56149840Y-27132417D01*
X56032004Y-27072377D01*
X55901381Y-27051688D01*
X55770758Y-27072377D01*
X55652922Y-27132417D01*
X55559406Y-27225933D01*
X55499366Y-27343769D01*
X55478677Y-27474392D01*
X53582775Y-27474392D01*
X53565044Y-27446016D01*
X53450039Y-27330204D01*
X53389111Y-27291538D01*
X53315179Y-27244619D01*
X53315175Y-27244617D01*
X53312233Y-27242750D01*
X53158476Y-27188000D01*
X53082020Y-27178883D01*
X52999878Y-27169088D01*
X52999874Y-27169088D01*
X52996411Y-27168675D01*
X52903578Y-27178432D01*
X52837562Y-27185370D01*
X52837559Y-27185371D01*
X52834092Y-27185735D01*
X52830791Y-27186859D01*
X52830790Y-27186859D01*
X52823993Y-27189173D01*
X52679586Y-27238333D01*
X52540572Y-27323855D01*
X52538080Y-27326296D01*
X52538078Y-27326297D01*
X52434424Y-27427803D01*
X52390041Y-27445645D01*
X52346347Y-27427188D01*
X52324595Y-27405283D01*
X52250039Y-27330204D01*
X52189111Y-27291538D01*
X52161605Y-27252401D01*
X52160100Y-27238767D01*
X52160100Y-26563418D01*
X52178406Y-26519224D01*
X52190597Y-26509733D01*
X52192671Y-26508497D01*
X52198291Y-26505147D01*
X52230927Y-26485692D01*
X52230930Y-26485690D01*
X52233929Y-26483902D01*
X52350007Y-26373362D01*
X52394635Y-26356142D01*
X52438067Y-26375207D01*
X52475603Y-26414076D01*
X52524640Y-26464855D01*
X52661211Y-26554225D01*
X52814188Y-26611116D01*
X52817643Y-26611577D01*
X52817647Y-26611578D01*
X52907818Y-26623609D01*
X52975968Y-26632702D01*
X52979441Y-26632386D01*
X52979444Y-26632386D01*
X53057239Y-26625306D01*
X53138510Y-26617910D01*
X53293735Y-26567474D01*
X53390597Y-26509733D01*
X53430927Y-26485692D01*
X53430930Y-26485690D01*
X53433929Y-26483902D01*
X53548070Y-26375207D01*
X53549594Y-26373756D01*
X53549597Y-26373753D01*
X53552123Y-26371347D01*
X53642444Y-26235403D01*
X53700403Y-26082827D01*
X53723118Y-25921202D01*
X53723184Y-25916490D01*
X55699296Y-25916490D01*
X55719985Y-26047113D01*
X55780025Y-26164949D01*
X55873541Y-26258465D01*
X55991377Y-26318505D01*
X56122000Y-26339194D01*
X56252623Y-26318505D01*
X56370459Y-26258465D01*
X56458924Y-26170000D01*
X58311296Y-26170000D01*
X58331985Y-26300623D01*
X58392025Y-26418459D01*
X58485541Y-26511975D01*
X58603377Y-26572015D01*
X58734000Y-26592704D01*
X58864623Y-26572015D01*
X58982459Y-26511975D01*
X59075975Y-26418459D01*
X59136015Y-26300623D01*
X59156704Y-26170000D01*
X59136015Y-26039377D01*
X59075975Y-25921541D01*
X58982459Y-25828025D01*
X58864623Y-25767985D01*
X58734000Y-25747296D01*
X58603377Y-25767985D01*
X58485541Y-25828025D01*
X58392025Y-25921541D01*
X58331985Y-26039377D01*
X58311296Y-26170000D01*
X56458924Y-26170000D01*
X56463975Y-26164949D01*
X56524015Y-26047113D01*
X56544704Y-25916490D01*
X56524015Y-25785867D01*
X56463975Y-25668031D01*
X56370459Y-25574515D01*
X56252623Y-25514475D01*
X56122000Y-25493786D01*
X55991377Y-25514475D01*
X55873541Y-25574515D01*
X55780025Y-25668031D01*
X55719985Y-25785867D01*
X55699296Y-25916490D01*
X53723184Y-25916490D01*
X53723403Y-25900760D01*
X53722646Y-25894007D01*
X53705600Y-25742037D01*
X53705599Y-25742033D01*
X53705210Y-25738564D01*
X53651534Y-25584429D01*
X53565044Y-25446016D01*
X53450039Y-25330204D01*
X53375728Y-25283045D01*
X53315179Y-25244619D01*
X53315175Y-25244617D01*
X53312233Y-25242750D01*
X53158476Y-25188000D01*
X53082020Y-25178883D01*
X52999878Y-25169088D01*
X52999874Y-25169088D01*
X52996411Y-25168675D01*
X52903578Y-25178432D01*
X52837562Y-25185370D01*
X52837559Y-25185371D01*
X52834092Y-25185735D01*
X52830791Y-25186859D01*
X52830790Y-25186859D01*
X52824016Y-25189165D01*
X52679586Y-25238333D01*
X52540572Y-25323855D01*
X52538080Y-25326296D01*
X52538078Y-25326297D01*
X52434424Y-25427803D01*
X52390041Y-25445645D01*
X52346347Y-25427188D01*
X52346339Y-25427180D01*
X52250039Y-25330204D01*
X52189111Y-25291538D01*
X52161605Y-25252401D01*
X52160100Y-25238767D01*
X52160100Y-24563418D01*
X52178406Y-24519224D01*
X52190597Y-24509733D01*
X52230927Y-24485692D01*
X52230930Y-24485690D01*
X52233929Y-24483902D01*
X52350007Y-24373362D01*
X52394635Y-24356142D01*
X52438067Y-24375207D01*
X52475976Y-24414462D01*
X52524640Y-24464855D01*
X52661211Y-24554225D01*
X52814188Y-24611116D01*
X52817643Y-24611577D01*
X52817647Y-24611578D01*
X52907818Y-24623609D01*
X52975968Y-24632702D01*
X52979441Y-24632386D01*
X52979444Y-24632386D01*
X53057239Y-24625306D01*
X53138510Y-24617910D01*
X53293735Y-24567474D01*
X53390597Y-24509733D01*
X53430927Y-24485692D01*
X53430930Y-24485690D01*
X53433929Y-24483902D01*
X53548070Y-24375207D01*
X53549594Y-24373756D01*
X53549597Y-24373753D01*
X53552123Y-24371347D01*
X53642444Y-24235403D01*
X53700403Y-24082827D01*
X53723118Y-23921202D01*
X53723403Y-23900760D01*
X53723184Y-23898807D01*
X53721579Y-23884500D01*
X55699296Y-23884500D01*
X55719985Y-24015123D01*
X55780025Y-24132959D01*
X55873541Y-24226475D01*
X55991377Y-24286515D01*
X56122000Y-24307204D01*
X56252623Y-24286515D01*
X56370459Y-24226475D01*
X56463975Y-24132959D01*
X56524015Y-24015123D01*
X56544704Y-23884500D01*
X56524015Y-23753877D01*
X56463975Y-23636041D01*
X56370459Y-23542525D01*
X56252623Y-23482485D01*
X56122000Y-23461796D01*
X55991377Y-23482485D01*
X55873541Y-23542525D01*
X55780025Y-23636041D01*
X55719985Y-23753877D01*
X55699296Y-23884500D01*
X53721579Y-23884500D01*
X53705600Y-23742037D01*
X53705599Y-23742033D01*
X53705210Y-23738564D01*
X53651534Y-23584429D01*
X53565044Y-23446016D01*
X53450039Y-23330204D01*
X53389111Y-23291538D01*
X53315179Y-23244619D01*
X53315175Y-23244617D01*
X53312233Y-23242750D01*
X53158476Y-23188000D01*
X53082020Y-23178883D01*
X52999878Y-23169088D01*
X52999874Y-23169088D01*
X52996411Y-23168675D01*
X52903578Y-23178432D01*
X52837562Y-23185370D01*
X52837559Y-23185371D01*
X52834092Y-23185735D01*
X52830791Y-23186859D01*
X52830790Y-23186859D01*
X52823993Y-23189173D01*
X52679586Y-23238333D01*
X52540572Y-23323855D01*
X52538080Y-23326296D01*
X52538078Y-23326297D01*
X52434424Y-23427803D01*
X52390041Y-23445645D01*
X52346347Y-23427188D01*
X52250039Y-23330204D01*
X52189111Y-23291538D01*
X52161605Y-23252401D01*
X52160100Y-23238767D01*
X52160100Y-21852500D01*
X55699296Y-21852500D01*
X55719985Y-21983123D01*
X55780025Y-22100959D01*
X55873541Y-22194475D01*
X55991377Y-22254515D01*
X56122000Y-22275204D01*
X56252623Y-22254515D01*
X56370459Y-22194475D01*
X56463975Y-22100959D01*
X56524015Y-21983123D01*
X56544704Y-21852500D01*
X56524015Y-21721877D01*
X56463975Y-21604041D01*
X56370459Y-21510525D01*
X56252623Y-21450485D01*
X56122000Y-21429796D01*
X55991377Y-21450485D01*
X55873541Y-21510525D01*
X55780025Y-21604041D01*
X55719985Y-21721877D01*
X55699296Y-21852500D01*
X52160100Y-21852500D01*
X52160100Y-20994449D01*
X52160869Y-20984672D01*
X52163770Y-20966355D01*
X52164539Y-20961500D01*
X52163770Y-20956644D01*
X52163770Y-20951725D01*
X52163868Y-20951725D01*
X52163869Y-20937709D01*
X52168606Y-20907802D01*
X52174647Y-20889208D01*
X52194836Y-20849586D01*
X52206328Y-20833769D01*
X52237769Y-20802328D01*
X52253586Y-20790836D01*
X52293208Y-20770647D01*
X52311803Y-20764605D01*
X52326757Y-20762237D01*
X52341713Y-20759868D01*
X52355725Y-20759869D01*
X52355725Y-20759770D01*
X52360644Y-20759770D01*
X52365500Y-20760539D01*
X52370355Y-20759770D01*
X52388672Y-20756869D01*
X52398449Y-20756100D01*
X67211551Y-20756100D01*
X67221329Y-20756869D01*
G37*
G04 #@! TD.AperFunction*
G04 #@! TA.AperFunction,Conductor*
G36*
X48819329Y-20756869D02*
G01*
X48842500Y-20760539D01*
X48847356Y-20759770D01*
X48852275Y-20759770D01*
X48852275Y-20759869D01*
X48866287Y-20759868D01*
X48881243Y-20762237D01*
X48896197Y-20764605D01*
X48914792Y-20770647D01*
X48954414Y-20790836D01*
X48970231Y-20802328D01*
X49001672Y-20833769D01*
X49013164Y-20849586D01*
X49033353Y-20889208D01*
X49039394Y-20907802D01*
X49044131Y-20937709D01*
X49044132Y-20951725D01*
X49044230Y-20951725D01*
X49044230Y-20956644D01*
X49043461Y-20961500D01*
X49044230Y-20966355D01*
X49044230Y-20966357D01*
X49047126Y-20984645D01*
X49047895Y-20994428D01*
X49047865Y-21238552D01*
X49029554Y-21282744D01*
X49018114Y-21291777D01*
X48989001Y-21309687D01*
X48965972Y-21323855D01*
X48963480Y-21326296D01*
X48963478Y-21326297D01*
X48859824Y-21427803D01*
X48815441Y-21445645D01*
X48771747Y-21427188D01*
X48675439Y-21330204D01*
X48649987Y-21314052D01*
X48540579Y-21244619D01*
X48540575Y-21244617D01*
X48537633Y-21242750D01*
X48383876Y-21188000D01*
X48307420Y-21178883D01*
X48225278Y-21169088D01*
X48225274Y-21169088D01*
X48221811Y-21168675D01*
X48128978Y-21178432D01*
X48062962Y-21185370D01*
X48062959Y-21185371D01*
X48059492Y-21185735D01*
X48056191Y-21186859D01*
X48056190Y-21186859D01*
X48049393Y-21189173D01*
X47904986Y-21238333D01*
X47765972Y-21323855D01*
X47763480Y-21326296D01*
X47763478Y-21326297D01*
X47756958Y-21332682D01*
X47649361Y-21438049D01*
X47647471Y-21440982D01*
X47647470Y-21440983D01*
X47600412Y-21514003D01*
X47560947Y-21575241D01*
X47550465Y-21604041D01*
X47509172Y-21717491D01*
X47505124Y-21728612D01*
X47484668Y-21890538D01*
X47500595Y-22052973D01*
X47552113Y-22207842D01*
X47553923Y-22210831D01*
X47553925Y-22210835D01*
X47592443Y-22274434D01*
X47636662Y-22347449D01*
X47750040Y-22464855D01*
X47886611Y-22554225D01*
X48039588Y-22611116D01*
X48043043Y-22611577D01*
X48043047Y-22611578D01*
X48133218Y-22623609D01*
X48201368Y-22632702D01*
X48204841Y-22632386D01*
X48204844Y-22632386D01*
X48282639Y-22625306D01*
X48363910Y-22617910D01*
X48519135Y-22567474D01*
X48615118Y-22510257D01*
X48656327Y-22485692D01*
X48656330Y-22485690D01*
X48659329Y-22483902D01*
X48775407Y-22373362D01*
X48820035Y-22356142D01*
X48863467Y-22375207D01*
X48901376Y-22414462D01*
X48950040Y-22464855D01*
X49019422Y-22510258D01*
X49046378Y-22549774D01*
X49047699Y-22562561D01*
X49047698Y-22567474D01*
X49047614Y-23238706D01*
X49029303Y-23282898D01*
X49017863Y-23291931D01*
X48985193Y-23312030D01*
X48965972Y-23323855D01*
X48963480Y-23326296D01*
X48963478Y-23326297D01*
X48859824Y-23427803D01*
X48815441Y-23445645D01*
X48771747Y-23427188D01*
X48675439Y-23330204D01*
X48614511Y-23291538D01*
X48540579Y-23244619D01*
X48540575Y-23244617D01*
X48537633Y-23242750D01*
X48383876Y-23188000D01*
X48307420Y-23178883D01*
X48225278Y-23169088D01*
X48225274Y-23169088D01*
X48221811Y-23168675D01*
X48128978Y-23178432D01*
X48062962Y-23185370D01*
X48062959Y-23185371D01*
X48059492Y-23185735D01*
X48056191Y-23186859D01*
X48056190Y-23186859D01*
X48049393Y-23189173D01*
X47904986Y-23238333D01*
X47765972Y-23323855D01*
X47763480Y-23326296D01*
X47763478Y-23326297D01*
X47756958Y-23332682D01*
X47649361Y-23438049D01*
X47647471Y-23440982D01*
X47647470Y-23440983D01*
X47562839Y-23572305D01*
X47560947Y-23575241D01*
X47505124Y-23728612D01*
X47484668Y-23890538D01*
X47485009Y-23894015D01*
X47496884Y-24015123D01*
X47500595Y-24052973D01*
X47501697Y-24056285D01*
X47501697Y-24056286D01*
X47511613Y-24086093D01*
X47552113Y-24207842D01*
X47553923Y-24210831D01*
X47553925Y-24210835D01*
X47570566Y-24238312D01*
X47636662Y-24347449D01*
X47750040Y-24464855D01*
X47886611Y-24554225D01*
X48039588Y-24611116D01*
X48043043Y-24611577D01*
X48043047Y-24611578D01*
X48133218Y-24623609D01*
X48201368Y-24632702D01*
X48204841Y-24632386D01*
X48204844Y-24632386D01*
X48282639Y-24625306D01*
X48363910Y-24617910D01*
X48519135Y-24567474D01*
X48615997Y-24509733D01*
X48656327Y-24485692D01*
X48656330Y-24485690D01*
X48659329Y-24483902D01*
X48775407Y-24373362D01*
X48820035Y-24356142D01*
X48863467Y-24375207D01*
X48901376Y-24414462D01*
X48950040Y-24464855D01*
X49018621Y-24509733D01*
X49019171Y-24510093D01*
X49046127Y-24549610D01*
X49047448Y-24562397D01*
X49047447Y-24567474D01*
X49047363Y-25238853D01*
X49029052Y-25283045D01*
X49017612Y-25292078D01*
X48965972Y-25323847D01*
X48963480Y-25326288D01*
X48963478Y-25326289D01*
X48859824Y-25427795D01*
X48815441Y-25445637D01*
X48771747Y-25427180D01*
X48675439Y-25330196D01*
X48649987Y-25314044D01*
X48540579Y-25244611D01*
X48540575Y-25244609D01*
X48537633Y-25242742D01*
X48383876Y-25187992D01*
X48307420Y-25178875D01*
X48225278Y-25169080D01*
X48225274Y-25169080D01*
X48221811Y-25168667D01*
X48128978Y-25178424D01*
X48062962Y-25185362D01*
X48062959Y-25185363D01*
X48059492Y-25185727D01*
X48056191Y-25186851D01*
X48056190Y-25186851D01*
X48052815Y-25188000D01*
X47904986Y-25238325D01*
X47765972Y-25323847D01*
X47763480Y-25326288D01*
X47763478Y-25326289D01*
X47759480Y-25330204D01*
X47649361Y-25438041D01*
X47647471Y-25440974D01*
X47647470Y-25440975D01*
X47644221Y-25446016D01*
X47560947Y-25575233D01*
X47505124Y-25728604D01*
X47484668Y-25890530D01*
X47485009Y-25894007D01*
X47499740Y-26044241D01*
X47500595Y-26052965D01*
X47501697Y-26056277D01*
X47501697Y-26056278D01*
X47541145Y-26174862D01*
X47552113Y-26207834D01*
X47553923Y-26210823D01*
X47553925Y-26210827D01*
X47595320Y-26279177D01*
X47636662Y-26347441D01*
X47750040Y-26464847D01*
X47752959Y-26466757D01*
X47752960Y-26466758D01*
X47779147Y-26483894D01*
X47886611Y-26554217D01*
X48039588Y-26611108D01*
X48043043Y-26611569D01*
X48043047Y-26611570D01*
X48133218Y-26623601D01*
X48201368Y-26632694D01*
X48204841Y-26632378D01*
X48204844Y-26632378D01*
X48282639Y-26625298D01*
X48363910Y-26617902D01*
X48519135Y-26567466D01*
X48608477Y-26514208D01*
X48656327Y-26485684D01*
X48656330Y-26485682D01*
X48659329Y-26483894D01*
X48775407Y-26373354D01*
X48820035Y-26356134D01*
X48863467Y-26375199D01*
X48863475Y-26375207D01*
X48950040Y-26464847D01*
X48952959Y-26466757D01*
X48952960Y-26466758D01*
X48975462Y-26481483D01*
X49018633Y-26509733D01*
X49018920Y-26509921D01*
X49045876Y-26549438D01*
X49047197Y-26562225D01*
X49047193Y-26591934D01*
X49047112Y-27239015D01*
X49028801Y-27283207D01*
X49017361Y-27292240D01*
X48986284Y-27311359D01*
X48965972Y-27323855D01*
X48963480Y-27326296D01*
X48963478Y-27326297D01*
X48859824Y-27427803D01*
X48815441Y-27445645D01*
X48771747Y-27427188D01*
X48749995Y-27405283D01*
X48675439Y-27330204D01*
X48614511Y-27291538D01*
X48540579Y-27244619D01*
X48540575Y-27244617D01*
X48537633Y-27242750D01*
X48383876Y-27188000D01*
X48307420Y-27178883D01*
X48225278Y-27169088D01*
X48225274Y-27169088D01*
X48221811Y-27168675D01*
X48128978Y-27178432D01*
X48062962Y-27185370D01*
X48062959Y-27185371D01*
X48059492Y-27185735D01*
X48056191Y-27186859D01*
X48056190Y-27186859D01*
X48049393Y-27189173D01*
X47904986Y-27238333D01*
X47765972Y-27323855D01*
X47763479Y-27326296D01*
X47763473Y-27326301D01*
X47714342Y-27374414D01*
X47670613Y-27392260D01*
X45249276Y-27392260D01*
X45205082Y-27373954D01*
X44848083Y-27016956D01*
X44839419Y-27006112D01*
X44834504Y-26998322D01*
X44831171Y-26995378D01*
X44831168Y-26995375D01*
X44792683Y-26961387D01*
X44789862Y-26958735D01*
X44777025Y-26945898D01*
X44775247Y-26944565D01*
X44775243Y-26944562D01*
X44766614Y-26938094D01*
X44762727Y-26934929D01*
X44728669Y-26904851D01*
X44728666Y-26904849D01*
X44725329Y-26901902D01*
X44721297Y-26900009D01*
X44712369Y-26895817D01*
X44701449Y-26889256D01*
X44693547Y-26883334D01*
X44689985Y-26880664D01*
X44643241Y-26863140D01*
X44638650Y-26861206D01*
X44593480Y-26839999D01*
X44581679Y-26838162D01*
X44579332Y-26837796D01*
X44567010Y-26834563D01*
X44557767Y-26831098D01*
X44557763Y-26831097D01*
X44553596Y-26829535D01*
X44549157Y-26829205D01*
X44549156Y-26829205D01*
X44540515Y-26828563D01*
X44503836Y-26825838D01*
X44498859Y-26825266D01*
X44485288Y-26823152D01*
X44485278Y-26823151D01*
X44482894Y-26822780D01*
X44465010Y-26822780D01*
X44460378Y-26822608D01*
X44408339Y-26818741D01*
X44403987Y-26819670D01*
X44395868Y-26821403D01*
X44382821Y-26822780D01*
X41454066Y-26822780D01*
X41346392Y-26838200D01*
X41291529Y-26863145D01*
X41217852Y-26896644D01*
X41217850Y-26896645D01*
X41213797Y-26898488D01*
X41103452Y-26993567D01*
X41024227Y-27115795D01*
X40982493Y-27255346D01*
X40982323Y-27283207D01*
X40981980Y-27339383D01*
X40981603Y-27401001D01*
X41021630Y-27541051D01*
X41099355Y-27664238D01*
X41102687Y-27667181D01*
X41102689Y-27667183D01*
X41205193Y-27757711D01*
X41208530Y-27760658D01*
X41212560Y-27762550D01*
X41336348Y-27820669D01*
X41336351Y-27820670D01*
X41340379Y-27822561D01*
X41450965Y-27839780D01*
X44206765Y-27839780D01*
X44250959Y-27858086D01*
X44607957Y-28215084D01*
X44616621Y-28225928D01*
X44621536Y-28233718D01*
X44624869Y-28236662D01*
X44624872Y-28236665D01*
X44663357Y-28270653D01*
X44666178Y-28273305D01*
X44679015Y-28286142D01*
X44680793Y-28287475D01*
X44680797Y-28287478D01*
X44689426Y-28293946D01*
X44693313Y-28297111D01*
X44727371Y-28327189D01*
X44727374Y-28327191D01*
X44730711Y-28330138D01*
X44734743Y-28332031D01*
X44743671Y-28336223D01*
X44754591Y-28342784D01*
X44766055Y-28351376D01*
X44770223Y-28352939D01*
X44770224Y-28352939D01*
X44812779Y-28368892D01*
X44817401Y-28370840D01*
X44858525Y-28390147D01*
X44858527Y-28390148D01*
X44862560Y-28392041D01*
X44866959Y-28392726D01*
X44866962Y-28392727D01*
X44876714Y-28394245D01*
X44889031Y-28397476D01*
X44902444Y-28402504D01*
X44906885Y-28402834D01*
X44952189Y-28406201D01*
X44957172Y-28406773D01*
X44969498Y-28408692D01*
X44973146Y-28409260D01*
X44991034Y-28409260D01*
X44995667Y-28409432D01*
X45047701Y-28413299D01*
X45060172Y-28410637D01*
X45073219Y-28409260D01*
X47669822Y-28409260D01*
X47714781Y-28428343D01*
X47750040Y-28464855D01*
X47886611Y-28554225D01*
X48039588Y-28611116D01*
X48043043Y-28611577D01*
X48043047Y-28611578D01*
X48133218Y-28623609D01*
X48201368Y-28632702D01*
X48204841Y-28632386D01*
X48204844Y-28632386D01*
X48282639Y-28625306D01*
X48363910Y-28617910D01*
X48519135Y-28567474D01*
X48600076Y-28519224D01*
X48656327Y-28485692D01*
X48656330Y-28485690D01*
X48659329Y-28483902D01*
X48775407Y-28373362D01*
X48820035Y-28356142D01*
X48863467Y-28375207D01*
X48888319Y-28400941D01*
X48950040Y-28464855D01*
X48952959Y-28466765D01*
X48952960Y-28466766D01*
X49018669Y-28509765D01*
X49045625Y-28549282D01*
X49046946Y-28562069D01*
X49046932Y-28674324D01*
X49046861Y-29239169D01*
X49028550Y-29283361D01*
X49017111Y-29292394D01*
X48965972Y-29323855D01*
X48963480Y-29326296D01*
X48963478Y-29326297D01*
X48941331Y-29347985D01*
X48880021Y-29408025D01*
X48859824Y-29427803D01*
X48815441Y-29445645D01*
X48771747Y-29427188D01*
X48756171Y-29411503D01*
X48675439Y-29330204D01*
X48625124Y-29298273D01*
X48540579Y-29244619D01*
X48540575Y-29244617D01*
X48537633Y-29242750D01*
X48383876Y-29188000D01*
X48307420Y-29178883D01*
X48225278Y-29169088D01*
X48225274Y-29169088D01*
X48221811Y-29168675D01*
X48128978Y-29178432D01*
X48062962Y-29185370D01*
X48062959Y-29185371D01*
X48059492Y-29185735D01*
X48056191Y-29186859D01*
X48056190Y-29186859D01*
X48049393Y-29189173D01*
X47904986Y-29238333D01*
X47765972Y-29323855D01*
X47763480Y-29326296D01*
X47763478Y-29326297D01*
X47741331Y-29347985D01*
X47649361Y-29438049D01*
X47647471Y-29440982D01*
X47647470Y-29440983D01*
X47562839Y-29572305D01*
X47560947Y-29575241D01*
X47505124Y-29728612D01*
X47492483Y-29828676D01*
X47485921Y-29880623D01*
X47484668Y-29890538D01*
X47500595Y-30052973D01*
X47501697Y-30056285D01*
X47501697Y-30056286D01*
X47511613Y-30086093D01*
X47552113Y-30207842D01*
X47553923Y-30210831D01*
X47553925Y-30210835D01*
X47570566Y-30238312D01*
X47636662Y-30347449D01*
X47750040Y-30464855D01*
X47886611Y-30554225D01*
X48039588Y-30611116D01*
X48043043Y-30611577D01*
X48043047Y-30611578D01*
X48133218Y-30623609D01*
X48201368Y-30632702D01*
X48204841Y-30632386D01*
X48204844Y-30632386D01*
X48282639Y-30625306D01*
X48363910Y-30617910D01*
X48519135Y-30567474D01*
X48616220Y-30509600D01*
X48656327Y-30485692D01*
X48656330Y-30485690D01*
X48659329Y-30483902D01*
X48775407Y-30373362D01*
X48820035Y-30356142D01*
X48863467Y-30375207D01*
X48947614Y-30462343D01*
X48950040Y-30464855D01*
X49018419Y-30509602D01*
X49045374Y-30549117D01*
X49046695Y-30561904D01*
X49046682Y-30663686D01*
X49046610Y-31239324D01*
X49028299Y-31283516D01*
X49016859Y-31292549D01*
X48987671Y-31310506D01*
X48965972Y-31323855D01*
X48963480Y-31326296D01*
X48963478Y-31326297D01*
X48859824Y-31427803D01*
X48815441Y-31445645D01*
X48771747Y-31427188D01*
X48755353Y-31410679D01*
X48675439Y-31330204D01*
X48614511Y-31291538D01*
X48540579Y-31244619D01*
X48540575Y-31244617D01*
X48537633Y-31242750D01*
X48383876Y-31188000D01*
X48307420Y-31178883D01*
X48225278Y-31169088D01*
X48225274Y-31169088D01*
X48221811Y-31168675D01*
X48128978Y-31178432D01*
X48062962Y-31185370D01*
X48062959Y-31185371D01*
X48059492Y-31185735D01*
X48056191Y-31186859D01*
X48056190Y-31186859D01*
X48049393Y-31189173D01*
X47904986Y-31238333D01*
X47765972Y-31323855D01*
X47763480Y-31326296D01*
X47763478Y-31326297D01*
X47756958Y-31332682D01*
X47649361Y-31438049D01*
X47647471Y-31440982D01*
X47647470Y-31440983D01*
X47562839Y-31572305D01*
X47560947Y-31575241D01*
X47547640Y-31611801D01*
X47527056Y-31668356D01*
X47505124Y-31728612D01*
X47484668Y-31890538D01*
X47500595Y-32052973D01*
X47501697Y-32056285D01*
X47501697Y-32056286D01*
X47542996Y-32180434D01*
X47552113Y-32207842D01*
X47553923Y-32210831D01*
X47553925Y-32210835D01*
X47570566Y-32238312D01*
X47636662Y-32347449D01*
X47750040Y-32464855D01*
X47886611Y-32554225D01*
X48039588Y-32611116D01*
X48043043Y-32611577D01*
X48043047Y-32611578D01*
X48133218Y-32623609D01*
X48201368Y-32632702D01*
X48204841Y-32632386D01*
X48204844Y-32632386D01*
X48282639Y-32625306D01*
X48363910Y-32617910D01*
X48519135Y-32567474D01*
X48616495Y-32509436D01*
X48656327Y-32485692D01*
X48656330Y-32485690D01*
X48659329Y-32483902D01*
X48775407Y-32373362D01*
X48820035Y-32356142D01*
X48863467Y-32375207D01*
X48901376Y-32414462D01*
X48950040Y-32464855D01*
X48952961Y-32466766D01*
X48952964Y-32466769D01*
X49018167Y-32509436D01*
X49045124Y-32548953D01*
X49046445Y-32561740D01*
X49046348Y-33330204D01*
X49046108Y-35239633D01*
X49027797Y-35283825D01*
X49016357Y-35292858D01*
X49011484Y-35295856D01*
X48965972Y-35323855D01*
X48963480Y-35326296D01*
X48963478Y-35326297D01*
X48859824Y-35427803D01*
X48815441Y-35445645D01*
X48771747Y-35427188D01*
X48675439Y-35330204D01*
X48587755Y-35274558D01*
X48540579Y-35244619D01*
X48540575Y-35244617D01*
X48537633Y-35242750D01*
X48383876Y-35188000D01*
X48307420Y-35178883D01*
X48225278Y-35169088D01*
X48225274Y-35169088D01*
X48221811Y-35168675D01*
X48128978Y-35178432D01*
X48062962Y-35185370D01*
X48062959Y-35185371D01*
X48059492Y-35185735D01*
X48056191Y-35186859D01*
X48056190Y-35186859D01*
X48051916Y-35188314D01*
X47904986Y-35238333D01*
X47765972Y-35323855D01*
X47763480Y-35326296D01*
X47763478Y-35326297D01*
X47756958Y-35332682D01*
X47649361Y-35438049D01*
X47647471Y-35440982D01*
X47647470Y-35440983D01*
X47572564Y-35557215D01*
X47560947Y-35575241D01*
X47505124Y-35728612D01*
X47484668Y-35890538D01*
X47485009Y-35894015D01*
X47496951Y-36015806D01*
X47500595Y-36052973D01*
X47501697Y-36056285D01*
X47501697Y-36056286D01*
X47543283Y-36181297D01*
X47552113Y-36207842D01*
X47553923Y-36210831D01*
X47553925Y-36210835D01*
X47573151Y-36242580D01*
X47636662Y-36347449D01*
X47750040Y-36464855D01*
X47886611Y-36554225D01*
X48039588Y-36611116D01*
X48043043Y-36611577D01*
X48043047Y-36611578D01*
X48133218Y-36623609D01*
X48201368Y-36632702D01*
X48204841Y-36632386D01*
X48204844Y-36632386D01*
X48282639Y-36625306D01*
X48363910Y-36617910D01*
X48519135Y-36567474D01*
X48592191Y-36523924D01*
X48656327Y-36485692D01*
X48656330Y-36485690D01*
X48659329Y-36483902D01*
X48775407Y-36373362D01*
X48820035Y-36356142D01*
X48863467Y-36375207D01*
X48885636Y-36398163D01*
X48950040Y-36464855D01*
X49017666Y-36509109D01*
X49044622Y-36548625D01*
X49045943Y-36561411D01*
X49045917Y-36762704D01*
X49045907Y-36844998D01*
X49045905Y-36845093D01*
X49045900Y-36845148D01*
X49045900Y-36899660D01*
X49045898Y-36919574D01*
X49045896Y-36931539D01*
X49045899Y-36931558D01*
X49045900Y-36931579D01*
X49045900Y-42869051D01*
X49045131Y-42878828D01*
X49043014Y-42892197D01*
X49041461Y-42902000D01*
X49042231Y-42906859D01*
X49042231Y-42911775D01*
X49041517Y-42911775D01*
X49041252Y-42925371D01*
X49037524Y-42944111D01*
X49028192Y-42966640D01*
X49011244Y-42992003D01*
X48994003Y-43009244D01*
X48968640Y-43026192D01*
X48946111Y-43035524D01*
X48927369Y-43039252D01*
X48913775Y-43039517D01*
X48913775Y-43040231D01*
X48908859Y-43040231D01*
X48904000Y-43039461D01*
X48899145Y-43040230D01*
X48899143Y-43040230D01*
X48880828Y-43043131D01*
X48871051Y-43043900D01*
X33996449Y-43043900D01*
X33986672Y-43043131D01*
X33975926Y-43041429D01*
X33963500Y-43039461D01*
X33958644Y-43040230D01*
X33953725Y-43040230D01*
X33953725Y-43040131D01*
X33939713Y-43040132D01*
X33910617Y-43035524D01*
X33909803Y-43035395D01*
X33891208Y-43029353D01*
X33851586Y-43009164D01*
X33835769Y-42997672D01*
X33804328Y-42966231D01*
X33792834Y-42950412D01*
X33772647Y-42910792D01*
X33766605Y-42892197D01*
X33761868Y-42862288D01*
X33761869Y-42848275D01*
X33761770Y-42848275D01*
X33761770Y-42843356D01*
X33762539Y-42838500D01*
X33758869Y-42815328D01*
X33758100Y-42805551D01*
X33758100Y-36581077D01*
X37649158Y-36581077D01*
X37669847Y-36711700D01*
X37729887Y-36829536D01*
X37823403Y-36923052D01*
X37941239Y-36983092D01*
X38071862Y-37003781D01*
X38202485Y-36983092D01*
X38320321Y-36923052D01*
X38413837Y-36829536D01*
X38473877Y-36711700D01*
X38494566Y-36581077D01*
X38492412Y-36567474D01*
X38486284Y-36528786D01*
X38798943Y-36528786D01*
X38819632Y-36659409D01*
X38879672Y-36777245D01*
X38973188Y-36870761D01*
X39091024Y-36930801D01*
X39221647Y-36951490D01*
X39352270Y-36930801D01*
X39470106Y-36870761D01*
X39563622Y-36777245D01*
X39623662Y-36659409D01*
X39644351Y-36528786D01*
X39623662Y-36398163D01*
X39594027Y-36340000D01*
X39779296Y-36340000D01*
X39799985Y-36470623D01*
X39860025Y-36588459D01*
X39953541Y-36681975D01*
X40071377Y-36742015D01*
X40202000Y-36762704D01*
X40332623Y-36742015D01*
X40450459Y-36681975D01*
X40543975Y-36588459D01*
X40604015Y-36470623D01*
X40624704Y-36340000D01*
X40615865Y-36284194D01*
X40627031Y-36237681D01*
X40667818Y-36212687D01*
X40714331Y-36223853D01*
X40721789Y-36230223D01*
X40793541Y-36301975D01*
X40911377Y-36362015D01*
X41042000Y-36382704D01*
X41172623Y-36362015D01*
X41290459Y-36301975D01*
X41383975Y-36208459D01*
X41444015Y-36090623D01*
X41464704Y-35960000D01*
X41444015Y-35829377D01*
X41383975Y-35711541D01*
X41290459Y-35618025D01*
X41172623Y-35557985D01*
X41042000Y-35537296D01*
X40911377Y-35557985D01*
X40793541Y-35618025D01*
X40700025Y-35711541D01*
X40639985Y-35829377D01*
X40619296Y-35960000D01*
X40620066Y-35964861D01*
X40628135Y-36015806D01*
X40616969Y-36062319D01*
X40576182Y-36087313D01*
X40529669Y-36076147D01*
X40522211Y-36069777D01*
X40450459Y-35998025D01*
X40332623Y-35937985D01*
X40202000Y-35917296D01*
X40071377Y-35937985D01*
X39953541Y-35998025D01*
X39860025Y-36091541D01*
X39799985Y-36209377D01*
X39779296Y-36340000D01*
X39594027Y-36340000D01*
X39563622Y-36280327D01*
X39470106Y-36186811D01*
X39352270Y-36126771D01*
X39221647Y-36106082D01*
X39091024Y-36126771D01*
X38973188Y-36186811D01*
X38879672Y-36280327D01*
X38819632Y-36398163D01*
X38798943Y-36528786D01*
X38486284Y-36528786D01*
X38479458Y-36485692D01*
X38473877Y-36450454D01*
X38413837Y-36332618D01*
X38320321Y-36239102D01*
X38202485Y-36179062D01*
X38071862Y-36158373D01*
X37941239Y-36179062D01*
X37823403Y-36239102D01*
X37729887Y-36332618D01*
X37669847Y-36450454D01*
X37664266Y-36485692D01*
X37651313Y-36567474D01*
X37649158Y-36581077D01*
X33758100Y-36581077D01*
X33758100Y-34563418D01*
X33776406Y-34519224D01*
X33788597Y-34509733D01*
X33828927Y-34485692D01*
X33828930Y-34485690D01*
X33831929Y-34483902D01*
X33948007Y-34373362D01*
X33992635Y-34356142D01*
X34036067Y-34375207D01*
X34073976Y-34414462D01*
X34122640Y-34464855D01*
X34259211Y-34554225D01*
X34412188Y-34611116D01*
X34415643Y-34611577D01*
X34415647Y-34611578D01*
X34505818Y-34623609D01*
X34573968Y-34632702D01*
X34577441Y-34632386D01*
X34577444Y-34632386D01*
X34655239Y-34625306D01*
X34736510Y-34617910D01*
X34891735Y-34567474D01*
X34988597Y-34509733D01*
X35028927Y-34485692D01*
X35028930Y-34485690D01*
X35031929Y-34483902D01*
X35146070Y-34375207D01*
X35147594Y-34373756D01*
X35147597Y-34373753D01*
X35150123Y-34371347D01*
X35240444Y-34235403D01*
X35298403Y-34082827D01*
X35321118Y-33921202D01*
X35321403Y-33900760D01*
X35321184Y-33898807D01*
X35303600Y-33742037D01*
X35303599Y-33742033D01*
X35303210Y-33738564D01*
X35249534Y-33584429D01*
X35163044Y-33446016D01*
X35048039Y-33330204D01*
X34958100Y-33273127D01*
X34913179Y-33244619D01*
X34913175Y-33244617D01*
X34910233Y-33242750D01*
X34756476Y-33188000D01*
X34680020Y-33178883D01*
X34597878Y-33169088D01*
X34597874Y-33169088D01*
X34594411Y-33168675D01*
X34501578Y-33178432D01*
X34435562Y-33185370D01*
X34435559Y-33185371D01*
X34432092Y-33185735D01*
X34428791Y-33186859D01*
X34428790Y-33186859D01*
X34421993Y-33189173D01*
X34277586Y-33238333D01*
X34138572Y-33323855D01*
X34136080Y-33326296D01*
X34136078Y-33326297D01*
X34032424Y-33427803D01*
X33988041Y-33445645D01*
X33944347Y-33427188D01*
X33848039Y-33330204D01*
X33787111Y-33291538D01*
X33759605Y-33252401D01*
X33758100Y-33238767D01*
X33758100Y-32563418D01*
X33776406Y-32519224D01*
X33788597Y-32509733D01*
X33828927Y-32485692D01*
X33828930Y-32485690D01*
X33831929Y-32483902D01*
X33948007Y-32373362D01*
X33992635Y-32356142D01*
X34036067Y-32375207D01*
X34073976Y-32414462D01*
X34122640Y-32464855D01*
X34259211Y-32554225D01*
X34412188Y-32611116D01*
X34415643Y-32611577D01*
X34415647Y-32611578D01*
X34505818Y-32623609D01*
X34573968Y-32632702D01*
X34577441Y-32632386D01*
X34577444Y-32632386D01*
X34655239Y-32625306D01*
X34736510Y-32617910D01*
X34891735Y-32567474D01*
X34989095Y-32509436D01*
X35028927Y-32485692D01*
X35028930Y-32485690D01*
X35031929Y-32483902D01*
X35100611Y-32418497D01*
X35147594Y-32373756D01*
X35147597Y-32373753D01*
X35150123Y-32371347D01*
X35240444Y-32235403D01*
X35298403Y-32082827D01*
X35298800Y-32080000D01*
X37459296Y-32080000D01*
X37479985Y-32210623D01*
X37540025Y-32328459D01*
X37633541Y-32421975D01*
X37751377Y-32482015D01*
X37882000Y-32502704D01*
X38012623Y-32482015D01*
X38130459Y-32421975D01*
X38163006Y-32389428D01*
X38207200Y-32371122D01*
X38251394Y-32389428D01*
X38269700Y-32433622D01*
X38269700Y-34690613D01*
X38269267Y-34697959D01*
X38265033Y-34733733D01*
X38265872Y-34738327D01*
X38265872Y-34738328D01*
X38275315Y-34790033D01*
X38275637Y-34791969D01*
X38283449Y-34843930D01*
X38283450Y-34843933D01*
X38284144Y-34848549D01*
X38286166Y-34852760D01*
X38286572Y-34854080D01*
X38286664Y-34854455D01*
X38286953Y-34855346D01*
X38287100Y-34855705D01*
X38287549Y-34857015D01*
X38288388Y-34861611D01*
X38290541Y-34865755D01*
X38290542Y-34865759D01*
X38314774Y-34912409D01*
X38315651Y-34914164D01*
X38340414Y-34965733D01*
X38343586Y-34969164D01*
X38344361Y-34970304D01*
X38344760Y-34970974D01*
X38346671Y-34973811D01*
X38348312Y-34976970D01*
X38352442Y-34981807D01*
X38389014Y-35018379D01*
X38390715Y-35020148D01*
X38428655Y-35061191D01*
X38432697Y-35063539D01*
X38436342Y-35066459D01*
X38436070Y-35066799D01*
X38441980Y-35071345D01*
X38560596Y-35189961D01*
X38562465Y-35191342D01*
X38562468Y-35191344D01*
X38623532Y-35236446D01*
X38638742Y-35247680D01*
X38643150Y-35249228D01*
X38756981Y-35289204D01*
X38756984Y-35289205D01*
X38761393Y-35290753D01*
X38766061Y-35290936D01*
X38766064Y-35290937D01*
X38886622Y-35295673D01*
X38886624Y-35295673D01*
X38891288Y-35295856D01*
X38895801Y-35294659D01*
X38895804Y-35294659D01*
X38973854Y-35273964D01*
X39016939Y-35262540D01*
X39020903Y-35260068D01*
X39020905Y-35260067D01*
X39123274Y-35196224D01*
X39127241Y-35193750D01*
X39212439Y-35095567D01*
X39214329Y-35091292D01*
X39263111Y-34980950D01*
X39263112Y-34980948D01*
X39265001Y-34976674D01*
X39280280Y-34847580D01*
X39279441Y-34842985D01*
X39257765Y-34724300D01*
X39257764Y-34724298D01*
X39256925Y-34719702D01*
X39204214Y-34618226D01*
X39198643Y-34607502D01*
X39197002Y-34604343D01*
X39192871Y-34599506D01*
X39152606Y-34559241D01*
X39134300Y-34515047D01*
X39134300Y-31963323D01*
X39119856Y-31867252D01*
X39071598Y-31766754D01*
X39069200Y-31758500D01*
X43424995Y-31758500D01*
X43445684Y-31889123D01*
X43505724Y-32006959D01*
X43599240Y-32100475D01*
X43717076Y-32160515D01*
X43847699Y-32181204D01*
X43978322Y-32160515D01*
X44096158Y-32100475D01*
X44189674Y-32006959D01*
X44249714Y-31889123D01*
X44270403Y-31758500D01*
X44267796Y-31742037D01*
X44263957Y-31717803D01*
X44249714Y-31627877D01*
X44189674Y-31510041D01*
X44096158Y-31416525D01*
X43978322Y-31356485D01*
X43847699Y-31335796D01*
X43717076Y-31356485D01*
X43599240Y-31416525D01*
X43505724Y-31510041D01*
X43445684Y-31627877D01*
X43431441Y-31717803D01*
X43427603Y-31742037D01*
X43424995Y-31758500D01*
X39069200Y-31758500D01*
X39065874Y-31747049D01*
X39064807Y-31738025D01*
X39063418Y-31726292D01*
X39061183Y-31721637D01*
X39060069Y-31717803D01*
X39058770Y-31714008D01*
X39057922Y-31708916D01*
X39032737Y-31662241D01*
X39031400Y-31659616D01*
X39010143Y-31615348D01*
X39008440Y-31611801D01*
X39004830Y-31607507D01*
X39004645Y-31607322D01*
X39002056Y-31604255D01*
X39000065Y-31601689D01*
X38997612Y-31597142D01*
X38985340Y-31585798D01*
X38965314Y-31542358D01*
X38981870Y-31497479D01*
X39017989Y-31478174D01*
X39028793Y-31476463D01*
X39079155Y-31468486D01*
X39196991Y-31408446D01*
X39290507Y-31314930D01*
X39350547Y-31197094D01*
X39371236Y-31066471D01*
X39350547Y-30935848D01*
X39290507Y-30818012D01*
X39196991Y-30724496D01*
X39079155Y-30664456D01*
X38948532Y-30643767D01*
X38817909Y-30664456D01*
X38700073Y-30724496D01*
X38606557Y-30818012D01*
X38546517Y-30935848D01*
X38525828Y-31066471D01*
X38526597Y-31071326D01*
X38526597Y-31071333D01*
X38527637Y-31077897D01*
X38516471Y-31124411D01*
X38475685Y-31149405D01*
X38456130Y-31149406D01*
X38446617Y-31147899D01*
X38446615Y-31147899D01*
X38441760Y-31147130D01*
X38311137Y-31167819D01*
X38193301Y-31227859D01*
X38099785Y-31321375D01*
X38039745Y-31439211D01*
X38019056Y-31569834D01*
X38019825Y-31574689D01*
X38019825Y-31574696D01*
X38023334Y-31596848D01*
X38012168Y-31643362D01*
X37971382Y-31668356D01*
X37951829Y-31668356D01*
X37882000Y-31657296D01*
X37751377Y-31677985D01*
X37633541Y-31738025D01*
X37540025Y-31831541D01*
X37479985Y-31949377D01*
X37459296Y-32080000D01*
X35298800Y-32080000D01*
X35321118Y-31921202D01*
X35321403Y-31900760D01*
X35321184Y-31898807D01*
X35303600Y-31742037D01*
X35303599Y-31742033D01*
X35303210Y-31738564D01*
X35249534Y-31584429D01*
X35163044Y-31446016D01*
X35048039Y-31330204D01*
X34987111Y-31291538D01*
X34913179Y-31244619D01*
X34913175Y-31244617D01*
X34910233Y-31242750D01*
X34756476Y-31188000D01*
X34680020Y-31178883D01*
X34597878Y-31169088D01*
X34597874Y-31169088D01*
X34594411Y-31168675D01*
X34501578Y-31178432D01*
X34435562Y-31185370D01*
X34435559Y-31185371D01*
X34432092Y-31185735D01*
X34428791Y-31186859D01*
X34428790Y-31186859D01*
X34421993Y-31189173D01*
X34277586Y-31238333D01*
X34138572Y-31323855D01*
X34136080Y-31326296D01*
X34136078Y-31326297D01*
X34032424Y-31427803D01*
X33988041Y-31445645D01*
X33944347Y-31427188D01*
X33927953Y-31410679D01*
X33848039Y-31330204D01*
X33787111Y-31291538D01*
X33759605Y-31252401D01*
X33758100Y-31238767D01*
X33758100Y-30563418D01*
X33776406Y-30519224D01*
X33788597Y-30509733D01*
X33828927Y-30485692D01*
X33828930Y-30485690D01*
X33831929Y-30483902D01*
X33948007Y-30373362D01*
X33992635Y-30356142D01*
X34036067Y-30375207D01*
X34073976Y-30414462D01*
X34122640Y-30464855D01*
X34259211Y-30554225D01*
X34412188Y-30611116D01*
X34415643Y-30611577D01*
X34415647Y-30611578D01*
X34505818Y-30623609D01*
X34573968Y-30632702D01*
X34577441Y-30632386D01*
X34577444Y-30632386D01*
X34655239Y-30625306D01*
X34736510Y-30617910D01*
X34891735Y-30567474D01*
X34988820Y-30509600D01*
X35028927Y-30485692D01*
X35028930Y-30485690D01*
X35031929Y-30483902D01*
X35146070Y-30375207D01*
X35147594Y-30373756D01*
X35147597Y-30373753D01*
X35150123Y-30371347D01*
X35240444Y-30235403D01*
X35298403Y-30082827D01*
X35321118Y-29921202D01*
X35321403Y-29900760D01*
X35321184Y-29898807D01*
X35303600Y-29742037D01*
X35303599Y-29742033D01*
X35303210Y-29738564D01*
X35249534Y-29584429D01*
X35163044Y-29446016D01*
X35146043Y-29428896D01*
X37609796Y-29428896D01*
X37630485Y-29559519D01*
X37690525Y-29677355D01*
X37784041Y-29770871D01*
X37901877Y-29830911D01*
X38032500Y-29851600D01*
X38163123Y-29830911D01*
X38280959Y-29770871D01*
X38301830Y-29750000D01*
X40019296Y-29750000D01*
X40039985Y-29880623D01*
X40100025Y-29998459D01*
X40193541Y-30091975D01*
X40311377Y-30152015D01*
X40442000Y-30172704D01*
X40572623Y-30152015D01*
X40690459Y-30091975D01*
X40783975Y-29998459D01*
X40844015Y-29880623D01*
X40864704Y-29750000D01*
X40844015Y-29619377D01*
X40783975Y-29501541D01*
X40690459Y-29408025D01*
X40572623Y-29347985D01*
X40442000Y-29327296D01*
X40311377Y-29347985D01*
X40193541Y-29408025D01*
X40100025Y-29501541D01*
X40039985Y-29619377D01*
X40019296Y-29750000D01*
X38301830Y-29750000D01*
X38374475Y-29677355D01*
X38434515Y-29559519D01*
X38455204Y-29428896D01*
X38434515Y-29298273D01*
X38374475Y-29180437D01*
X38285538Y-29091500D01*
X38789487Y-29091500D01*
X38810176Y-29222123D01*
X38870216Y-29339959D01*
X38963732Y-29433475D01*
X39081568Y-29493515D01*
X39212191Y-29514204D01*
X39342814Y-29493515D01*
X39460650Y-29433475D01*
X39554166Y-29339959D01*
X39614206Y-29222123D01*
X39634895Y-29091500D01*
X39634893Y-29091490D01*
X44123495Y-29091490D01*
X44144184Y-29222113D01*
X44204224Y-29339949D01*
X44297740Y-29433465D01*
X44415576Y-29493505D01*
X44546199Y-29514194D01*
X44676822Y-29493505D01*
X44794658Y-29433465D01*
X44888174Y-29339949D01*
X44948214Y-29222113D01*
X44968903Y-29091490D01*
X44948214Y-28960867D01*
X44888174Y-28843031D01*
X44794658Y-28749515D01*
X44676822Y-28689475D01*
X44546199Y-28668786D01*
X44415576Y-28689475D01*
X44297740Y-28749515D01*
X44204224Y-28843031D01*
X44144184Y-28960867D01*
X44123495Y-29091490D01*
X39634893Y-29091490D01*
X39614206Y-28960877D01*
X39554166Y-28843041D01*
X39460650Y-28749525D01*
X39342814Y-28689485D01*
X39212191Y-28668796D01*
X39081568Y-28689485D01*
X38963732Y-28749525D01*
X38870216Y-28843041D01*
X38810176Y-28960877D01*
X38789487Y-29091500D01*
X38285538Y-29091500D01*
X38280959Y-29086921D01*
X38163123Y-29026881D01*
X38032500Y-29006192D01*
X37901877Y-29026881D01*
X37784041Y-29086921D01*
X37690525Y-29180437D01*
X37630485Y-29298273D01*
X37609796Y-29428896D01*
X35146043Y-29428896D01*
X35048039Y-29330204D01*
X34997724Y-29298273D01*
X34913179Y-29244619D01*
X34913175Y-29244617D01*
X34910233Y-29242750D01*
X34756476Y-29188000D01*
X34680020Y-29178883D01*
X34597878Y-29169088D01*
X34597874Y-29169088D01*
X34594411Y-29168675D01*
X34501578Y-29178432D01*
X34435562Y-29185370D01*
X34435559Y-29185371D01*
X34432092Y-29185735D01*
X34428791Y-29186859D01*
X34428790Y-29186859D01*
X34421993Y-29189173D01*
X34277586Y-29238333D01*
X34138572Y-29323855D01*
X34136080Y-29326296D01*
X34136078Y-29326297D01*
X34113931Y-29347985D01*
X34052621Y-29408025D01*
X34032424Y-29427803D01*
X33988041Y-29445645D01*
X33944347Y-29427188D01*
X33928771Y-29411503D01*
X33848039Y-29330204D01*
X33787111Y-29291538D01*
X33759605Y-29252401D01*
X33758100Y-29238767D01*
X33758100Y-28563418D01*
X33776406Y-28519224D01*
X33788597Y-28509733D01*
X33828927Y-28485692D01*
X33828930Y-28485690D01*
X33831929Y-28483902D01*
X33948007Y-28373362D01*
X33992635Y-28356142D01*
X34036067Y-28375207D01*
X34060919Y-28400941D01*
X34122640Y-28464855D01*
X34259211Y-28554225D01*
X34412188Y-28611116D01*
X34415643Y-28611577D01*
X34415647Y-28611578D01*
X34505818Y-28623609D01*
X34573968Y-28632702D01*
X34577441Y-28632386D01*
X34577444Y-28632386D01*
X34655239Y-28625306D01*
X34736510Y-28617910D01*
X34891735Y-28567474D01*
X34931615Y-28543701D01*
X39660441Y-28543701D01*
X39681130Y-28674324D01*
X39741170Y-28792160D01*
X39834686Y-28885676D01*
X39952522Y-28945716D01*
X40083145Y-28966405D01*
X40213768Y-28945716D01*
X40331604Y-28885676D01*
X40425120Y-28792160D01*
X40485160Y-28674324D01*
X40505849Y-28543701D01*
X40485160Y-28413078D01*
X40425120Y-28295242D01*
X40331604Y-28201726D01*
X40213768Y-28141686D01*
X40083145Y-28120997D01*
X39952522Y-28141686D01*
X39834686Y-28201726D01*
X39741170Y-28295242D01*
X39681130Y-28413078D01*
X39660441Y-28543701D01*
X34931615Y-28543701D01*
X34972676Y-28519224D01*
X35028927Y-28485692D01*
X35028930Y-28485690D01*
X35031929Y-28483902D01*
X35112922Y-28406773D01*
X35147594Y-28373756D01*
X35147597Y-28373753D01*
X35150123Y-28371347D01*
X35240444Y-28235403D01*
X35298403Y-28082827D01*
X35321118Y-27921202D01*
X35321403Y-27900760D01*
X35320906Y-27896326D01*
X35303600Y-27742037D01*
X35303599Y-27742033D01*
X35303210Y-27738564D01*
X35249534Y-27584429D01*
X35180775Y-27474392D01*
X37076677Y-27474392D01*
X37097366Y-27605015D01*
X37157406Y-27722851D01*
X37250922Y-27816367D01*
X37368758Y-27876407D01*
X37499381Y-27897096D01*
X37630004Y-27876407D01*
X37747840Y-27816367D01*
X37841356Y-27722851D01*
X37901396Y-27605015D01*
X37922085Y-27474392D01*
X37901396Y-27343769D01*
X37841356Y-27225933D01*
X37747840Y-27132417D01*
X37630004Y-27072377D01*
X37499381Y-27051688D01*
X37368758Y-27072377D01*
X37250922Y-27132417D01*
X37157406Y-27225933D01*
X37097366Y-27343769D01*
X37076677Y-27474392D01*
X35180775Y-27474392D01*
X35163044Y-27446016D01*
X35048039Y-27330204D01*
X34987111Y-27291538D01*
X34913179Y-27244619D01*
X34913175Y-27244617D01*
X34910233Y-27242750D01*
X34756476Y-27188000D01*
X34680020Y-27178883D01*
X34597878Y-27169088D01*
X34597874Y-27169088D01*
X34594411Y-27168675D01*
X34501578Y-27178432D01*
X34435562Y-27185370D01*
X34435559Y-27185371D01*
X34432092Y-27185735D01*
X34428791Y-27186859D01*
X34428790Y-27186859D01*
X34421993Y-27189173D01*
X34277586Y-27238333D01*
X34138572Y-27323855D01*
X34136080Y-27326296D01*
X34136078Y-27326297D01*
X34032424Y-27427803D01*
X33988041Y-27445645D01*
X33944347Y-27427188D01*
X33922595Y-27405283D01*
X33848039Y-27330204D01*
X33787111Y-27291538D01*
X33759605Y-27252401D01*
X33758100Y-27238767D01*
X33758100Y-26563418D01*
X33776406Y-26519224D01*
X33788597Y-26509733D01*
X33790671Y-26508497D01*
X33796291Y-26505147D01*
X33828927Y-26485692D01*
X33828930Y-26485690D01*
X33831929Y-26483902D01*
X33948007Y-26373362D01*
X33992635Y-26356142D01*
X34036067Y-26375207D01*
X34073603Y-26414076D01*
X34122640Y-26464855D01*
X34259211Y-26554225D01*
X34412188Y-26611116D01*
X34415643Y-26611577D01*
X34415647Y-26611578D01*
X34505818Y-26623609D01*
X34573968Y-26632702D01*
X34577441Y-26632386D01*
X34577444Y-26632386D01*
X34655239Y-26625306D01*
X34736510Y-26617910D01*
X34891735Y-26567474D01*
X34988597Y-26509733D01*
X35028927Y-26485692D01*
X35028930Y-26485690D01*
X35031929Y-26483902D01*
X35146070Y-26375207D01*
X35147594Y-26373756D01*
X35147597Y-26373753D01*
X35150123Y-26371347D01*
X35240444Y-26235403D01*
X35298403Y-26082827D01*
X35321118Y-25921202D01*
X35321184Y-25916490D01*
X37297296Y-25916490D01*
X37317985Y-26047113D01*
X37378025Y-26164949D01*
X37471541Y-26258465D01*
X37589377Y-26318505D01*
X37720000Y-26339194D01*
X37850623Y-26318505D01*
X37968459Y-26258465D01*
X38056924Y-26170000D01*
X39909296Y-26170000D01*
X39929985Y-26300623D01*
X39990025Y-26418459D01*
X40083541Y-26511975D01*
X40201377Y-26572015D01*
X40332000Y-26592704D01*
X40462623Y-26572015D01*
X40580459Y-26511975D01*
X40673975Y-26418459D01*
X40734015Y-26300623D01*
X40754704Y-26170000D01*
X40734015Y-26039377D01*
X40673975Y-25921541D01*
X40580459Y-25828025D01*
X40462623Y-25767985D01*
X40332000Y-25747296D01*
X40201377Y-25767985D01*
X40083541Y-25828025D01*
X39990025Y-25921541D01*
X39929985Y-26039377D01*
X39909296Y-26170000D01*
X38056924Y-26170000D01*
X38061975Y-26164949D01*
X38122015Y-26047113D01*
X38142704Y-25916490D01*
X38122015Y-25785867D01*
X38061975Y-25668031D01*
X37968459Y-25574515D01*
X37850623Y-25514475D01*
X37720000Y-25493786D01*
X37589377Y-25514475D01*
X37471541Y-25574515D01*
X37378025Y-25668031D01*
X37317985Y-25785867D01*
X37297296Y-25916490D01*
X35321184Y-25916490D01*
X35321403Y-25900760D01*
X35320646Y-25894007D01*
X35303600Y-25742037D01*
X35303599Y-25742033D01*
X35303210Y-25738564D01*
X35249534Y-25584429D01*
X35163044Y-25446016D01*
X35048039Y-25330204D01*
X34973728Y-25283045D01*
X34913179Y-25244619D01*
X34913175Y-25244617D01*
X34910233Y-25242750D01*
X34756476Y-25188000D01*
X34680020Y-25178883D01*
X34597878Y-25169088D01*
X34597874Y-25169088D01*
X34594411Y-25168675D01*
X34501578Y-25178432D01*
X34435562Y-25185370D01*
X34435559Y-25185371D01*
X34432092Y-25185735D01*
X34428791Y-25186859D01*
X34428790Y-25186859D01*
X34422016Y-25189165D01*
X34277586Y-25238333D01*
X34138572Y-25323855D01*
X34136080Y-25326296D01*
X34136078Y-25326297D01*
X34032424Y-25427803D01*
X33988041Y-25445645D01*
X33944347Y-25427188D01*
X33944339Y-25427180D01*
X33848039Y-25330204D01*
X33787111Y-25291538D01*
X33759605Y-25252401D01*
X33758100Y-25238767D01*
X33758100Y-24563418D01*
X33776406Y-24519224D01*
X33788597Y-24509733D01*
X33828927Y-24485692D01*
X33828930Y-24485690D01*
X33831929Y-24483902D01*
X33948007Y-24373362D01*
X33992635Y-24356142D01*
X34036067Y-24375207D01*
X34073976Y-24414462D01*
X34122640Y-24464855D01*
X34259211Y-24554225D01*
X34412188Y-24611116D01*
X34415643Y-24611577D01*
X34415647Y-24611578D01*
X34505818Y-24623609D01*
X34573968Y-24632702D01*
X34577441Y-24632386D01*
X34577444Y-24632386D01*
X34655239Y-24625306D01*
X34736510Y-24617910D01*
X34891735Y-24567474D01*
X34988597Y-24509733D01*
X35028927Y-24485692D01*
X35028930Y-24485690D01*
X35031929Y-24483902D01*
X35146070Y-24375207D01*
X35147594Y-24373756D01*
X35147597Y-24373753D01*
X35150123Y-24371347D01*
X35240444Y-24235403D01*
X35298403Y-24082827D01*
X35321118Y-23921202D01*
X35321403Y-23900760D01*
X35321184Y-23898807D01*
X35319579Y-23884500D01*
X37297296Y-23884500D01*
X37317985Y-24015123D01*
X37378025Y-24132959D01*
X37471541Y-24226475D01*
X37589377Y-24286515D01*
X37720000Y-24307204D01*
X37850623Y-24286515D01*
X37968459Y-24226475D01*
X38061975Y-24132959D01*
X38122015Y-24015123D01*
X38142704Y-23884500D01*
X38122015Y-23753877D01*
X38061975Y-23636041D01*
X37968459Y-23542525D01*
X37850623Y-23482485D01*
X37720000Y-23461796D01*
X37589377Y-23482485D01*
X37471541Y-23542525D01*
X37378025Y-23636041D01*
X37317985Y-23753877D01*
X37297296Y-23884500D01*
X35319579Y-23884500D01*
X35303600Y-23742037D01*
X35303599Y-23742033D01*
X35303210Y-23738564D01*
X35249534Y-23584429D01*
X35163044Y-23446016D01*
X35048039Y-23330204D01*
X34987111Y-23291538D01*
X34913179Y-23244619D01*
X34913175Y-23244617D01*
X34910233Y-23242750D01*
X34756476Y-23188000D01*
X34680020Y-23178883D01*
X34597878Y-23169088D01*
X34597874Y-23169088D01*
X34594411Y-23168675D01*
X34501578Y-23178432D01*
X34435562Y-23185370D01*
X34435559Y-23185371D01*
X34432092Y-23185735D01*
X34428791Y-23186859D01*
X34428790Y-23186859D01*
X34421993Y-23189173D01*
X34277586Y-23238333D01*
X34138572Y-23323855D01*
X34136080Y-23326296D01*
X34136078Y-23326297D01*
X34032424Y-23427803D01*
X33988041Y-23445645D01*
X33944347Y-23427188D01*
X33848039Y-23330204D01*
X33787111Y-23291538D01*
X33759605Y-23252401D01*
X33758100Y-23238767D01*
X33758100Y-21852500D01*
X37297296Y-21852500D01*
X37317985Y-21983123D01*
X37378025Y-22100959D01*
X37471541Y-22194475D01*
X37589377Y-22254515D01*
X37720000Y-22275204D01*
X37850623Y-22254515D01*
X37968459Y-22194475D01*
X38061975Y-22100959D01*
X38122015Y-21983123D01*
X38142704Y-21852500D01*
X38122015Y-21721877D01*
X38061975Y-21604041D01*
X37968459Y-21510525D01*
X37850623Y-21450485D01*
X37720000Y-21429796D01*
X37589377Y-21450485D01*
X37471541Y-21510525D01*
X37378025Y-21604041D01*
X37317985Y-21721877D01*
X37297296Y-21852500D01*
X33758100Y-21852500D01*
X33758100Y-20994449D01*
X33758869Y-20984672D01*
X33761770Y-20966355D01*
X33762539Y-20961500D01*
X33761770Y-20956644D01*
X33761770Y-20951725D01*
X33761868Y-20951725D01*
X33761869Y-20937709D01*
X33766606Y-20907802D01*
X33772647Y-20889208D01*
X33792836Y-20849586D01*
X33804328Y-20833769D01*
X33835769Y-20802328D01*
X33851586Y-20790836D01*
X33891208Y-20770647D01*
X33909803Y-20764605D01*
X33924757Y-20762237D01*
X33939713Y-20759868D01*
X33953725Y-20759869D01*
X33953725Y-20759770D01*
X33958644Y-20759770D01*
X33963500Y-20760539D01*
X33968355Y-20759770D01*
X33986672Y-20756869D01*
X33996449Y-20756100D01*
X48809551Y-20756100D01*
X48819329Y-20756869D01*
G37*
G04 #@! TD.AperFunction*
M02*
