G04 #@! TF.GenerationSoftware,KiCad,Pcbnew,(6.0.6)*
G04 #@! TF.CreationDate,2022-08-31T11:07:13-07:00*
G04 #@! TF.ProjectId,kikit_panel,6b696b69-745f-4706-916e-656c2e6b6963,rev?*
G04 #@! TF.SameCoordinates,Original*
G04 #@! TF.FileFunction,Profile,NP*
%FSLAX46Y46*%
G04 Gerber Fmt 4.6, Leading zero omitted, Abs format (unit mm)*
G04 Created by KiCad (PCBNEW (6.0.6)) date 2022-08-31 11:07:13*
%MOMM*%
%LPD*%
G01*
G04 APERTURE LIST*
G04 #@! TA.AperFunction,Profile*
%ADD10C,0.100000*%
G04 #@! TD*
G04 APERTURE END LIST*
D10*
X51805847Y-20918626D02*
X51804335Y-20948257D01*
X85938241Y-43343321D02*
X85981708Y-43317764D01*
X20530313Y-44668390D02*
X20526016Y-44726640D01*
X80743483Y-19073359D02*
X80750632Y-19015391D01*
X80807315Y-45010897D02*
X80788993Y-44955437D01*
X37802140Y-18001436D02*
X37860390Y-18005733D01*
X80971935Y-43881119D02*
X81007869Y-43835073D01*
X57195233Y-44029039D02*
X57221494Y-44081210D01*
X51825794Y-20807334D02*
X51813056Y-20862227D01*
X30754299Y-43331093D02*
X30776131Y-43317485D01*
X44048005Y-45118789D02*
X44024336Y-45065392D01*
X44462623Y-18200553D02*
X44511969Y-18169305D01*
X38764444Y-43978219D02*
X38793233Y-44029039D01*
X33411056Y-42937772D02*
X33423794Y-42992665D01*
X15001937Y-15004355D02*
X15000000Y-15014726D01*
X37743627Y-45800000D02*
X26721872Y-45800000D01*
X30909023Y-20652413D02*
X30875670Y-20606992D01*
X26721872Y-43400000D02*
X30493689Y-43400000D01*
X20096676Y-45529880D02*
X20050630Y-45565814D01*
X26489593Y-18022868D02*
X26547141Y-18012882D01*
X62337186Y-44531609D02*
X62341483Y-44473359D01*
X33411056Y-20862227D02*
X33403847Y-20918626D01*
X26663359Y-45798563D02*
X26605109Y-45794266D01*
X15185406Y-20544844D02*
X15164427Y-20564785D01*
X75389204Y-43748545D02*
X75429479Y-43790846D01*
X67713023Y-20652413D02*
X67679670Y-20606992D01*
X25840020Y-20009153D02*
X25801869Y-19964926D01*
X38252539Y-45685744D02*
X38199142Y-45709413D01*
X20331196Y-45271126D02*
X20297564Y-45318880D01*
X38404876Y-43600553D02*
X38452630Y-43634185D01*
X75623494Y-44081210D02*
X75647163Y-44134607D01*
X25732303Y-45271126D02*
X25701055Y-45221780D01*
X26663359Y-20398563D02*
X26605109Y-20394266D01*
X15252413Y-43307023D02*
X15276977Y-43322334D01*
X70283922Y-20676540D02*
X70257575Y-20726925D01*
X52238867Y-20414679D02*
X52184196Y-20430296D01*
X62605869Y-18435073D02*
X62644020Y-18390846D01*
X38793233Y-45170960D02*
X38764444Y-45221780D01*
X38843163Y-18734607D02*
X38864184Y-18789102D01*
X20183204Y-18348545D02*
X20223479Y-18390846D01*
X57300084Y-18900854D02*
X57312881Y-18957843D01*
X20362444Y-43978219D02*
X20391233Y-44029039D01*
X30725459Y-20477922D02*
X30675074Y-20451575D01*
X63409109Y-20394266D02*
X63351141Y-20387117D01*
X33442160Y-20753524D02*
X33423794Y-20807334D01*
X20223479Y-20009153D02*
X20183204Y-20051454D01*
X74779906Y-18022868D02*
X74836895Y-18035665D01*
X85638899Y-20400000D02*
X81927872Y-20400000D01*
X43956618Y-19442156D02*
X43946632Y-19384608D01*
X51834459Y-43020282D02*
X51855363Y-43072614D01*
X80907055Y-45221780D02*
X80878266Y-45170960D01*
X57284506Y-19555437D02*
X57266184Y-19610897D01*
X38355530Y-18169305D02*
X38404876Y-18200553D01*
X38928016Y-44726640D02*
X38920867Y-44784608D01*
X81366789Y-18140516D02*
X81418960Y-18114255D01*
X44414869Y-20165814D02*
X44368823Y-20129880D01*
X52294335Y-20404737D02*
X52238867Y-20414679D01*
X20417494Y-44081210D02*
X20441163Y-44134607D01*
X75003142Y-20309413D02*
X74948647Y-20330434D01*
X62371415Y-18900854D02*
X62386993Y-18844562D01*
X67795919Y-42990066D02*
X67802315Y-42940049D01*
X49218593Y-20544844D02*
X49174511Y-20508932D01*
X57101564Y-19918880D02*
X57065630Y-19964926D01*
X30564636Y-43395814D02*
X30590066Y-43391919D01*
X38032895Y-20364334D02*
X37975906Y-20377131D01*
X75737750Y-44590122D02*
X75736313Y-44668390D01*
X30950636Y-20727385D02*
X30937889Y-20701399D01*
X80971935Y-19918880D02*
X80938303Y-19871126D01*
X86210991Y-20973787D02*
X86203326Y-20890838D01*
X81418960Y-18114255D02*
X81472357Y-18090586D01*
X57027479Y-20009153D02*
X56987204Y-20051454D01*
X86196273Y-15000000D02*
X15009867Y-15000116D01*
X37918358Y-20387117D02*
X37860390Y-20394266D01*
X30590066Y-43391919D02*
X30638691Y-43380635D01*
X45065359Y-18001436D02*
X45123872Y-18000000D01*
X30991919Y-42990066D02*
X30998315Y-42940049D01*
X49040691Y-43380635D02*
X49065237Y-43372933D01*
X80878266Y-19770960D02*
X80852005Y-19718789D01*
X56320358Y-20387117D02*
X56262390Y-20394266D01*
X33466110Y-43098600D02*
X33494697Y-43147163D01*
X20441163Y-18734607D02*
X20462184Y-18789102D01*
X62337186Y-19268390D02*
X62335750Y-19209877D01*
X26212960Y-43514255D02*
X26266357Y-43490586D01*
X81418960Y-45685744D02*
X81366789Y-45659483D01*
X15326925Y-43348424D02*
X15379717Y-43369540D01*
X80750632Y-19384608D02*
X80743483Y-19326640D01*
X15040348Y-20753053D02*
X15030296Y-20780196D01*
X56806876Y-18200553D02*
X56854630Y-18234185D01*
X37743627Y-20400000D02*
X33969332Y-20400000D01*
X37918358Y-18012882D02*
X37975906Y-18022868D01*
X75056539Y-43514255D02*
X75108710Y-43540516D01*
X19341627Y-20400000D02*
X15568736Y-20400000D01*
X52294335Y-43395262D02*
X52323131Y-43398190D01*
X15005617Y-48798818D02*
X15014726Y-48800000D01*
X19953530Y-18169305D02*
X20002876Y-18200553D01*
X19458390Y-45794266D02*
X19400140Y-45798563D01*
X37975906Y-20377131D02*
X37918358Y-20387117D01*
X81086295Y-20051454D02*
X81046020Y-20009153D01*
X70227794Y-42992665D02*
X70236459Y-43020282D01*
X19797142Y-18090586D02*
X19850539Y-18114255D01*
X75003142Y-18090586D02*
X75056539Y-18114255D01*
X63180312Y-18051243D02*
X63236604Y-18035665D01*
X80807315Y-18789102D02*
X80828336Y-18734607D01*
X33423794Y-20807334D02*
X33411056Y-20862227D01*
X44614960Y-45685744D02*
X44562789Y-45659483D01*
X26109969Y-43569305D02*
X26160789Y-43540516D01*
X70201000Y-36840185D02*
X70201000Y-42824305D01*
X43956618Y-44357843D02*
X43969415Y-44300854D01*
X20362444Y-45221780D02*
X20331196Y-45271126D01*
X15462227Y-20409056D02*
X15407334Y-20421794D01*
X33678977Y-43322334D02*
X33728925Y-43348424D01*
X38699564Y-43881119D02*
X38733196Y-43928873D01*
X19458390Y-20394266D02*
X19400140Y-20398563D01*
X62405315Y-44189102D02*
X62426336Y-44134607D01*
X56654539Y-18114255D02*
X56706710Y-18140516D01*
X38663630Y-43835073D02*
X38699564Y-43881119D01*
X30710054Y-43354205D02*
X30754299Y-43331093D01*
X62964789Y-20259483D02*
X62913969Y-20230694D01*
X25601315Y-19610897D02*
X25582993Y-19555437D01*
X81266623Y-43600553D02*
X81315969Y-43569305D01*
X26266357Y-18090586D02*
X26320852Y-18069565D01*
X20526016Y-19073359D02*
X20530313Y-19131609D01*
X45007109Y-18005733D02*
X45065359Y-18001436D01*
X26266357Y-43490586D02*
X26320852Y-43469565D01*
X43984993Y-44244562D02*
X44003315Y-44189102D01*
X75568444Y-19821780D02*
X75537196Y-19871126D01*
X38663630Y-45364926D02*
X38625479Y-45409153D01*
X70207847Y-20918626D02*
X70206335Y-20948257D01*
X44074266Y-19770960D02*
X44048005Y-19718789D01*
X67394066Y-43391919D02*
X67442691Y-43380635D01*
X56320358Y-45787117D02*
X56262390Y-45794266D01*
X15030296Y-20780196D02*
X15014793Y-20834374D01*
X67804943Y-20933062D02*
X67801262Y-20890335D01*
X15064110Y-43098600D02*
X15092697Y-43147163D01*
X38733196Y-18528873D02*
X38764444Y-18578219D01*
X70458836Y-20492697D02*
X70412992Y-20526329D01*
X38355530Y-43569305D02*
X38404876Y-43600553D01*
X25646005Y-44081210D02*
X25672266Y-44029039D01*
X81007869Y-19964926D02*
X80971935Y-19918880D01*
X33403847Y-20918626D02*
X33402335Y-20948257D01*
X51913232Y-20629080D02*
X51881922Y-20676540D01*
X38699564Y-18481119D02*
X38733196Y-18528873D01*
X26432604Y-20364334D02*
X26376312Y-20348756D01*
X80971935Y-45318880D02*
X80938303Y-45271126D01*
X57166444Y-43978219D02*
X57195233Y-44029039D01*
X75537196Y-18528873D02*
X75568444Y-18578219D01*
X85828282Y-20430459D02*
X85800665Y-20421794D01*
X81128596Y-45491729D02*
X81086295Y-45451454D01*
X81218869Y-43634185D02*
X81266623Y-43600553D01*
X44511969Y-20230694D02*
X44462623Y-20199446D01*
X86137093Y-43154299D02*
X86160417Y-43109593D01*
X26663359Y-43401436D02*
X26721872Y-43400000D01*
X48885373Y-20401847D02*
X48834899Y-20400000D01*
X57322867Y-19015391D02*
X57330016Y-19073359D01*
X20518867Y-19015391D02*
X20526016Y-19073359D01*
X62816869Y-45565814D02*
X62770823Y-45529880D01*
X75714881Y-44357843D02*
X75724867Y-44415391D01*
X49352636Y-20727385D02*
X49339889Y-20701399D01*
X86207039Y-45802229D02*
X86203077Y-45800356D01*
X15014793Y-20834374D02*
X15004673Y-20890838D01*
X38452630Y-20165814D02*
X38404876Y-20199446D01*
X15327385Y-20451363D02*
X15301399Y-20464110D01*
X86167839Y-20753524D02*
X86156424Y-20726925D01*
X67803996Y-42894249D02*
X67801000Y-36900299D01*
X80852005Y-18681210D02*
X80878266Y-18629039D01*
X75429479Y-43790846D02*
X75467630Y-43835073D01*
X20297564Y-45318880D02*
X20261630Y-45364926D01*
X56434895Y-45764334D02*
X56377906Y-45777131D01*
X52323831Y-20401737D02*
X52294335Y-20404737D01*
X44282295Y-45451454D02*
X44242020Y-45409153D01*
X74664390Y-20394266D02*
X74606140Y-20398563D01*
X26547141Y-18012882D02*
X26605109Y-18005733D01*
X81046020Y-20009153D02*
X81007869Y-19964926D01*
X57135196Y-45271126D02*
X57101564Y-45318880D01*
X62341483Y-19326640D02*
X62337186Y-19268390D01*
X75302676Y-43670119D02*
X75346903Y-43708270D01*
X26109969Y-45630694D02*
X26060623Y-45599446D01*
X81811109Y-45794266D02*
X81753141Y-45787117D01*
X48996665Y-20421794D02*
X48941273Y-20408967D01*
X44134303Y-18528873D02*
X44167935Y-18481119D01*
X20096676Y-18270119D02*
X20140903Y-18308270D01*
X62476266Y-45170960D02*
X62450005Y-45118789D01*
X62913969Y-18169305D02*
X62964789Y-18140516D01*
X75208876Y-18200553D02*
X75256630Y-18234185D01*
X38898084Y-44899145D02*
X38882506Y-44955437D01*
X38252539Y-18114255D02*
X38304710Y-18140516D01*
X38864184Y-44189102D02*
X38882506Y-44244562D01*
X25554618Y-44842156D02*
X25544632Y-44784608D01*
X86081670Y-20606992D02*
X86062816Y-20585030D01*
X25544632Y-19015391D02*
X25554618Y-18957843D01*
X15014726Y-18000000D02*
X19341627Y-18000000D01*
X38199142Y-43490586D02*
X38252539Y-43514255D01*
X44778312Y-45748756D02*
X44722852Y-45730434D01*
X45065359Y-20398563D02*
X45007109Y-20394266D01*
X62450005Y-19718789D02*
X62426336Y-19665392D01*
X62450005Y-45118789D02*
X62426336Y-45065392D01*
X70612847Y-43378065D02*
X70640867Y-43385320D01*
X15000000Y-15014726D02*
X15000000Y-17985273D01*
X49239572Y-20564785D02*
X49218593Y-20544844D01*
X81218869Y-20165814D02*
X81172823Y-20129880D01*
X80938303Y-18528873D02*
X80971935Y-18481119D01*
X85981708Y-43317764D02*
X86002823Y-43303067D01*
X38404876Y-20199446D02*
X38355530Y-20230694D01*
X38882506Y-44244562D02*
X38898084Y-44300854D01*
X45007109Y-45794266D02*
X44949141Y-45787117D01*
X25567415Y-44300854D02*
X25582993Y-44244562D01*
X25840020Y-43790846D02*
X25880295Y-43748545D01*
X81128596Y-20091729D02*
X81086295Y-20051454D01*
X67791206Y-20834374D02*
X67775540Y-20779717D01*
X57221494Y-19718789D02*
X57195233Y-19770960D01*
X70559524Y-43359839D02*
X70612847Y-43378065D01*
X75346903Y-18308270D02*
X75389204Y-18348545D01*
X81869359Y-20398563D02*
X81811109Y-20394266D01*
X43984993Y-19555437D02*
X43969415Y-19499145D01*
X80907055Y-19821780D02*
X80878266Y-19770960D01*
X15379717Y-43369540D02*
X15407334Y-43378205D01*
X15108932Y-20629488D02*
X15077922Y-20676540D01*
X56262390Y-20394266D02*
X56204140Y-20398563D01*
X19516358Y-20387117D02*
X19458390Y-20394266D01*
X75737750Y-19190122D02*
X75736313Y-19268390D01*
X44368823Y-20129880D02*
X44324596Y-20091729D01*
X37860390Y-45794266D02*
X37802140Y-45798563D01*
X19953530Y-45630694D02*
X19902710Y-45659483D01*
X67426282Y-20430459D02*
X67398665Y-20421794D01*
X63467359Y-20398563D02*
X63409109Y-20394266D01*
X81695593Y-45777131D02*
X81638604Y-45764334D01*
X33479922Y-20676540D02*
X33453575Y-20726925D01*
X19850539Y-20285744D02*
X19797142Y-20309413D01*
X56491187Y-20348756D02*
X56434895Y-20364334D01*
X81315969Y-18169305D02*
X81366789Y-18140516D01*
X75256630Y-45565814D02*
X75208876Y-45599446D01*
X20462184Y-45010897D02*
X20441163Y-45065392D01*
X38404876Y-18200553D02*
X38452630Y-18234185D01*
X15007922Y-45800356D02*
X15003960Y-45802229D01*
X20140903Y-18308270D02*
X20183204Y-18348545D01*
X25966823Y-43670119D02*
X26012869Y-43634185D01*
X75714881Y-18957843D02*
X75724867Y-19015391D01*
X44891593Y-20377131D02*
X44834604Y-20364334D01*
X33969332Y-20400000D02*
X33921499Y-20401771D01*
X75623494Y-19718789D02*
X75597233Y-19770960D01*
X45007109Y-20394266D02*
X44949141Y-20387117D01*
X62684295Y-18348545D02*
X62726596Y-18308270D01*
X81128596Y-18308270D02*
X81172823Y-18270119D01*
X80739186Y-44531609D02*
X80743483Y-44473359D01*
X62964789Y-43540516D02*
X63016960Y-43514255D01*
X25544632Y-44415391D02*
X25554618Y-44357843D01*
X20223479Y-43790846D02*
X20261630Y-43835073D01*
X44614960Y-20285744D02*
X44562789Y-20259483D01*
X57221494Y-44081210D02*
X57245163Y-44134607D01*
X63180312Y-43451243D02*
X63236604Y-43435665D01*
X62386993Y-44244562D02*
X62405315Y-44189102D01*
X20496084Y-19499145D02*
X20480506Y-19555437D01*
X75302676Y-20129880D02*
X75256630Y-20165814D01*
X49289940Y-43216366D02*
X49319485Y-43176131D01*
X80971935Y-18481119D02*
X81007869Y-18435073D01*
X20297564Y-43881119D02*
X20331196Y-43928873D01*
X86203326Y-20890838D02*
X86193320Y-20834867D01*
X85745467Y-43398374D02*
X85795567Y-43392008D01*
X37918358Y-45787117D02*
X37860390Y-45794266D01*
X25880295Y-18348545D02*
X25922596Y-18308270D01*
X37860390Y-18005733D02*
X37918358Y-18012882D01*
X38252539Y-43514255D02*
X38304710Y-43540516D01*
X26212960Y-18114255D02*
X26266357Y-18090586D01*
X26605109Y-43405733D02*
X26663359Y-43401436D01*
X74893187Y-20348756D02*
X74836895Y-20364334D01*
X43946632Y-19015391D02*
X43956618Y-18957843D01*
X19516358Y-18012882D02*
X19573906Y-18022868D01*
X26489593Y-43422868D02*
X26547141Y-43412882D01*
X25966823Y-45529880D02*
X25922596Y-45491729D01*
X75108710Y-45659483D02*
X75056539Y-45685744D01*
X25701055Y-18578219D02*
X25732303Y-18528873D01*
X57312881Y-44357843D02*
X57322867Y-44415391D01*
X74547627Y-45800000D02*
X63525872Y-45800000D01*
X57166444Y-45221780D02*
X57135196Y-45271126D01*
X80743483Y-44473359D02*
X80750632Y-44415391D01*
X75056539Y-18114255D02*
X75108710Y-18140516D01*
X81266623Y-20199446D02*
X81218869Y-20165814D01*
X63409109Y-18005733D02*
X63467359Y-18001436D01*
X81472357Y-45709413D02*
X81418960Y-45685744D01*
X19687187Y-18051243D02*
X19742647Y-18069565D01*
X81638604Y-45764334D02*
X81582312Y-45748756D01*
X56987204Y-43748545D02*
X57027479Y-43790846D01*
X25701055Y-19821780D02*
X25672266Y-19770960D01*
X20050630Y-18234185D02*
X20096676Y-18270119D01*
X20531750Y-44609877D02*
X20530313Y-44668390D01*
X74606140Y-18001436D02*
X74664390Y-18005733D01*
X62644020Y-43790846D02*
X62684295Y-43748545D01*
X57065630Y-19964926D02*
X57027479Y-20009153D01*
X80852005Y-44081210D02*
X80878266Y-44029039D01*
X62644020Y-20009153D02*
X62605869Y-19964926D01*
X62476266Y-44029039D02*
X62505055Y-43978219D01*
X81128596Y-43708270D02*
X81172823Y-43670119D01*
X86210382Y-17993023D02*
X86211000Y-17985273D01*
X43933750Y-44609877D02*
X43935186Y-44531609D01*
X20480506Y-44955437D02*
X20462184Y-45010897D01*
X51804335Y-20948257D02*
X51801000Y-42826274D01*
X30943087Y-43132691D02*
X30954417Y-43109593D01*
X70215056Y-20862227D02*
X70207847Y-20918626D01*
X33703399Y-20464110D02*
X33654836Y-20492697D01*
X63180312Y-45748756D02*
X63124852Y-45730434D01*
X56491187Y-45748756D02*
X56434895Y-45764334D01*
X70215056Y-42937772D02*
X70227794Y-42992665D01*
X75732016Y-19326640D02*
X75724867Y-19384608D01*
X25531750Y-19209877D02*
X25533186Y-19131609D01*
X75647163Y-44134607D02*
X75668184Y-44189102D01*
X20526016Y-44726640D02*
X20518867Y-44784608D01*
X44614960Y-43514255D02*
X44668357Y-43490586D01*
X62770823Y-20129880D02*
X62726596Y-20091729D01*
X44167935Y-45318880D02*
X44134303Y-45271126D01*
X49389206Y-20834374D02*
X49373540Y-20779717D01*
X75724867Y-19015391D02*
X75732016Y-19073359D01*
X33836867Y-43385320D02*
X33892335Y-43395262D01*
X38793233Y-44029039D02*
X38819494Y-44081210D01*
X70640867Y-43385320D02*
X70696335Y-43395262D01*
X62450005Y-18681210D02*
X62476266Y-18629039D01*
X67679670Y-20606992D02*
X67641572Y-20564785D01*
X86002823Y-43303067D02*
X86041510Y-43271522D01*
X26605109Y-20394266D02*
X26547141Y-20387117D01*
X38304710Y-45659483D02*
X38252539Y-45685744D01*
X63124852Y-20330434D02*
X63070357Y-20309413D01*
X63351141Y-20387117D02*
X63293593Y-20377131D01*
X56706710Y-20259483D02*
X56654539Y-20285744D01*
X63293593Y-45777131D02*
X63236604Y-45764334D01*
X44891593Y-18022868D02*
X44949141Y-18012882D01*
X20096676Y-43670119D02*
X20140903Y-43708270D01*
X38843163Y-45065392D02*
X38819494Y-45118789D01*
X44511969Y-18169305D02*
X44562789Y-18140516D01*
X26060623Y-45599446D02*
X26012869Y-45565814D01*
X43946632Y-44784608D02*
X43939483Y-44726640D01*
X19630895Y-20364334D02*
X19573906Y-20377131D01*
X74547627Y-43400000D02*
X74606140Y-43401436D01*
X26109969Y-18169305D02*
X26160789Y-18140516D01*
X56854630Y-43634185D02*
X56900676Y-43670119D01*
X25567415Y-19499145D02*
X25554618Y-19442156D01*
X67721485Y-43176131D02*
X67747087Y-43132691D01*
X81315969Y-45630694D02*
X81266623Y-45599446D01*
X75623494Y-45118789D02*
X75597233Y-45170960D01*
X67641572Y-20564785D02*
X67620593Y-20544844D01*
X15077922Y-20676540D02*
X15063876Y-20701848D01*
X57101564Y-43881119D02*
X57135196Y-43928873D01*
X70696335Y-43395262D02*
X70725131Y-43398190D01*
X15000971Y-48793939D02*
X15005617Y-48798818D01*
X56987204Y-20051454D02*
X56944903Y-20091729D01*
X44462623Y-43600553D02*
X44511969Y-43569305D01*
X63525872Y-45800000D02*
X63467359Y-45798563D01*
X30539772Y-20409056D02*
X30483373Y-20401847D01*
X19902710Y-43540516D02*
X19953530Y-43569305D01*
X86207039Y-17997770D02*
X86210382Y-17993023D01*
X57330016Y-44473359D02*
X57334313Y-44531609D01*
X70206335Y-20948257D02*
X70201000Y-36840185D01*
X33892335Y-43395262D02*
X33921131Y-43398190D01*
X75732016Y-19073359D02*
X75736313Y-19131609D01*
X74547627Y-20400000D02*
X70777768Y-20400000D01*
X44562789Y-20259483D02*
X44511969Y-20230694D01*
X49356417Y-43109593D02*
X49374933Y-43063237D01*
X49077074Y-20451575D02*
X49024282Y-20430459D01*
X57322867Y-44784608D02*
X57312881Y-44842156D01*
X57300084Y-19499145D02*
X57284506Y-19555437D01*
X85955163Y-20492697D02*
X85906600Y-20464110D01*
X49401000Y-20999629D02*
X49402852Y-20933337D01*
X38898084Y-18900854D02*
X38910881Y-18957843D01*
X30917764Y-43175708D02*
X30943087Y-43132691D01*
X81315969Y-20230694D02*
X81266623Y-20199446D01*
X70412992Y-43273670D02*
X70458413Y-43307023D01*
X80773415Y-44899145D02*
X80760618Y-44842156D01*
X74948647Y-20330434D02*
X74893187Y-20348756D01*
X63124852Y-43469565D02*
X63180312Y-43451243D01*
X57335750Y-44590122D02*
X57334313Y-44668390D01*
X44368823Y-45529880D02*
X44324596Y-45491729D01*
X15000000Y-17985273D02*
X15000617Y-17993023D01*
X26376312Y-20348756D02*
X26320852Y-20330434D01*
X63409109Y-45794266D02*
X63351141Y-45787117D01*
X57284506Y-44955437D02*
X57266184Y-45010897D01*
X25732303Y-18528873D02*
X25765935Y-18481119D01*
X19797142Y-45709413D02*
X19742647Y-45730434D01*
X74606140Y-43401436D02*
X74664390Y-43405733D01*
X15092697Y-43147163D02*
X15126329Y-43193007D01*
X44074266Y-18629039D02*
X44103055Y-18578219D01*
X57195233Y-18629039D02*
X57221494Y-18681210D01*
X51948844Y-20585406D02*
X51913232Y-20629080D01*
X74779906Y-45777131D02*
X74722358Y-45787117D01*
X56987204Y-45451454D02*
X56944903Y-45491729D01*
X70351183Y-43214969D02*
X70391030Y-43254816D01*
X56546647Y-45730434D02*
X56491187Y-45748756D01*
X75389204Y-18348545D02*
X75429479Y-18390846D01*
X67784635Y-43038691D02*
X67795919Y-42990066D01*
X56944903Y-45491729D02*
X56900676Y-45529880D01*
X63351141Y-18012882D02*
X63409109Y-18005733D01*
X38932313Y-44531609D02*
X38933750Y-44590122D01*
X26160789Y-45659483D02*
X26109969Y-45630694D01*
X70201474Y-42840487D02*
X70215056Y-42937772D01*
X20223479Y-18390846D02*
X20261630Y-18435073D01*
X44778312Y-20348756D02*
X44722852Y-20330434D01*
X63236604Y-45764334D02*
X63180312Y-45748756D01*
X30772511Y-20508932D02*
X30725459Y-20477922D01*
X57101564Y-18481119D02*
X57135196Y-18528873D01*
X38452630Y-43634185D02*
X38498676Y-43670119D01*
X86196273Y-45800000D02*
X81927872Y-45800000D01*
X75686506Y-19555437D02*
X75668184Y-19610897D01*
X74948647Y-18069565D02*
X75003142Y-18090586D01*
X70458413Y-43307023D02*
X70482977Y-43322334D01*
X62536303Y-43928873D02*
X62569935Y-43881119D01*
X86210028Y-15006060D02*
X86205382Y-15001181D01*
X15164427Y-20564785D02*
X15126650Y-20606599D01*
X52080977Y-43322334D02*
X52130925Y-43348424D01*
X81046020Y-43790846D02*
X81086295Y-43748545D01*
X62341483Y-44726640D02*
X62337186Y-44668390D01*
X81172823Y-45529880D02*
X81128596Y-45491729D01*
X74948647Y-43469565D02*
X75003142Y-43490586D01*
X67775540Y-20779717D02*
X67754636Y-20727385D01*
X56320358Y-18012882D02*
X56377906Y-18022868D01*
X44668357Y-18090586D02*
X44722852Y-18069565D01*
X44414869Y-43634185D02*
X44462623Y-43600553D01*
X63070357Y-18090586D02*
X63124852Y-18069565D01*
X44282295Y-18348545D02*
X44324596Y-18308270D01*
X33921499Y-20401771D02*
X33892335Y-20404737D01*
X86205382Y-15001181D02*
X86196273Y-15000000D01*
X43933750Y-19209877D02*
X43935186Y-19131609D01*
X26320852Y-45730434D02*
X26266357Y-45709413D01*
X48942010Y-43398305D02*
X48966636Y-43395814D01*
X57300084Y-44899145D02*
X57284506Y-44955437D01*
X48894206Y-43400000D02*
X48942010Y-43398305D01*
X44949141Y-18012882D02*
X45007109Y-18005733D01*
X56757530Y-45630694D02*
X56706710Y-45659483D01*
X63351141Y-45787117D02*
X63293593Y-45777131D01*
X75568444Y-18578219D02*
X75597233Y-18629039D01*
X44834604Y-45764334D02*
X44778312Y-45748756D01*
X15014726Y-48800000D02*
X86196273Y-48800000D01*
X52056836Y-20492697D02*
X52010992Y-20526329D01*
X25765935Y-18481119D02*
X25801869Y-18435073D01*
X81695593Y-18022868D02*
X81753141Y-18012882D01*
X86203077Y-45800356D02*
X86196273Y-45800000D01*
X25672266Y-45170960D02*
X25646005Y-45118789D01*
X85717161Y-20404673D02*
X85688868Y-20401809D01*
X44324596Y-43708270D02*
X44368823Y-43670119D01*
X38663630Y-18435073D02*
X38699564Y-18481119D01*
X67398665Y-20421794D02*
X67343273Y-20408967D01*
X44074266Y-44029039D02*
X44103055Y-43978219D01*
X38928016Y-44473359D02*
X38932313Y-44531609D01*
X74664390Y-18005733D02*
X74722358Y-18012882D01*
X20530313Y-44531609D02*
X20531750Y-44609877D01*
X44048005Y-44081210D02*
X44074266Y-44029039D01*
X75597233Y-19770960D02*
X75568444Y-19821780D01*
X80737750Y-44609877D02*
X80739186Y-44531609D01*
X56854630Y-18234185D02*
X56900676Y-18270119D01*
X56900676Y-45529880D02*
X56854630Y-45565814D01*
X62726596Y-43708270D02*
X62770823Y-43670119D01*
X80878266Y-18629039D02*
X80907055Y-18578219D01*
X38819494Y-44081210D02*
X38843163Y-44134607D01*
X86209818Y-48794382D02*
X86211000Y-48785273D01*
X81869359Y-18001436D02*
X81927872Y-18000000D01*
X80760618Y-44357843D02*
X80773415Y-44300854D01*
X62816869Y-20165814D02*
X62770823Y-20129880D01*
X25922596Y-20091729D02*
X25880295Y-20051454D01*
X49402852Y-20933337D02*
X49399262Y-20890335D01*
X25582993Y-18844562D02*
X25601315Y-18789102D01*
X67741889Y-20701399D02*
X67713023Y-20652413D01*
X57300084Y-44300854D02*
X57312881Y-44357843D01*
X51949183Y-43214969D02*
X51989030Y-43254816D01*
X86130334Y-20676977D02*
X86115023Y-20652413D01*
X30971540Y-20779717D02*
X30950636Y-20727385D01*
X52323131Y-43398190D02*
X52373100Y-43400000D01*
X45123872Y-18000000D02*
X56145627Y-18000000D01*
X56601142Y-45709413D02*
X56546647Y-45730434D01*
X62358618Y-44357843D02*
X62371415Y-44300854D01*
X86193320Y-20834867D02*
X86186065Y-20806847D01*
X19797142Y-20309413D02*
X19742647Y-20330434D01*
X81218869Y-45565814D02*
X81172823Y-45529880D01*
X57322867Y-19384608D02*
X57312881Y-19442156D01*
X52010992Y-43273670D02*
X52056413Y-43307023D01*
X19687187Y-45748756D02*
X19630895Y-45764334D01*
X81927872Y-18000000D02*
X86196273Y-18000000D01*
X74893187Y-43451243D02*
X74948647Y-43469565D01*
X62913969Y-20230694D02*
X62864623Y-20199446D01*
X48834899Y-20400000D02*
X45123872Y-20400000D01*
X62644020Y-18390846D02*
X62684295Y-18348545D01*
X75732016Y-44473359D02*
X75736313Y-44531609D01*
X38764444Y-19821780D02*
X38733196Y-19871126D01*
X15014726Y-45800000D02*
X15007922Y-45800356D01*
X62358618Y-18957843D02*
X62371415Y-18900854D01*
X86196273Y-48800000D02*
X86204939Y-48799028D01*
X43969415Y-19499145D02*
X43956618Y-19442156D01*
X62476266Y-19770960D02*
X62450005Y-19718789D01*
X74722358Y-45787117D02*
X74664390Y-45794266D01*
X20391233Y-45170960D02*
X20362444Y-45221780D01*
X25544632Y-44784608D02*
X25537483Y-44726640D01*
X19630895Y-43435665D02*
X19687187Y-43451243D01*
X56262390Y-18005733D02*
X56320358Y-18012882D01*
X70724694Y-20401854D02*
X70696335Y-20404737D01*
X63525872Y-43400000D02*
X67294656Y-43400000D01*
X44203869Y-19964926D02*
X44167935Y-19918880D01*
X80750632Y-44784608D02*
X80743483Y-44726640D01*
X75467630Y-19964926D02*
X75429479Y-20009153D01*
X25622336Y-45065392D02*
X25601315Y-45010897D01*
X44891593Y-43422868D02*
X44949141Y-43412882D01*
X51825794Y-42992665D02*
X51834459Y-43020282D01*
X86211000Y-48785273D02*
X86211000Y-45814726D01*
X45007109Y-43405733D02*
X45065359Y-43401436D01*
X20518867Y-44415391D02*
X20526016Y-44473359D01*
X81638604Y-43435665D02*
X81695593Y-43422868D01*
X26547141Y-20387117D02*
X26489593Y-20377131D01*
X62341483Y-44473359D02*
X62348632Y-44415391D01*
X20508881Y-19442156D02*
X20496084Y-19499145D01*
X37802140Y-45798563D02*
X37743627Y-45800000D01*
X30998315Y-42940049D02*
X31000001Y-42894449D01*
X15030459Y-43020282D02*
X15051363Y-43072614D01*
X30675074Y-20451575D02*
X30622282Y-20430459D01*
X38920867Y-44784608D02*
X38910881Y-44842156D01*
X75208876Y-45599446D02*
X75159530Y-45630694D01*
X67802315Y-42940049D02*
X67803996Y-42894249D01*
X33608992Y-43273670D02*
X33654413Y-43307023D01*
X19850539Y-18114255D02*
X19902710Y-18140516D01*
X62405315Y-45010897D02*
X62386993Y-44955437D01*
X75159530Y-43569305D02*
X75208876Y-43600553D01*
X44414869Y-18234185D02*
X44462623Y-18200553D01*
X70507399Y-20464110D02*
X70458836Y-20492697D01*
X49345087Y-43132691D02*
X49356417Y-43109593D01*
X56987204Y-18348545D02*
X57027479Y-18390846D01*
X45123872Y-45800000D02*
X45065359Y-45798563D01*
X75159530Y-45630694D02*
X75108710Y-45659483D01*
X57065630Y-18435073D02*
X57101564Y-18481119D01*
X44324596Y-20091729D02*
X44282295Y-20051454D01*
X25533186Y-19131609D02*
X25537483Y-19073359D01*
X38920867Y-44415391D02*
X38928016Y-44473359D01*
X44324596Y-45491729D02*
X44282295Y-45451454D01*
X38498676Y-20129880D02*
X38452630Y-20165814D01*
X86156424Y-20726925D02*
X86130334Y-20676977D01*
X75623494Y-18681210D02*
X75647163Y-18734607D01*
X62913969Y-45630694D02*
X62864623Y-45599446D01*
X62505055Y-45221780D02*
X62476266Y-45170960D01*
X33921131Y-43398190D02*
X33971100Y-43400000D01*
X80938303Y-45271126D02*
X80907055Y-45221780D01*
X86211000Y-15014726D02*
X86210028Y-15006060D01*
X67801000Y-21030331D02*
X67804943Y-20933062D01*
X74606140Y-45798563D02*
X74547627Y-45800000D01*
X75686506Y-44955437D02*
X75668184Y-45010897D01*
X67479074Y-20451575D02*
X67426282Y-20430459D01*
X38882506Y-44955437D02*
X38864184Y-45010897D01*
X75668184Y-19610897D02*
X75647163Y-19665392D01*
X74664390Y-45794266D02*
X74606140Y-45798563D01*
X80907055Y-43978219D02*
X80938303Y-43928873D01*
X51813056Y-20862227D02*
X51805847Y-20918626D01*
X86204315Y-42940049D02*
X86205993Y-42894149D01*
X75467630Y-18435073D02*
X75503564Y-18481119D01*
X37860390Y-20394266D02*
X37802140Y-20398563D01*
X56377906Y-45777131D02*
X56320358Y-45787117D01*
X19400140Y-20398563D02*
X19341627Y-20400000D01*
X51808673Y-42909161D02*
X51813056Y-42937772D01*
X44242020Y-20009153D02*
X44203869Y-19964926D01*
X44368823Y-18270119D02*
X44414869Y-18234185D01*
X62371415Y-19499145D02*
X62358618Y-19442156D01*
X38089187Y-18051243D02*
X38144647Y-18069565D01*
X81418960Y-20285744D02*
X81366789Y-20259483D01*
X51868110Y-43098600D02*
X51896697Y-43147163D01*
X20508881Y-44842156D02*
X20496084Y-44899145D01*
X57221494Y-18681210D02*
X57245163Y-18734607D01*
X15462227Y-43390943D02*
X15490838Y-43395326D01*
X81582312Y-20348756D02*
X81526852Y-20330434D01*
X38864184Y-18789102D02*
X38882506Y-18844562D01*
X38933750Y-44590122D02*
X38932313Y-44668390D01*
X44242020Y-43790846D02*
X44282295Y-43748545D01*
X30816366Y-43287940D02*
X30835886Y-43271183D01*
X44282295Y-20051454D02*
X44242020Y-20009153D01*
X85800665Y-20421794D02*
X85745772Y-20409056D01*
X75108710Y-20259483D02*
X75056539Y-20285744D01*
X26376312Y-43451243D02*
X26432604Y-43435665D01*
X62569935Y-18481119D02*
X62605869Y-18435073D01*
X57266184Y-18789102D02*
X57284506Y-18844562D01*
X15000000Y-20969119D02*
X15000855Y-42853983D01*
X51968785Y-20564427D02*
X51948844Y-20585406D01*
X75208876Y-20199446D02*
X75159530Y-20230694D01*
X67747087Y-43132691D02*
X67758417Y-43109593D01*
X49277670Y-20606992D02*
X49239572Y-20564785D01*
X25582993Y-44955437D02*
X25567415Y-44899145D01*
X19902710Y-18140516D02*
X19953530Y-18169305D01*
X19400140Y-45798563D02*
X19341627Y-45800000D01*
X44778312Y-18051243D02*
X44834604Y-18035665D01*
X81638604Y-18035665D02*
X81695593Y-18022868D01*
X44203869Y-18435073D02*
X44242020Y-18390846D01*
X62426336Y-18734607D02*
X62450005Y-18681210D01*
X38920867Y-19384608D02*
X38910881Y-19442156D01*
X20002876Y-20199446D02*
X19953530Y-20230694D01*
X25533186Y-44531609D02*
X25537483Y-44473359D01*
X38304710Y-43540516D02*
X38355530Y-43569305D01*
X75702084Y-19499145D02*
X75686506Y-19555437D01*
X30887940Y-43216366D02*
X30917764Y-43175708D01*
X44282295Y-43748545D02*
X44324596Y-43708270D01*
X62348632Y-44415391D02*
X62358618Y-44357843D01*
X44722852Y-20330434D02*
X44668357Y-20309413D01*
X20261630Y-18435073D02*
X20297564Y-18481119D01*
X56434895Y-18035665D02*
X56491187Y-18051243D01*
X51844160Y-20753524D02*
X51825794Y-20807334D01*
X74836895Y-20364334D02*
X74779906Y-20377131D01*
X38355530Y-45630694D02*
X38304710Y-45659483D01*
X20183204Y-43748545D02*
X20223479Y-43790846D01*
X74722358Y-20387117D02*
X74664390Y-20394266D01*
X75503564Y-19918880D02*
X75467630Y-19964926D01*
X25801869Y-19964926D02*
X25765935Y-19918880D01*
X20183204Y-45451454D02*
X20140903Y-45491729D01*
X86201000Y-36899127D02*
X86210991Y-20973787D01*
X57245163Y-19665392D02*
X57221494Y-19718789D01*
X44834604Y-18035665D02*
X44891593Y-18022868D01*
X43935186Y-19268390D02*
X43933750Y-19209877D01*
X67754636Y-20727385D02*
X67741889Y-20701399D01*
X44024336Y-18734607D02*
X44048005Y-18681210D01*
X49273183Y-43235886D02*
X49289940Y-43216366D01*
X38764444Y-18578219D02*
X38793233Y-18629039D01*
X51855363Y-43072614D02*
X51868110Y-43098600D01*
X44167935Y-18481119D02*
X44203869Y-18435073D01*
X44167935Y-19918880D02*
X44134303Y-19871126D01*
X75346903Y-43708270D02*
X75389204Y-43748545D01*
X49218366Y-43287940D02*
X49237886Y-43271183D01*
X30987206Y-20834374D02*
X30971540Y-20779717D01*
X70640867Y-20414679D02*
X70586196Y-20430296D01*
X33587030Y-20545183D02*
X33546844Y-20585406D01*
X81218869Y-18234185D02*
X81266623Y-18200553D01*
X38355530Y-20230694D02*
X38304710Y-20259483D01*
X62605869Y-45364926D02*
X62569935Y-45318880D01*
X67776933Y-43063237D02*
X67784635Y-43038691D01*
X44949141Y-43412882D02*
X45007109Y-43405733D01*
X43939483Y-19073359D02*
X43946632Y-19015391D01*
X86196273Y-18000000D02*
X86203077Y-17999643D01*
X67576511Y-20508932D02*
X67529459Y-20477922D01*
X25582993Y-44244562D02*
X25601315Y-44189102D01*
X49399262Y-20890335D02*
X49389206Y-20834374D01*
X20331196Y-43928873D02*
X20362444Y-43978219D01*
X30972933Y-43063237D02*
X30980635Y-43038691D01*
X25801869Y-43835073D02*
X25840020Y-43790846D01*
X25533186Y-44668390D02*
X25531750Y-44609877D01*
X85702373Y-43400000D02*
X85745467Y-43398374D01*
X74547627Y-18000000D02*
X74606140Y-18001436D01*
X75702084Y-18900854D02*
X75714881Y-18957843D01*
X49174511Y-20508932D02*
X49127459Y-20477922D01*
X56546647Y-20330434D02*
X56491187Y-20348756D01*
X44511969Y-43569305D02*
X44562789Y-43540516D01*
X26663359Y-18001436D02*
X26721872Y-18000000D01*
X25537483Y-44726640D02*
X25533186Y-44668390D01*
X80938303Y-19871126D02*
X80907055Y-19821780D01*
X26721872Y-18000000D02*
X37743627Y-18000000D01*
X56145627Y-43400000D02*
X56204140Y-43401436D01*
X19687187Y-43451243D02*
X19742647Y-43469565D01*
X38882506Y-19555437D02*
X38864184Y-19610897D01*
X81172823Y-18270119D02*
X81218869Y-18234185D01*
X62337186Y-19131609D02*
X62341483Y-19073359D01*
X70775100Y-43400000D02*
X74547627Y-43400000D01*
X81172823Y-20129880D02*
X81128596Y-20091729D01*
X62335750Y-19209877D02*
X62337186Y-19131609D01*
X57221494Y-45118789D02*
X57195233Y-45170960D01*
X75647163Y-18734607D02*
X75668184Y-18789102D01*
X30594665Y-20421794D02*
X30539772Y-20409056D01*
X62335750Y-44609877D02*
X62337186Y-44531609D01*
X38089187Y-43451243D02*
X38144647Y-43469565D01*
X38542903Y-45491729D02*
X38498676Y-45529880D01*
X75714881Y-44842156D02*
X75702084Y-44899145D01*
X43939483Y-44473359D02*
X43946632Y-44415391D01*
X75714881Y-19442156D02*
X75702084Y-19499145D01*
X20417494Y-19718789D02*
X20391233Y-19770960D01*
X26721872Y-20400000D02*
X26663359Y-20398563D01*
X38928016Y-19073359D02*
X38932313Y-19131609D01*
X15003960Y-45802229D02*
X15000617Y-45806976D01*
X19687187Y-20348756D02*
X19630895Y-20364334D01*
X51801000Y-42826274D02*
X51808673Y-42909161D01*
X26012869Y-45565814D02*
X25966823Y-45529880D01*
X75503564Y-43881119D02*
X75537196Y-43928873D01*
X80828336Y-18734607D02*
X80852005Y-18681210D01*
X81007869Y-45364926D02*
X80971935Y-45318880D01*
X56145627Y-18000000D02*
X56204140Y-18001436D01*
X74722358Y-18012882D02*
X74779906Y-18022868D01*
X56806876Y-45599446D02*
X56757530Y-45630694D01*
X19341627Y-43400000D02*
X19400140Y-43401436D01*
X57322867Y-44415391D02*
X57330016Y-44473359D01*
X44614960Y-18114255D02*
X44668357Y-18090586D01*
X57335750Y-19190122D02*
X57334313Y-19268390D01*
X57166444Y-18578219D02*
X57195233Y-18629039D01*
X19902710Y-20259483D02*
X19850539Y-20285744D01*
X43969415Y-18900854D02*
X43984993Y-18844562D01*
X44103055Y-45221780D02*
X44074266Y-45170960D01*
X20508881Y-44357843D02*
X20518867Y-44415391D01*
X75302676Y-18270119D02*
X75346903Y-18308270D01*
X38032895Y-18035665D02*
X38089187Y-18051243D01*
X70777768Y-20400000D02*
X70724694Y-20401854D01*
X45065359Y-45798563D02*
X45007109Y-45794266D01*
X62371415Y-44300854D02*
X62386993Y-44244562D01*
X30837572Y-20564785D02*
X30795400Y-20526650D01*
X75736313Y-19268390D02*
X75732016Y-19326640D01*
X26160789Y-18140516D02*
X26212960Y-18114255D01*
X63293593Y-18022868D02*
X63351141Y-18012882D01*
X44462623Y-20199446D02*
X44414869Y-20165814D01*
X81086295Y-43748545D02*
X81128596Y-43708270D01*
X81753141Y-45787117D02*
X81695593Y-45777131D01*
X30539709Y-43398336D02*
X30564636Y-43395814D01*
X26489593Y-45777131D02*
X26432604Y-45764334D01*
X38199142Y-20309413D02*
X38144647Y-20330434D01*
X57065630Y-45364926D02*
X57027479Y-45409153D01*
X49237886Y-43271183D02*
X49273183Y-43235886D01*
X19742647Y-43469565D02*
X19797142Y-43490586D01*
X38910881Y-44357843D02*
X38920867Y-44415391D01*
X15252836Y-20492697D02*
X15229080Y-20509232D01*
X49393919Y-42990066D02*
X49400315Y-42940049D01*
X75724867Y-44784608D02*
X75714881Y-44842156D01*
X70257575Y-20726925D02*
X70246160Y-20753524D01*
X38585204Y-43748545D02*
X38625479Y-43790846D01*
X20518867Y-44784608D02*
X20508881Y-44842156D01*
X44324596Y-18308270D02*
X44368823Y-18270119D01*
X62770823Y-45529880D02*
X62726596Y-45491729D01*
X81753141Y-18012882D02*
X81811109Y-18005733D01*
X75429479Y-20009153D02*
X75389204Y-20051454D01*
X20518867Y-19384608D02*
X20508881Y-19442156D01*
X75346903Y-45491729D02*
X75302676Y-45529880D01*
X20297564Y-18481119D02*
X20331196Y-18528873D01*
X62358618Y-19442156D02*
X62348632Y-19384608D01*
X85688868Y-20401809D02*
X85638899Y-20400000D01*
X86041510Y-43271522D02*
X86077183Y-43235886D01*
X20441163Y-44134607D02*
X20462184Y-44189102D01*
X56546647Y-18069565D02*
X56601142Y-18090586D01*
X81582312Y-43451243D02*
X81638604Y-43435665D01*
X74606140Y-20398563D02*
X74547627Y-20400000D01*
X63070357Y-45709413D02*
X63016960Y-45685744D01*
X62386993Y-19555437D02*
X62371415Y-19499145D01*
X57195233Y-19770960D02*
X57166444Y-19821780D01*
X44242020Y-18390846D02*
X44282295Y-18348545D01*
X26432604Y-43435665D02*
X26489593Y-43422868D01*
X20331196Y-18528873D02*
X20362444Y-18578219D01*
X26109969Y-20230694D02*
X26060623Y-20199446D01*
X38920867Y-19015391D02*
X38928016Y-19073359D01*
X80788993Y-44244562D02*
X80807315Y-44189102D01*
X56145627Y-45800000D02*
X45123872Y-45800000D01*
X75108710Y-18140516D02*
X75159530Y-18169305D01*
X38699564Y-45318880D02*
X38663630Y-45364926D01*
X25537483Y-44473359D02*
X25544632Y-44415391D01*
X15001748Y-42880400D02*
X15009056Y-42937772D01*
X38304710Y-20259483D02*
X38252539Y-20285744D01*
X25840020Y-45409153D02*
X25801869Y-45364926D01*
X63070357Y-43490586D02*
X63124852Y-43469565D01*
X75724867Y-19384608D02*
X75714881Y-19442156D01*
X75159530Y-20230694D02*
X75108710Y-20259483D01*
X33654413Y-43307023D02*
X33678977Y-43322334D01*
X44024336Y-44134607D02*
X44048005Y-44081210D01*
X52131385Y-20451363D02*
X52105399Y-20464110D01*
X81582312Y-45748756D02*
X81526852Y-45730434D01*
X80739186Y-19131609D02*
X80743483Y-19073359D01*
X26012869Y-43634185D02*
X26060623Y-43600553D01*
X62864623Y-45599446D02*
X62816869Y-45565814D01*
X43984993Y-44955437D02*
X43969415Y-44899145D01*
X74722358Y-43412882D02*
X74779906Y-43422868D01*
X81526852Y-20330434D02*
X81472357Y-20309413D01*
X20261630Y-19964926D02*
X20223479Y-20009153D01*
X81811109Y-18005733D02*
X81869359Y-18001436D01*
X62605869Y-43835073D02*
X62644020Y-43790846D01*
X62386993Y-18844562D02*
X62405315Y-18789102D01*
X33654836Y-20492697D02*
X33608992Y-20526329D01*
X25601315Y-44189102D02*
X25622336Y-44134607D01*
X80828336Y-45065392D02*
X80807315Y-45010897D01*
X81366789Y-20259483D02*
X81315969Y-20230694D01*
X62913969Y-43569305D02*
X62964789Y-43540516D01*
X33402335Y-20948257D02*
X33401000Y-42820862D01*
X62426336Y-44134607D02*
X62450005Y-44081210D01*
X85906600Y-20464110D02*
X85880614Y-20451363D01*
X62605869Y-19964926D02*
X62569935Y-19918880D01*
X25840020Y-18390846D02*
X25880295Y-18348545D01*
X57330016Y-19326640D02*
X57322867Y-19384608D01*
X75597233Y-18629039D02*
X75623494Y-18681210D01*
X25880295Y-20051454D02*
X25840020Y-20009153D01*
X49024282Y-20430459D02*
X48996665Y-20421794D01*
X70236459Y-43020282D02*
X70257363Y-43072614D01*
X62864623Y-18200553D02*
X62913969Y-18169305D01*
X57027479Y-45409153D02*
X56987204Y-45451454D01*
X57334313Y-19268390D02*
X57330016Y-19326640D01*
X67514054Y-43354205D02*
X67558299Y-43331093D01*
X51989030Y-43254816D02*
X52010992Y-43273670D01*
X30483373Y-20401847D02*
X30432899Y-20400000D01*
X25646005Y-19718789D02*
X25622336Y-19665392D01*
X20508881Y-18957843D02*
X20518867Y-19015391D01*
X44414869Y-45565814D02*
X44368823Y-45529880D01*
X86197919Y-42990066D02*
X86204315Y-42940049D01*
X49065237Y-43372933D02*
X49112054Y-43354205D01*
X56434895Y-43435665D02*
X56491187Y-43451243D01*
X81007869Y-43835073D02*
X81046020Y-43790846D01*
X62348632Y-19384608D02*
X62341483Y-19326640D01*
X56491187Y-43451243D02*
X56546647Y-43469565D01*
X38910881Y-19442156D02*
X38898084Y-19499145D01*
X70246160Y-20753524D02*
X70227794Y-20807334D01*
X63016960Y-43514255D02*
X63070357Y-43490586D01*
X80852005Y-19718789D02*
X80828336Y-19665392D01*
X75389204Y-45451454D02*
X75346903Y-45491729D01*
X44834604Y-20364334D02*
X44778312Y-20348756D01*
X25880295Y-43748545D02*
X25922596Y-43708270D01*
X63236604Y-18035665D02*
X63293593Y-18022868D01*
X56944903Y-43708270D02*
X56987204Y-43748545D01*
X86160417Y-43109593D02*
X86178933Y-43063237D01*
X25765935Y-19918880D02*
X25732303Y-19871126D01*
X33453363Y-43072614D02*
X33466110Y-43098600D01*
X67343273Y-20408967D02*
X67287373Y-20401847D01*
X19742647Y-20330434D02*
X19687187Y-20348756D01*
X62726596Y-45491729D02*
X62684295Y-45451454D01*
X25922596Y-43708270D02*
X25966823Y-43670119D01*
X44134303Y-19871126D02*
X44103055Y-19821780D01*
X20183204Y-20051454D02*
X20140903Y-20091729D01*
X26320852Y-20330434D02*
X26266357Y-20309413D01*
X75108710Y-43540516D02*
X75159530Y-43569305D01*
X38144647Y-45730434D02*
X38089187Y-45748756D01*
X67639886Y-43271183D02*
X67675183Y-43235886D01*
X38032895Y-43435665D02*
X38089187Y-43451243D01*
X19341627Y-18000000D02*
X19400140Y-18001436D01*
X62770823Y-18270119D02*
X62816869Y-18234185D01*
X80739186Y-44668390D02*
X80737750Y-44609877D01*
X56601142Y-43490586D02*
X56654539Y-43514255D01*
X81266623Y-45599446D02*
X81218869Y-45565814D01*
X52370028Y-20400000D02*
X52323831Y-20401737D01*
X70391030Y-43254816D02*
X70412992Y-43273670D01*
X25537483Y-19073359D02*
X25544632Y-19015391D01*
X56204140Y-20398563D02*
X56145627Y-20400000D01*
X56900676Y-43670119D02*
X56944903Y-43708270D01*
X70412992Y-20526329D02*
X70370785Y-20564427D01*
X44134303Y-45271126D02*
X44103055Y-45221780D01*
X81526852Y-18069565D02*
X81582312Y-18051243D01*
X62569935Y-45318880D02*
X62536303Y-45271126D01*
X80737750Y-19190122D02*
X80739186Y-19131609D01*
X81638604Y-20364334D02*
X81582312Y-20348756D01*
X38542903Y-18308270D02*
X38585204Y-18348545D01*
X26721872Y-45800000D02*
X26663359Y-45798563D01*
X57312881Y-44842156D02*
X57300084Y-44899145D01*
X26432604Y-18035665D02*
X26489593Y-18022868D01*
X63070357Y-20309413D02*
X63016960Y-20285744D01*
X19516358Y-43412882D02*
X19573906Y-43422868D01*
X57334313Y-19131609D02*
X57335750Y-19190122D01*
X15407334Y-20421794D02*
X15379717Y-20430459D01*
X62505055Y-19821780D02*
X62476266Y-19770960D01*
X44003315Y-19610897D02*
X43984993Y-19555437D01*
X81418960Y-43514255D02*
X81472357Y-43490586D01*
X57027479Y-43790846D02*
X57065630Y-43835073D01*
X25880295Y-45451454D02*
X25840020Y-45409153D01*
X81927872Y-45800000D02*
X81869359Y-45798563D01*
X56806876Y-43600553D02*
X56854630Y-43634185D01*
X75429479Y-45409153D02*
X75389204Y-45451454D01*
X38843163Y-44134607D02*
X38864184Y-44189102D01*
X44562789Y-18140516D02*
X44614960Y-18114255D01*
X15051363Y-43072614D02*
X15064110Y-43098600D01*
X15004673Y-20890838D02*
X15001809Y-20919131D01*
X75686506Y-44244562D02*
X75702084Y-44300854D01*
X80938303Y-43928873D02*
X80971935Y-43881119D01*
X74893187Y-45748756D02*
X74836895Y-45764334D01*
X56320358Y-43412882D02*
X56377906Y-43422868D01*
X63016960Y-45685744D02*
X62964789Y-45659483D01*
X26547141Y-45787117D02*
X26489593Y-45777131D01*
X25672266Y-44029039D02*
X25701055Y-43978219D01*
X38452630Y-45565814D02*
X38404876Y-45599446D01*
X44103055Y-18578219D02*
X44134303Y-18528873D01*
X70201000Y-42824305D02*
X70201474Y-42840487D01*
X52210847Y-43378065D02*
X52238867Y-43385320D01*
X20526016Y-44473359D02*
X20530313Y-44531609D01*
X85868758Y-43373097D02*
X85892883Y-43364162D01*
X81086295Y-18348545D02*
X81128596Y-18308270D01*
X49311023Y-20652413D02*
X49277670Y-20606992D01*
X86022593Y-20544844D02*
X85978919Y-20509232D01*
X20480506Y-19555437D02*
X20462184Y-19610897D01*
X38252539Y-20285744D02*
X38199142Y-20309413D01*
X75537196Y-45271126D02*
X75503564Y-45318880D01*
X56706710Y-43540516D02*
X56757530Y-43569305D01*
X44074266Y-45170960D02*
X44048005Y-45118789D01*
X20362444Y-19821780D02*
X20331196Y-19871126D01*
X33729385Y-20451363D02*
X33703399Y-20464110D01*
X20462184Y-18789102D02*
X20480506Y-18844562D01*
X52056413Y-43307023D02*
X52080977Y-43322334D01*
X81366789Y-45659483D02*
X81315969Y-45630694D01*
X25922596Y-18308270D02*
X25966823Y-18270119D01*
X26266357Y-20309413D02*
X26212960Y-20285744D01*
X62684295Y-20051454D02*
X62644020Y-20009153D01*
X43946632Y-44415391D02*
X43956618Y-44357843D01*
X62337186Y-44668390D02*
X62335750Y-44609877D01*
X38932313Y-19268390D02*
X38928016Y-19326640D01*
X25701055Y-43978219D02*
X25732303Y-43928873D01*
X57330016Y-19073359D02*
X57334313Y-19131609D01*
X75302676Y-45529880D02*
X75256630Y-45565814D01*
X26160789Y-20259483D02*
X26109969Y-20230694D01*
X67529459Y-20477922D02*
X67479074Y-20451575D01*
X19742647Y-18069565D02*
X19797142Y-18090586D01*
X38898084Y-44300854D02*
X38910881Y-44357843D01*
X30937889Y-20701399D02*
X30909023Y-20652413D01*
X62569935Y-19918880D02*
X62536303Y-19871126D01*
X85795567Y-43392008D02*
X85820767Y-43386829D01*
X56546647Y-43469565D02*
X56601142Y-43490586D01*
X56900676Y-20129880D02*
X56854630Y-20165814D01*
X38793233Y-18629039D02*
X38819494Y-18681210D01*
X30835886Y-43271183D02*
X30871183Y-43235886D01*
X56757530Y-43569305D02*
X56806876Y-43600553D01*
X33546844Y-20585406D02*
X33510932Y-20629488D01*
X75256630Y-20165814D02*
X75208876Y-20199446D01*
X30622282Y-20430459D02*
X30594665Y-20421794D01*
X86062816Y-20585030D02*
X86022593Y-20544844D01*
X56204140Y-43401436D02*
X56262390Y-43405733D01*
X44048005Y-18681210D02*
X44074266Y-18629039D01*
X38625479Y-18390846D02*
X38663630Y-18435073D01*
X45123872Y-43400000D02*
X48894206Y-43400000D01*
X85820767Y-43386829D02*
X85868758Y-43373097D01*
X15000000Y-45814726D02*
X15000000Y-48785273D01*
X25601315Y-45010897D02*
X25582993Y-44955437D01*
X74779906Y-43422868D02*
X74836895Y-43435665D01*
X74836895Y-45764334D02*
X74779906Y-45777131D01*
X33494697Y-43147163D02*
X33528329Y-43193007D01*
X62536303Y-19871126D02*
X62505055Y-19821780D01*
X75647163Y-45065392D02*
X75623494Y-45118789D01*
X49374933Y-43063237D02*
X49382635Y-43038691D01*
X62864623Y-20199446D02*
X62816869Y-20165814D01*
X57065630Y-43835073D02*
X57101564Y-43881119D01*
X70298697Y-43147163D02*
X70332329Y-43193007D01*
X48966636Y-43395814D02*
X48992066Y-43391919D01*
X80878266Y-44029039D02*
X80907055Y-43978219D01*
X44134303Y-43928873D02*
X44167935Y-43881119D01*
X86186635Y-43038691D02*
X86197919Y-42990066D01*
X75568444Y-45221780D02*
X75537196Y-45271126D01*
X62405315Y-18789102D02*
X62426336Y-18734607D01*
X25646005Y-18681210D02*
X25672266Y-18629039D01*
X48941273Y-20408967D02*
X48885373Y-20401847D01*
X62964789Y-45659483D02*
X62913969Y-45630694D01*
X15126650Y-20606599D02*
X15108932Y-20629488D01*
X30795400Y-20526650D02*
X30772511Y-20508932D01*
X85745772Y-20409056D02*
X85717161Y-20404673D01*
X49112054Y-43354205D02*
X49156299Y-43331093D01*
X20441163Y-19665392D02*
X20417494Y-19718789D01*
X52184196Y-20430296D02*
X52131385Y-20451363D01*
X56654539Y-43514255D02*
X56706710Y-43540516D01*
X20297564Y-19918880D02*
X20261630Y-19964926D01*
X67467237Y-43372933D02*
X67514054Y-43354205D01*
X70332329Y-43193007D02*
X70351183Y-43214969D01*
X25567415Y-18900854D02*
X25582993Y-18844562D01*
X86093940Y-43216366D02*
X86123485Y-43176131D01*
X44668357Y-45709413D02*
X44614960Y-45685744D01*
X44891593Y-45777131D02*
X44834604Y-45764334D01*
X25537483Y-19326640D02*
X25533186Y-19268390D01*
X37975906Y-18022868D02*
X38032895Y-18035665D01*
X44203869Y-43835073D02*
X44242020Y-43790846D01*
X81315969Y-43569305D02*
X81366789Y-43540516D01*
X30980635Y-43038691D02*
X30991919Y-42990066D01*
X19573906Y-20377131D02*
X19516358Y-20387117D01*
X33510932Y-20629488D02*
X33479922Y-20676540D01*
X57135196Y-18528873D02*
X57166444Y-18578219D01*
X56377906Y-18022868D02*
X56434895Y-18035665D01*
X75597233Y-44029039D02*
X75623494Y-44081210D01*
X57266184Y-19610897D02*
X57245163Y-19665392D01*
X38625479Y-20009153D02*
X38585204Y-20051454D01*
X38733196Y-19871126D02*
X38699564Y-19918880D01*
X20050630Y-20165814D02*
X20002876Y-20199446D01*
X57166444Y-19821780D02*
X57135196Y-19871126D01*
X86115023Y-20652413D02*
X86081670Y-20606992D01*
X15009056Y-42937772D02*
X15021794Y-42992665D01*
X38585204Y-18348545D02*
X38625479Y-18390846D01*
X62371415Y-44899145D02*
X62358618Y-44842156D01*
X75668184Y-44189102D02*
X75686506Y-44244562D01*
X67620366Y-43287940D02*
X67639886Y-43271183D01*
X43939483Y-19326640D02*
X43935186Y-19268390D01*
X49127459Y-20477922D02*
X49077074Y-20451575D01*
X38793233Y-19770960D02*
X38764444Y-19821780D01*
X20531750Y-19209877D02*
X20530313Y-19268390D01*
X75702084Y-44899145D02*
X75686506Y-44955437D01*
X75736313Y-44668390D02*
X75732016Y-44726640D01*
X57245163Y-44134607D02*
X57266184Y-44189102D01*
X20496084Y-44899145D02*
X20480506Y-44955437D01*
X62505055Y-18578219D02*
X62536303Y-18528873D01*
X56654539Y-20285744D02*
X56601142Y-20309413D01*
X15000617Y-45806976D02*
X15000000Y-45814726D01*
X45065359Y-43401436D02*
X45123872Y-43400000D01*
X26266357Y-45709413D02*
X26212960Y-45685744D01*
X49401998Y-42894349D02*
X49401000Y-20999629D01*
X56806876Y-20199446D02*
X56757530Y-20230694D01*
X67294656Y-43400000D02*
X67344276Y-43398278D01*
X63293593Y-20377131D02*
X63236604Y-20364334D01*
X52105399Y-20464110D02*
X52056836Y-20492697D01*
X56706710Y-18140516D02*
X56757530Y-18169305D01*
X44722852Y-43469565D02*
X44778312Y-43451243D01*
X74779906Y-20377131D02*
X74722358Y-20387117D01*
X15000617Y-17993023D02*
X15003960Y-17997770D01*
X44668357Y-20309413D02*
X44614960Y-20285744D01*
X37975906Y-45777131D02*
X37918358Y-45787117D01*
X38144647Y-43469565D02*
X38199142Y-43490586D01*
X81927872Y-20400000D02*
X81869359Y-20398563D01*
X26012869Y-18234185D02*
X26060623Y-18200553D01*
X67236899Y-20400000D02*
X63525872Y-20400000D01*
X43935186Y-44668390D02*
X43933750Y-44609877D01*
X26060623Y-43600553D02*
X26109969Y-43569305D01*
X80852005Y-45118789D02*
X80828336Y-45065392D01*
X75256630Y-18234185D02*
X75302676Y-18270119D01*
X38819494Y-18681210D02*
X38843163Y-18734607D01*
X57284506Y-18844562D02*
X57300084Y-18900854D01*
X57245163Y-18734607D02*
X57266184Y-18789102D01*
X80743483Y-44726640D02*
X80739186Y-44668390D01*
X25732303Y-19871126D02*
X25701055Y-19821780D01*
X25701055Y-45221780D02*
X25672266Y-45170960D01*
X67691940Y-43216366D02*
X67721485Y-43176131D01*
X81869359Y-45798563D02*
X81811109Y-45794266D01*
X38843163Y-19665392D02*
X38819494Y-19718789D01*
X38144647Y-18069565D02*
X38199142Y-18090586D01*
X56900676Y-18270119D02*
X56944903Y-18308270D01*
X57027479Y-18390846D02*
X57065630Y-18435073D01*
X62405315Y-19610897D02*
X62386993Y-19555437D01*
X19573906Y-43422868D02*
X19630895Y-43435665D01*
X38144647Y-20330434D02*
X38089187Y-20348756D01*
X80907055Y-18578219D02*
X80938303Y-18528873D01*
X25567415Y-44899145D02*
X25554618Y-44842156D01*
X57334313Y-44668390D02*
X57330016Y-44726640D01*
X56601142Y-20309413D02*
X56546647Y-20330434D01*
X56944903Y-18308270D02*
X56987204Y-18348545D01*
X33608992Y-20526329D02*
X33587030Y-20545183D01*
X44722852Y-18069565D02*
X44778312Y-18051243D01*
X19573906Y-45777131D02*
X19516358Y-45787117D01*
X43935186Y-19131609D02*
X43939483Y-19073359D01*
X49373540Y-20779717D02*
X49352636Y-20727385D01*
X25533186Y-19268390D02*
X25531750Y-19209877D01*
X26605109Y-18005733D02*
X26663359Y-18001436D01*
X81366789Y-43540516D02*
X81418960Y-43514255D01*
X44562789Y-43540516D02*
X44614960Y-43514255D01*
X38932313Y-19131609D02*
X38933750Y-19190122D01*
X25531750Y-44609877D02*
X25533186Y-44531609D01*
X86186065Y-20806847D02*
X86167839Y-20753524D01*
X80828336Y-44134607D02*
X80852005Y-44081210D01*
X74836895Y-18035665D02*
X74893187Y-18051243D01*
X43939483Y-44726640D02*
X43935186Y-44668390D01*
X25801869Y-18435073D02*
X25840020Y-18390846D01*
X33528329Y-43193007D02*
X33547183Y-43214969D01*
X37975906Y-43422868D02*
X38032895Y-43435665D01*
X44003315Y-45010897D02*
X43984993Y-44955437D01*
X33808847Y-43378065D02*
X33836867Y-43385320D01*
X44003315Y-18789102D02*
X44024336Y-18734607D01*
X62684295Y-43748545D02*
X62726596Y-43708270D01*
X81869359Y-43401436D02*
X81927872Y-43400000D01*
X67620593Y-20544844D02*
X67576511Y-20508932D01*
X63124852Y-45730434D02*
X63070357Y-45709413D01*
X74948647Y-45730434D02*
X74893187Y-45748756D01*
X38089187Y-45748756D02*
X38032895Y-45764334D01*
X31000001Y-42894449D02*
X31001004Y-20933285D01*
X15003960Y-17997770D02*
X15007922Y-17999643D01*
X15490838Y-43395326D02*
X15519131Y-43398190D01*
X20480506Y-44244562D02*
X20496084Y-44300854D01*
X38910881Y-44842156D02*
X38898084Y-44899145D01*
X19850539Y-45685744D02*
X19797142Y-45709413D01*
X20391233Y-19770960D02*
X20362444Y-19821780D01*
X38542903Y-20091729D02*
X38498676Y-20129880D01*
X70696335Y-20404737D02*
X70640867Y-20414679D01*
X37918358Y-43412882D02*
X37975906Y-43422868D01*
X51896697Y-43147163D02*
X51930329Y-43193007D01*
X75429479Y-18390846D02*
X75467630Y-18435073D01*
X62450005Y-44081210D02*
X62476266Y-44029039D01*
X20417494Y-45118789D02*
X20391233Y-45170960D01*
X81526852Y-43469565D02*
X81582312Y-43451243D01*
X81472357Y-20309413D02*
X81418960Y-20285744D01*
X62816869Y-18234185D02*
X62864623Y-18200553D01*
X15301399Y-20464110D02*
X15252836Y-20492697D01*
X20002876Y-18200553D02*
X20050630Y-18234185D01*
X75467630Y-43835073D02*
X75503564Y-43881119D01*
X20140903Y-20091729D02*
X20096676Y-20129880D01*
X56262390Y-43405733D02*
X56320358Y-43412882D01*
X44834604Y-43435665D02*
X44891593Y-43422868D01*
X75537196Y-43928873D02*
X75568444Y-43978219D01*
X15145183Y-43214969D02*
X15185030Y-43254816D01*
X38928016Y-19326640D02*
X38920867Y-19384608D01*
X30776131Y-43317485D02*
X30816366Y-43287940D01*
X75597233Y-45170960D02*
X75568444Y-45221780D01*
X81753141Y-43412882D02*
X81811109Y-43405733D01*
X38542903Y-43708270D02*
X38585204Y-43748545D01*
X80750632Y-19015391D02*
X80760618Y-18957843D01*
X25601315Y-18789102D02*
X25622336Y-18734607D01*
X19341627Y-45800000D02*
X15014726Y-45800000D01*
X19902710Y-45659483D02*
X19850539Y-45685744D01*
X86205993Y-42894149D02*
X86201000Y-36899127D01*
X74893187Y-18051243D02*
X74948647Y-18069565D01*
X62426336Y-19665392D02*
X62405315Y-19610897D01*
X25801869Y-45364926D02*
X25765935Y-45318880D01*
X31001004Y-20933285D02*
X30997262Y-20890335D01*
X63467359Y-43401436D02*
X63525872Y-43400000D01*
X81753141Y-20387117D02*
X81695593Y-20377131D01*
X20140903Y-45491729D02*
X20096676Y-45529880D01*
X57195233Y-45170960D02*
X57166444Y-45221780D01*
X75668184Y-18789102D02*
X75686506Y-18844562D01*
X44949141Y-45787117D02*
X44891593Y-45777131D01*
X37743627Y-43400000D02*
X37802140Y-43401436D01*
X80788993Y-18844562D02*
X80807315Y-18789102D01*
X38452630Y-18234185D02*
X38498676Y-18270119D01*
X80807315Y-19610897D02*
X80788993Y-19555437D01*
X75503564Y-18481119D02*
X75537196Y-18528873D01*
X62864623Y-43600553D02*
X62913969Y-43569305D01*
X43935186Y-44531609D02*
X43939483Y-44473359D01*
X33971100Y-43400000D02*
X37743627Y-43400000D01*
X67801000Y-36900299D02*
X67801000Y-21030331D01*
X38498676Y-45529880D02*
X38452630Y-45565814D01*
X33401000Y-42820862D02*
X33403726Y-42880147D01*
X67344276Y-43398278D02*
X67368636Y-43395814D01*
X75159530Y-18169305D02*
X75208876Y-18200553D01*
X38585204Y-20051454D02*
X38542903Y-20091729D01*
X26212960Y-45685744D02*
X26160789Y-45659483D01*
X37860390Y-43405733D02*
X37918358Y-43412882D01*
X26605109Y-45794266D02*
X26547141Y-45787117D01*
X38089187Y-20348756D02*
X38032895Y-20364334D01*
X75732016Y-44726640D02*
X75724867Y-44784608D01*
X75256630Y-43634185D02*
X75302676Y-43670119D01*
X38625479Y-45409153D02*
X38585204Y-45451454D01*
X25672266Y-18629039D02*
X25701055Y-18578219D01*
X57135196Y-19871126D02*
X57101564Y-19918880D01*
X38032895Y-45764334D02*
X37975906Y-45777131D01*
X33755524Y-43359839D02*
X33808847Y-43378065D01*
X15005617Y-15001181D02*
X15001937Y-15004355D01*
X44003315Y-44189102D02*
X44024336Y-44134607D01*
X26432604Y-45764334D02*
X26376312Y-45748756D01*
X56757530Y-20230694D02*
X56706710Y-20259483D01*
X20362444Y-18578219D02*
X20391233Y-18629039D01*
X38933750Y-19190122D02*
X38932313Y-19268390D01*
X51813056Y-42937772D02*
X51825794Y-42992665D01*
X62348632Y-19015391D02*
X62358618Y-18957843D01*
X49156299Y-43331093D02*
X49178131Y-43317485D01*
X62964789Y-18140516D02*
X63016960Y-18114255D01*
X38764444Y-45221780D02*
X38733196Y-45271126D01*
X30997262Y-20890335D02*
X30987206Y-20834374D01*
X75736313Y-44531609D02*
X75737750Y-44590122D01*
X15276977Y-43322334D02*
X15326925Y-43348424D01*
X25966823Y-20129880D02*
X25922596Y-20091729D01*
X56204140Y-45798563D02*
X56145627Y-45800000D01*
X49339889Y-20701399D02*
X49311023Y-20652413D01*
X44722852Y-45730434D02*
X44668357Y-45709413D01*
X57330016Y-44726640D02*
X57322867Y-44784608D01*
X33728925Y-43348424D02*
X33755524Y-43359839D01*
X52157524Y-43359839D02*
X52210847Y-43378065D01*
X48992066Y-43391919D02*
X49040691Y-43380635D01*
X57266184Y-45010897D02*
X57245163Y-45065392D01*
X70350844Y-20585406D02*
X70315232Y-20629080D01*
X26160789Y-43540516D02*
X26212960Y-43514255D01*
X25732303Y-43928873D02*
X25765935Y-43881119D01*
X75003142Y-45709413D02*
X74948647Y-45730434D01*
X70227794Y-20807334D02*
X70215056Y-20862227D01*
X26060623Y-20199446D02*
X26012869Y-20165814D01*
X62816869Y-43634185D02*
X62864623Y-43600553D01*
X57312881Y-18957843D02*
X57322867Y-19015391D01*
X51930329Y-43193007D02*
X51949183Y-43214969D01*
X26376312Y-45748756D02*
X26320852Y-45730434D01*
X80788993Y-19555437D02*
X80773415Y-19499145D01*
X38498676Y-18270119D02*
X38542903Y-18308270D01*
X25622336Y-44134607D02*
X25646005Y-44081210D01*
X75736313Y-19131609D02*
X75737750Y-19190122D01*
X56377906Y-20377131D02*
X56320358Y-20387117D01*
X25966823Y-18270119D02*
X26012869Y-18234185D01*
X25544632Y-19384608D02*
X25537483Y-19326640D01*
X80773415Y-18900854D02*
X80788993Y-18844562D01*
X81046020Y-18390846D02*
X81086295Y-18348545D01*
X33453575Y-20726925D02*
X33442160Y-20753524D01*
X26547141Y-43412882D02*
X26605109Y-43405733D01*
X75668184Y-45010897D02*
X75647163Y-45065392D01*
X70315232Y-20629080D02*
X70283922Y-20676540D01*
X56434895Y-20364334D02*
X56377906Y-20377131D01*
X38199142Y-18090586D02*
X38252539Y-18114255D01*
X30954417Y-43109593D02*
X30972933Y-43063237D01*
X30875670Y-20606992D02*
X30837572Y-20564785D01*
X62684295Y-45451454D02*
X62644020Y-45409153D01*
X86211000Y-45814726D02*
X86210382Y-45806976D01*
X43956618Y-18957843D02*
X43969415Y-18900854D01*
X15490838Y-20404673D02*
X15462227Y-20409056D01*
X80760618Y-18957843D02*
X80773415Y-18900854D01*
X62726596Y-20091729D02*
X62684295Y-20051454D01*
X38699564Y-19918880D02*
X38663630Y-19964926D01*
X20261630Y-45364926D02*
X20223479Y-45409153D01*
X20002876Y-43600553D02*
X20050630Y-43634185D01*
X15206992Y-43273670D02*
X15252413Y-43307023D01*
X19953530Y-43569305D02*
X20002876Y-43600553D01*
X67675183Y-43235886D02*
X67691940Y-43216366D01*
X33892335Y-20404737D02*
X33836867Y-20414679D01*
X15569100Y-43400000D02*
X19341627Y-43400000D01*
X67580131Y-43317485D02*
X67620366Y-43287940D01*
X63351141Y-43412882D02*
X63409109Y-43405733D01*
X20050630Y-43634185D02*
X20096676Y-43670119D01*
X80760618Y-19442156D02*
X80750632Y-19384608D01*
X49178131Y-43317485D02*
X49218366Y-43287940D01*
X44668357Y-43490586D02*
X44722852Y-43469565D01*
X70370785Y-20564427D02*
X70350844Y-20585406D01*
X67287373Y-20401847D02*
X67236899Y-20400000D01*
X38864184Y-45010897D02*
X38843163Y-45065392D01*
X44024336Y-19665392D02*
X44003315Y-19610897D01*
X20530313Y-19131609D02*
X20531750Y-19209877D01*
X25554618Y-44357843D02*
X25567415Y-44300854D01*
X15126329Y-43193007D02*
X15145183Y-43214969D01*
X19458390Y-43405733D02*
X19516358Y-43412882D01*
X26320852Y-18069565D02*
X26376312Y-18051243D01*
X25582993Y-19555437D02*
X25567415Y-19499145D01*
X44103055Y-19821780D02*
X44074266Y-19770960D01*
X19797142Y-43490586D02*
X19850539Y-43514255D01*
X30663237Y-43372933D02*
X30710054Y-43354205D01*
X75056539Y-45685744D02*
X75003142Y-45709413D01*
X57266184Y-44189102D02*
X57284506Y-44244562D01*
X74664390Y-43405733D02*
X74722358Y-43412882D01*
X75467630Y-45364926D02*
X75429479Y-45409153D01*
X19630895Y-45764334D02*
X19573906Y-45777131D01*
X44949141Y-20387117D02*
X44891593Y-20377131D01*
X44167935Y-43881119D02*
X44203869Y-43835073D01*
X75568444Y-43978219D02*
X75597233Y-44029039D01*
X20331196Y-19871126D02*
X20297564Y-19918880D01*
X19953530Y-20230694D02*
X19902710Y-20259483D01*
X70257363Y-43072614D02*
X70270110Y-43098600D01*
X30638691Y-43380635D02*
X30663237Y-43372933D01*
X80828336Y-19665392D02*
X80807315Y-19610897D01*
X57312881Y-19442156D02*
X57300084Y-19499145D01*
X62426336Y-45065392D02*
X62405315Y-45010897D01*
X80878266Y-45170960D02*
X80852005Y-45118789D01*
X75056539Y-20285744D02*
X75003142Y-20309413D01*
X51881922Y-20676540D02*
X51855575Y-20726925D01*
X26489593Y-20377131D02*
X26432604Y-20364334D01*
X80788993Y-44955437D02*
X80773415Y-44899145D01*
X63467359Y-45798563D02*
X63409109Y-45794266D01*
X62536303Y-45271126D02*
X62505055Y-45221780D01*
X43956618Y-44842156D02*
X43946632Y-44784608D01*
X74836895Y-43435665D02*
X74893187Y-43451243D01*
X38304710Y-18140516D02*
X38355530Y-18169305D01*
X86211000Y-17985273D02*
X86211000Y-15014726D01*
X38898084Y-19499145D02*
X38882506Y-19555437D01*
X44242020Y-45409153D02*
X44203869Y-45364926D01*
X19400140Y-43401436D02*
X19458390Y-43405733D01*
X38625479Y-43790846D02*
X38663630Y-43835073D01*
X49319485Y-43176131D02*
X49345087Y-43132691D01*
X15379717Y-20430459D02*
X15327385Y-20451363D01*
X38932313Y-44668390D02*
X38928016Y-44726640D01*
X67368636Y-43395814D02*
X67394066Y-43391919D01*
X15229080Y-20509232D02*
X15185406Y-20544844D01*
X37743627Y-18000000D02*
X37802140Y-18001436D01*
X75647163Y-19665392D02*
X75623494Y-19718789D01*
X62341483Y-19073359D02*
X62348632Y-19015391D01*
X19573906Y-18022868D02*
X19630895Y-18035665D01*
X15519201Y-20401802D02*
X15490838Y-20404673D01*
X33836867Y-20414679D02*
X33782196Y-20430296D01*
X81811109Y-43405733D02*
X81869359Y-43401436D01*
X52238867Y-43385320D02*
X52294335Y-43395262D01*
X81266623Y-18200553D02*
X81315969Y-18169305D01*
X56944903Y-20091729D02*
X56900676Y-20129880D01*
X70270110Y-43098600D02*
X70298697Y-43147163D01*
X38733196Y-45271126D02*
X38699564Y-45318880D01*
X80743483Y-19326640D02*
X80739186Y-19268390D01*
X15568736Y-20400000D02*
X15519201Y-20401802D01*
X85880614Y-20451363D02*
X85828282Y-20430459D01*
X56377906Y-43422868D02*
X56434895Y-43435665D01*
X19458390Y-18005733D02*
X19516358Y-18012882D01*
X62770823Y-43670119D02*
X62816869Y-43634185D01*
X45123872Y-20400000D02*
X45065359Y-20398563D01*
X67758417Y-43109593D02*
X67776933Y-43063237D01*
X43969415Y-44300854D02*
X43984993Y-44244562D01*
X81046020Y-45409153D02*
X81007869Y-45364926D01*
X62358618Y-44842156D02*
X62348632Y-44784608D01*
X20417494Y-18681210D02*
X20441163Y-18734607D01*
X62386993Y-44955437D02*
X62371415Y-44899145D01*
X57101564Y-45318880D02*
X57065630Y-45364926D01*
X63236604Y-43435665D02*
X63293593Y-43422868D01*
X70482977Y-43322334D02*
X70532925Y-43348424D01*
X67801262Y-20890335D02*
X67791206Y-20834374D01*
X25622336Y-19665392D02*
X25601315Y-19610897D01*
X33403726Y-42880147D02*
X33411056Y-42937772D01*
X25554618Y-18957843D02*
X25567415Y-18900854D01*
X38498676Y-43670119D02*
X38542903Y-43708270D01*
X81472357Y-18090586D02*
X81526852Y-18069565D01*
X43946632Y-19384608D02*
X43939483Y-19326640D01*
X26376312Y-18051243D02*
X26432604Y-18035665D01*
X25646005Y-45118789D02*
X25622336Y-45065392D01*
X20140903Y-43708270D02*
X20183204Y-43748545D01*
X81582312Y-18051243D02*
X81638604Y-18035665D01*
X57245163Y-45065392D02*
X57221494Y-45118789D01*
X80739186Y-19268390D02*
X80737750Y-19190122D01*
X80760618Y-44842156D02*
X80750632Y-44784608D01*
X56491187Y-18051243D02*
X56546647Y-18069565D01*
X25765935Y-43881119D02*
X25801869Y-43835073D01*
X19400140Y-18001436D02*
X19458390Y-18005733D01*
X81007869Y-18435073D02*
X81046020Y-18390846D01*
X38882506Y-18844562D02*
X38898084Y-18900854D01*
X15001809Y-20919131D02*
X15000000Y-20969119D01*
X33782196Y-20430296D02*
X33729385Y-20451363D01*
X56145627Y-20400000D02*
X52370028Y-20400000D01*
X63180312Y-20348756D02*
X63124852Y-20330434D01*
X20096676Y-20129880D02*
X20050630Y-20165814D01*
X70533385Y-20451363D02*
X70507399Y-20464110D01*
X33432459Y-43020282D02*
X33453363Y-43072614D01*
X25622336Y-18734607D02*
X25646005Y-18681210D01*
X26320852Y-43469565D02*
X26376312Y-43451243D01*
X30493689Y-43400000D02*
X30539709Y-43398336D01*
X80773415Y-19499145D02*
X80760618Y-19442156D01*
X44048005Y-19718789D02*
X44024336Y-19665392D01*
X30871183Y-43235886D02*
X30887940Y-43216366D01*
X81526852Y-45730434D02*
X81472357Y-45709413D01*
X38733196Y-43928873D02*
X38764444Y-43978219D01*
X43984993Y-18844562D02*
X44003315Y-18789102D01*
X44462623Y-45599446D02*
X44414869Y-45565814D01*
X62476266Y-18629039D02*
X62505055Y-18578219D01*
X75537196Y-19871126D02*
X75503564Y-19918880D01*
X44368823Y-43670119D02*
X44414869Y-43634185D01*
X81695593Y-43422868D02*
X81753141Y-43412882D01*
X20441163Y-45065392D02*
X20417494Y-45118789D01*
X15519131Y-43398190D02*
X15569100Y-43400000D01*
X44778312Y-43451243D02*
X44834604Y-43435665D01*
X57334313Y-44531609D02*
X57335750Y-44590122D01*
X38819494Y-19718789D02*
X38793233Y-19770960D01*
X15407334Y-43378205D02*
X15462227Y-43390943D01*
X80807315Y-44189102D02*
X80828336Y-44134607D01*
X19850539Y-43514255D02*
X19902710Y-43540516D01*
X43969415Y-44899145D02*
X43956618Y-44842156D01*
X25922596Y-45491729D02*
X25880295Y-45451454D01*
X38910881Y-18957843D02*
X38920867Y-19015391D01*
X44203869Y-45364926D02*
X44167935Y-45318880D01*
X67558299Y-43331093D02*
X67580131Y-43317485D01*
X38585204Y-45451454D02*
X38542903Y-45491729D01*
X37802140Y-43401436D02*
X37860390Y-43405733D01*
X44024336Y-45065392D02*
X44003315Y-45010897D01*
X49400315Y-42940049D02*
X49401998Y-42894349D01*
X63293593Y-43422868D02*
X63351141Y-43412882D01*
X20496084Y-44300854D02*
X20508881Y-44357843D01*
X63016960Y-20285744D02*
X62964789Y-20259483D01*
X62505055Y-43978219D02*
X62536303Y-43928873D01*
X75003142Y-43490586D02*
X75056539Y-43514255D01*
X62569935Y-43881119D02*
X62605869Y-43835073D01*
X80773415Y-44300854D02*
X80788993Y-44244562D01*
X86204939Y-48799028D02*
X86209818Y-48794382D01*
X20002876Y-45599446D02*
X19953530Y-45630694D01*
X33587030Y-43254816D02*
X33608992Y-43273670D01*
X20391233Y-44029039D02*
X20417494Y-44081210D01*
X62536303Y-18528873D02*
X62569935Y-18481119D01*
X63016960Y-18114255D02*
X63070357Y-18090586D01*
X81695593Y-20377131D02*
X81638604Y-20364334D01*
X15000855Y-42853983D02*
X15001748Y-42880400D01*
X81172823Y-43670119D02*
X81218869Y-43634185D01*
X25672266Y-19770960D02*
X25646005Y-19718789D01*
X63236604Y-20364334D02*
X63180312Y-20348756D01*
X52373100Y-43400000D02*
X56145627Y-43400000D01*
X86077183Y-43235886D02*
X86093940Y-43216366D01*
X86178933Y-43063237D02*
X86186635Y-43038691D01*
X19516358Y-45787117D02*
X19458390Y-45794266D01*
X15009867Y-15000116D02*
X15005617Y-15001181D01*
X63409109Y-43405733D02*
X63467359Y-43401436D01*
X51855575Y-20726925D02*
X51844160Y-20753524D01*
X26060623Y-18200553D02*
X26109969Y-18169305D01*
X57135196Y-43928873D02*
X57166444Y-43978219D01*
X75702084Y-44300854D02*
X75714881Y-44357843D01*
X19742647Y-45730434D02*
X19687187Y-45748756D01*
X20496084Y-18900854D02*
X20508881Y-18957843D01*
X25554618Y-19442156D02*
X25544632Y-19384608D01*
X20223479Y-45409153D02*
X20183204Y-45451454D01*
X33547183Y-43214969D02*
X33587030Y-43254816D01*
X80750632Y-44415391D02*
X80760618Y-44357843D01*
X81472357Y-43490586D02*
X81526852Y-43469565D01*
X20050630Y-45565814D02*
X20002876Y-45599446D01*
X70725131Y-43398190D02*
X70775100Y-43400000D01*
X63525872Y-18000000D02*
X74547627Y-18000000D01*
X56854630Y-45565814D02*
X56806876Y-45599446D01*
X38819494Y-45118789D02*
X38793233Y-45170960D01*
X26012869Y-20165814D02*
X25966823Y-20129880D01*
X26212960Y-20285744D02*
X26160789Y-20259483D01*
X86210382Y-45806976D02*
X86207039Y-45802229D01*
X20462184Y-44189102D02*
X20480506Y-44244562D01*
X20462184Y-19610897D02*
X20441163Y-19665392D01*
X75686506Y-18844562D02*
X75702084Y-18900854D01*
X44103055Y-43978219D02*
X44134303Y-43928873D01*
X75389204Y-20051454D02*
X75346903Y-20091729D01*
X20261630Y-43835073D02*
X20297564Y-43881119D01*
X37802140Y-20398563D02*
X37743627Y-20400000D01*
X19630895Y-18035665D02*
X19687187Y-18051243D01*
X38199142Y-45709413D02*
X38144647Y-45730434D01*
X20391233Y-18629039D02*
X20417494Y-18681210D01*
X56204140Y-18001436D02*
X56262390Y-18005733D01*
X56262390Y-45794266D02*
X56204140Y-45798563D01*
X44562789Y-45659483D02*
X44511969Y-45630694D01*
X86203077Y-17999643D02*
X86207039Y-17997770D01*
X62726596Y-18308270D02*
X62770823Y-18270119D01*
X30432899Y-20400000D02*
X26721872Y-20400000D01*
X85978919Y-20509232D02*
X85955163Y-20492697D01*
X63525872Y-20400000D02*
X63467359Y-20398563D01*
X75208876Y-43600553D02*
X75256630Y-43634185D01*
X75724867Y-44415391D02*
X75732016Y-44473359D01*
X49382635Y-43038691D02*
X49393919Y-42990066D01*
X67442691Y-43380635D02*
X67467237Y-43372933D01*
X86123485Y-43176131D02*
X86137093Y-43154299D01*
X38663630Y-19964926D02*
X38625479Y-20009153D01*
X56854630Y-20165814D02*
X56806876Y-20199446D01*
X20526016Y-19326640D02*
X20518867Y-19384608D01*
X81811109Y-20394266D02*
X81753141Y-20387117D01*
X25765935Y-45318880D02*
X25732303Y-45271126D01*
X85892883Y-43364162D02*
X85938241Y-43343321D01*
X20480506Y-18844562D02*
X20496084Y-18900854D01*
X38404876Y-45599446D02*
X38355530Y-45630694D01*
X56757530Y-18169305D02*
X56806876Y-18200553D01*
X63124852Y-18069565D02*
X63180312Y-18051243D01*
X70532925Y-43348424D02*
X70559524Y-43359839D01*
X38864184Y-19610897D02*
X38843163Y-19665392D01*
X62348632Y-44784608D02*
X62341483Y-44726640D01*
X62644020Y-45409153D02*
X62605869Y-45364926D01*
X52130925Y-43348424D02*
X52157524Y-43359839D01*
X15063876Y-20701848D02*
X15040348Y-20753053D01*
X56706710Y-45659483D02*
X56654539Y-45685744D01*
X15185030Y-43254816D02*
X15206992Y-43273670D01*
X75346903Y-20091729D02*
X75302676Y-20129880D01*
X15000000Y-48785273D02*
X15000971Y-48793939D01*
X52010992Y-20526329D02*
X51968785Y-20564427D01*
X57284506Y-44244562D02*
X57300084Y-44300854D01*
X81927872Y-43400000D02*
X85702373Y-43400000D01*
X70586196Y-20430296D02*
X70533385Y-20451363D01*
X20530313Y-19268390D02*
X20526016Y-19326640D01*
X63467359Y-18001436D02*
X63525872Y-18000000D01*
X15021794Y-42992665D02*
X15030459Y-43020282D01*
X33423794Y-42992665D02*
X33432459Y-43020282D01*
X81086295Y-45451454D02*
X81046020Y-45409153D01*
X15007922Y-17999643D02*
X15014726Y-18000000D01*
X44511969Y-45630694D02*
X44462623Y-45599446D01*
X75503564Y-45318880D02*
X75467630Y-45364926D01*
X56601142Y-18090586D02*
X56654539Y-18114255D01*
X56654539Y-45685744D02*
X56601142Y-45709413D01*
M02*
