M48
; DRILL file {KiCad (6.0.6)} date Tue Aug 23 10:26:55 2022
; FORMAT={-:-/ absolute / metric / decimal}
; #@! TF.CreationDate,2022-08-23T10:26:55-07:00
; #@! TF.GenerationSoftware,Kicad,Pcbnew,(6.0.6)
; #@! TF.FileFunction,Plated,1,4,PTH
FMAT,2
METRIC
; #@! TA.AperFunction,Plated,PTH,ViaDrill
T1C0.254
; #@! TA.AperFunction,Plated,PTH,ComponentDrill
T2C0.800
%
G90
G05
T1
X17.04Y-40.96
X17.851Y-31.352
X18.583Y-36.526
X18.965Y-38.21
X19.097Y-27.474
X19.318Y-21.852
X19.318Y-23.884
X19.318Y-25.916
X19.48Y-32.08
X19.63Y-29.429
X19.67Y-36.581
X20.04Y-31.57
X20.113Y-28.456
X20.2Y-30.21
X20.452Y-34.858
X20.547Y-31.066
X20.81Y-29.091
X20.82Y-36.529
X20.94Y-42.335
X21.112Y-33.109
X21.681Y-28.544
X21.8Y-36.34
X21.831Y-32.39
X21.831Y-33.827
X21.93Y-26.17
X22.04Y-29.75
X22.466Y-27.959
X22.549Y-31.672
X22.549Y-33.109
X22.549Y-34.546
X22.64Y-35.96
X22.76Y-29.89
X23.089Y-27.331
X23.268Y-32.39
X23.268Y-33.827
X23.986Y-33.109
X24.239Y-35.505
X25.3Y-34.38
X25.446Y-31.758
X26.144Y-29.091
X26.33Y-35.3
X26.94Y-31.76
X27.34Y-31.16
X27.64Y-42.335
X27.82Y-34.61
X27.94Y-32.76
X28.54Y-36.8
X29.515Y-38.16
X35.442Y-40.96
X36.253Y-31.352
X36.985Y-36.526
X37.367Y-38.21
X37.499Y-27.474
X37.72Y-21.852
X37.72Y-23.884
X37.72Y-25.916
X37.882Y-32.08
X38.032Y-29.429
X38.072Y-36.581
X38.442Y-31.57
X38.515Y-28.456
X38.602Y-30.21
X38.854Y-34.858
X38.949Y-31.066
X39.212Y-29.091
X39.222Y-36.529
X39.342Y-42.335
X39.514Y-33.109
X40.083Y-28.544
X40.202Y-36.34
X40.233Y-32.39
X40.233Y-33.827
X40.332Y-26.17
X40.442Y-29.75
X40.868Y-27.959
X40.951Y-31.672
X40.951Y-33.109
X40.951Y-34.546
X41.042Y-35.96
X41.162Y-29.89
X41.491Y-27.331
X41.67Y-32.39
X41.67Y-33.827
X42.388Y-33.109
X42.641Y-35.505
X43.702Y-34.38
X43.848Y-31.758
X44.546Y-29.091
X44.732Y-35.3
X45.342Y-31.76
X45.742Y-31.16
X46.042Y-42.335
X46.222Y-34.61
X46.342Y-32.76
X46.942Y-36.8
X47.917Y-38.16
X53.844Y-40.96
X54.655Y-31.352
X55.387Y-36.526
X55.769Y-38.21
X55.901Y-27.474
X56.122Y-21.852
X56.122Y-23.884
X56.122Y-25.916
X56.284Y-32.08
X56.434Y-29.429
X56.474Y-36.581
X56.844Y-31.57
X56.917Y-28.456
X57.004Y-30.21
X57.256Y-34.858
X57.351Y-31.066
X57.614Y-29.091
X57.624Y-36.529
X57.744Y-42.335
X57.916Y-33.109
X58.485Y-28.544
X58.604Y-36.34
X58.635Y-32.39
X58.635Y-33.827
X58.734Y-26.17
X58.844Y-29.75
X59.27Y-27.959
X59.353Y-31.672
X59.353Y-33.109
X59.353Y-34.546
X59.444Y-35.96
X59.564Y-29.89
X59.893Y-27.331
X60.072Y-32.39
X60.072Y-33.827
X60.79Y-33.109
X61.043Y-35.505
X62.104Y-34.38
X62.25Y-31.758
X62.948Y-29.091
X63.134Y-35.3
X63.744Y-31.76
X64.144Y-31.16
X64.444Y-42.335
X64.624Y-34.61
X64.744Y-32.76
X65.344Y-36.8
X66.319Y-38.16
X72.246Y-40.96
X73.057Y-31.352
X73.789Y-36.526
X74.171Y-38.21
X74.303Y-27.474
X74.524Y-21.852
X74.524Y-23.884
X74.524Y-25.916
X74.686Y-32.08
X74.837Y-29.429
X74.876Y-36.581
X75.246Y-31.57
X75.319Y-28.456
X75.406Y-30.21
X75.658Y-34.858
X75.753Y-31.066
X76.016Y-29.091
X76.026Y-36.529
X76.146Y-42.335
X76.318Y-33.109
X76.887Y-28.544
X77.006Y-36.34
X77.037Y-32.39
X77.037Y-33.827
X77.136Y-26.17
X77.246Y-29.75
X77.672Y-27.959
X77.755Y-31.672
X77.755Y-33.109
X77.755Y-34.546
X77.846Y-35.96
X77.966Y-29.89
X78.295Y-27.331
X78.474Y-32.39
X78.474Y-33.827
X79.192Y-33.109
X79.445Y-35.505
X80.506Y-34.38
X80.652Y-31.758
X81.35Y-29.091
X81.536Y-35.3
X82.146Y-31.76
X82.546Y-31.16
X82.846Y-42.335
X83.026Y-34.61
X83.146Y-32.76
X83.746Y-36.8
X84.721Y-38.16
T2
X14.987Y-21.901
X14.987Y-23.901
X14.987Y-25.901
X14.987Y-27.901
X14.987Y-29.901
X14.987Y-31.901
X14.987Y-33.901
X14.987Y-35.901
X16.187Y-21.901
X16.187Y-23.901
X16.187Y-25.901
X16.187Y-27.901
X16.187Y-29.901
X16.187Y-31.901
X16.187Y-33.901
X16.187Y-35.901
X29.815Y-21.901
X29.815Y-23.901
X29.815Y-25.901
X29.815Y-27.901
X29.815Y-29.901
X29.815Y-31.901
X29.815Y-33.901
X29.815Y-35.901
X31.015Y-21.901
X31.015Y-23.901
X31.015Y-25.901
X31.015Y-27.901
X31.015Y-29.901
X31.015Y-31.901
X31.015Y-33.901
X31.015Y-35.901
X33.389Y-21.901
X33.389Y-23.901
X33.389Y-25.901
X33.389Y-27.901
X33.389Y-29.901
X33.389Y-31.901
X33.389Y-33.901
X33.389Y-35.901
X34.589Y-21.901
X34.589Y-23.901
X34.589Y-25.901
X34.589Y-27.901
X34.589Y-29.901
X34.589Y-31.901
X34.589Y-33.901
X34.589Y-35.901
X48.217Y-21.901
X48.217Y-23.901
X48.217Y-25.901
X48.217Y-27.901
X48.217Y-29.901
X48.217Y-31.901
X48.217Y-33.901
X48.217Y-35.901
X49.417Y-21.901
X49.417Y-23.901
X49.417Y-25.901
X49.417Y-27.901
X49.417Y-29.901
X49.417Y-31.901
X49.417Y-33.901
X49.417Y-35.901
X51.791Y-21.901
X51.791Y-23.901
X51.791Y-25.901
X51.791Y-27.901
X51.791Y-29.901
X51.791Y-31.901
X51.791Y-33.901
X51.791Y-35.901
X52.991Y-21.901
X52.991Y-23.901
X52.991Y-25.901
X52.991Y-27.901
X52.991Y-29.901
X52.991Y-31.901
X52.991Y-33.901
X52.991Y-35.901
X66.619Y-21.901
X66.619Y-23.901
X66.619Y-25.901
X66.619Y-27.901
X66.619Y-29.901
X66.619Y-31.901
X66.619Y-33.901
X66.619Y-35.901
X67.819Y-21.901
X67.819Y-23.901
X67.819Y-25.901
X67.819Y-27.901
X67.819Y-29.901
X67.819Y-31.901
X67.819Y-33.901
X67.819Y-35.901
X70.193Y-21.901
X70.193Y-23.901
X70.193Y-25.901
X70.193Y-27.901
X70.193Y-29.901
X70.193Y-31.901
X70.193Y-33.901
X70.193Y-35.901
X71.393Y-21.901
X71.393Y-23.901
X71.393Y-25.901
X71.393Y-27.901
X71.393Y-29.901
X71.393Y-31.901
X71.393Y-33.901
X71.393Y-35.901
X85.021Y-21.901
X85.021Y-23.901
X85.021Y-25.901
X85.021Y-27.901
X85.021Y-29.901
X85.021Y-31.901
X85.021Y-33.901
X85.021Y-35.901
X86.221Y-21.901
X86.221Y-23.901
X86.221Y-25.901
X86.221Y-27.901
X86.221Y-29.901
X86.221Y-31.901
X86.221Y-33.901
X86.221Y-35.901
T0
M30
